%TF.GenerationSoftware,KiCad,Pcbnew,10.0.6*%
%TF.CreationDate,2026-09-21T00:10:13+05:30*%
%TF.ProjectId,Device1,44657669-6365-4312-9e6b-696361645f70,rev?*%
%TF.SameCoordinates,Original*%
%TF.FileFunction,Legend,Top*%
%TF.FilePolarity,Positive*%
%FSLAX46Y46*%
G04 Gerber Fmt 4.6, Leading zero omitted, Abs format (unit mm)*
G04 Created by KiCad (PCBNEW 10.0.6) date 2026-09-21 00:10:13*
%MOMM*%
%LPD*%
G01*
G04 APERTURE LIST*
%ADD10C,0.120000*%
%ADD11C,0.100000*%
%ADD12C,0.160000*%
G04 APERTURE END LIST*
%TO.C,C2*%
D10*
X13092164Y-7140000D02*
X13307836Y-7140000D01*
X13092164Y-7860000D02*
X13307836Y-7860000D01*
%TO.C,D2*%
D11*
X11900000Y-27700000D02*
X12250000Y-27700000D01*
X11900000Y-28100000D02*
X11900000Y-27700000D01*
X11900000Y-29300000D02*
X11900000Y-28500000D01*
X14100000Y-27700000D02*
X13000000Y-27700000D01*
X14100000Y-27700000D02*
X14100000Y-29300000D01*
X14100000Y-29300000D02*
X11900000Y-29300000D01*
%TO.C,C13*%
D10*
X3907836Y-6440000D02*
X3692164Y-6440000D01*
X3907836Y-7160000D02*
X3692164Y-7160000D01*
%TO.C,C11*%
X8140000Y-7607836D02*
X8140000Y-7392164D01*
X8860000Y-7607836D02*
X8860000Y-7392164D01*
%TO.C,R6*%
X10346359Y-27120000D02*
X10653641Y-27120000D01*
X10346359Y-27880000D02*
X10653641Y-27880000D01*
%TO.C,ANT1*%
X5200000Y-850000D02*
X9800000Y-850000D01*
X5200000Y-3150000D02*
X9800000Y-3150000D01*
D12*
X3580000Y-1500000D02*
G75*
G02*
X3420000Y-1500000I-80000J0D01*
G01*
X3420000Y-1500000D02*
G75*
G02*
X3580000Y-1500000I80000J0D01*
G01*
%TO.C,R1*%
D10*
X7746359Y-3820000D02*
X8053641Y-3820000D01*
X7746359Y-4580000D02*
X8053641Y-4580000D01*
%TO.C,C16*%
X1692164Y-28140000D02*
X1907836Y-28140000D01*
X1692164Y-28860000D02*
X1907836Y-28860000D01*
%TO.C,C17*%
X12092164Y-17440000D02*
X12307836Y-17440000D01*
X12092164Y-18160000D02*
X12307836Y-18160000D01*
%TO.C,R_ANT*%
X4870000Y-4953641D02*
X4870000Y-4646359D01*
X5630000Y-4953641D02*
X5630000Y-4646359D01*
%TO.C,C14*%
X3907836Y-4840000D02*
X3692164Y-4840000D01*
X3907836Y-5560000D02*
X3692164Y-5560000D01*
%TO.C,C21*%
X6440000Y-18292164D02*
X6440000Y-18507836D01*
X7160000Y-18292164D02*
X7160000Y-18507836D01*
%TO.C,U5*%
X2090000Y-18640000D02*
X3910000Y-18640000D01*
X2090000Y-18690000D02*
X2090000Y-18640000D01*
X2090000Y-21760000D02*
X2090000Y-21710000D01*
X3910000Y-18640000D02*
X3910000Y-18690000D01*
X3910000Y-19810000D02*
X3910000Y-20590000D01*
X3910000Y-21710000D02*
X3910000Y-21760000D01*
X3910000Y-21760000D02*
X2090000Y-21760000D01*
X1550000Y-18690000D02*
X1310000Y-18360000D01*
X1790000Y-18360000D01*
X1550000Y-18690000D01*
G36*
X1550000Y-18690000D02*
G01*
X1310000Y-18360000D01*
X1790000Y-18360000D01*
X1550000Y-18690000D01*
G37*
%TO.C,D1*%
X5890000Y-20350000D02*
X5890000Y-22050000D01*
X5890000Y-20350000D02*
X8550000Y-20350000D01*
X5890000Y-22050000D02*
X8550000Y-22050000D01*
%TO.C,C7*%
X1907836Y-12440000D02*
X1692164Y-12440000D01*
X1907836Y-13160000D02*
X1692164Y-13160000D01*
%TO.C,C3*%
X13092164Y-5140000D02*
X13307836Y-5140000D01*
X13092164Y-5860000D02*
X13307836Y-5860000D01*
%TO.C,C5*%
X13092164Y-9140000D02*
X13307836Y-9140000D01*
X13092164Y-9860000D02*
X13307836Y-9860000D01*
%TO.C,C18*%
X13092164Y-13140000D02*
X13307836Y-13140000D01*
X13092164Y-13860000D02*
X13307836Y-13860000D01*
%TO.C,Q2*%
X11240000Y-22640000D02*
X12760000Y-22640000D01*
X11240000Y-22690000D02*
X11240000Y-22640000D01*
X11240000Y-24590000D02*
X11240000Y-23810000D01*
X11240000Y-25760000D02*
X11240000Y-25710000D01*
X12760000Y-22640000D02*
X12760000Y-23640000D01*
X12760000Y-24760000D02*
X12760000Y-25760000D01*
X12760000Y-25760000D02*
X11240000Y-25760000D01*
X10700000Y-23820000D02*
X10940000Y-24150000D01*
X10460000Y-24150000D01*
X10700000Y-23820000D01*
G36*
X10940000Y-24150000D02*
G01*
X10460000Y-24150000D01*
X10700000Y-23820000D01*
X10940000Y-24150000D01*
G37*
%TO.C,C1*%
X1907836Y-14140000D02*
X1692164Y-14140000D01*
X1907836Y-14860000D02*
X1692164Y-14860000D01*
%TO.C,U4*%
X2090000Y-22640000D02*
X3910000Y-22640000D01*
X2090000Y-22690000D02*
X2090000Y-22640000D01*
X2090000Y-25760000D02*
X2090000Y-25710000D01*
X3910000Y-22640000D02*
X3910000Y-22690000D01*
X3910000Y-25710000D02*
X3910000Y-25760000D01*
X3910000Y-25760000D02*
X2090000Y-25760000D01*
X1550000Y-22690000D02*
X1310000Y-22360000D01*
X1790000Y-22360000D01*
X1550000Y-22690000D01*
G36*
X1550000Y-22690000D02*
G01*
X1310000Y-22360000D01*
X1790000Y-22360000D01*
X1550000Y-22690000D01*
G37*
%TO.C,Q1*%
X6590000Y-22640000D02*
X8410000Y-22640000D01*
X6590000Y-22690000D02*
X6590000Y-22640000D01*
X6590000Y-25760000D02*
X6590000Y-25710000D01*
X8410000Y-22640000D02*
X8410000Y-22690000D01*
X8410000Y-25710000D02*
X8410000Y-25760000D01*
X8410000Y-25760000D02*
X6590000Y-25760000D01*
X6050000Y-22690000D02*
X5810000Y-22360000D01*
X6290000Y-22360000D01*
X6050000Y-22690000D01*
G36*
X6050000Y-22690000D02*
G01*
X5810000Y-22360000D01*
X6290000Y-22360000D01*
X6050000Y-22690000D01*
G37*
%TO.C,C10*%
X13092164Y-15140000D02*
X13307836Y-15140000D01*
X13092164Y-15860000D02*
X13307836Y-15860000D01*
%TO.C,C20*%
X5240000Y-18292164D02*
X5240000Y-18507836D01*
X5960000Y-18292164D02*
X5960000Y-18507836D01*
%TO.C,C12*%
X8840000Y-18292164D02*
X8840000Y-18507836D01*
X9560000Y-18292164D02*
X9560000Y-18507836D01*
%TO.C,R_TEST*%
X6646359Y-4820000D02*
X6953641Y-4820000D01*
X6646359Y-5580000D02*
X6953641Y-5580000D01*
%TO.C,MK1*%
X6075000Y-30350000D02*
X6075000Y-26950000D01*
X6375000Y-26650000D02*
X8925000Y-26650000D01*
X8925000Y-26650000D02*
X8925000Y-30350000D01*
X8925000Y-30350000D02*
X6075000Y-30350000D01*
X6075000Y-26650000D02*
X5795000Y-26650000D01*
X6075000Y-26370000D01*
X6075000Y-26650000D01*
G36*
X6075000Y-26650000D02*
G01*
X5795000Y-26650000D01*
X6075000Y-26370000D01*
X6075000Y-26650000D01*
G37*
%TO.C,R7*%
X10346359Y-28820000D02*
X10653641Y-28820000D01*
X10346359Y-29580000D02*
X10653641Y-29580000D01*
%TO.C,U2*%
X11090000Y-18640000D02*
X12910000Y-18640000D01*
X11090000Y-18690000D02*
X11090000Y-18640000D01*
X11090000Y-21760000D02*
X11090000Y-21710000D01*
X12910000Y-18640000D02*
X12910000Y-18690000D01*
X12910000Y-19810000D02*
X12910000Y-20590000D01*
X12910000Y-21710000D02*
X12910000Y-21760000D01*
X12910000Y-21760000D02*
X11090000Y-21760000D01*
X10550000Y-18690000D02*
X10310000Y-18360000D01*
X10790000Y-18360000D01*
X10550000Y-18690000D01*
G36*
X10550000Y-18690000D02*
G01*
X10310000Y-18360000D01*
X10790000Y-18360000D01*
X10550000Y-18690000D01*
G37*
%TO.C,C4*%
X1707836Y-5640000D02*
X1492164Y-5640000D01*
X1707836Y-6360000D02*
X1492164Y-6360000D01*
%TO.C,C8*%
X13092164Y-11140000D02*
X13307836Y-11140000D01*
X13092164Y-11860000D02*
X13307836Y-11860000D01*
%TO.C,Y1*%
X190000Y-7990000D02*
X190000Y-10410000D01*
X190000Y-10410000D02*
X3010000Y-10410000D01*
%TO.C,C9*%
X1907836Y-16640000D02*
X1692164Y-16640000D01*
X1907836Y-17360000D02*
X1692164Y-17360000D01*
%TO.C,U1*%
X3890000Y-9390000D02*
X4365000Y-9390000D01*
X3890000Y-9865000D02*
X3890000Y-9390000D01*
X3890000Y-16610000D02*
X3890000Y-16135000D01*
X4365000Y-16610000D02*
X3890000Y-16610000D01*
X10635000Y-9390000D02*
X11110000Y-9390000D01*
X11110000Y-9390000D02*
X11110000Y-9865000D01*
X11110000Y-16135000D02*
X11110000Y-16610000D01*
X11110000Y-16610000D02*
X10635000Y-16610000D01*
X11640000Y-15750000D02*
X11970000Y-15510000D01*
X11970000Y-15990000D01*
X11640000Y-15750000D01*
G36*
X11970000Y-15990000D02*
G01*
X11640000Y-15750000D01*
X11970000Y-15510000D01*
X11970000Y-15990000D01*
G37*
%TO.C,C15*%
X3792164Y-28140000D02*
X4007836Y-28140000D01*
X3792164Y-28860000D02*
X4007836Y-28860000D01*
%TD*%
M02*
