%TF.GenerationSoftware,KiCad,Pcbnew,10.0.6*%
%TF.CreationDate,2026-09-21T00:10:13+05:30*%
%TF.ProjectId,Device1,44657669-6365-4312-9e6b-696361645f70,rev?*%
%TF.SameCoordinates,Original*%
%TF.FileFunction,Copper,L2,Inr*%
%TF.FilePolarity,Positive*%
%FSLAX46Y46*%
G04 Gerber Fmt 4.6, Leading zero omitted, Abs format (unit mm)*
G04 Created by KiCad (PCBNEW 10.0.6) date 2026-09-21 00:10:13*
%MOMM*%
%LPD*%
G01*
G04 APERTURE LIST*
%TA.AperFunction,ViaPad*%
%ADD10C,0.450000*%
%TD*%
%ADD11C,0.250000*%
G04 APERTURE END LIST*
D10*
%TO.N,/3V3*%
X12720000Y-10750000D03*
X3200000Y-10250000D03*
X2280000Y-13800000D03*
X9200000Y-26600000D03*
X3000000Y-11750000D03*
X3420000Y-27500000D03*
X4750000Y-17400000D03*
X8500000Y-17400000D03*
X13500000Y-17800000D03*
%TO.N,/GND*%
X10850000Y-17000000D03*
X10863000Y-20200000D03*
X12680000Y-16800000D03*
X2500000Y-6800000D03*
X7500000Y-13000000D03*
X5600000Y-19800000D03*
X13500000Y-25500000D03*
X1320000Y-12800000D03*
X700000Y-6000000D03*
X700000Y-8650000D03*
X14300000Y-11500000D03*
X14300000Y-9500000D03*
X6500000Y-12000000D03*
X9200000Y-19800000D03*
X6800000Y-19800000D03*
X7500000Y-12000000D03*
X7500000Y-14000000D03*
X2500000Y-5200000D03*
X8500000Y-14000000D03*
X1200000Y-24200000D03*
X14300000Y-5500000D03*
X6500000Y-13000000D03*
X5500000Y-23250000D03*
X14300000Y-28150000D03*
X14300000Y-28850000D03*
X2500000Y-20200000D03*
X8500000Y-12000000D03*
X6500000Y-14000000D03*
X1320000Y-14500000D03*
X9200000Y-28500000D03*
X5000000Y-27960000D03*
X2280000Y-29500000D03*
X14300000Y-13500000D03*
X14300000Y-15500000D03*
X14300000Y-7500000D03*
X8500000Y-6200000D03*
X4380000Y-29500000D03*
X8500000Y-13000000D03*
X1320000Y-17800000D03*
%TO.N,/NRST*%
X9800000Y-4500000D03*
%TO.N,/LED_R_DRV*%
X11600000Y-10150000D03*
X9990000Y-27000000D03*
%TO.N,/VBUS_5V*%
X13500000Y-12500000D03*
X11062000Y-23250000D03*
X8550000Y-20500000D03*
X14200000Y-21150000D03*
%TO.N,/BATT_POS*%
X4800000Y-24200000D03*
%TO.N,/BATT_NEG*%
X4138000Y-23250000D03*
X2000000Y-26800000D03*
X8637000Y-25150000D03*
%TO.N,/TP_RF*%
X7310000Y-5200000D03*
%TO.N,/MIC_WS*%
X3100000Y-13300000D03*
X6600000Y-26400000D03*
%TO.N,/MIC_SCK*%
X8050000Y-27958000D03*
X8400000Y-8700000D03*
%TO.N,/MIC_SD*%
X7500000Y-26400000D03*
X3200000Y-14250000D03*
%TO.N,/LED_B_DRV*%
X9990000Y-28500000D03*
X11800000Y-8800000D03*
%TO.N,/CHG_STAT*%
X11400000Y-19250000D03*
X11800000Y-12750000D03*
%TO.N,/VR_PA*%
X2800000Y-6000000D03*
X3615000Y-7600000D03*
%TO.N,/OSC_OUT*%
X2700000Y-8650000D03*
X2200000Y-11250000D03*
%TO.N,/SWDIO*%
X2200000Y-15750000D03*
%TO.N,/SWCLK*%
X7250000Y-21000000D03*
%TO.N,/GND*%
X7135000Y-7100000D03*
%TO.N,/BOOT0*%
X7250000Y-8250000D03*
X7250000Y-4000000D03*
%TD*%
%TA.AperFunction,Conductor*%
%TO.N,/GND*%
G36*
X9062226Y-4321674D02*
G01*
X9083900Y-4374000D01*
X9082478Y-4388436D01*
X9074500Y-4428545D01*
X9074500Y-4571453D01*
X9102379Y-4711614D01*
X9102381Y-4711620D01*
X9157071Y-4843653D01*
X9236468Y-4962479D01*
X9337521Y-5063532D01*
X9456347Y-5142929D01*
X9588380Y-5197619D01*
X9728545Y-5225500D01*
X9728547Y-5225500D01*
X9871453Y-5225500D01*
X9871455Y-5225500D01*
X10011620Y-5197619D01*
X10143653Y-5142929D01*
X10262479Y-5063532D01*
X10363532Y-4962479D01*
X10442929Y-4843653D01*
X10497619Y-4711620D01*
X10525500Y-4571455D01*
X10525500Y-4428545D01*
X10517522Y-4388436D01*
X10528572Y-4332887D01*
X10575664Y-4301422D01*
X10590100Y-4300000D01*
X14625500Y-4300000D01*
X14677826Y-4321674D01*
X14699500Y-4374000D01*
X14699500Y-20472760D01*
X14677826Y-20525086D01*
X14625500Y-20546760D01*
X14584389Y-20534290D01*
X14570614Y-20525086D01*
X14543653Y-20507071D01*
X14411620Y-20452381D01*
X14411614Y-20452379D01*
X14317752Y-20433709D01*
X14271455Y-20424500D01*
X14128545Y-20424500D01*
X14088810Y-20432403D01*
X13988385Y-20452379D01*
X13988379Y-20452381D01*
X13856350Y-20507069D01*
X13737521Y-20586467D01*
X13737520Y-20586469D01*
X13636469Y-20687520D01*
X13636467Y-20687521D01*
X13557069Y-20806350D01*
X13502381Y-20938379D01*
X13502379Y-20938385D01*
X13474500Y-21078546D01*
X13474500Y-21221453D01*
X13502379Y-21361614D01*
X13502381Y-21361620D01*
X13544158Y-21462480D01*
X13557071Y-21493653D01*
X13636468Y-21612479D01*
X13737521Y-21713532D01*
X13856347Y-21792929D01*
X13988380Y-21847619D01*
X14128545Y-21875500D01*
X14128547Y-21875500D01*
X14271453Y-21875500D01*
X14271455Y-21875500D01*
X14411620Y-21847619D01*
X14543653Y-21792929D01*
X14584389Y-21765709D01*
X14639937Y-21754661D01*
X14687029Y-21786127D01*
X14699500Y-21827239D01*
X14699500Y-29844877D01*
X14677826Y-29897203D01*
X13897203Y-30677826D01*
X13844877Y-30699500D01*
X1155123Y-30699500D01*
X1102797Y-30677826D01*
X322174Y-29897203D01*
X300500Y-29844877D01*
X300500Y-29150688D01*
X7049500Y-29150688D01*
X7049500Y-29269311D01*
X7080199Y-29383882D01*
X7080201Y-29383887D01*
X7139508Y-29486609D01*
X7139509Y-29486610D01*
X7139511Y-29486613D01*
X7223387Y-29570489D01*
X7326114Y-29629799D01*
X7326115Y-29629799D01*
X7326117Y-29629800D01*
X7383402Y-29645149D01*
X7440688Y-29660499D01*
X7440689Y-29660500D01*
X7440691Y-29660500D01*
X7559311Y-29660500D01*
X7559311Y-29660499D01*
X7673886Y-29629799D01*
X7776613Y-29570489D01*
X7860489Y-29486613D01*
X7919799Y-29383886D01*
X7950499Y-29269311D01*
X7950500Y-29269311D01*
X7950500Y-29150689D01*
X7950499Y-29150688D01*
X7919800Y-29036117D01*
X7919798Y-29036112D01*
X7860491Y-28933390D01*
X7860490Y-28933389D01*
X7860489Y-28933387D01*
X7776613Y-28849511D01*
X7776610Y-28849509D01*
X7776609Y-28849508D01*
X7673887Y-28790201D01*
X7673882Y-28790199D01*
X7559311Y-28759500D01*
X7559309Y-28759500D01*
X7440691Y-28759500D01*
X7440689Y-28759500D01*
X7326117Y-28790199D01*
X7326112Y-28790201D01*
X7223390Y-28849508D01*
X7139508Y-28933390D01*
X7080201Y-29036112D01*
X7080199Y-29036117D01*
X7049500Y-29150688D01*
X300500Y-29150688D01*
X300500Y-26728546D01*
X1274500Y-26728546D01*
X1274500Y-26871453D01*
X1302379Y-27011614D01*
X1302381Y-27011620D01*
X1349551Y-27125500D01*
X1357071Y-27143653D01*
X1365553Y-27156347D01*
X1425552Y-27246143D01*
X1436468Y-27262479D01*
X1537521Y-27363532D01*
X1656347Y-27442929D01*
X1788380Y-27497619D01*
X1928545Y-27525500D01*
X1928547Y-27525500D01*
X2071453Y-27525500D01*
X2071455Y-27525500D01*
X2211620Y-27497619D01*
X2343653Y-27442929D01*
X2462479Y-27363532D01*
X2563532Y-27262479D01*
X2592271Y-27219467D01*
X2639360Y-27188003D01*
X2694909Y-27199051D01*
X2726376Y-27246143D01*
X2722589Y-27284647D01*
X2723436Y-27284904D01*
X2722379Y-27288385D01*
X2707432Y-27363531D01*
X2694500Y-27428545D01*
X2694500Y-27571455D01*
X2703709Y-27617752D01*
X2722379Y-27711614D01*
X2722381Y-27711620D01*
X2759975Y-27802381D01*
X2777071Y-27843653D01*
X2856468Y-27962479D01*
X2957521Y-28063532D01*
X3076347Y-28142929D01*
X3208380Y-28197619D01*
X3348545Y-28225500D01*
X3348547Y-28225500D01*
X3491453Y-28225500D01*
X3491455Y-28225500D01*
X3631620Y-28197619D01*
X3763653Y-28142929D01*
X3882479Y-28063532D01*
X3983532Y-27962479D01*
X4034269Y-27886545D01*
X7324500Y-27886545D01*
X7324500Y-28029455D01*
X7333709Y-28075752D01*
X7352379Y-28169614D01*
X7352381Y-28169620D01*
X7401572Y-28288379D01*
X7407071Y-28301653D01*
X7486468Y-28420479D01*
X7587521Y-28521532D01*
X7706347Y-28600929D01*
X7838380Y-28655619D01*
X7978545Y-28683500D01*
X7978547Y-28683500D01*
X8121453Y-28683500D01*
X8121455Y-28683500D01*
X8261620Y-28655619D01*
X8393653Y-28600929D01*
X8512479Y-28521532D01*
X8613532Y-28420479D01*
X8692929Y-28301653D01*
X8747619Y-28169620D01*
X8775500Y-28029455D01*
X8775500Y-27886545D01*
X8747619Y-27746380D01*
X8692929Y-27614347D01*
X8613532Y-27495521D01*
X8512479Y-27394468D01*
X8393653Y-27315071D01*
X8393650Y-27315069D01*
X8393649Y-27315069D01*
X8261620Y-27260381D01*
X8261614Y-27260379D01*
X8167752Y-27241709D01*
X8121455Y-27232500D01*
X7978545Y-27232500D01*
X7938810Y-27240403D01*
X7838385Y-27260379D01*
X7838379Y-27260381D01*
X7706350Y-27315069D01*
X7587521Y-27394467D01*
X7587520Y-27394469D01*
X7486469Y-27495520D01*
X7486467Y-27495521D01*
X7407069Y-27614350D01*
X7352381Y-27746379D01*
X7352379Y-27746385D01*
X7333033Y-27843649D01*
X7324500Y-27886545D01*
X4034269Y-27886545D01*
X4062929Y-27843653D01*
X4117619Y-27711620D01*
X4145500Y-27571455D01*
X4145500Y-27428545D01*
X4117619Y-27288380D01*
X4062929Y-27156347D01*
X3983532Y-27037521D01*
X3882479Y-26936468D01*
X3870621Y-26928545D01*
X3843226Y-26910240D01*
X3763653Y-26857071D01*
X3763650Y-26857069D01*
X3763649Y-26857069D01*
X3631620Y-26802381D01*
X3631614Y-26802379D01*
X3537752Y-26783709D01*
X3491455Y-26774500D01*
X3348545Y-26774500D01*
X3308810Y-26782403D01*
X3208385Y-26802379D01*
X3208379Y-26802381D01*
X3076350Y-26857069D01*
X2957521Y-26936467D01*
X2957520Y-26936469D01*
X2856470Y-27037518D01*
X2856468Y-27037521D01*
X2833796Y-27071453D01*
X2827730Y-27080531D01*
X2780637Y-27111996D01*
X2725088Y-27100947D01*
X2693623Y-27053854D01*
X2697417Y-27015354D01*
X2696564Y-27015096D01*
X2697615Y-27011627D01*
X2697619Y-27011620D01*
X2725500Y-26871455D01*
X2725500Y-26728545D01*
X2697619Y-26588380D01*
X2642929Y-26456347D01*
X2563532Y-26337521D01*
X2554557Y-26328546D01*
X5874500Y-26328546D01*
X5874500Y-26471453D01*
X5902379Y-26611614D01*
X5902381Y-26611620D01*
X5927165Y-26671455D01*
X5957071Y-26743653D01*
X6036468Y-26862479D01*
X6137521Y-26963532D01*
X6256347Y-27042929D01*
X6388380Y-27097619D01*
X6528545Y-27125500D01*
X6528547Y-27125500D01*
X6671453Y-27125500D01*
X6671455Y-27125500D01*
X6811620Y-27097619D01*
X6943653Y-27042929D01*
X7008888Y-26999339D01*
X7064437Y-26988291D01*
X7091111Y-26999339D01*
X7156347Y-27042929D01*
X7288380Y-27097619D01*
X7428545Y-27125500D01*
X7428547Y-27125500D01*
X7571453Y-27125500D01*
X7571455Y-27125500D01*
X7711620Y-27097619D01*
X7843653Y-27042929D01*
X7962479Y-26963532D01*
X8063532Y-26862479D01*
X8142929Y-26743653D01*
X8197619Y-26611620D01*
X8225500Y-26471455D01*
X8225500Y-26328545D01*
X8197619Y-26188380D01*
X8142929Y-26056347D01*
X8063532Y-25937521D01*
X7962479Y-25836468D01*
X7843653Y-25757071D01*
X7843650Y-25757069D01*
X7843649Y-25757069D01*
X7711620Y-25702381D01*
X7711614Y-25702379D01*
X7617752Y-25683709D01*
X7571455Y-25674500D01*
X7428545Y-25674500D01*
X7388810Y-25682403D01*
X7288385Y-25702379D01*
X7288379Y-25702381D01*
X7156346Y-25757071D01*
X7091112Y-25800659D01*
X7035563Y-25811708D01*
X7008888Y-25800659D01*
X6943653Y-25757071D01*
X6811620Y-25702381D01*
X6811614Y-25702379D01*
X6717752Y-25683709D01*
X6671455Y-25674500D01*
X6528545Y-25674500D01*
X6488810Y-25682403D01*
X6388385Y-25702379D01*
X6388379Y-25702381D01*
X6256350Y-25757069D01*
X6137521Y-25836467D01*
X6137520Y-25836469D01*
X6036469Y-25937520D01*
X6036467Y-25937521D01*
X5957069Y-26056350D01*
X5902381Y-26188379D01*
X5902379Y-26188385D01*
X5874500Y-26328546D01*
X2554557Y-26328546D01*
X2462479Y-26236468D01*
X2343653Y-26157071D01*
X2343650Y-26157069D01*
X2343649Y-26157069D01*
X2211620Y-26102381D01*
X2211614Y-26102379D01*
X2117752Y-26083709D01*
X2071455Y-26074500D01*
X1928545Y-26074500D01*
X1888810Y-26082403D01*
X1788385Y-26102379D01*
X1788379Y-26102381D01*
X1656350Y-26157069D01*
X1537521Y-26236467D01*
X1537520Y-26236469D01*
X1436469Y-26337520D01*
X1436467Y-26337521D01*
X1357069Y-26456350D01*
X1302381Y-26588379D01*
X1302379Y-26588385D01*
X1274500Y-26728546D01*
X300500Y-26728546D01*
X300500Y-25078546D01*
X7911500Y-25078546D01*
X7911500Y-25221453D01*
X7939379Y-25361614D01*
X7939381Y-25361620D01*
X7994071Y-25493653D01*
X8073468Y-25612479D01*
X8174521Y-25713532D01*
X8293347Y-25792929D01*
X8425380Y-25847619D01*
X8565545Y-25875500D01*
X8565547Y-25875500D01*
X8708452Y-25875500D01*
X8708455Y-25875500D01*
X8727988Y-25871614D01*
X8783536Y-25882663D01*
X8815003Y-25929754D01*
X8803954Y-25985303D01*
X8783537Y-26005721D01*
X8737521Y-26036467D01*
X8737520Y-26036469D01*
X8636469Y-26137520D01*
X8636467Y-26137521D01*
X8557069Y-26256350D01*
X8502381Y-26388379D01*
X8502379Y-26388385D01*
X8474500Y-26528546D01*
X8474500Y-26671453D01*
X8502379Y-26811614D01*
X8502381Y-26811620D01*
X8527165Y-26871455D01*
X8557071Y-26943653D01*
X8570354Y-26963532D01*
X8619791Y-27037521D01*
X8636468Y-27062479D01*
X8737521Y-27163532D01*
X8856347Y-27242929D01*
X8988380Y-27297619D01*
X9128545Y-27325500D01*
X9128547Y-27325500D01*
X9271451Y-27325500D01*
X9271455Y-27325500D01*
X9278997Y-27323999D01*
X9334545Y-27335047D01*
X9354962Y-27355463D01*
X9426468Y-27462479D01*
X9527521Y-27563532D01*
X9646347Y-27642929D01*
X9739787Y-27681633D01*
X9779835Y-27721681D01*
X9779835Y-27778319D01*
X9739787Y-27818366D01*
X9719137Y-27826920D01*
X9646350Y-27857069D01*
X9527521Y-27936467D01*
X9527520Y-27936469D01*
X9426469Y-28037520D01*
X9426467Y-28037521D01*
X9347069Y-28156350D01*
X9292381Y-28288379D01*
X9292379Y-28288385D01*
X9269104Y-28405396D01*
X9266105Y-28420479D01*
X9264500Y-28428546D01*
X9264500Y-28571453D01*
X9292379Y-28711614D01*
X9292381Y-28711620D01*
X9324929Y-28790199D01*
X9347071Y-28843653D01*
X9426468Y-28962479D01*
X9527521Y-29063532D01*
X9646347Y-29142929D01*
X9778380Y-29197619D01*
X9918545Y-29225500D01*
X9918547Y-29225500D01*
X10061453Y-29225500D01*
X10061455Y-29225500D01*
X10201620Y-29197619D01*
X10333653Y-29142929D01*
X10452479Y-29063532D01*
X10553532Y-28962479D01*
X10632929Y-28843653D01*
X10687619Y-28711620D01*
X10715500Y-28571455D01*
X10715500Y-28428545D01*
X10687619Y-28288380D01*
X10632929Y-28156347D01*
X10553532Y-28037521D01*
X10452479Y-27936468D01*
X10333653Y-27857071D01*
X10333649Y-27857069D01*
X10333647Y-27857068D01*
X10333648Y-27857068D01*
X10257764Y-27825636D01*
X10240212Y-27818366D01*
X10200164Y-27778319D01*
X10200164Y-27721682D01*
X10240210Y-27681634D01*
X10333653Y-27642929D01*
X10452479Y-27563532D01*
X10553532Y-27462479D01*
X10632929Y-27343653D01*
X10687619Y-27211620D01*
X10715500Y-27071455D01*
X10715500Y-26928545D01*
X10687619Y-26788380D01*
X10632929Y-26656347D01*
X10553532Y-26537521D01*
X10452479Y-26436468D01*
X10333653Y-26357071D01*
X10333650Y-26357069D01*
X10333649Y-26357069D01*
X10201620Y-26302381D01*
X10201614Y-26302379D01*
X10107752Y-26283709D01*
X10061455Y-26274500D01*
X9918545Y-26274500D01*
X9910997Y-26276001D01*
X9855449Y-26264948D01*
X9835036Y-26244534D01*
X9763532Y-26137521D01*
X9662478Y-26036467D01*
X9585905Y-25985303D01*
X9543653Y-25957071D01*
X9543650Y-25957069D01*
X9543649Y-25957069D01*
X9411620Y-25902381D01*
X9411614Y-25902379D01*
X9317752Y-25883709D01*
X9271455Y-25874500D01*
X9128545Y-25874500D01*
X9114154Y-25877362D01*
X9109008Y-25878386D01*
X9053460Y-25867334D01*
X9021995Y-25820241D01*
X9033047Y-25764693D01*
X9053457Y-25744282D01*
X9099479Y-25713532D01*
X9200532Y-25612479D01*
X9279929Y-25493653D01*
X9334619Y-25361620D01*
X9362500Y-25221455D01*
X9362500Y-25078545D01*
X9334619Y-24938380D01*
X9279929Y-24806347D01*
X9200532Y-24687521D01*
X9099479Y-24586468D01*
X8980653Y-24507071D01*
X8980650Y-24507069D01*
X8980649Y-24507069D01*
X8848620Y-24452381D01*
X8848614Y-24452379D01*
X8754752Y-24433709D01*
X8708455Y-24424500D01*
X8565545Y-24424500D01*
X8525810Y-24432403D01*
X8425385Y-24452379D01*
X8425379Y-24452381D01*
X8293350Y-24507069D01*
X8174521Y-24586467D01*
X8174520Y-24586469D01*
X8073469Y-24687520D01*
X8073467Y-24687521D01*
X7994069Y-24806350D01*
X7939381Y-24938379D01*
X7939379Y-24938385D01*
X7911500Y-25078546D01*
X300500Y-25078546D01*
X300500Y-23178546D01*
X3412500Y-23178546D01*
X3412500Y-23321453D01*
X3440379Y-23461614D01*
X3440381Y-23461620D01*
X3495071Y-23593653D01*
X3574468Y-23712479D01*
X3675521Y-23813532D01*
X3794347Y-23892929D01*
X3926380Y-23947619D01*
X4030903Y-23968410D01*
X4077995Y-23999876D01*
X4089044Y-24055424D01*
X4074500Y-24128545D01*
X4074500Y-24271453D01*
X4102379Y-24411614D01*
X4102381Y-24411620D01*
X4157071Y-24543653D01*
X4236468Y-24662479D01*
X4337521Y-24763532D01*
X4456347Y-24842929D01*
X4588380Y-24897619D01*
X4728545Y-24925500D01*
X4728547Y-24925500D01*
X4871453Y-24925500D01*
X4871455Y-24925500D01*
X5011620Y-24897619D01*
X5143653Y-24842929D01*
X5262479Y-24763532D01*
X5363532Y-24662479D01*
X5442929Y-24543653D01*
X5497619Y-24411620D01*
X5525500Y-24271455D01*
X5525500Y-24128545D01*
X5497619Y-23988380D01*
X5442929Y-23856347D01*
X5363532Y-23737521D01*
X5262479Y-23636468D01*
X5143653Y-23557071D01*
X5143650Y-23557069D01*
X5143649Y-23557069D01*
X5011620Y-23502381D01*
X5011614Y-23502379D01*
X4907096Y-23481589D01*
X4860004Y-23450123D01*
X4848955Y-23394574D01*
X4863500Y-23321453D01*
X4863500Y-23178546D01*
X10336500Y-23178546D01*
X10336500Y-23321453D01*
X10364379Y-23461614D01*
X10364381Y-23461620D01*
X10419071Y-23593653D01*
X10498468Y-23712479D01*
X10599521Y-23813532D01*
X10718347Y-23892929D01*
X10850380Y-23947619D01*
X10990545Y-23975500D01*
X10990547Y-23975500D01*
X11133453Y-23975500D01*
X11133455Y-23975500D01*
X11273620Y-23947619D01*
X11405653Y-23892929D01*
X11524479Y-23813532D01*
X11625532Y-23712479D01*
X11704929Y-23593653D01*
X11759619Y-23461620D01*
X11787500Y-23321455D01*
X11787500Y-23178545D01*
X11759619Y-23038380D01*
X11704929Y-22906347D01*
X11625532Y-22787521D01*
X11524479Y-22686468D01*
X11405653Y-22607071D01*
X11405650Y-22607069D01*
X11405649Y-22607069D01*
X11273620Y-22552381D01*
X11273614Y-22552379D01*
X11179752Y-22533709D01*
X11133455Y-22524500D01*
X10990545Y-22524500D01*
X10950810Y-22532403D01*
X10850385Y-22552379D01*
X10850379Y-22552381D01*
X10718350Y-22607069D01*
X10599521Y-22686467D01*
X10599520Y-22686469D01*
X10498469Y-22787520D01*
X10498467Y-22787521D01*
X10419069Y-22906350D01*
X10364381Y-23038379D01*
X10364379Y-23038385D01*
X10336500Y-23178546D01*
X4863500Y-23178546D01*
X4835620Y-23038385D01*
X4835619Y-23038384D01*
X4835619Y-23038380D01*
X4780929Y-22906347D01*
X4701532Y-22787521D01*
X4600479Y-22686468D01*
X4481653Y-22607071D01*
X4481650Y-22607069D01*
X4481649Y-22607069D01*
X4349620Y-22552381D01*
X4349614Y-22552379D01*
X4255752Y-22533709D01*
X4209455Y-22524500D01*
X4066545Y-22524500D01*
X4026810Y-22532403D01*
X3926385Y-22552379D01*
X3926379Y-22552381D01*
X3794350Y-22607069D01*
X3675521Y-22686467D01*
X3675520Y-22686469D01*
X3574469Y-22787520D01*
X3574467Y-22787521D01*
X3495069Y-22906350D01*
X3440381Y-23038379D01*
X3440379Y-23038385D01*
X3412500Y-23178546D01*
X300500Y-23178546D01*
X300500Y-20928545D01*
X6524500Y-20928545D01*
X6524500Y-21071455D01*
X6525911Y-21078546D01*
X6552379Y-21211614D01*
X6552381Y-21211620D01*
X6607071Y-21343653D01*
X6686468Y-21462479D01*
X6787521Y-21563532D01*
X6906347Y-21642929D01*
X7038380Y-21697619D01*
X7178545Y-21725500D01*
X7178547Y-21725500D01*
X7321453Y-21725500D01*
X7321455Y-21725500D01*
X7461620Y-21697619D01*
X7593653Y-21642929D01*
X7712479Y-21563532D01*
X7813532Y-21462479D01*
X7892929Y-21343653D01*
X7947619Y-21211620D01*
X7968489Y-21106698D01*
X7999953Y-21059609D01*
X8055502Y-21048559D01*
X8084111Y-21062090D01*
X8084498Y-21061512D01*
X8087520Y-21063531D01*
X8087521Y-21063532D01*
X8206347Y-21142929D01*
X8338380Y-21197619D01*
X8478545Y-21225500D01*
X8478547Y-21225500D01*
X8621453Y-21225500D01*
X8621455Y-21225500D01*
X8761620Y-21197619D01*
X8893653Y-21142929D01*
X9012479Y-21063532D01*
X9113532Y-20962479D01*
X9192929Y-20843653D01*
X9247619Y-20711620D01*
X9275500Y-20571455D01*
X9275500Y-20428545D01*
X9247619Y-20288380D01*
X9192929Y-20156347D01*
X9113532Y-20037521D01*
X9012479Y-19936468D01*
X8893653Y-19857071D01*
X8893650Y-19857069D01*
X8893649Y-19857069D01*
X8761620Y-19802381D01*
X8761614Y-19802379D01*
X8667752Y-19783709D01*
X8621455Y-19774500D01*
X8478545Y-19774500D01*
X8438810Y-19782403D01*
X8338385Y-19802379D01*
X8338379Y-19802381D01*
X8206350Y-19857069D01*
X8087521Y-19936467D01*
X8087520Y-19936469D01*
X7986469Y-20037520D01*
X7986467Y-20037521D01*
X7907069Y-20156350D01*
X7852381Y-20288379D01*
X7852379Y-20288385D01*
X7831511Y-20393299D01*
X7800045Y-20440391D01*
X7744496Y-20451440D01*
X7715887Y-20437910D01*
X7715502Y-20438488D01*
X7712479Y-20436468D01*
X7593653Y-20357071D01*
X7593650Y-20357069D01*
X7593649Y-20357069D01*
X7461620Y-20302381D01*
X7461614Y-20302379D01*
X7367752Y-20283709D01*
X7321455Y-20274500D01*
X7178545Y-20274500D01*
X7138810Y-20282403D01*
X7038385Y-20302379D01*
X7038379Y-20302381D01*
X6906350Y-20357069D01*
X6787521Y-20436467D01*
X6787520Y-20436469D01*
X6686469Y-20537520D01*
X6686467Y-20537521D01*
X6607069Y-20656350D01*
X6552381Y-20788379D01*
X6552379Y-20788385D01*
X6548806Y-20806350D01*
X6524500Y-20928545D01*
X300500Y-20928545D01*
X300500Y-19178546D01*
X10674500Y-19178546D01*
X10674500Y-19321453D01*
X10702379Y-19461614D01*
X10702381Y-19461620D01*
X10757071Y-19593653D01*
X10836468Y-19712479D01*
X10937521Y-19813532D01*
X11056347Y-19892929D01*
X11188380Y-19947619D01*
X11328545Y-19975500D01*
X11328547Y-19975500D01*
X11471453Y-19975500D01*
X11471455Y-19975500D01*
X11611620Y-19947619D01*
X11743653Y-19892929D01*
X11862479Y-19813532D01*
X11963532Y-19712479D01*
X12042929Y-19593653D01*
X12097619Y-19461620D01*
X12125500Y-19321455D01*
X12125500Y-19178545D01*
X12097619Y-19038380D01*
X12042929Y-18906347D01*
X11963532Y-18787521D01*
X11862479Y-18686468D01*
X11743653Y-18607071D01*
X11743650Y-18607069D01*
X11743649Y-18607069D01*
X11611620Y-18552381D01*
X11611614Y-18552379D01*
X11517752Y-18533709D01*
X11471455Y-18524500D01*
X11328545Y-18524500D01*
X11288810Y-18532403D01*
X11188385Y-18552379D01*
X11188379Y-18552381D01*
X11056350Y-18607069D01*
X10937521Y-18686467D01*
X10937520Y-18686469D01*
X10836469Y-18787520D01*
X10836467Y-18787521D01*
X10757069Y-18906350D01*
X10702381Y-19038379D01*
X10702379Y-19038385D01*
X10674500Y-19178546D01*
X300500Y-19178546D01*
X300500Y-17328546D01*
X4024500Y-17328546D01*
X4024500Y-17471453D01*
X4052379Y-17611614D01*
X4052381Y-17611620D01*
X4107071Y-17743653D01*
X4186468Y-17862479D01*
X4287521Y-17963532D01*
X4406347Y-18042929D01*
X4538380Y-18097619D01*
X4678545Y-18125500D01*
X4678547Y-18125500D01*
X4821453Y-18125500D01*
X4821455Y-18125500D01*
X4961620Y-18097619D01*
X5093653Y-18042929D01*
X5212479Y-17963532D01*
X5313532Y-17862479D01*
X5392929Y-17743653D01*
X5447619Y-17611620D01*
X5475500Y-17471455D01*
X5475500Y-17328546D01*
X7774500Y-17328546D01*
X7774500Y-17471453D01*
X7802379Y-17611614D01*
X7802381Y-17611620D01*
X7857071Y-17743653D01*
X7936468Y-17862479D01*
X8037521Y-17963532D01*
X8156347Y-18042929D01*
X8288380Y-18097619D01*
X8428545Y-18125500D01*
X8428547Y-18125500D01*
X8571453Y-18125500D01*
X8571455Y-18125500D01*
X8711620Y-18097619D01*
X8843653Y-18042929D01*
X8962479Y-17963532D01*
X9063532Y-17862479D01*
X9142929Y-17743653D01*
X9149187Y-17728546D01*
X12774500Y-17728546D01*
X12774500Y-17871453D01*
X12802379Y-18011614D01*
X12802381Y-18011620D01*
X12849551Y-18125500D01*
X12857071Y-18143653D01*
X12936468Y-18262479D01*
X13037521Y-18363532D01*
X13156347Y-18442929D01*
X13288380Y-18497619D01*
X13428545Y-18525500D01*
X13428547Y-18525500D01*
X13571453Y-18525500D01*
X13571455Y-18525500D01*
X13711620Y-18497619D01*
X13843653Y-18442929D01*
X13962479Y-18363532D01*
X14063532Y-18262479D01*
X14142929Y-18143653D01*
X14197619Y-18011620D01*
X14225500Y-17871455D01*
X14225500Y-17728545D01*
X14197619Y-17588380D01*
X14142929Y-17456347D01*
X14063532Y-17337521D01*
X13962479Y-17236468D01*
X13843653Y-17157071D01*
X13843650Y-17157069D01*
X13843649Y-17157069D01*
X13711620Y-17102381D01*
X13711614Y-17102379D01*
X13617752Y-17083709D01*
X13571455Y-17074500D01*
X13428545Y-17074500D01*
X13388810Y-17082403D01*
X13288385Y-17102379D01*
X13288379Y-17102381D01*
X13156350Y-17157069D01*
X13037521Y-17236467D01*
X13037520Y-17236469D01*
X12936469Y-17337520D01*
X12936467Y-17337521D01*
X12857069Y-17456350D01*
X12802381Y-17588379D01*
X12802379Y-17588385D01*
X12774500Y-17728546D01*
X9149187Y-17728546D01*
X9197619Y-17611620D01*
X9225500Y-17471455D01*
X9225500Y-17328545D01*
X9197619Y-17188380D01*
X9142929Y-17056347D01*
X9063532Y-16937521D01*
X8962479Y-16836468D01*
X8843653Y-16757071D01*
X8843650Y-16757069D01*
X8843649Y-16757069D01*
X8711620Y-16702381D01*
X8711614Y-16702379D01*
X8617752Y-16683709D01*
X8571455Y-16674500D01*
X8428545Y-16674500D01*
X8388810Y-16682403D01*
X8288385Y-16702379D01*
X8288379Y-16702381D01*
X8156350Y-16757069D01*
X8037521Y-16836467D01*
X8037520Y-16836469D01*
X7936469Y-16937520D01*
X7936467Y-16937521D01*
X7857069Y-17056350D01*
X7802381Y-17188379D01*
X7802379Y-17188385D01*
X7774500Y-17328546D01*
X5475500Y-17328546D01*
X5475500Y-17328545D01*
X5447619Y-17188380D01*
X5392929Y-17056347D01*
X5313532Y-16937521D01*
X5212479Y-16836468D01*
X5093653Y-16757071D01*
X5093650Y-16757069D01*
X5093649Y-16757069D01*
X4961620Y-16702381D01*
X4961614Y-16702379D01*
X4867752Y-16683709D01*
X4821455Y-16674500D01*
X4678545Y-16674500D01*
X4638810Y-16682403D01*
X4538385Y-16702379D01*
X4538379Y-16702381D01*
X4406350Y-16757069D01*
X4287521Y-16836467D01*
X4287520Y-16836469D01*
X4186469Y-16937520D01*
X4186467Y-16937521D01*
X4107069Y-17056350D01*
X4052381Y-17188379D01*
X4052379Y-17188385D01*
X4024500Y-17328546D01*
X300500Y-17328546D01*
X300500Y-15678546D01*
X1474500Y-15678546D01*
X1474500Y-15821453D01*
X1502379Y-15961614D01*
X1502381Y-15961620D01*
X1557071Y-16093653D01*
X1636468Y-16212479D01*
X1737521Y-16313532D01*
X1856347Y-16392929D01*
X1988380Y-16447619D01*
X2128545Y-16475500D01*
X2128547Y-16475500D01*
X2271453Y-16475500D01*
X2271455Y-16475500D01*
X2411620Y-16447619D01*
X2543653Y-16392929D01*
X2662479Y-16313532D01*
X2763532Y-16212479D01*
X2842929Y-16093653D01*
X2897619Y-15961620D01*
X2925500Y-15821455D01*
X2925500Y-15678545D01*
X2897619Y-15538380D01*
X2842929Y-15406347D01*
X2763532Y-15287521D01*
X2662479Y-15186468D01*
X2543653Y-15107071D01*
X2543650Y-15107069D01*
X2543649Y-15107069D01*
X2411620Y-15052381D01*
X2411614Y-15052379D01*
X2317752Y-15033709D01*
X2271455Y-15024500D01*
X2128545Y-15024500D01*
X2088810Y-15032403D01*
X1988385Y-15052379D01*
X1988379Y-15052381D01*
X1856350Y-15107069D01*
X1737521Y-15186467D01*
X1737520Y-15186469D01*
X1636469Y-15287520D01*
X1636467Y-15287521D01*
X1557069Y-15406350D01*
X1502381Y-15538379D01*
X1502379Y-15538385D01*
X1474500Y-15678546D01*
X300500Y-15678546D01*
X300500Y-11178546D01*
X1474500Y-11178546D01*
X1474500Y-11321453D01*
X1502379Y-11461614D01*
X1502381Y-11461620D01*
X1557071Y-11593653D01*
X1636468Y-11712479D01*
X1737521Y-11813532D01*
X1856347Y-11892929D01*
X1988380Y-11947619D01*
X2128545Y-11975500D01*
X2128547Y-11975500D01*
X2258685Y-11975500D01*
X2311011Y-11997174D01*
X2327052Y-12021181D01*
X2357070Y-12093652D01*
X2419089Y-12186469D01*
X2436468Y-12212479D01*
X2537521Y-12313532D01*
X2656347Y-12392929D01*
X2788380Y-12447619D01*
X2869094Y-12463674D01*
X2916186Y-12495140D01*
X2927235Y-12550689D01*
X2895769Y-12597781D01*
X2882976Y-12604619D01*
X2756350Y-12657069D01*
X2637521Y-12736467D01*
X2637520Y-12736469D01*
X2536469Y-12837520D01*
X2536467Y-12837521D01*
X2457071Y-12956346D01*
X2426910Y-13029160D01*
X2386861Y-13069208D01*
X2355090Y-13073920D01*
X2355090Y-13074500D01*
X2351455Y-13074500D01*
X2208545Y-13074500D01*
X2168810Y-13082403D01*
X2068385Y-13102379D01*
X2068379Y-13102381D01*
X1936350Y-13157069D01*
X1817521Y-13236467D01*
X1817520Y-13236469D01*
X1716469Y-13337520D01*
X1716467Y-13337521D01*
X1637069Y-13456350D01*
X1582381Y-13588379D01*
X1582379Y-13588385D01*
X1554500Y-13728546D01*
X1554500Y-13871453D01*
X1582379Y-14011614D01*
X1582381Y-14011620D01*
X1637071Y-14143653D01*
X1716468Y-14262479D01*
X1817521Y-14363532D01*
X1936347Y-14442929D01*
X2068380Y-14497619D01*
X2208545Y-14525500D01*
X2208547Y-14525500D01*
X2351453Y-14525500D01*
X2351455Y-14525500D01*
X2455774Y-14504749D01*
X2511323Y-14515798D01*
X2538578Y-14549008D01*
X2557070Y-14593652D01*
X2557071Y-14593653D01*
X2636468Y-14712479D01*
X2737521Y-14813532D01*
X2856347Y-14892929D01*
X2988380Y-14947619D01*
X3128545Y-14975500D01*
X3128547Y-14975500D01*
X3271453Y-14975500D01*
X3271455Y-14975500D01*
X3411620Y-14947619D01*
X3543653Y-14892929D01*
X3662479Y-14813532D01*
X3763532Y-14712479D01*
X3842929Y-14593653D01*
X3897619Y-14461620D01*
X3925500Y-14321455D01*
X3925500Y-14178545D01*
X3897619Y-14038380D01*
X3842929Y-13906347D01*
X3763532Y-13787521D01*
X3736498Y-13760487D01*
X3714824Y-13708161D01*
X3727295Y-13667050D01*
X3742929Y-13643653D01*
X3742930Y-13643649D01*
X3742932Y-13643647D01*
X3797617Y-13511624D01*
X3797619Y-13511620D01*
X3825500Y-13371455D01*
X3825500Y-13228545D01*
X3797619Y-13088380D01*
X3742929Y-12956347D01*
X3663532Y-12837521D01*
X3562479Y-12736468D01*
X3562438Y-12736440D01*
X3562437Y-12736439D01*
X3562436Y-12736439D01*
X3475793Y-12678546D01*
X11074500Y-12678546D01*
X11074500Y-12821453D01*
X11102379Y-12961614D01*
X11102381Y-12961620D01*
X11153451Y-13084915D01*
X11157071Y-13093653D01*
X11162902Y-13102379D01*
X11226539Y-13197620D01*
X11236468Y-13212479D01*
X11337521Y-13313532D01*
X11456347Y-13392929D01*
X11588380Y-13447619D01*
X11728545Y-13475500D01*
X11728547Y-13475500D01*
X11871453Y-13475500D01*
X11871455Y-13475500D01*
X12011620Y-13447619D01*
X12143653Y-13392929D01*
X12262479Y-13313532D01*
X12363532Y-13212479D01*
X12442929Y-13093653D01*
X12497619Y-12961620D01*
X12525500Y-12821455D01*
X12525500Y-12678545D01*
X12497619Y-12538380D01*
X12462348Y-12453228D01*
X12452124Y-12428546D01*
X12774500Y-12428546D01*
X12774500Y-12571453D01*
X12802379Y-12711614D01*
X12802381Y-12711620D01*
X12854530Y-12837520D01*
X12857071Y-12843653D01*
X12910240Y-12923226D01*
X12932372Y-12956350D01*
X12936468Y-12962479D01*
X13037521Y-13063532D01*
X13156347Y-13142929D01*
X13288380Y-13197619D01*
X13428545Y-13225500D01*
X13428547Y-13225500D01*
X13571453Y-13225500D01*
X13571455Y-13225500D01*
X13711620Y-13197619D01*
X13843653Y-13142929D01*
X13962479Y-13063532D01*
X14063532Y-12962479D01*
X14142929Y-12843653D01*
X14197619Y-12711620D01*
X14225500Y-12571455D01*
X14225500Y-12428545D01*
X14197619Y-12288380D01*
X14142929Y-12156347D01*
X14063532Y-12037521D01*
X13962479Y-11936468D01*
X13843653Y-11857071D01*
X13843650Y-11857069D01*
X13843649Y-11857069D01*
X13711620Y-11802381D01*
X13711614Y-11802379D01*
X13617752Y-11783709D01*
X13571455Y-11774500D01*
X13428545Y-11774500D01*
X13388810Y-11782403D01*
X13288385Y-11802379D01*
X13288379Y-11802381D01*
X13156350Y-11857069D01*
X13037521Y-11936467D01*
X13037520Y-11936469D01*
X12936469Y-12037520D01*
X12936467Y-12037521D01*
X12857069Y-12156350D01*
X12802381Y-12288379D01*
X12802379Y-12288385D01*
X12774500Y-12428546D01*
X12452124Y-12428546D01*
X12442931Y-12406351D01*
X12442930Y-12406349D01*
X12442929Y-12406347D01*
X12363532Y-12287521D01*
X12262479Y-12186468D01*
X12143653Y-12107071D01*
X12143650Y-12107069D01*
X12143649Y-12107069D01*
X12011620Y-12052381D01*
X12011614Y-12052379D01*
X11917752Y-12033709D01*
X11871455Y-12024500D01*
X11728545Y-12024500D01*
X11688810Y-12032403D01*
X11588385Y-12052379D01*
X11588379Y-12052381D01*
X11456350Y-12107069D01*
X11337521Y-12186467D01*
X11337520Y-12186469D01*
X11236469Y-12287520D01*
X11236467Y-12287521D01*
X11157069Y-12406350D01*
X11102381Y-12538379D01*
X11102379Y-12538385D01*
X11074500Y-12678546D01*
X3475793Y-12678546D01*
X3443653Y-12657071D01*
X3443650Y-12657069D01*
X3443649Y-12657069D01*
X3311620Y-12602381D01*
X3311614Y-12602379D01*
X3230905Y-12586325D01*
X3183813Y-12554859D01*
X3172764Y-12499310D01*
X3204230Y-12452218D01*
X3217019Y-12445382D01*
X3343653Y-12392929D01*
X3462479Y-12313532D01*
X3563532Y-12212479D01*
X3642929Y-12093653D01*
X3697619Y-11961620D01*
X3725500Y-11821455D01*
X3725500Y-11678545D01*
X3697619Y-11538380D01*
X3642929Y-11406347D01*
X3563532Y-11287521D01*
X3462479Y-11186468D01*
X3450621Y-11178545D01*
X3433071Y-11166818D01*
X3343653Y-11107071D01*
X3343649Y-11107069D01*
X3343647Y-11107068D01*
X3343648Y-11107068D01*
X3331015Y-11101836D01*
X3290966Y-11061788D01*
X3290966Y-11005151D01*
X3331014Y-10965102D01*
X3344894Y-10960891D01*
X3411620Y-10947619D01*
X3543653Y-10892929D01*
X3662479Y-10813532D01*
X3763532Y-10712479D01*
X3842929Y-10593653D01*
X3897619Y-10461620D01*
X3925500Y-10321455D01*
X3925500Y-10178545D01*
X3905609Y-10078546D01*
X10874500Y-10078546D01*
X10874500Y-10221453D01*
X10902379Y-10361614D01*
X10902381Y-10361620D01*
X10920907Y-10406347D01*
X10957071Y-10493653D01*
X11036468Y-10612479D01*
X11137521Y-10713532D01*
X11256347Y-10792929D01*
X11388380Y-10847619D01*
X11528545Y-10875500D01*
X11528547Y-10875500D01*
X11671453Y-10875500D01*
X11671455Y-10875500D01*
X11811620Y-10847619D01*
X11902083Y-10810148D01*
X11958718Y-10810148D01*
X11998767Y-10850196D01*
X12002978Y-10864078D01*
X12022379Y-10961614D01*
X12022381Y-10961620D01*
X12059975Y-11052381D01*
X12077071Y-11093653D01*
X12156468Y-11212479D01*
X12257521Y-11313532D01*
X12376347Y-11392929D01*
X12508380Y-11447619D01*
X12648545Y-11475500D01*
X12648547Y-11475500D01*
X12791453Y-11475500D01*
X12791455Y-11475500D01*
X12931620Y-11447619D01*
X13063653Y-11392929D01*
X13182479Y-11313532D01*
X13283532Y-11212479D01*
X13362929Y-11093653D01*
X13417619Y-10961620D01*
X13445500Y-10821455D01*
X13445500Y-10678545D01*
X13417619Y-10538380D01*
X13362929Y-10406347D01*
X13283532Y-10287521D01*
X13182479Y-10186468D01*
X13170621Y-10178545D01*
X13143226Y-10160240D01*
X13063653Y-10107071D01*
X13063650Y-10107069D01*
X13063649Y-10107069D01*
X12931620Y-10052381D01*
X12931614Y-10052379D01*
X12837752Y-10033709D01*
X12791455Y-10024500D01*
X12648545Y-10024500D01*
X12608810Y-10032403D01*
X12508385Y-10052379D01*
X12508375Y-10052382D01*
X12417917Y-10089851D01*
X12361280Y-10089851D01*
X12321232Y-10049802D01*
X12317021Y-10035921D01*
X12314749Y-10024500D01*
X12297619Y-9938380D01*
X12242929Y-9806347D01*
X12163532Y-9687521D01*
X12063066Y-9587055D01*
X12041393Y-9534731D01*
X12063067Y-9482405D01*
X12087073Y-9466365D01*
X12143653Y-9442929D01*
X12262479Y-9363532D01*
X12363532Y-9262479D01*
X12442929Y-9143653D01*
X12497619Y-9011620D01*
X12525500Y-8871455D01*
X12525500Y-8728545D01*
X12497619Y-8588380D01*
X12442929Y-8456347D01*
X12363532Y-8337521D01*
X12262479Y-8236468D01*
X12240257Y-8221620D01*
X12223226Y-8210240D01*
X12143653Y-8157071D01*
X12143650Y-8157069D01*
X12143649Y-8157069D01*
X12011620Y-8102381D01*
X12011614Y-8102379D01*
X11917752Y-8083709D01*
X11871455Y-8074500D01*
X11728545Y-8074500D01*
X11688810Y-8082403D01*
X11588385Y-8102379D01*
X11588379Y-8102381D01*
X11456350Y-8157069D01*
X11337521Y-8236467D01*
X11337520Y-8236469D01*
X11236469Y-8337520D01*
X11236467Y-8337521D01*
X11157069Y-8456350D01*
X11102381Y-8588379D01*
X11102379Y-8588385D01*
X11079806Y-8701870D01*
X11074500Y-8728545D01*
X11074500Y-8871455D01*
X11082488Y-8911614D01*
X11102379Y-9011614D01*
X11102381Y-9011620D01*
X11144158Y-9112480D01*
X11157071Y-9143653D01*
X11169651Y-9162480D01*
X11236467Y-9262478D01*
X11336931Y-9362942D01*
X11358605Y-9415268D01*
X11336931Y-9467594D01*
X11312925Y-9483635D01*
X11256348Y-9507070D01*
X11137521Y-9586467D01*
X11137520Y-9586469D01*
X11036469Y-9687520D01*
X11036467Y-9687521D01*
X10957069Y-9806350D01*
X10902381Y-9938379D01*
X10902379Y-9938385D01*
X10874500Y-10078546D01*
X3905609Y-10078546D01*
X3897619Y-10038380D01*
X3842929Y-9906347D01*
X3763532Y-9787521D01*
X3662479Y-9686468D01*
X3543653Y-9607071D01*
X3543650Y-9607069D01*
X3543649Y-9607069D01*
X3411620Y-9552381D01*
X3411614Y-9552379D01*
X3317752Y-9533709D01*
X3271455Y-9524500D01*
X3128545Y-9524500D01*
X3088810Y-9532403D01*
X2988385Y-9552379D01*
X2988379Y-9552381D01*
X2856350Y-9607069D01*
X2737521Y-9686467D01*
X2737520Y-9686469D01*
X2636469Y-9787520D01*
X2636467Y-9787521D01*
X2557069Y-9906350D01*
X2502381Y-10038379D01*
X2502379Y-10038385D01*
X2488717Y-10107071D01*
X2474500Y-10178545D01*
X2474500Y-10321455D01*
X2491386Y-10406347D01*
X2503090Y-10465185D01*
X2501111Y-10465578D01*
X2496152Y-10515800D01*
X2452361Y-10551718D01*
X2415458Y-10551718D01*
X2415185Y-10553090D01*
X2341228Y-10538379D01*
X2271455Y-10524500D01*
X2128545Y-10524500D01*
X2088810Y-10532403D01*
X1988385Y-10552379D01*
X1988379Y-10552381D01*
X1856350Y-10607069D01*
X1737521Y-10686467D01*
X1737520Y-10686469D01*
X1636469Y-10787520D01*
X1636467Y-10787521D01*
X1557069Y-10906350D01*
X1502381Y-11038379D01*
X1502379Y-11038385D01*
X1474500Y-11178546D01*
X300500Y-11178546D01*
X300500Y-8578545D01*
X1974500Y-8578545D01*
X1974500Y-8721455D01*
X1977294Y-8735500D01*
X2002379Y-8861614D01*
X2002381Y-8861620D01*
X2028840Y-8925499D01*
X2057071Y-8993653D01*
X2136468Y-9112479D01*
X2237521Y-9213532D01*
X2356347Y-9292929D01*
X2488380Y-9347619D01*
X2628545Y-9375500D01*
X2628547Y-9375500D01*
X2771453Y-9375500D01*
X2771455Y-9375500D01*
X2911620Y-9347619D01*
X3043653Y-9292929D01*
X3162479Y-9213532D01*
X3263532Y-9112479D01*
X3342929Y-8993653D01*
X3397619Y-8861620D01*
X3425500Y-8721455D01*
X3425500Y-8578545D01*
X3397619Y-8438380D01*
X3342929Y-8306347D01*
X3263532Y-8187521D01*
X3204556Y-8128545D01*
X3774500Y-8128545D01*
X3774500Y-8271452D01*
X3802379Y-8411613D01*
X3802381Y-8411619D01*
X3834178Y-8488385D01*
X3857071Y-8543652D01*
X3910240Y-8623225D01*
X3936029Y-8661822D01*
X3936468Y-8662478D01*
X4037521Y-8763531D01*
X4156347Y-8842928D01*
X4288380Y-8897618D01*
X4428545Y-8925499D01*
X4428547Y-8925499D01*
X4571453Y-8925499D01*
X4571455Y-8925499D01*
X4711620Y-8897618D01*
X4843653Y-8842928D01*
X4962479Y-8763531D01*
X5063532Y-8662478D01*
X5142929Y-8543652D01*
X5197619Y-8411619D01*
X5225500Y-8271454D01*
X5225500Y-8128544D01*
X5197619Y-7988379D01*
X5176977Y-7938545D01*
X6524500Y-7938545D01*
X6524500Y-8081455D01*
X6528662Y-8102379D01*
X6552379Y-8221614D01*
X6552381Y-8221620D01*
X6607071Y-8353653D01*
X6686468Y-8472479D01*
X6787521Y-8573532D01*
X6906347Y-8652929D01*
X7038380Y-8707619D01*
X7178545Y-8735500D01*
X7178547Y-8735500D01*
X7321453Y-8735500D01*
X7321455Y-8735500D01*
X7461620Y-8707619D01*
X7572183Y-8661822D01*
X7628818Y-8661822D01*
X7668867Y-8701870D01*
X7674500Y-8730189D01*
X7674500Y-8771453D01*
X7702379Y-8911614D01*
X7702381Y-8911620D01*
X7736358Y-8993649D01*
X7757071Y-9043653D01*
X7836468Y-9162479D01*
X7937521Y-9263532D01*
X8056347Y-9342929D01*
X8188380Y-9397619D01*
X8328545Y-9425500D01*
X8328547Y-9425500D01*
X8471453Y-9425500D01*
X8471455Y-9425500D01*
X8611620Y-9397619D01*
X8743653Y-9342929D01*
X8862479Y-9263532D01*
X8963532Y-9162479D01*
X9042929Y-9043653D01*
X9097619Y-8911620D01*
X9125500Y-8771455D01*
X9125500Y-8628545D01*
X9097619Y-8488380D01*
X9042929Y-8356347D01*
X8963532Y-8237521D01*
X8862479Y-8136468D01*
X8850621Y-8128545D01*
X8787650Y-8086469D01*
X8743653Y-8057071D01*
X8743650Y-8057069D01*
X8743649Y-8057069D01*
X8611620Y-8002381D01*
X8611614Y-8002379D01*
X8517752Y-7983709D01*
X8471455Y-7974500D01*
X8328545Y-7974500D01*
X8288810Y-7982403D01*
X8188385Y-8002379D01*
X8188375Y-8002382D01*
X8077818Y-8048177D01*
X8021181Y-8048177D01*
X7981133Y-8008128D01*
X7975500Y-7979810D01*
X7975500Y-7938546D01*
X7947620Y-7798385D01*
X7947619Y-7798384D01*
X7947619Y-7798380D01*
X7892929Y-7666347D01*
X7813532Y-7547521D01*
X7712479Y-7446468D01*
X7593653Y-7367071D01*
X7593650Y-7367069D01*
X7593649Y-7367069D01*
X7461620Y-7312381D01*
X7461614Y-7312379D01*
X7367752Y-7293709D01*
X7321455Y-7284500D01*
X7178545Y-7284500D01*
X7138810Y-7292403D01*
X7038385Y-7312379D01*
X7038379Y-7312381D01*
X6906350Y-7367069D01*
X6787521Y-7446467D01*
X6787520Y-7446469D01*
X6686469Y-7547520D01*
X6686467Y-7547521D01*
X6607069Y-7666350D01*
X6552381Y-7798379D01*
X6552379Y-7798385D01*
X6529104Y-7915396D01*
X6524500Y-7938545D01*
X5176977Y-7938545D01*
X5142929Y-7856346D01*
X5063532Y-7737520D01*
X4962479Y-7636467D01*
X4843653Y-7557070D01*
X4843650Y-7557068D01*
X4843649Y-7557068D01*
X4711620Y-7502380D01*
X4711614Y-7502378D01*
X4617752Y-7483708D01*
X4571455Y-7474499D01*
X4428545Y-7474499D01*
X4388810Y-7482402D01*
X4288385Y-7502378D01*
X4288379Y-7502380D01*
X4156350Y-7557068D01*
X4037521Y-7636466D01*
X4037520Y-7636468D01*
X3936469Y-7737519D01*
X3936467Y-7737520D01*
X3857069Y-7856349D01*
X3802381Y-7988378D01*
X3802379Y-7988384D01*
X3774500Y-8128545D01*
X3204556Y-8128545D01*
X3162479Y-8086468D01*
X3043653Y-8007071D01*
X3043650Y-8007069D01*
X3043649Y-8007069D01*
X2911620Y-7952381D01*
X2911614Y-7952379D01*
X2817752Y-7933709D01*
X2771455Y-7924500D01*
X2628545Y-7924500D01*
X2588810Y-7932403D01*
X2488385Y-7952379D01*
X2488379Y-7952381D01*
X2356350Y-8007069D01*
X2237521Y-8086467D01*
X2237520Y-8086469D01*
X2136469Y-8187520D01*
X2136467Y-8187521D01*
X2057069Y-8306350D01*
X2002381Y-8438379D01*
X2002379Y-8438385D01*
X1981441Y-8543652D01*
X1974500Y-8578545D01*
X300500Y-8578545D01*
X300500Y-5928546D01*
X2074500Y-5928546D01*
X2074500Y-6071453D01*
X2102379Y-6211614D01*
X2102381Y-6211620D01*
X2157071Y-6343653D01*
X2236468Y-6462479D01*
X2337521Y-6563532D01*
X2456347Y-6642929D01*
X2588380Y-6697619D01*
X2728545Y-6725500D01*
X2728547Y-6725500D01*
X2871453Y-6725500D01*
X2871455Y-6725500D01*
X3011620Y-6697619D01*
X3143653Y-6642929D01*
X3262479Y-6563532D01*
X3363532Y-6462479D01*
X3442929Y-6343653D01*
X3497619Y-6211620D01*
X3525500Y-6071455D01*
X3525500Y-5928545D01*
X3497619Y-5788380D01*
X3442929Y-5656347D01*
X3363532Y-5537521D01*
X3262479Y-5436468D01*
X3143653Y-5357071D01*
X3143650Y-5357069D01*
X3143649Y-5357069D01*
X3011620Y-5302381D01*
X3011614Y-5302379D01*
X2917752Y-5283709D01*
X2871455Y-5274500D01*
X2728545Y-5274500D01*
X2688810Y-5282403D01*
X2588385Y-5302379D01*
X2588379Y-5302381D01*
X2456350Y-5357069D01*
X2337521Y-5436467D01*
X2337520Y-5436469D01*
X2236469Y-5537520D01*
X2236467Y-5537521D01*
X2157069Y-5656350D01*
X2102381Y-5788379D01*
X2102379Y-5788385D01*
X2074500Y-5928546D01*
X300500Y-5928546D01*
X300500Y-5128546D01*
X6584500Y-5128546D01*
X6584500Y-5271453D01*
X6612379Y-5411614D01*
X6612381Y-5411620D01*
X6664530Y-5537520D01*
X6667071Y-5543653D01*
X6720240Y-5623226D01*
X6742372Y-5656350D01*
X6746468Y-5662479D01*
X6847521Y-5763532D01*
X6966347Y-5842929D01*
X7098380Y-5897619D01*
X7238545Y-5925500D01*
X7238547Y-5925500D01*
X7381453Y-5925500D01*
X7381455Y-5925500D01*
X7521620Y-5897619D01*
X7653653Y-5842929D01*
X7772479Y-5763532D01*
X7873532Y-5662479D01*
X7952929Y-5543653D01*
X8007619Y-5411620D01*
X8035500Y-5271455D01*
X8035500Y-5128545D01*
X8007619Y-4988380D01*
X7952929Y-4856347D01*
X7873532Y-4737521D01*
X7772479Y-4636468D01*
X7653653Y-4557071D01*
X7653650Y-4557069D01*
X7653649Y-4557069D01*
X7521620Y-4502381D01*
X7521614Y-4502379D01*
X7427752Y-4483709D01*
X7381455Y-4474500D01*
X7238545Y-4474500D01*
X7198810Y-4482403D01*
X7098385Y-4502379D01*
X7098379Y-4502381D01*
X6966350Y-4557069D01*
X6847521Y-4636467D01*
X6847520Y-4636469D01*
X6746469Y-4737520D01*
X6746467Y-4737521D01*
X6667069Y-4856350D01*
X6612381Y-4988379D01*
X6612379Y-4988385D01*
X6584500Y-5128546D01*
X300500Y-5128546D01*
X300500Y-4374000D01*
X322174Y-4321674D01*
X374500Y-4300000D01*
X9009900Y-4300000D01*
X9062226Y-4321674D01*
G37*
%TD.AperFunction*%
%TD*%
D11*
X12720000Y-10750000D03*
X3200000Y-10250000D03*
X2280000Y-13800000D03*
X9200000Y-26600000D03*
X3000000Y-11750000D03*
X3420000Y-27500000D03*
X4750000Y-17400000D03*
X8500000Y-17400000D03*
X13500000Y-17800000D03*
X10850000Y-17000000D03*
X10863000Y-20200000D03*
X12680000Y-16800000D03*
X2500000Y-6800000D03*
X7500000Y-13000000D03*
X5600000Y-19800000D03*
X13500000Y-25500000D03*
X1320000Y-12800000D03*
X700000Y-6000000D03*
X700000Y-8650000D03*
X14300000Y-11500000D03*
X14300000Y-9500000D03*
X6500000Y-12000000D03*
X9200000Y-19800000D03*
X6800000Y-19800000D03*
X7500000Y-12000000D03*
X7500000Y-14000000D03*
X2500000Y-5200000D03*
X8500000Y-14000000D03*
X1200000Y-24200000D03*
X14300000Y-5500000D03*
X6500000Y-13000000D03*
X5500000Y-23250000D03*
X14300000Y-28150000D03*
X14300000Y-28850000D03*
X2500000Y-20200000D03*
X8500000Y-12000000D03*
X6500000Y-14000000D03*
X1320000Y-14500000D03*
X9200000Y-28500000D03*
X5000000Y-27960000D03*
X2280000Y-29500000D03*
X14300000Y-13500000D03*
X14300000Y-15500000D03*
X14300000Y-7500000D03*
X8500000Y-6200000D03*
X4380000Y-29500000D03*
X8500000Y-13000000D03*
X1320000Y-17800000D03*
X9800000Y-4500000D03*
X11600000Y-10150000D03*
X9990000Y-27000000D03*
X13500000Y-12500000D03*
X11062000Y-23250000D03*
X8550000Y-20500000D03*
X14200000Y-21150000D03*
X4800000Y-24200000D03*
X4138000Y-23250000D03*
X2000000Y-26800000D03*
X8637000Y-25150000D03*
X7310000Y-5200000D03*
X3100000Y-13300000D03*
X6600000Y-26400000D03*
X8050000Y-27958000D03*
X8400000Y-8700000D03*
X7500000Y-26400000D03*
X3200000Y-14250000D03*
X9990000Y-28500000D03*
X11800000Y-8800000D03*
X11400000Y-19250000D03*
X11800000Y-12750000D03*
X2800000Y-6000000D03*
X3615000Y-7600000D03*
X2700000Y-8650000D03*
X2200000Y-11250000D03*
X2200000Y-15750000D03*
X7250000Y-21000000D03*
X7135000Y-7100000D03*
X7250000Y-8250000D03*
X7250000Y-4000000D03*
M02*
