%TF.GenerationSoftware,KiCad,Pcbnew,10.0.6*%
%TF.CreationDate,2026-09-20T18:18:46+05:30*%
%TF.ProjectId,Device1,44657669-6365-4312-9e6b-696361645f70,rev?*%
%TF.SameCoordinates,Original*%
%TF.FileFunction,Other,User*%
%FSLAX46Y46*%
G04 Gerber Fmt 4.6, Leading zero omitted, Abs format (unit mm)*
G04 Created by KiCad (PCBNEW 10.0.6) date 2026-09-20 18:18:46*
%MOMM*%
%LPD*%
G01*
G04 APERTURE LIST*
%ADD10C,0.050000*%
G04 APERTURE END LIST*
%TO.C,C2*%
D10*
X12290000Y-7040000D02*
X14110000Y-7040000D01*
X14110000Y-7960000D01*
X12290000Y-7960000D01*
X12290000Y-7040000D01*
%TO.C,L1*%
X4780000Y-5870000D02*
X5720000Y-5870000D01*
X5720000Y-7730000D01*
X4780000Y-7730000D01*
X4780000Y-5870000D01*
%TO.C,D2*%
X11950000Y-27750000D02*
X14050000Y-27750000D01*
X11950000Y-29250000D02*
X11950000Y-27750000D01*
X14050000Y-27750000D02*
X14050000Y-29250000D01*
X14050000Y-29250000D02*
X11950000Y-29250000D01*
%TO.C,C13*%
X2890000Y-6340000D02*
X4710000Y-6340000D01*
X4710000Y-7260000D01*
X2890000Y-7260000D01*
X2890000Y-6340000D01*
%TO.C,C11*%
X8040000Y-6590000D02*
X8960000Y-6590000D01*
X8960000Y-8410000D01*
X8040000Y-8410000D01*
X8040000Y-6590000D01*
%TO.C,R6*%
X9570000Y-27030000D02*
X11430000Y-27030000D01*
X11430000Y-27970000D01*
X9570000Y-27970000D01*
X9570000Y-27030000D01*
%TO.C,ANT1*%
X3800000Y-650000D02*
X11200000Y-650000D01*
X3800000Y-3350000D02*
X3800000Y-650000D01*
X11200000Y-650000D02*
X11200000Y-3350000D01*
X11200000Y-3350000D02*
X3800000Y-3350000D01*
%TO.C,R1*%
X6780000Y-6570000D02*
X7720000Y-6570000D01*
X7720000Y-8430000D01*
X6780000Y-8430000D01*
X6780000Y-6570000D01*
%TO.C,C16*%
X890000Y-28040000D02*
X2710000Y-28040000D01*
X2710000Y-28960000D01*
X890000Y-28960000D01*
X890000Y-28040000D01*
%TO.C,C17*%
X11290000Y-17340000D02*
X13110000Y-17340000D01*
X13110000Y-18260000D01*
X11290000Y-18260000D01*
X11290000Y-17340000D01*
%TO.C,R_ANT*%
X4780000Y-3870000D02*
X5720000Y-3870000D01*
X5720000Y-5730000D01*
X4780000Y-5730000D01*
X4780000Y-3870000D01*
%TO.C,C14*%
X2890000Y-4740000D02*
X4710000Y-4740000D01*
X4710000Y-5660000D01*
X2890000Y-5660000D01*
X2890000Y-4740000D01*
%TO.C,C21*%
X6340000Y-17490000D02*
X7260000Y-17490000D01*
X7260000Y-19310000D01*
X6340000Y-19310000D01*
X6340000Y-17490000D01*
%TO.C,U5*%
X950000Y-18700000D02*
X1950000Y-18700000D01*
X950000Y-21700000D02*
X950000Y-18700000D01*
X1950000Y-18500000D02*
X4050000Y-18500000D01*
X1950000Y-18700000D02*
X1950000Y-18500000D01*
X1950000Y-21700000D02*
X950000Y-21700000D01*
X1950000Y-21900000D02*
X1950000Y-21700000D01*
X4050000Y-18500000D02*
X4050000Y-18700000D01*
X4050000Y-18700000D02*
X5050000Y-18700000D01*
X4050000Y-19810000D02*
X4050000Y-20590000D01*
X4050000Y-20590000D02*
X5050000Y-20590000D01*
X4050000Y-21700000D02*
X4050000Y-21900000D01*
X4050000Y-21900000D02*
X1950000Y-21900000D01*
X5050000Y-18700000D02*
X5050000Y-19810000D01*
X5050000Y-19810000D02*
X4050000Y-19810000D01*
X5050000Y-20590000D02*
X5050000Y-21700000D01*
X5050000Y-21700000D02*
X4050000Y-21700000D01*
%TO.C,D1*%
X5900000Y-20250000D02*
X5900000Y-22150000D01*
X5900000Y-20250000D02*
X9100000Y-20250000D01*
X5900000Y-22150000D02*
X9100000Y-22150000D01*
X9100000Y-20250000D02*
X9100000Y-22150000D01*
%TO.C,C7*%
X890000Y-12340000D02*
X2710000Y-12340000D01*
X2710000Y-13260000D01*
X890000Y-13260000D01*
X890000Y-12340000D01*
%TO.C,C3*%
X12290000Y-5040000D02*
X14110000Y-5040000D01*
X14110000Y-5960000D01*
X12290000Y-5960000D01*
X12290000Y-5040000D01*
%TO.C,C5*%
X12290000Y-9040000D02*
X14110000Y-9040000D01*
X14110000Y-9960000D01*
X12290000Y-9960000D01*
X12290000Y-9040000D01*
%TO.C,C18*%
X12290000Y-13040000D02*
X14110000Y-13040000D01*
X14110000Y-13960000D01*
X12290000Y-13960000D01*
X12290000Y-13040000D01*
%TO.C,Q2*%
X10070000Y-22700000D02*
X11100000Y-22700000D01*
X10070000Y-23810000D02*
X10070000Y-22700000D01*
X10070000Y-24590000D02*
X11100000Y-24590000D01*
X10070000Y-25700000D02*
X10070000Y-24590000D01*
X11100000Y-22500000D02*
X12900000Y-22500000D01*
X11100000Y-22700000D02*
X11100000Y-22500000D01*
X11100000Y-23810000D02*
X10070000Y-23810000D01*
X11100000Y-24590000D02*
X11100000Y-23810000D01*
X11100000Y-25700000D02*
X10070000Y-25700000D01*
X11100000Y-25900000D02*
X11100000Y-25700000D01*
X12900000Y-22500000D02*
X12900000Y-23650000D01*
X12900000Y-23650000D02*
X13930000Y-23650000D01*
X12900000Y-24750000D02*
X12900000Y-25900000D01*
X12900000Y-25900000D02*
X11100000Y-25900000D01*
X13930000Y-23650000D02*
X13930000Y-24750000D01*
X13930000Y-24750000D02*
X12900000Y-24750000D01*
%TO.C,C1*%
X890000Y-14040000D02*
X2710000Y-14040000D01*
X2710000Y-14960000D01*
X890000Y-14960000D01*
X890000Y-14040000D01*
%TO.C,U4*%
X950000Y-22700000D02*
X1950000Y-22700000D01*
X950000Y-25700000D02*
X950000Y-22700000D01*
X1950000Y-22500000D02*
X4050000Y-22500000D01*
X1950000Y-22700000D02*
X1950000Y-22500000D01*
X1950000Y-25700000D02*
X950000Y-25700000D01*
X1950000Y-25900000D02*
X1950000Y-25700000D01*
X4050000Y-22500000D02*
X4050000Y-22700000D01*
X4050000Y-22700000D02*
X5050000Y-22700000D01*
X4050000Y-25700000D02*
X4050000Y-25900000D01*
X4050000Y-25900000D02*
X1950000Y-25900000D01*
X5050000Y-22700000D02*
X5050000Y-25700000D01*
X5050000Y-25700000D02*
X4050000Y-25700000D01*
%TO.C,Q1*%
X5450000Y-22700000D02*
X6450000Y-22700000D01*
X5450000Y-25700000D02*
X5450000Y-22700000D01*
X6450000Y-22500000D02*
X8550000Y-22500000D01*
X6450000Y-22700000D02*
X6450000Y-22500000D01*
X6450000Y-25700000D02*
X5450000Y-25700000D01*
X6450000Y-25900000D02*
X6450000Y-25700000D01*
X8550000Y-22500000D02*
X8550000Y-22700000D01*
X8550000Y-22700000D02*
X9550000Y-22700000D01*
X8550000Y-25700000D02*
X8550000Y-25900000D01*
X8550000Y-25900000D02*
X6450000Y-25900000D01*
X9550000Y-22700000D02*
X9550000Y-25700000D01*
X9550000Y-25700000D02*
X8550000Y-25700000D01*
%TO.C,C10*%
X12290000Y-15040000D02*
X14110000Y-15040000D01*
X14110000Y-15960000D01*
X12290000Y-15960000D01*
X12290000Y-15040000D01*
%TO.C,C20*%
X5140000Y-17490000D02*
X6060000Y-17490000D01*
X6060000Y-19310000D01*
X5140000Y-19310000D01*
X5140000Y-17490000D01*
%TO.C,C12*%
X8740000Y-17490000D02*
X9660000Y-17490000D01*
X9660000Y-19310000D01*
X8740000Y-19310000D01*
X8740000Y-17490000D01*
%TO.C,R_TEST*%
X5870000Y-4730000D02*
X7730000Y-4730000D01*
X7730000Y-5670000D01*
X5870000Y-5670000D01*
X5870000Y-4730000D01*
%TO.C,MK1*%
X5920000Y-26500000D02*
X9080000Y-26500000D01*
X9080000Y-30500000D01*
X5920000Y-30500000D01*
X5920000Y-26500000D01*
%TO.C,R7*%
X9570000Y-28730000D02*
X11430000Y-28730000D01*
X11430000Y-29670000D01*
X9570000Y-29670000D01*
X9570000Y-28730000D01*
%TO.C,U2*%
X9950000Y-18700000D02*
X10950000Y-18700000D01*
X9950000Y-21700000D02*
X9950000Y-18700000D01*
X10950000Y-18500000D02*
X13050000Y-18500000D01*
X10950000Y-18700000D02*
X10950000Y-18500000D01*
X10950000Y-21700000D02*
X9950000Y-21700000D01*
X10950000Y-21900000D02*
X10950000Y-21700000D01*
X13050000Y-18500000D02*
X13050000Y-18700000D01*
X13050000Y-18700000D02*
X14050000Y-18700000D01*
X13050000Y-19810000D02*
X13050000Y-20590000D01*
X13050000Y-20590000D02*
X14050000Y-20590000D01*
X13050000Y-21700000D02*
X13050000Y-21900000D01*
X13050000Y-21900000D02*
X10950000Y-21900000D01*
X14050000Y-18700000D02*
X14050000Y-19810000D01*
X14050000Y-19810000D02*
X13050000Y-19810000D01*
X14050000Y-20590000D02*
X14050000Y-21700000D01*
X14050000Y-21700000D02*
X13050000Y-21700000D01*
%TO.C,C4*%
X690000Y-5540000D02*
X2510000Y-5540000D01*
X2510000Y-6460000D01*
X690000Y-6460000D01*
X690000Y-5540000D01*
%TO.C,C8*%
X12290000Y-11040000D02*
X14110000Y-11040000D01*
X14110000Y-11960000D01*
X12290000Y-11960000D01*
X12290000Y-11040000D01*
%TO.C,Y1*%
X100000Y-7900000D02*
X3100000Y-7900000D01*
X3100000Y-10500000D01*
X100000Y-10500000D01*
X100000Y-7900000D01*
%TO.C,C9*%
X890000Y-16540000D02*
X2710000Y-16540000D01*
X2710000Y-17460000D01*
X890000Y-17460000D01*
X890000Y-16540000D01*
%TO.C,U1*%
X3370000Y-9870000D02*
X3750000Y-9870000D01*
X3370000Y-16130000D02*
X3370000Y-9870000D01*
X3750000Y-9250000D02*
X4370000Y-9250000D01*
X3750000Y-9870000D02*
X3750000Y-9250000D01*
X3750000Y-16130000D02*
X3370000Y-16130000D01*
X3750000Y-16750000D02*
X3750000Y-16130000D01*
X4370000Y-8870000D02*
X10630000Y-8870000D01*
X4370000Y-9250000D02*
X4370000Y-8870000D01*
X4370000Y-16750000D02*
X3750000Y-16750000D01*
X4370000Y-17130000D02*
X4370000Y-16750000D01*
X10630000Y-8870000D02*
X10630000Y-9250000D01*
X10630000Y-9250000D02*
X11250000Y-9250000D01*
X10630000Y-16750000D02*
X10630000Y-17130000D01*
X10630000Y-17130000D02*
X4370000Y-17130000D01*
X11250000Y-9250000D02*
X11250000Y-9870000D01*
X11250000Y-9870000D02*
X11630000Y-9870000D01*
X11250000Y-16130000D02*
X11250000Y-16750000D01*
X11250000Y-16750000D02*
X10630000Y-16750000D01*
X11630000Y-9870000D02*
X11630000Y-16130000D01*
X11630000Y-16130000D02*
X11250000Y-16130000D01*
%TO.C,C15*%
X2990000Y-28040000D02*
X4810000Y-28040000D01*
X4810000Y-28960000D01*
X2990000Y-28960000D01*
X2990000Y-28040000D01*
%TD*%
M02*
