M48
; DRILL file KiCad 10.0.6 date 2026-09-21T00:10:13
; FORMAT={-:-/ absolute / metric / decimal}
; #@! TF.CreationDate,2026-09-21T00:10:13+05:30
; #@! TF.GenerationSoftware,Kicad,Pcbnew,10.0.6
; #@! TF.FileFunction,Plated,1,4,PTH
FMAT,2
METRIC
; #@! TA.AperFunction,Plated,PTH,ViaDrill
T1C0.250
%
G90
G05
T1
X0.7Y-6.0
X0.7Y-8.65
X1.2Y-24.2
X1.32Y-12.8
X1.32Y-14.5
X1.32Y-17.8
X2.0Y-26.8
X2.2Y-11.25
X2.2Y-15.75
X2.28Y-13.8
X2.28Y-29.5
X2.5Y-5.2
X2.5Y-6.8
X2.5Y-20.2
X2.7Y-8.65
X2.8Y-6.0
X3.0Y-11.75
X3.1Y-13.3
X3.2Y-10.25
X3.2Y-14.25
X3.42Y-27.5
X3.615Y-7.6
X4.138Y-23.25
X4.38Y-29.5
X4.75Y-17.4
X4.8Y-24.2
X5.0Y-27.96
X5.5Y-23.25
X5.6Y-19.8
X6.5Y-12.0
X6.5Y-13.0
X6.5Y-14.0
X6.6Y-26.4
X6.8Y-19.8
X7.135Y-7.1
X7.25Y-4.0
X7.25Y-8.25
X7.25Y-21.0
X7.31Y-5.2
X7.5Y-12.0
X7.5Y-13.0
X7.5Y-14.0
X7.5Y-26.4
X8.05Y-27.958
X8.4Y-8.7
X8.5Y-6.2
X8.5Y-12.0
X8.5Y-13.0
X8.5Y-14.0
X8.5Y-17.4
X8.55Y-20.5
X8.637Y-25.15
X9.2Y-19.8
X9.2Y-26.6
X9.2Y-28.5
X9.8Y-4.5
X9.99Y-27.0
X9.99Y-28.5
X10.85Y-17.0
X10.863Y-20.2
X11.062Y-23.25
X11.4Y-19.25
X11.6Y-10.15
X11.8Y-8.8
X11.8Y-12.75
X12.68Y-16.8
X12.72Y-10.75
X13.5Y-12.5
X13.5Y-17.8
X13.5Y-25.5
X14.2Y-21.15
X14.3Y-5.5
X14.3Y-7.5
X14.3Y-9.5
X14.3Y-11.5
X14.3Y-13.5
X14.3Y-15.5
X14.3Y-28.15
X14.3Y-28.85
M30
