%TF.GenerationSoftware,KiCad,Pcbnew,10.0.6*%
%TF.CreationDate,2026-09-21T00:10:13+05:30*%
%TF.ProjectId,Device1,44657669-6365-4312-9e6b-696361645f70,rev?*%
%TF.SameCoordinates,Original*%
%TF.FileFunction,Legend,Bot*%
%TF.FilePolarity,Positive*%
%FSLAX46Y46*%
G04 Gerber Fmt 4.6, Leading zero omitted, Abs format (unit mm)*
G04 Created by KiCad (PCBNEW 10.0.6) date 2026-09-21 00:10:13*
%MOMM*%
%LPD*%
G01*
G04 APERTURE LIST*
%ADD10C,0.120000*%
G04 APERTURE END LIST*
%TO.C,TP_RF*%
D10*
X10500000Y-7200000D02*
G75*
G02*
X9100000Y-7200000I-700000J0D01*
G01*
X9100000Y-7200000D02*
G75*
G02*
X10500000Y-7200000I700000J0D01*
G01*
%TO.C,TP_GND*%
X14200000Y-25500000D02*
G75*
G02*
X12800000Y-25500000I-700000J0D01*
G01*
X12800000Y-25500000D02*
G75*
G02*
X14200000Y-25500000I700000J0D01*
G01*
%TO.C,TP_SWDIO*%
X2900000Y-15750000D02*
G75*
G02*
X1500000Y-15750000I-700000J0D01*
G01*
X1500000Y-15750000D02*
G75*
G02*
X2900000Y-15750000I700000J0D01*
G01*
%TO.C,TP_NRST*%
X10500000Y-4500000D02*
G75*
G02*
X9100000Y-4500000I-700000J0D01*
G01*
X9100000Y-4500000D02*
G75*
G02*
X10500000Y-4500000I700000J0D01*
G01*
%TO.C,TP_SWCLK*%
X7950000Y-21000000D02*
G75*
G02*
X6550000Y-21000000I-700000J0D01*
G01*
X6550000Y-21000000D02*
G75*
G02*
X7950000Y-21000000I700000J0D01*
G01*
%TO.C,TP_BATT_N*%
X2700000Y-26800000D02*
G75*
G02*
X1300000Y-26800000I-700000J0D01*
G01*
X1300000Y-26800000D02*
G75*
G02*
X2700000Y-26800000I700000J0D01*
G01*
%TO.C,TP_BATT_P*%
X5500000Y-24200000D02*
G75*
G02*
X4100000Y-24200000I-700000J0D01*
G01*
X4100000Y-24200000D02*
G75*
G02*
X5500000Y-24200000I700000J0D01*
G01*
%TO.C,TP_VBUS*%
X14200000Y-4200000D02*
G75*
G02*
X12800000Y-4200000I-700000J0D01*
G01*
X12800000Y-4200000D02*
G75*
G02*
X14200000Y-4200000I700000J0D01*
G01*
%TO.C,TP_3V3*%
X14200000Y-17800000D02*
G75*
G02*
X12800000Y-17800000I-700000J0D01*
G01*
X12800000Y-17800000D02*
G75*
G02*
X14200000Y-17800000I700000J0D01*
G01*
%TO.C,TP_BOOT0*%
X7950000Y-4000000D02*
G75*
G02*
X6550000Y-4000000I-700000J0D01*
G01*
X6550000Y-4000000D02*
G75*
G02*
X7950000Y-4000000I700000J0D01*
G01*
%TD*%
M02*
