%TF.GenerationSoftware,KiCad,Pcbnew,10.0.6*%
%TF.CreationDate,2026-09-20T18:18:46+05:30*%
%TF.ProjectId,Device1,44657669-6365-4312-9e6b-696361645f70,rev?*%
%TF.SameCoordinates,Original*%
%TF.FileFunction,Paste,Top*%
%TF.FilePolarity,Positive*%
%FSLAX46Y46*%
G04 Gerber Fmt 4.6, Leading zero omitted, Abs format (unit mm)*
G04 Created by KiCad (PCBNEW 10.0.6) date 2026-09-20 18:18:46*
%MOMM*%
%LPD*%
G01*
G04 APERTURE LIST*
G04 Aperture macros list*
%AMRoundRect*
0 Rectangle with rounded corners*
0 $1 Rounding radius*
0 $2 $3 $4 $5 $6 $7 $8 $9 X,Y pos of 4 corners*
0 Add a 4 corners polygon primitive as box body*
4,1,4,$2,$3,$4,$5,$6,$7,$8,$9,$2,$3,0*
0 Add four circle primitives for the rounded corners*
1,1,$1+$1,$2,$3*
1,1,$1+$1,$4,$5*
1,1,$1+$1,$6,$7*
1,1,$1+$1,$8,$9*
0 Add four rect primitives between the rounded corners*
20,1,$1+$1,$2,$3,$4,$5,0*
20,1,$1+$1,$4,$5,$6,$7,0*
20,1,$1+$1,$6,$7,$8,$9,0*
20,1,$1+$1,$8,$9,$2,$3,0*%
G04 Aperture macros list end*
%ADD10C,0.000000*%
%ADD11RoundRect,0.140000X-0.140000X-0.170000X0.140000X-0.170000X0.140000X0.170000X-0.140000X0.170000X0*%
%ADD12RoundRect,0.147500X0.172500X-0.147500X0.172500X0.147500X-0.172500X0.147500X-0.172500X-0.147500X0*%
%ADD13R,0.500000X0.400000*%
%ADD14RoundRect,0.140000X0.140000X0.170000X-0.140000X0.170000X-0.140000X-0.170000X0.140000X-0.170000X0*%
%ADD15RoundRect,0.140000X0.170000X-0.140000X0.170000X0.140000X-0.170000X0.140000X-0.170000X-0.140000X0*%
%ADD16RoundRect,0.135000X-0.135000X-0.185000X0.135000X-0.185000X0.135000X0.185000X-0.135000X0.185000X0*%
%ADD17RoundRect,0.250000X-0.350000X-0.850000X0.350000X-0.850000X0.350000X0.850000X-0.350000X0.850000X0*%
%ADD18RoundRect,0.135000X0.185000X-0.135000X0.185000X0.135000X-0.185000X0.135000X-0.185000X-0.135000X0*%
%ADD19RoundRect,0.140000X-0.170000X0.140000X-0.170000X-0.140000X0.170000X-0.140000X0.170000X0.140000X0*%
%ADD20RoundRect,0.150000X-0.512500X-0.150000X0.512500X-0.150000X0.512500X0.150000X-0.512500X0.150000X0*%
%ADD21RoundRect,0.112500X-0.187500X-0.112500X0.187500X-0.112500X0.187500X0.112500X-0.187500X0.112500X0*%
%ADD22RoundRect,0.150000X-0.587500X-0.150000X0.587500X-0.150000X0.587500X0.150000X-0.587500X0.150000X0*%
%ADD23RoundRect,0.130500X-0.169500X-0.130500X0.169500X-0.130500X0.169500X0.130500X-0.169500X0.130500X0*%
%ADD24RoundRect,0.200000X-0.250000X-0.200000X0.250000X-0.200000X0.250000X0.200000X-0.250000X0.200000X0*%
%ADD25RoundRect,0.250000X0.315000X0.315000X-0.315000X0.315000X-0.315000X-0.315000X0.315000X-0.315000X0*%
%ADD26RoundRect,0.062500X0.375000X0.062500X-0.375000X0.062500X-0.375000X-0.062500X0.375000X-0.062500X0*%
%ADD27RoundRect,0.062500X0.062500X0.375000X-0.062500X0.375000X-0.062500X-0.375000X0.062500X-0.375000X0*%
G04 APERTURE END LIST*
D10*
%TO.C,MK1*%
G36*
X7073900Y-28925300D02*
G01*
X7032200Y-29000700D01*
X7003700Y-29082000D01*
X6989300Y-29166900D01*
X6989300Y-29253100D01*
X7003700Y-29338000D01*
X7032200Y-29419300D01*
X7073900Y-29494700D01*
X6859100Y-29709400D01*
X6776700Y-29580000D01*
X6720000Y-29437400D01*
X6691100Y-29286700D01*
X6691100Y-29133300D01*
X6720000Y-28982600D01*
X6776700Y-28840000D01*
X6859100Y-28710600D01*
X7073900Y-28925300D01*
G37*
G36*
X7727400Y-28430000D02*
G01*
X7870000Y-28486700D01*
X7999400Y-28569100D01*
X7784700Y-28783900D01*
X7709300Y-28742200D01*
X7628000Y-28713700D01*
X7543100Y-28699300D01*
X7456900Y-28699300D01*
X7372000Y-28713700D01*
X7290700Y-28742200D01*
X7215300Y-28783900D01*
X7000600Y-28569100D01*
X7130000Y-28486700D01*
X7272600Y-28430000D01*
X7423300Y-28401100D01*
X7576700Y-28401100D01*
X7727400Y-28430000D01*
G37*
G36*
X7999400Y-29850900D02*
G01*
X7870000Y-29933300D01*
X7727400Y-29990000D01*
X7576700Y-30018900D01*
X7423300Y-30018900D01*
X7272600Y-29990000D01*
X7130000Y-29933300D01*
X7000600Y-29850900D01*
X7215300Y-29636100D01*
X7290700Y-29677800D01*
X7372000Y-29706300D01*
X7456900Y-29720700D01*
X7543100Y-29720700D01*
X7628000Y-29706300D01*
X7709300Y-29677800D01*
X7784700Y-29636100D01*
X7999400Y-29850900D01*
G37*
G36*
X8223300Y-28840000D02*
G01*
X8280000Y-28982600D01*
X8308900Y-29133300D01*
X8308900Y-29286700D01*
X8280000Y-29437400D01*
X8223300Y-29580000D01*
X8140900Y-29709400D01*
X7926100Y-29494700D01*
X7967800Y-29419300D01*
X7996300Y-29338000D01*
X8010700Y-29253100D01*
X8010700Y-29166900D01*
X7996300Y-29082000D01*
X7967800Y-29000700D01*
X7926100Y-28925300D01*
X8140900Y-28710600D01*
X8223300Y-28840000D01*
G37*
%TD*%
D11*
%TO.C,C2*%
X12720000Y-7500000D03*
X13680000Y-7500000D03*
%TD*%
D12*
%TO.C,L1*%
X5250000Y-7285000D03*
X5250000Y-6315000D03*
%TD*%
D13*
%TO.C,D2*%
X12400000Y-28150000D03*
X12400000Y-28850000D03*
X13600000Y-28150000D03*
X13600000Y-28850000D03*
%TD*%
D14*
%TO.C,C13*%
X4280000Y-6800000D03*
X3320000Y-6800000D03*
%TD*%
D15*
%TO.C,C11*%
X8500000Y-7980000D03*
X8500000Y-7020000D03*
%TD*%
D16*
%TO.C,R6*%
X9990000Y-27500000D03*
X11010000Y-27500000D03*
%TD*%
D17*
%TO.C,ANT1*%
X4650000Y-2000000D03*
X10350000Y-2000000D03*
%TD*%
D18*
%TO.C,R1*%
X7250000Y-8010000D03*
X7250000Y-6990000D03*
%TD*%
D11*
%TO.C,C16*%
X1320000Y-28500000D03*
X2280000Y-28500000D03*
%TD*%
%TO.C,C17*%
X11720000Y-17800000D03*
X12680000Y-17800000D03*
%TD*%
D18*
%TO.C,R_ANT*%
X5250000Y-5310000D03*
X5250000Y-4290000D03*
%TD*%
D14*
%TO.C,C14*%
X4280000Y-5200000D03*
X3320000Y-5200000D03*
%TD*%
D19*
%TO.C,C21*%
X6800000Y-17920000D03*
X6800000Y-18880000D03*
%TD*%
D20*
%TO.C,U5*%
X1862500Y-19250000D03*
X1862500Y-20200000D03*
X1862500Y-21150000D03*
X4137500Y-21150000D03*
X4137500Y-19250000D03*
%TD*%
D21*
%TO.C,D1*%
X6450000Y-21200000D03*
X8550000Y-21200000D03*
%TD*%
D14*
%TO.C,C7*%
X2280000Y-12800000D03*
X1320000Y-12800000D03*
%TD*%
D11*
%TO.C,C3*%
X12720000Y-5500000D03*
X13680000Y-5500000D03*
%TD*%
%TO.C,C5*%
X12720000Y-9500000D03*
X13680000Y-9500000D03*
%TD*%
%TO.C,C18*%
X12720000Y-13500000D03*
X13680000Y-13500000D03*
%TD*%
D22*
%TO.C,Q2*%
X11062500Y-23250000D03*
X11062500Y-25150000D03*
X12937500Y-24200000D03*
%TD*%
D14*
%TO.C,C1*%
X2280000Y-14500000D03*
X1320000Y-14500000D03*
%TD*%
D20*
%TO.C,U4*%
X1862500Y-23250000D03*
X1862500Y-24200000D03*
X1862500Y-25150000D03*
X4137500Y-25150000D03*
X4137500Y-24200000D03*
X4137500Y-23250000D03*
%TD*%
%TO.C,Q1*%
X6362500Y-23250000D03*
X6362500Y-24200000D03*
X6362500Y-25150000D03*
X8637500Y-25150000D03*
X8637500Y-24200000D03*
X8637500Y-23250000D03*
%TD*%
D11*
%TO.C,C10*%
X12720000Y-15500000D03*
X13680000Y-15500000D03*
%TD*%
D19*
%TO.C,C20*%
X5600000Y-17920000D03*
X5600000Y-18880000D03*
%TD*%
%TO.C,C12*%
X9200000Y-17920000D03*
X9200000Y-18880000D03*
%TD*%
D16*
%TO.C,R_TEST*%
X6290000Y-5200000D03*
X7310000Y-5200000D03*
%TD*%
D23*
%TO.C,MK1*%
X6600000Y-27136000D03*
X6600000Y-27958000D03*
X8400000Y-27958000D03*
X8400000Y-27136000D03*
X7500000Y-27136000D03*
%TD*%
D16*
%TO.C,R7*%
X9990000Y-29200000D03*
X11010000Y-29200000D03*
%TD*%
D20*
%TO.C,U2*%
X10862500Y-19250000D03*
X10862500Y-20200000D03*
X10862500Y-21150000D03*
X13137500Y-21150000D03*
X13137500Y-19250000D03*
%TD*%
D14*
%TO.C,C4*%
X2080000Y-6000000D03*
X1120000Y-6000000D03*
%TD*%
D11*
%TO.C,C8*%
X12720000Y-11500000D03*
X13680000Y-11500000D03*
%TD*%
D24*
%TO.C,Y1*%
X900000Y-9750000D03*
X2300000Y-9750000D03*
X2300000Y-8650000D03*
X900000Y-8650000D03*
%TD*%
D14*
%TO.C,C9*%
X2280000Y-17000000D03*
X1320000Y-17000000D03*
%TD*%
D25*
%TO.C,U1*%
X9600000Y-15100000D03*
X9600000Y-13700000D03*
X9600000Y-12300000D03*
X9600000Y-10900000D03*
X8200000Y-15100000D03*
X8200000Y-13700000D03*
X8200000Y-12300000D03*
X8200000Y-10900000D03*
X6800000Y-15100000D03*
X6800000Y-13700000D03*
X6800000Y-12300000D03*
X6800000Y-10900000D03*
X5400000Y-15100000D03*
X5400000Y-13700000D03*
X5400000Y-12300000D03*
X5400000Y-10900000D03*
D26*
X10937500Y-15750000D03*
X10937500Y-15250000D03*
X10937500Y-14750000D03*
X10937500Y-14250000D03*
X10937500Y-13750000D03*
X10937500Y-13250000D03*
X10937500Y-12750000D03*
X10937500Y-12250000D03*
X10937500Y-11750000D03*
X10937500Y-11250000D03*
X10937500Y-10750000D03*
X10937500Y-10250000D03*
D27*
X10250000Y-9562500D03*
X9750000Y-9562500D03*
X9250000Y-9562500D03*
X8750000Y-9562500D03*
X8250000Y-9562500D03*
X7750000Y-9562500D03*
X7250000Y-9562500D03*
X6750000Y-9562500D03*
X6250000Y-9562500D03*
X5750000Y-9562500D03*
X5250000Y-9562500D03*
X4750000Y-9562500D03*
D26*
X4062500Y-10250000D03*
X4062500Y-10750000D03*
X4062500Y-11250000D03*
X4062500Y-11750000D03*
X4062500Y-12250000D03*
X4062500Y-12750000D03*
X4062500Y-13250000D03*
X4062500Y-13750000D03*
X4062500Y-14250000D03*
X4062500Y-14750000D03*
X4062500Y-15250000D03*
X4062500Y-15750000D03*
D27*
X4750000Y-16437500D03*
X5250000Y-16437500D03*
X5750000Y-16437500D03*
X6250000Y-16437500D03*
X6750000Y-16437500D03*
X7250000Y-16437500D03*
X7750000Y-16437500D03*
X8250000Y-16437500D03*
X8750000Y-16437500D03*
X9250000Y-16437500D03*
X9750000Y-16437500D03*
X10250000Y-16437500D03*
%TD*%
D11*
%TO.C,C15*%
X3420000Y-28500000D03*
X4380000Y-28500000D03*
%TD*%
M02*
