%TF.GenerationSoftware,KiCad,Pcbnew,10.0.6*%
%TF.CreationDate,2026-09-21T00:10:13+05:30*%
%TF.ProjectId,Device1,44657669-6365-4312-9e6b-696361645f70,rev?*%
%TF.SameCoordinates,Original*%
%TF.FileFunction,Copper,L1,Top*%
%TF.FilePolarity,Positive*%
%FSLAX46Y46*%
G04 Gerber Fmt 4.6, Leading zero omitted, Abs format (unit mm)*
G04 Created by KiCad (PCBNEW 10.0.6) date 2026-09-21 00:10:13*
%MOMM*%
%LPD*%
G01*
G04 APERTURE LIST*
G04 Aperture macros list*
%AMRoundRect*
0 Rectangle with rounded corners*
0 $1 Rounding radius*
0 $2 $3 $4 $5 $6 $7 $8 $9 X,Y pos of 4 corners*
0 Add a 4 corners polygon primitive as box body*
4,1,4,$2,$3,$4,$5,$6,$7,$8,$9,$2,$3,0*
0 Add four circle primitives for the rounded corners*
1,1,$1+$1,$2,$3*
1,1,$1+$1,$4,$5*
1,1,$1+$1,$6,$7*
1,1,$1+$1,$8,$9*
0 Add four rect primitives between the rounded corners*
20,1,$1+$1,$2,$3,$4,$5,0*
20,1,$1+$1,$4,$5,$6,$7,0*
20,1,$1+$1,$6,$7,$8,$9,0*
20,1,$1+$1,$8,$9,$2,$3,0*%
%AMFreePoly0*
4,1,64,0.235711,1.439036,0.382774,1.378120,0.515127,1.289684,0.627684,1.177127,0.716120,1.044774,0.777036,0.897711,0.808090,0.741590,0.808090,0.582410,0.777036,0.426289,0.716120,0.279226,0.627684,0.146873,0.515127,0.034316,0.382774,-0.054120,0.235711,-0.115036,0.079590,-0.146090,0.031746,-0.146090,0.029264,-0.147118,-0.029264,-0.147118,-0.031746,-0.146090,-0.079590,-0.146090,
-0.235711,-0.115036,-0.382774,-0.054120,-0.515127,0.034316,-0.627684,0.146873,-0.716120,0.279226,-0.777036,0.426289,-0.808090,0.582410,-0.808090,0.729406,-0.512000,0.729406,-0.512000,0.594594,-0.477108,0.464375,-0.409702,0.347625,-0.314375,0.252298,-0.197625,0.184892,-0.067406,0.150000,0.067406,0.150000,0.197625,0.184892,0.314375,0.252298,0.409702,0.347625,0.477108,0.464375,
0.512000,0.594594,0.512000,0.729406,0.477108,0.859625,0.409702,0.976375,0.314375,1.071702,0.197625,1.139108,0.067406,1.174000,-0.067406,1.174000,-0.197625,1.139108,-0.314375,1.071702,-0.409702,0.976375,-0.477108,0.859625,-0.512000,0.729406,-0.808090,0.729406,-0.808090,0.741590,-0.777036,0.897711,-0.716120,1.044774,-0.627684,1.177127,-0.515127,1.289684,-0.382774,1.378120,
-0.235711,1.439036,-0.079590,1.470090,0.079590,1.470090,0.235711,1.439036,0.235711,1.439036,$1*%
G04 Aperture macros list end*
%TA.AperFunction,SMDPad,CuDef*%
%ADD10RoundRect,0.140000X-0.140000X-0.170000X0.140000X-0.170000X0.140000X0.170000X-0.140000X0.170000X0*%
%TD*%
%TA.AperFunction,SMDPad,CuDef*%
%ADD11RoundRect,0.147500X0.172500X-0.147500X0.172500X0.147500X-0.172500X0.147500X-0.172500X-0.147500X0*%
%TD*%
%TA.AperFunction,SMDPad,CuDef*%
%ADD12R,0.500000X0.400000*%
%TD*%
%TA.AperFunction,SMDPad,CuDef*%
%ADD13RoundRect,0.140000X0.140000X0.170000X-0.140000X0.170000X-0.140000X-0.170000X0.140000X-0.170000X0*%
%TD*%
%TA.AperFunction,SMDPad,CuDef*%
%ADD14RoundRect,0.140000X0.170000X-0.140000X0.170000X0.140000X-0.170000X0.140000X-0.170000X-0.140000X0*%
%TD*%
%TA.AperFunction,SMDPad,CuDef*%
%ADD15RoundRect,0.135000X-0.135000X-0.185000X0.135000X-0.185000X0.135000X0.185000X-0.135000X0.185000X0*%
%TD*%
%TA.AperFunction,SMDPad,CuDef*%
%ADD16RoundRect,0.200000X-0.300000X-0.700000X0.300000X-0.700000X0.300000X0.700000X-0.300000X0.700000X0*%
%TD*%
%TA.AperFunction,SMDPad,CuDef*%
%ADD17RoundRect,0.135000X0.185000X-0.135000X0.185000X0.135000X-0.185000X0.135000X-0.185000X-0.135000X0*%
%TD*%
%TA.AperFunction,SMDPad,CuDef*%
%ADD18RoundRect,0.140000X-0.170000X0.140000X-0.170000X-0.140000X0.170000X-0.140000X0.170000X0.140000X0*%
%TD*%
%TA.AperFunction,SMDPad,CuDef*%
%ADD19RoundRect,0.150000X-0.512500X-0.150000X0.512500X-0.150000X0.512500X0.150000X-0.512500X0.150000X0*%
%TD*%
%TA.AperFunction,SMDPad,CuDef*%
%ADD20RoundRect,0.112500X-0.187500X-0.112500X0.187500X-0.112500X0.187500X0.112500X-0.187500X0.112500X0*%
%TD*%
%TA.AperFunction,SMDPad,CuDef*%
%ADD21RoundRect,0.150000X-0.587500X-0.150000X0.587500X-0.150000X0.587500X0.150000X-0.587500X0.150000X0*%
%TD*%
%TA.AperFunction,SMDPad,CuDef*%
%ADD22RoundRect,0.130500X-0.169500X-0.130500X0.169500X-0.130500X0.169500X0.130500X-0.169500X0.130500X0*%
%TD*%
%TA.AperFunction,SMDPad,CuDef*%
%ADD23FreePoly0,90.000000*%
%TD*%
%TA.AperFunction,SMDPad,CuDef*%
%ADD24RoundRect,0.200000X-0.250000X-0.200000X0.250000X-0.200000X0.250000X0.200000X-0.250000X0.200000X0*%
%TD*%
%TA.AperFunction,SMDPad,CuDef*%
%ADD25RoundRect,0.062500X0.375000X0.062500X-0.375000X0.062500X-0.375000X-0.062500X0.375000X-0.062500X0*%
%TD*%
%TA.AperFunction,SMDPad,CuDef*%
%ADD26RoundRect,0.062500X0.062500X0.375000X-0.062500X0.375000X-0.062500X-0.375000X0.062500X-0.375000X0*%
%TD*%
%TA.AperFunction,HeatsinkPad*%
%ADD27R,5.600000X5.600000*%
%TD*%
%TA.AperFunction,SMDPad,CuDef*%
%ADD28RoundRect,0.147500X-0.147500X-0.172500X0.147500X-0.172500X0.147500X0.172500X-0.147500X0.172500X0*%
%TD*%
%TA.AperFunction,ViaPad*%
%ADD29C,0.450000*%
%TD*%
%TA.AperFunction,Conductor*%
%ADD30C,0.200000*%
%TD*%
%TA.AperFunction,Conductor*%
%ADD31C,0.150000*%
%TD*%
%TA.AperFunction,Conductor*%
%ADD32C,0.290000*%
%TD*%
%TA.AperFunction,Conductor*%
%ADD33C,0.250000*%
%TD*%
%ADD34C,0.250000*%
G04 APERTURE END LIST*
D10*
%TO.P,C2,1*%
%TO.N,/3V3*%
X12720000Y-7500000D03*
%TO.P,C2,2*%
%TO.N,/GND*%
X13680000Y-7500000D03*
%TD*%
D11*
%TO.P,L1,1*%
%TO.N,/RFO_HP*%
X5250000Y-7285000D03*
%TO.P,L1,2*%
%TO.N,/RF_50OHM*%
X5250000Y-6315000D03*
%TD*%
D12*
%TO.P,D2,1*%
%TO.N,/LED_R*%
X12400000Y-28150000D03*
%TO.P,D2,2*%
%TO.N,/LED_B*%
X12400000Y-28850000D03*
%TO.P,D2,3*%
%TO.N,/GND*%
X13600000Y-28150000D03*
%TO.P,D2,4*%
X13600000Y-28850000D03*
%TD*%
D13*
%TO.P,C13,1*%
%TO.N,/RFO_HP*%
X4280000Y-6800000D03*
%TO.P,C13,2*%
%TO.N,/GND*%
X3320000Y-6800000D03*
%TD*%
D14*
%TO.P,C11,1*%
%TO.N,/NRST*%
X8500000Y-7980000D03*
%TO.P,C11,2*%
%TO.N,/GND*%
X8500000Y-7020000D03*
%TD*%
D15*
%TO.P,R6,1*%
%TO.N,/LED_R_DRV*%
X9990000Y-27500000D03*
%TO.P,R6,2*%
%TO.N,/LED_R*%
X11010000Y-27500000D03*
%TD*%
D16*
%TO.P,ANT1,1*%
%TO.N,/ANT_FEED*%
X4450000Y-2000000D03*
%TO.P,ANT1,2*%
%TO.N,N/C*%
X10550000Y-2000000D03*
%TD*%
D17*
%TO.P,R1,1*%
%TO.N,/BOOT0*%
X7390000Y-4200000D03*
%TO.P,R1,2*%
%TO.N,/GND*%
X8410000Y-4200000D03*
%TD*%
D10*
%TO.P,C16,1*%
%TO.N,/3V3*%
X1320000Y-28500000D03*
%TO.P,C16,2*%
%TO.N,/GND*%
X2280000Y-28500000D03*
%TD*%
%TO.P,C17,1*%
%TO.N,/VBAT_PROT*%
X11720000Y-17800000D03*
%TO.P,C17,2*%
%TO.N,/GND*%
X12680000Y-17800000D03*
%TD*%
D17*
%TO.P,R_ANT,1*%
%TO.N,/RF_50OHM*%
X5250000Y-5310000D03*
%TO.P,R_ANT,2*%
%TO.N,/ANT_FEED*%
X5250000Y-4290000D03*
%TD*%
D13*
%TO.P,C14,1*%
%TO.N,/RF_50OHM*%
X4280000Y-5200000D03*
%TO.P,C14,2*%
%TO.N,/GND*%
X3320000Y-5200000D03*
%TD*%
D18*
%TO.P,C21,1*%
%TO.N,/3V3*%
X6800000Y-17920000D03*
%TO.P,C21,2*%
%TO.N,/GND*%
X6800000Y-18880000D03*
%TD*%
D19*
%TO.P,U5,1*%
%TO.N,/SYS_PWR*%
X1862500Y-19250000D03*
%TO.P,U5,2*%
%TO.N,/GND*%
X1862500Y-20200000D03*
%TO.P,U5,3*%
%TO.N,/SYS_PWR*%
X1862500Y-21150000D03*
%TO.P,U5,4*%
%TO.N,N/C*%
X4137500Y-21150000D03*
%TO.P,U5,5*%
%TO.N,/3V3*%
X4137500Y-19250000D03*
%TD*%
D20*
%TO.P,D1,1*%
%TO.N,/SYS_PWR*%
X6450000Y-21200000D03*
%TO.P,D1,2*%
%TO.N,/VBUS_5V*%
X8550000Y-21200000D03*
%TD*%
D13*
%TO.P,C7,1*%
%TO.N,/VDDRF1V55*%
X2280000Y-12800000D03*
%TO.P,C7,2*%
%TO.N,/GND*%
X1320000Y-12800000D03*
%TD*%
D10*
%TO.P,C3,1*%
%TO.N,/3V3*%
X12720000Y-5500000D03*
%TO.P,C3,2*%
%TO.N,/GND*%
X13680000Y-5500000D03*
%TD*%
%TO.P,C5,1*%
%TO.N,/3V3*%
X12720000Y-9500000D03*
%TO.P,C5,2*%
%TO.N,/GND*%
X13680000Y-9500000D03*
%TD*%
%TO.P,C18,1*%
%TO.N,/VBUS_5V*%
X12720000Y-13500000D03*
%TO.P,C18,2*%
%TO.N,/GND*%
X13680000Y-13500000D03*
%TD*%
D21*
%TO.P,Q2,1*%
%TO.N,/VBUS_5V*%
X11062500Y-23250000D03*
%TO.P,Q2,2*%
%TO.N,/SYS_PWR*%
X11062500Y-25150000D03*
%TO.P,Q2,3*%
%TO.N,/VBAT_PROT*%
X12937500Y-24200000D03*
%TD*%
D13*
%TO.P,C1,1*%
%TO.N,/3V3*%
X2280000Y-14500000D03*
%TO.P,C1,2*%
%TO.N,/GND*%
X1320000Y-14500000D03*
%TD*%
D19*
%TO.P,U4,1*%
%TO.N,/GATE_OD*%
X1862500Y-23250000D03*
%TO.P,U4,2*%
%TO.N,/GND*%
X1862500Y-24200000D03*
%TO.P,U4,3*%
%TO.N,/GATE_OC*%
X1862500Y-25150000D03*
%TO.P,U4,4*%
%TO.N,N/C*%
X4137500Y-25150000D03*
%TO.P,U4,5*%
%TO.N,/BATT_POS*%
X4137500Y-24200000D03*
%TO.P,U4,6*%
%TO.N,/BATT_NEG*%
X4137500Y-23250000D03*
%TD*%
%TO.P,Q1,1*%
%TO.N,/GND*%
X6362500Y-23250000D03*
%TO.P,Q1,2*%
%TO.N,Net-(Q1-D12-Pad2)*%
X6362500Y-24200000D03*
%TO.P,Q1,3*%
X6362500Y-25150000D03*
%TO.P,Q1,4*%
%TO.N,/BATT_NEG*%
X8637500Y-25150000D03*
%TO.P,Q1,5*%
%TO.N,/GATE_OC*%
X8637500Y-24200000D03*
%TO.P,Q1,6*%
%TO.N,/GATE_OD*%
X8637500Y-23250000D03*
%TD*%
D10*
%TO.P,C10,1*%
%TO.N,/VBUS_5V*%
X12720000Y-15500000D03*
%TO.P,C10,2*%
%TO.N,/GND*%
X13680000Y-15500000D03*
%TD*%
D18*
%TO.P,C20,1*%
%TO.N,/3V3*%
X5600000Y-17920000D03*
%TO.P,C20,2*%
%TO.N,/GND*%
X5600000Y-18880000D03*
%TD*%
%TO.P,C12,1*%
%TO.N,/VLXSMPS*%
X9200000Y-17920000D03*
%TO.P,C12,2*%
%TO.N,/GND*%
X9200000Y-18880000D03*
%TD*%
D15*
%TO.P,R_TEST,1*%
%TO.N,/RF_50OHM*%
X6290000Y-5200000D03*
%TO.P,R_TEST,2*%
%TO.N,/TP_RF*%
X7310000Y-5200000D03*
%TD*%
D22*
%TO.P,MK1,1*%
%TO.N,/MIC_WS*%
X6600000Y-27136000D03*
%TO.P,MK1,2*%
%TO.N,/GND*%
X6600000Y-27958000D03*
D23*
%TO.P,MK1,3*%
X8162000Y-29210000D03*
D22*
%TO.P,MK1,4*%
%TO.N,/MIC_SCK*%
X8400000Y-27958000D03*
%TO.P,MK1,5*%
%TO.N,/3V3*%
X8400000Y-27136000D03*
%TO.P,MK1,6*%
%TO.N,/MIC_SD*%
X7500000Y-27136000D03*
%TD*%
D15*
%TO.P,R7,1*%
%TO.N,/LED_B_DRV*%
X9990000Y-29200000D03*
%TO.P,R7,2*%
%TO.N,/LED_B*%
X11010000Y-29200000D03*
%TD*%
D19*
%TO.P,U2,1*%
%TO.N,/CHG_STAT*%
X10862500Y-19250000D03*
%TO.P,U2,2*%
%TO.N,/GND*%
X10862500Y-20200000D03*
%TO.P,U2,3*%
%TO.N,/VBAT_PROT*%
X10862500Y-21150000D03*
%TO.P,U2,4*%
%TO.N,/VBUS_5V*%
X13137500Y-21150000D03*
%TO.P,U2,5*%
%TO.N,/GND*%
X13137500Y-19250000D03*
%TD*%
D13*
%TO.P,C4,1*%
%TO.N,/VR_PA*%
X2080000Y-6000000D03*
%TO.P,C4,2*%
%TO.N,/GND*%
X1120000Y-6000000D03*
%TD*%
D10*
%TO.P,C8,1*%
%TO.N,/3V3*%
X12720000Y-11500000D03*
%TO.P,C8,2*%
%TO.N,/GND*%
X13680000Y-11500000D03*
%TD*%
D24*
%TO.P,Y1,1*%
%TO.N,/OSC_IN*%
X900000Y-9750000D03*
%TO.P,Y1,2*%
%TO.N,/GND*%
X2300000Y-9750000D03*
%TO.P,Y1,3*%
%TO.N,/OSC_OUT*%
X2300000Y-8650000D03*
%TO.P,Y1,4*%
%TO.N,/GND*%
X900000Y-8650000D03*
%TD*%
D13*
%TO.P,C9,1*%
%TO.N,/SYS_PWR*%
X2280000Y-17000000D03*
%TO.P,C9,2*%
%TO.N,/GND*%
X1320000Y-17000000D03*
%TD*%
D25*
%TO.P,U1,1*%
%TO.N,N/C*%
X10937500Y-15750000D03*
%TO.P,U1,2*%
X10937500Y-15250000D03*
%TO.P,U1,3*%
X10937500Y-14750000D03*
%TO.P,U1,4*%
X10937500Y-14250000D03*
%TO.P,U1,5*%
X10937500Y-13750000D03*
%TO.P,U1,6*%
X10937500Y-13250000D03*
%TO.P,U1,7*%
%TO.N,/CHG_STAT*%
X10937500Y-12750000D03*
%TO.P,U1,8*%
%TO.N,N/C*%
X10937500Y-12250000D03*
%TO.P,U1,9*%
X10937500Y-11750000D03*
%TO.P,U1,10*%
X10937500Y-11250000D03*
%TO.P,U1,11*%
%TO.N,/3V3*%
X10937500Y-10750000D03*
%TO.P,U1,12*%
%TO.N,/LED_R_DRV*%
X10937500Y-10250000D03*
D26*
%TO.P,U1,13*%
%TO.N,/LED_B_DRV*%
X10250000Y-9562500D03*
%TO.P,U1,14*%
%TO.N,N/C*%
X9750000Y-9562500D03*
%TO.P,U1,15*%
X9250000Y-9562500D03*
%TO.P,U1,16*%
X8750000Y-9562500D03*
%TO.P,U1,17*%
%TO.N,/MIC_SCK*%
X8250000Y-9562500D03*
%TO.P,U1,18*%
%TO.N,/NRST*%
X7750000Y-9562500D03*
%TO.P,U1,19*%
%TO.N,/BOOT0*%
X7250000Y-9562500D03*
%TO.P,U1,20*%
%TO.N,/RFI_P*%
X6750000Y-9562500D03*
%TO.P,U1,21*%
%TO.N,/RFI_N*%
X6250000Y-9562500D03*
%TO.P,U1,22*%
%TO.N,N/C*%
X5750000Y-9562500D03*
%TO.P,U1,23*%
%TO.N,/RFO_HP*%
X5250000Y-9562500D03*
%TO.P,U1,24*%
%TO.N,/VR_PA*%
X4750000Y-9562500D03*
D25*
%TO.P,U1,25*%
%TO.N,/3V3*%
X4062500Y-10250000D03*
%TO.P,U1,26*%
%TO.N,/OSC_IN*%
X4062500Y-10750000D03*
%TO.P,U1,27*%
%TO.N,/OSC_OUT*%
X4062500Y-11250000D03*
%TO.P,U1,28*%
%TO.N,/3V3*%
X4062500Y-11750000D03*
%TO.P,U1,29*%
%TO.N,/VDDRF1V55*%
X4062500Y-12250000D03*
%TO.P,U1,30*%
%TO.N,N/C*%
X4062500Y-12750000D03*
%TO.P,U1,31*%
X4062500Y-13250000D03*
%TO.P,U1,32*%
%TO.N,/MIC_WS*%
X4062500Y-13750000D03*
%TO.P,U1,33*%
%TO.N,/MIC_SD*%
X4062500Y-14250000D03*
%TO.P,U1,34*%
%TO.N,N/C*%
X4062500Y-14750000D03*
%TO.P,U1,35*%
X4062500Y-15250000D03*
%TO.P,U1,36*%
%TO.N,/SWDIO*%
X4062500Y-15750000D03*
D26*
%TO.P,U1,37*%
%TO.N,/3V3*%
X4750000Y-16437500D03*
%TO.P,U1,38*%
%TO.N,N/C*%
X5250000Y-16437500D03*
%TO.P,U1,39*%
X5750000Y-16437500D03*
%TO.P,U1,40*%
X6250000Y-16437500D03*
%TO.P,U1,41*%
%TO.N,/3V3*%
X6750000Y-16437500D03*
%TO.P,U1,42*%
%TO.N,/SWCLK*%
X7250000Y-16437500D03*
%TO.P,U1,43*%
%TO.N,N/C*%
X7750000Y-16437500D03*
%TO.P,U1,44*%
%TO.N,/3V3*%
X8250000Y-16437500D03*
%TO.P,U1,45*%
X8750000Y-16437500D03*
%TO.P,U1,46*%
X9250000Y-16437500D03*
%TO.P,U1,47*%
%TO.N,/VLXSMPS*%
X9750000Y-16437500D03*
%TO.P,U1,48*%
%TO.N,/GND*%
X10250000Y-16437500D03*
D27*
%TO.P,U1,49*%
X7500000Y-13000000D03*
%TD*%
D10*
%TO.P,C15,1*%
%TO.N,/3V3*%
X3420000Y-28500000D03*
%TO.P,C15,2*%
%TO.N,/GND*%
X4380000Y-28500000D03*
%TD*%
D28*
%TO.P,L2,1*%
%TO.N,/VR_PA*%
X3615000Y-8250000D03*
%TO.P,L2,2*%
%TO.N,/RFO_HP*%
X4585000Y-8250000D03*
%TD*%
%TO.P,L3,1*%
%TO.N,/RFI_N*%
X5515000Y-8380000D03*
%TO.P,L3,2*%
%TO.N,/RFI_P*%
X6485000Y-8380000D03*
%TD*%
%TO.P,C23,1*%
%TO.N,/RFI_N*%
X6165000Y-7100000D03*
%TO.P,C23,2*%
%TO.N,/GND*%
X7135000Y-7100000D03*
%TD*%
%TO.P,C22,1*%
%TO.N,/RF_50OHM*%
X6165000Y-6150000D03*
%TO.P,C22,2*%
%TO.N,/RFI_P*%
X7135000Y-6150000D03*
%TD*%
D29*
%TO.N,/3V3*%
X12720000Y-10750000D03*
X3200000Y-10250000D03*
X2280000Y-13800000D03*
X9200000Y-26600000D03*
X3000000Y-11750000D03*
X3420000Y-27500000D03*
X4750000Y-17400000D03*
X8500000Y-17400000D03*
X13500000Y-17800000D03*
%TO.N,/GND*%
X10850000Y-17000000D03*
X10863000Y-20200000D03*
X12680000Y-16800000D03*
X2500000Y-6800000D03*
X7500000Y-13000000D03*
X5600000Y-19800000D03*
X13500000Y-25500000D03*
X1320000Y-12800000D03*
X700000Y-6000000D03*
X700000Y-8650000D03*
X14300000Y-11500000D03*
X14300000Y-9500000D03*
X6500000Y-12000000D03*
X9200000Y-19800000D03*
X6800000Y-19800000D03*
X7500000Y-12000000D03*
X7500000Y-14000000D03*
X2500000Y-5200000D03*
X8500000Y-14000000D03*
X1200000Y-24200000D03*
X14300000Y-5500000D03*
X6500000Y-13000000D03*
X5500000Y-23250000D03*
X14300000Y-28150000D03*
X14300000Y-28850000D03*
X2500000Y-20200000D03*
X8500000Y-12000000D03*
X6500000Y-14000000D03*
X1320000Y-14500000D03*
X9200000Y-28500000D03*
X5000000Y-27960000D03*
X2280000Y-29500000D03*
X14300000Y-13500000D03*
X14300000Y-15500000D03*
X14300000Y-7500000D03*
X8500000Y-6200000D03*
X4380000Y-29500000D03*
X8500000Y-13000000D03*
X1320000Y-17800000D03*
%TO.N,/NRST*%
X9800000Y-4500000D03*
%TO.N,/LED_R_DRV*%
X11600000Y-10150000D03*
X9990000Y-27000000D03*
%TO.N,/VBUS_5V*%
X13500000Y-12500000D03*
X11062000Y-23250000D03*
X8550000Y-20500000D03*
X14200000Y-21150000D03*
%TO.N,/BATT_POS*%
X4800000Y-24200000D03*
%TO.N,/BATT_NEG*%
X4138000Y-23250000D03*
X2000000Y-26800000D03*
X8637000Y-25150000D03*
%TO.N,/TP_RF*%
X7310000Y-5200000D03*
%TO.N,/MIC_WS*%
X3100000Y-13300000D03*
X6600000Y-26400000D03*
%TO.N,/MIC_SCK*%
X8050000Y-27958000D03*
X8400000Y-8700000D03*
%TO.N,/MIC_SD*%
X7500000Y-26400000D03*
X3200000Y-14250000D03*
%TO.N,/LED_B_DRV*%
X9990000Y-28500000D03*
X11800000Y-8800000D03*
%TO.N,/CHG_STAT*%
X11400000Y-19250000D03*
X11800000Y-12750000D03*
%TO.N,/VR_PA*%
X2800000Y-6000000D03*
X3615000Y-7600000D03*
%TO.N,/OSC_OUT*%
X2700000Y-8650000D03*
X2200000Y-11250000D03*
%TO.N,/SWDIO*%
X2200000Y-15750000D03*
%TO.N,/SWCLK*%
X7250000Y-21000000D03*
%TO.N,/GND*%
X7135000Y-7100000D03*
%TO.N,/BOOT0*%
X7250000Y-8250000D03*
X7250000Y-4000000D03*
%TD*%
%TO.N,/3V3*%
D30*
X4138000Y-17920000D02*
X5600000Y-17920000D01*
D31*
X4750000Y-16437500D02*
X4750000Y-17400000D01*
X6750000Y-16437500D02*
X6750000Y-17400000D01*
D30*
X1320000Y-27500000D02*
X3420000Y-27500000D01*
X4137500Y-19250000D02*
X4138000Y-17920000D01*
D31*
X4062500Y-11750000D02*
X3000000Y-11750000D01*
D30*
X12720000Y-7500000D02*
X12720000Y-9500000D01*
D31*
X8500000Y-16850000D02*
X8500000Y-17400000D01*
D30*
X12720000Y-5500000D02*
X12720000Y-7500000D01*
D31*
X8750000Y-16437500D02*
X8750000Y-16850000D01*
X2280000Y-14500000D02*
X2280000Y-13800000D01*
D30*
X12720000Y-10750000D02*
X12720000Y-11500000D01*
D31*
X9250000Y-16850000D02*
X9250000Y-16437500D01*
X4062500Y-10250000D02*
X3200000Y-10250000D01*
D30*
X3420000Y-27500000D02*
X3420000Y-28500000D01*
X5600000Y-17920000D02*
X6800000Y-17920000D01*
D31*
X4750000Y-17400000D02*
X5600000Y-17920000D01*
D30*
X1320000Y-28500000D02*
X1320000Y-27500000D01*
D31*
X8250000Y-16437500D02*
X8250000Y-16850000D01*
D30*
X12720000Y-9500000D02*
X12720000Y-10750000D01*
D31*
X8250000Y-16850000D02*
X9250000Y-16850000D01*
X6750000Y-17400000D02*
X6800000Y-17920000D01*
D30*
X12720000Y-10750000D02*
X10937500Y-10750000D01*
X8400000Y-27136000D02*
X9200000Y-26600000D01*
%TO.N,/GND*%
X1320000Y-12800000D02*
X1320000Y-12800000D01*
X13680000Y-11500000D02*
X14300000Y-11500000D01*
X1320000Y-14500000D02*
X1320000Y-14500000D01*
X1862500Y-24200000D02*
X1200000Y-24200000D01*
X4380000Y-28500000D02*
X4380000Y-29500000D01*
D31*
X10250000Y-16437500D02*
X10850000Y-17000000D01*
D30*
X13680000Y-5500000D02*
X14300000Y-5500000D01*
X6362500Y-23250000D02*
X5500000Y-23250000D01*
X13500000Y-25500000D02*
X13500000Y-25500000D01*
X13680000Y-13500000D02*
X14300000Y-13500000D01*
X3320000Y-5200000D02*
X2500000Y-5200000D01*
X9200000Y-18880000D02*
X9200000Y-19800000D01*
X900000Y-8650000D02*
X700000Y-8650000D01*
X1320000Y-17000000D02*
X1320000Y-17800000D01*
X3320000Y-6800000D02*
X2500000Y-6800000D01*
X8162000Y-29210000D02*
X9200000Y-28500000D01*
D31*
X2300000Y-9750000D02*
X900000Y-8650000D01*
D30*
X2280000Y-28500000D02*
X2280000Y-29500000D01*
X12680000Y-17800000D02*
X12680000Y-16800000D01*
X8500000Y-7020000D02*
X8500000Y-6200000D01*
X1120000Y-6000000D02*
X700000Y-6000000D01*
X13600000Y-28850000D02*
X14300000Y-28850000D01*
X5600000Y-18880000D02*
X5600000Y-19800000D01*
X13680000Y-7500000D02*
X14300000Y-7500000D01*
X13680000Y-9500000D02*
X14300000Y-9500000D01*
X1862500Y-20200000D02*
X2500000Y-20200000D01*
X13600000Y-28150000D02*
X14300000Y-28150000D01*
X6800000Y-18880000D02*
X6800000Y-19800000D01*
X6600000Y-27958000D02*
X5000000Y-27960000D01*
X10862500Y-20200000D02*
X10863000Y-20200000D01*
X13680000Y-15500000D02*
X14300000Y-15500000D01*
%TO.N,/RF_50OHM*%
D32*
X5250000Y-6315000D02*
X5250000Y-5310000D01*
D30*
X5250000Y-5200000D02*
X6290000Y-5200000D01*
X5250000Y-5200000D02*
X4280000Y-5200000D01*
%TO.N,/LED_R*%
D31*
X11800000Y-28150000D02*
X12400000Y-28150000D01*
X11010000Y-27500000D02*
X11800000Y-27500000D01*
X11800000Y-27500000D02*
X11800000Y-28150000D01*
%TO.N,/LED_B*%
X11800000Y-29200000D02*
X11800000Y-28850000D01*
X11010000Y-29200000D02*
X11800000Y-29200000D01*
X11800000Y-28850000D02*
X12400000Y-28850000D01*
%TO.N,/NRST*%
X7750000Y-9560000D02*
X7750000Y-8600000D01*
X9200000Y-4500000D02*
X9800000Y-4500000D01*
X9200000Y-7980000D02*
X9200000Y-4500000D01*
%TO.N,/LED_R_DRV*%
X9990000Y-27000000D02*
X9990000Y-27500000D01*
X10938000Y-10250000D02*
X11600000Y-10150000D01*
%TO.N,/ANT_FEED*%
D32*
X5250000Y-4290000D02*
X5250000Y-3500000D01*
X4450000Y-2700000D02*
X4450000Y-2000000D01*
X5250000Y-3500000D02*
X4450000Y-2700000D01*
%TO.N,/VBAT_PROT*%
D30*
X11720000Y-17800000D02*
X12000000Y-17800000D01*
X12938000Y-22000000D02*
X12938000Y-24200000D01*
X12000000Y-22000000D02*
X10863000Y-22000000D01*
X12000000Y-22000000D02*
X12938000Y-22000000D01*
X10863000Y-22000000D02*
X10863000Y-21150000D01*
X12000000Y-17800000D02*
X12000000Y-22000000D01*
%TO.N,/SYS_PWR*%
D31*
X9800000Y-21800000D02*
X9800000Y-25150000D01*
D30*
X2280000Y-17000000D02*
X2280000Y-18200000D01*
X2280000Y-18200000D02*
X1863000Y-18200000D01*
D31*
X9800000Y-25150000D02*
X11062000Y-25150000D01*
D30*
X1863000Y-19250000D02*
X700000Y-19250000D01*
X1863000Y-21150000D02*
X1863000Y-21800000D01*
X700000Y-19250000D02*
X700000Y-21150000D01*
D31*
X6450000Y-21800000D02*
X9800000Y-21800000D01*
D30*
X700000Y-21150000D02*
X1863000Y-21150000D01*
X1863000Y-21800000D02*
X6450000Y-21800000D01*
X1863000Y-18200000D02*
X1863000Y-19250000D01*
X6450000Y-21800000D02*
X6450000Y-21200000D01*
%TO.N,/VBUS_5V*%
D33*
X12720000Y-15500000D02*
X12720000Y-16200000D01*
X12720000Y-12500000D02*
X12720000Y-13500000D01*
X12720000Y-16200000D02*
X14200000Y-16200000D01*
X8550000Y-20500000D02*
X8550000Y-21200000D01*
X14200000Y-16200000D02*
X14200000Y-21150000D01*
X14200000Y-21150000D02*
X13137000Y-21150000D01*
X13500000Y-12500000D02*
X12720000Y-12500000D01*
X12720000Y-13500000D02*
X12720000Y-15500000D01*
%TO.N,/VDDRF1V55*%
D31*
X2700000Y-12800000D02*
X2280000Y-12800000D01*
X4059999Y-12250000D02*
X2700000Y-12250000D01*
X2700000Y-12250000D02*
X2700000Y-12800000D01*
%TO.N,/GATE_OD*%
X1863000Y-22400000D02*
X8637000Y-22400000D01*
X8637000Y-22400000D02*
X8637000Y-23250000D01*
X1863000Y-23250000D02*
X1863000Y-22400000D01*
%TO.N,/GATE_OC*%
X1863000Y-25150000D02*
X1863000Y-25800000D01*
X7500000Y-25800000D02*
X7500000Y-24200000D01*
X1863000Y-25800000D02*
X7500000Y-25800000D01*
X7500000Y-24200000D02*
X8637000Y-24200000D01*
%TO.N,/BATT_POS*%
D30*
X4138000Y-24200000D02*
X4800000Y-24200000D01*
%TO.N,Net-(Q1-D12-Pad2)*%
X6362000Y-24200000D02*
X6362000Y-25150000D01*
%TO.N,/VLXSMPS*%
D31*
X9750000Y-16440000D02*
X9750000Y-17400000D01*
X9200000Y-17400000D02*
X9200000Y-17920000D01*
X9750000Y-17400000D02*
X9200000Y-17400000D01*
%TO.N,/MIC_WS*%
X4062500Y-13750000D02*
X3100000Y-13750000D01*
X6600000Y-26400000D02*
X6600000Y-27136000D01*
X3100000Y-13750000D02*
X3100000Y-13300000D01*
%TO.N,/MIC_SCK*%
X8050000Y-27958000D02*
X8400000Y-27958000D01*
X8250000Y-9562500D02*
X8400000Y-8700000D01*
%TO.N,/MIC_SD*%
X4062500Y-14250000D02*
X3200000Y-14250000D01*
X7500000Y-26400000D02*
X7500000Y-27136000D01*
%TO.N,/LED_B_DRV*%
X10250000Y-9562000D02*
X10250000Y-8800000D01*
X10250000Y-8800000D02*
X11800000Y-8800000D01*
X9990000Y-28500000D02*
X9990000Y-29200000D01*
%TO.N,/CHG_STAT*%
X10938000Y-12750000D02*
X11800000Y-12750000D01*
X11400000Y-19250000D02*
X10863000Y-19250000D01*
%TO.N,/VR_PA*%
D30*
X2800000Y-6000000D02*
X2080000Y-6000000D01*
X3615000Y-7600000D02*
X3500000Y-7600000D01*
%TO.N,/OSC_IN*%
D31*
X500000Y-10750000D02*
X500000Y-9750000D01*
X4059999Y-10750000D02*
X500000Y-10750000D01*
X500000Y-9750000D02*
X900000Y-9750000D01*
%TO.N,/OSC_OUT*%
X2700000Y-8650000D02*
X2300000Y-8650000D01*
X4059999Y-11250000D02*
X2200000Y-11250000D01*
%TO.N,/SWDIO*%
X4059999Y-15750000D02*
X2200000Y-15750000D01*
%TO.N,/SWCLK*%
X7250000Y-17300000D02*
X7800000Y-17300000D01*
X7250000Y-16440000D02*
X7250000Y-17300000D01*
X7800000Y-21000000D02*
X7250000Y-21000000D01*
X7800000Y-17300000D02*
X7800000Y-21000000D01*
%TO.N,/NRST*%
X7750000Y-8600000D02*
X8100000Y-8250000D01*
X8100000Y-8250000D02*
X8100000Y-7980000D01*
X8100000Y-7980000D02*
X9200000Y-7980000D01*
%TO.N,/VR_PA*%
X4750000Y-9562500D02*
X4750000Y-9100000D01*
X4750000Y-9100000D02*
X3615000Y-9100000D01*
X3615000Y-9100000D02*
X3615000Y-8250000D01*
D30*
X3615000Y-8250000D02*
X3615000Y-7600000D01*
%TO.N,/RFO_HP*%
D31*
X5250000Y-9562500D02*
X5250000Y-9200000D01*
X5250000Y-9200000D02*
X4585000Y-8250000D01*
D30*
X4585000Y-8250000D02*
X5250000Y-7285000D01*
X5250000Y-7285000D02*
X4280000Y-6800000D01*
%TO.N,/RFI_P*%
D31*
X6750000Y-9562500D02*
X6750000Y-8900000D01*
X6750000Y-8900000D02*
X6485000Y-8380000D01*
X6485000Y-8380000D02*
X6550000Y-7700000D01*
X6550000Y-7700000D02*
X7720000Y-7700000D01*
X7720000Y-7700000D02*
X7720000Y-6150000D01*
X7720000Y-6150000D02*
X7135000Y-6150000D01*
%TO.N,/RFI_N*%
X6250000Y-9562500D02*
X6250000Y-9050000D01*
X6250000Y-9050000D02*
X5515000Y-8380000D01*
X5515000Y-8380000D02*
X6165000Y-7100000D01*
%TO.N,/RF_50OHM*%
X6165000Y-6150000D02*
X6290000Y-5200000D01*
%TO.N,/BOOT0*%
X7250000Y-9562500D02*
X7250000Y-8250000D01*
X7250000Y-4000000D02*
X7390000Y-4200000D01*
%TD*%
%TA.AperFunction,Conductor*%
%TO.N,/GND*%
G36*
X411495Y-21676829D02*
G01*
X468216Y-21709577D01*
X620940Y-21750499D01*
X620941Y-21750500D01*
X620943Y-21750500D01*
X849902Y-21750500D01*
X902228Y-21772174D01*
X948135Y-21818081D01*
X1089602Y-21901744D01*
X1243646Y-21946498D01*
X1287848Y-21981910D01*
X1294479Y-21998407D01*
X1303422Y-22031783D01*
X1335878Y-22088000D01*
X1343270Y-22144153D01*
X1335880Y-22161995D01*
X1326721Y-22177860D01*
X1326717Y-22177869D01*
X1287500Y-22324231D01*
X1287500Y-22385199D01*
X1265826Y-22437525D01*
X1234146Y-22456261D01*
X1089600Y-22498256D01*
X948134Y-22581919D01*
X831919Y-22698134D01*
X748256Y-22839600D01*
X702402Y-22997428D01*
X699500Y-23034306D01*
X699500Y-23465693D01*
X702402Y-23502571D01*
X748256Y-23660399D01*
X824667Y-23789602D01*
X831919Y-23801865D01*
X948135Y-23918081D01*
X1089602Y-24001744D01*
X1247431Y-24047598D01*
X1284306Y-24050500D01*
X1284307Y-24050500D01*
X2440693Y-24050500D01*
X2440694Y-24050500D01*
X2477569Y-24047598D01*
X2635398Y-24001744D01*
X2776865Y-23918081D01*
X2867744Y-23827201D01*
X2920069Y-23805528D01*
X2972395Y-23827202D01*
X2994069Y-23879528D01*
X2991131Y-23900173D01*
X2977402Y-23947427D01*
X2974500Y-23984306D01*
X2974500Y-24415693D01*
X2977402Y-24452572D01*
X2991131Y-24499826D01*
X2984916Y-24556121D01*
X2940714Y-24591533D01*
X2884419Y-24585318D01*
X2867743Y-24572797D01*
X2776865Y-24481919D01*
X2635399Y-24398256D01*
X2477571Y-24352402D01*
X2452985Y-24350467D01*
X2440694Y-24349500D01*
X1284306Y-24349500D01*
X1275087Y-24350225D01*
X1247428Y-24352402D01*
X1089600Y-24398256D01*
X948134Y-24481919D01*
X831919Y-24598134D01*
X748256Y-24739600D01*
X702402Y-24897428D01*
X699500Y-24934306D01*
X699500Y-25365693D01*
X702402Y-25402571D01*
X748256Y-25560399D01*
X831919Y-25701865D01*
X948135Y-25818081D01*
X1089602Y-25901744D01*
X1247431Y-25947598D01*
X1255888Y-25948263D01*
X1306351Y-25973975D01*
X1321560Y-26002882D01*
X1326717Y-26022130D01*
X1326721Y-26022139D01*
X1346471Y-26056347D01*
X1393337Y-26137521D01*
X1402484Y-26153363D01*
X1402486Y-26153366D01*
X1459228Y-26210109D01*
X1480902Y-26262435D01*
X1459229Y-26314759D01*
X1436467Y-26337521D01*
X1357069Y-26456350D01*
X1302381Y-26588379D01*
X1302379Y-26588385D01*
X1274500Y-26728546D01*
X1274500Y-26833726D01*
X1252826Y-26886052D01*
X1219653Y-26905204D01*
X1088220Y-26940421D01*
X1088214Y-26940424D01*
X951283Y-27019480D01*
X839480Y-27131283D01*
X760424Y-27268214D01*
X760421Y-27268220D01*
X719500Y-27420940D01*
X719500Y-27854044D01*
X697826Y-27906370D01*
X669883Y-27934312D01*
X587506Y-28073603D01*
X542357Y-28229004D01*
X539500Y-28265310D01*
X539500Y-28734689D01*
X542357Y-28770995D01*
X587506Y-28926396D01*
X652395Y-29036117D01*
X669883Y-29065687D01*
X784313Y-29180117D01*
X923605Y-29262494D01*
X1079007Y-29307643D01*
X1115310Y-29310500D01*
X1115311Y-29310500D01*
X1524689Y-29310500D01*
X1524690Y-29310500D01*
X1560993Y-29307643D01*
X1716395Y-29262494D01*
X1855687Y-29180117D01*
X1970117Y-29065687D01*
X2052494Y-28926395D01*
X2097643Y-28770993D01*
X2100500Y-28734690D01*
X2100500Y-28265310D01*
X2097643Y-28229007D01*
X2087805Y-28195145D01*
X2094020Y-28138851D01*
X2138221Y-28103438D01*
X2158867Y-28100500D01*
X2581133Y-28100500D01*
X2633459Y-28122174D01*
X2655133Y-28174500D01*
X2652195Y-28195146D01*
X2642357Y-28229006D01*
X2639500Y-28265310D01*
X2639500Y-28734689D01*
X2642357Y-28770995D01*
X2687506Y-28926396D01*
X2752395Y-29036117D01*
X2769883Y-29065687D01*
X2884313Y-29180117D01*
X3023605Y-29262494D01*
X3179007Y-29307643D01*
X3215310Y-29310500D01*
X3215311Y-29310500D01*
X3624689Y-29310500D01*
X3624690Y-29310500D01*
X3660993Y-29307643D01*
X3816395Y-29262494D01*
X3955687Y-29180117D01*
X3985116Y-29150688D01*
X7049500Y-29150688D01*
X7049500Y-29269311D01*
X7080199Y-29383882D01*
X7080201Y-29383887D01*
X7139508Y-29486609D01*
X7139509Y-29486610D01*
X7139511Y-29486613D01*
X7223387Y-29570489D01*
X7223389Y-29570490D01*
X7223390Y-29570491D01*
X7326112Y-29629798D01*
X7326114Y-29629799D01*
X7326115Y-29629799D01*
X7326117Y-29629800D01*
X7361919Y-29639393D01*
X7440688Y-29660499D01*
X7440689Y-29660500D01*
X7440691Y-29660500D01*
X7559311Y-29660500D01*
X7559311Y-29660499D01*
X7673886Y-29629799D01*
X7776613Y-29570489D01*
X7860489Y-29486613D01*
X7919799Y-29383886D01*
X7950499Y-29269311D01*
X7950500Y-29269311D01*
X7950500Y-29150689D01*
X7950499Y-29150688D01*
X7919800Y-29036117D01*
X7919798Y-29036112D01*
X7860491Y-28933390D01*
X7860490Y-28933389D01*
X7860489Y-28933387D01*
X7776613Y-28849511D01*
X7776610Y-28849509D01*
X7776609Y-28849508D01*
X7673887Y-28790201D01*
X7673882Y-28790199D01*
X7559311Y-28759500D01*
X7559309Y-28759500D01*
X7440691Y-28759500D01*
X7440689Y-28759500D01*
X7326117Y-28790199D01*
X7326112Y-28790201D01*
X7223390Y-28849508D01*
X7139508Y-28933390D01*
X7080201Y-29036112D01*
X7080199Y-29036117D01*
X7049500Y-29150688D01*
X3985116Y-29150688D01*
X4070117Y-29065687D01*
X4152494Y-28926395D01*
X4197643Y-28770993D01*
X4200500Y-28734690D01*
X4200500Y-28265310D01*
X4197643Y-28229007D01*
X4152494Y-28073605D01*
X4070117Y-27934313D01*
X4070115Y-27934311D01*
X4067262Y-27930632D01*
X4069297Y-27929053D01*
X4050763Y-27884307D01*
X4062001Y-27847272D01*
X4061218Y-27846854D01*
X4062931Y-27843649D01*
X4117617Y-27711624D01*
X4117619Y-27711620D01*
X4145500Y-27571455D01*
X4145500Y-27428545D01*
X4117619Y-27288380D01*
X4062929Y-27156347D01*
X3983532Y-27037521D01*
X3882479Y-26936468D01*
X3763653Y-26857071D01*
X3763650Y-26857069D01*
X3763649Y-26857069D01*
X3631620Y-26802381D01*
X3631614Y-26802379D01*
X3537752Y-26783709D01*
X3491455Y-26774500D01*
X3348545Y-26774500D01*
X3308810Y-26782403D01*
X3208385Y-26802379D01*
X3208379Y-26802381D01*
X3076347Y-26857070D01*
X3031512Y-26887029D01*
X2990400Y-26899500D01*
X2799500Y-26899500D01*
X2747174Y-26877826D01*
X2725500Y-26825500D01*
X2725500Y-26728546D01*
X2723070Y-26716332D01*
X2697619Y-26588380D01*
X2697617Y-26588375D01*
X2651823Y-26477818D01*
X2651823Y-26421181D01*
X2691872Y-26381133D01*
X2720190Y-26375500D01*
X5800500Y-26375500D01*
X5852826Y-26397174D01*
X5874500Y-26449500D01*
X5874500Y-26471453D01*
X5902380Y-26611617D01*
X5902416Y-26611735D01*
X5902411Y-26611776D01*
X5903090Y-26615185D01*
X5902056Y-26615390D01*
X5896868Y-26668100D01*
X5895299Y-26670890D01*
X5846794Y-26752906D01*
X5802315Y-26906002D01*
X5799500Y-26941775D01*
X5799500Y-27330222D01*
X5799501Y-27330227D01*
X5802314Y-27365992D01*
X5802314Y-27365993D01*
X5846794Y-27519092D01*
X5890180Y-27592454D01*
X5927950Y-27656318D01*
X6040682Y-27769050D01*
X6177908Y-27850206D01*
X6331002Y-27894684D01*
X6331001Y-27894684D01*
X6331005Y-27894685D01*
X6366775Y-27897500D01*
X6833224Y-27897499D01*
X6868995Y-27894685D01*
X7022092Y-27850206D01*
X7022092Y-27850205D01*
X7026563Y-27848907D01*
X7027098Y-27850749D01*
X7073114Y-27850015D01*
X7073437Y-27848907D01*
X7077037Y-27849952D01*
X7077225Y-27849950D01*
X7077690Y-27850142D01*
X7077905Y-27850204D01*
X7077908Y-27850206D01*
X7231002Y-27894684D01*
X7231001Y-27894684D01*
X7231005Y-27894685D01*
X7256306Y-27896676D01*
X7306769Y-27922386D01*
X7324500Y-27970447D01*
X7324500Y-28029453D01*
X7352379Y-28169614D01*
X7352381Y-28169620D01*
X7376979Y-28229006D01*
X7407071Y-28301653D01*
X7454166Y-28372135D01*
X7466672Y-28390853D01*
X7486468Y-28420479D01*
X7587521Y-28521532D01*
X7706347Y-28600929D01*
X7838380Y-28655619D01*
X7978545Y-28683500D01*
X8006250Y-28683500D01*
X8026893Y-28686437D01*
X8131005Y-28716685D01*
X8166775Y-28719500D01*
X8633224Y-28719499D01*
X8668995Y-28716685D01*
X8822092Y-28672206D01*
X8959318Y-28591050D01*
X9072050Y-28478318D01*
X9126983Y-28385431D01*
X9172275Y-28351426D01*
X9228347Y-28359406D01*
X9262353Y-28404698D01*
X9263905Y-28424910D01*
X9264500Y-28424910D01*
X9264500Y-28428545D01*
X9264500Y-28571455D01*
X9287372Y-28686438D01*
X9287797Y-28688575D01*
X9278916Y-28740678D01*
X9267130Y-28760607D01*
X9222335Y-28914793D01*
X9219500Y-28950819D01*
X9219500Y-29449179D01*
X9222335Y-29485206D01*
X9267131Y-29639394D01*
X9279622Y-29660515D01*
X9348865Y-29777598D01*
X9462402Y-29891135D01*
X9600607Y-29972869D01*
X9754793Y-30017664D01*
X9754792Y-30017664D01*
X9754796Y-30017665D01*
X9790819Y-30020500D01*
X10189180Y-30020499D01*
X10225204Y-30017665D01*
X10379393Y-29972869D01*
X10462332Y-29923818D01*
X10518403Y-29915839D01*
X10537664Y-29923816D01*
X10620607Y-29972869D01*
X10774793Y-30017664D01*
X10774792Y-30017664D01*
X10774796Y-30017665D01*
X10810819Y-30020500D01*
X11209180Y-30020499D01*
X11245204Y-30017665D01*
X11399393Y-29972869D01*
X11537598Y-29891135D01*
X11631559Y-29797174D01*
X11683885Y-29775500D01*
X11875768Y-29775500D01*
X11875768Y-29775499D01*
X12022135Y-29736281D01*
X12153365Y-29660515D01*
X12241707Y-29572173D01*
X12294033Y-29550499D01*
X12697872Y-29550499D01*
X12757483Y-29544091D01*
X12824907Y-29518943D01*
X12892329Y-29493797D01*
X12892329Y-29493796D01*
X12892331Y-29493796D01*
X13007546Y-29407546D01*
X13093796Y-29292331D01*
X13104925Y-29262494D01*
X13135649Y-29180116D01*
X13144091Y-29157483D01*
X13150500Y-29097873D01*
X13150499Y-28602128D01*
X13144091Y-28542517D01*
X13137878Y-28525859D01*
X13137878Y-28474140D01*
X13144091Y-28457483D01*
X13150500Y-28397873D01*
X13150499Y-27902128D01*
X13144091Y-27842517D01*
X13101381Y-27728005D01*
X13093797Y-27707670D01*
X13093796Y-27707669D01*
X13007546Y-27592454D01*
X12892331Y-27506204D01*
X12892330Y-27506203D01*
X12892329Y-27506202D01*
X12757487Y-27455910D01*
X12757484Y-27455909D01*
X12757483Y-27455909D01*
X12727678Y-27452704D01*
X12697874Y-27449500D01*
X12697873Y-27449500D01*
X12439052Y-27449500D01*
X12386726Y-27427826D01*
X12367574Y-27394654D01*
X12336281Y-27277865D01*
X12260515Y-27146635D01*
X12153365Y-27039485D01*
X12153362Y-27039483D01*
X12022139Y-26963721D01*
X12022130Y-26963717D01*
X11875768Y-26924500D01*
X11875766Y-26924500D01*
X11683885Y-26924500D01*
X11631559Y-26902826D01*
X11537598Y-26808865D01*
X11399394Y-26727131D01*
X11245204Y-26682335D01*
X11245207Y-26682335D01*
X11218186Y-26680208D01*
X11209181Y-26679500D01*
X11209180Y-26679500D01*
X10810820Y-26679500D01*
X10774791Y-26682335D01*
X10721422Y-26697840D01*
X10665127Y-26691624D01*
X10635832Y-26658914D01*
X10634642Y-26659551D01*
X10632931Y-26656350D01*
X10553532Y-26537521D01*
X10452478Y-26436467D01*
X10369664Y-26381133D01*
X10333653Y-26357071D01*
X10333650Y-26357069D01*
X10333649Y-26357069D01*
X10201620Y-26302381D01*
X10201614Y-26302379D01*
X10107752Y-26283709D01*
X10061455Y-26274500D01*
X9918545Y-26274500D01*
X9910997Y-26276001D01*
X9855449Y-26264948D01*
X9835036Y-26244534D01*
X9763532Y-26137521D01*
X9662478Y-26036467D01*
X9603864Y-25997302D01*
X9543653Y-25957071D01*
X9543651Y-25957070D01*
X9543648Y-25957068D01*
X9540512Y-25955392D01*
X9504586Y-25911608D01*
X9510142Y-25855244D01*
X9537731Y-25826439D01*
X9551865Y-25818081D01*
X9631097Y-25738848D01*
X9683421Y-25717174D01*
X9702570Y-25719695D01*
X9724234Y-25725500D01*
X9949902Y-25725500D01*
X10002228Y-25747174D01*
X10073135Y-25818081D01*
X10214602Y-25901744D01*
X10372431Y-25947598D01*
X10409306Y-25950500D01*
X10409307Y-25950500D01*
X11715693Y-25950500D01*
X11715694Y-25950500D01*
X11752569Y-25947598D01*
X11910398Y-25901744D01*
X12051865Y-25818081D01*
X12168081Y-25701865D01*
X12251744Y-25560398D01*
X12297598Y-25402569D01*
X12300500Y-25365694D01*
X12300500Y-25074500D01*
X12322174Y-25022174D01*
X12374500Y-25000500D01*
X13590693Y-25000500D01*
X13590694Y-25000500D01*
X13627569Y-24997598D01*
X13785398Y-24951744D01*
X13926865Y-24868081D01*
X14043081Y-24751865D01*
X14126744Y-24610398D01*
X14172598Y-24452569D01*
X14175500Y-24415694D01*
X14175500Y-23984306D01*
X14172598Y-23947431D01*
X14126744Y-23789602D01*
X14043081Y-23648135D01*
X13926865Y-23531919D01*
X13924471Y-23530503D01*
X13785399Y-23448256D01*
X13627571Y-23402402D01*
X13606693Y-23400759D01*
X13556229Y-23375045D01*
X13538500Y-23326987D01*
X13538500Y-22024500D01*
X13560174Y-21972174D01*
X13612500Y-21950500D01*
X13715693Y-21950500D01*
X13715694Y-21950500D01*
X13752569Y-21947598D01*
X13910398Y-21901744D01*
X13974157Y-21864036D01*
X14026261Y-21855154D01*
X14128545Y-21875500D01*
X14128547Y-21875500D01*
X14271453Y-21875500D01*
X14271455Y-21875500D01*
X14411620Y-21847619D01*
X14543653Y-21792929D01*
X14584389Y-21765709D01*
X14639937Y-21754661D01*
X14687029Y-21786127D01*
X14699500Y-21827239D01*
X14699500Y-29844877D01*
X14677826Y-29897203D01*
X13897203Y-30677826D01*
X13844877Y-30699500D01*
X1155123Y-30699500D01*
X1102797Y-30677826D01*
X322174Y-29897203D01*
X300500Y-29844877D01*
X300500Y-21740917D01*
X322174Y-21688591D01*
X374500Y-21666917D01*
X411495Y-21676829D01*
G37*
%TD.AperFunction*%
%TA.AperFunction,Conductor*%
G36*
X7452826Y-22997174D02*
G01*
X7474500Y-23049500D01*
X7474500Y-23465693D01*
X7477402Y-23502572D01*
X7485517Y-23530503D01*
X7479301Y-23586798D01*
X7435100Y-23622210D01*
X7424385Y-23624458D01*
X7422279Y-23625023D01*
X7421269Y-23624889D01*
X7419441Y-23625131D01*
X7419376Y-23624640D01*
X7366128Y-23617620D01*
X7350813Y-23605867D01*
X7276865Y-23531919D01*
X7135399Y-23448256D01*
X6977571Y-23402402D01*
X6952985Y-23400467D01*
X6940694Y-23399500D01*
X5784306Y-23399500D01*
X5775087Y-23400225D01*
X5747428Y-23402402D01*
X5589600Y-23448256D01*
X5448134Y-23531919D01*
X5424065Y-23555988D01*
X5371739Y-23577661D01*
X5319413Y-23555986D01*
X5297740Y-23503660D01*
X5297966Y-23497881D01*
X5300500Y-23465694D01*
X5300500Y-23049500D01*
X5322174Y-22997174D01*
X5374500Y-22975500D01*
X7400500Y-22975500D01*
X7452826Y-22997174D01*
G37*
%TD.AperFunction*%
%TA.AperFunction,Conductor*%
G36*
X8501826Y-18429720D02*
G01*
X8513191Y-18444371D01*
X8519883Y-18455687D01*
X8634313Y-18570117D01*
X8773605Y-18652494D01*
X8929007Y-18697643D01*
X8965310Y-18700500D01*
X8965311Y-18700500D01*
X9434689Y-18700500D01*
X9434690Y-18700500D01*
X9470993Y-18697643D01*
X9626395Y-18652494D01*
X9737615Y-18586718D01*
X9793685Y-18578739D01*
X9838977Y-18612744D01*
X9846957Y-18668817D01*
X9833758Y-18695763D01*
X9831921Y-18698130D01*
X9748256Y-18839600D01*
X9702402Y-18997428D01*
X9699500Y-19034306D01*
X9699500Y-19465693D01*
X9702402Y-19502571D01*
X9748256Y-19660399D01*
X9788694Y-19728776D01*
X9831919Y-19801865D01*
X9948135Y-19918081D01*
X10089602Y-20001744D01*
X10247431Y-20047598D01*
X10284306Y-20050500D01*
X11325500Y-20050500D01*
X11377826Y-20072174D01*
X11399500Y-20124500D01*
X11399500Y-20275500D01*
X11377826Y-20327826D01*
X11325500Y-20349500D01*
X10284306Y-20349500D01*
X10275087Y-20350225D01*
X10247428Y-20352402D01*
X10089600Y-20398256D01*
X9948134Y-20481919D01*
X9831919Y-20598134D01*
X9748256Y-20739600D01*
X9702402Y-20897428D01*
X9699500Y-20934306D01*
X9699500Y-21150500D01*
X9677826Y-21202826D01*
X9625500Y-21224500D01*
X9424500Y-21224500D01*
X9372174Y-21202826D01*
X9350500Y-21150501D01*
X9350499Y-21025596D01*
X9350499Y-21025595D01*
X9347765Y-20990844D01*
X9304555Y-20842113D01*
X9256927Y-20761579D01*
X9248045Y-20709476D01*
X9275500Y-20571455D01*
X9275500Y-20428545D01*
X9247619Y-20288380D01*
X9192929Y-20156347D01*
X9113532Y-20037521D01*
X9012479Y-19936468D01*
X8984959Y-19918080D01*
X8973226Y-19910240D01*
X8893653Y-19857071D01*
X8893650Y-19857069D01*
X8893649Y-19857069D01*
X8761620Y-19802381D01*
X8761614Y-19802379D01*
X8667752Y-19783709D01*
X8621455Y-19774500D01*
X8478545Y-19774500D01*
X8472199Y-19775762D01*
X8463933Y-19777406D01*
X8408384Y-19766354D01*
X8376921Y-19719260D01*
X8375500Y-19704827D01*
X8375500Y-18482046D01*
X8397174Y-18429720D01*
X8449500Y-18408046D01*
X8501826Y-18429720D01*
G37*
%TD.AperFunction*%
%TA.AperFunction,Conductor*%
G36*
X6237664Y-18572099D02*
G01*
X6373605Y-18652494D01*
X6529007Y-18697643D01*
X6565310Y-18700500D01*
X6565311Y-18700500D01*
X7034689Y-18700500D01*
X7034690Y-18700500D01*
X7070993Y-18697643D01*
X7070995Y-18697642D01*
X7070998Y-18697642D01*
X7113797Y-18685206D01*
X7129853Y-18680542D01*
X7186148Y-18686756D01*
X7221561Y-18730956D01*
X7224500Y-18751603D01*
X7224500Y-20204629D01*
X7202826Y-20256955D01*
X7164937Y-20277206D01*
X7147843Y-20280606D01*
X7038385Y-20302379D01*
X7038379Y-20302381D01*
X6906350Y-20357069D01*
X6787521Y-20436467D01*
X6787518Y-20436470D01*
X6769953Y-20454034D01*
X6717626Y-20475705D01*
X6711826Y-20475477D01*
X6699407Y-20474500D01*
X6200596Y-20474500D01*
X6165841Y-20477235D01*
X6017111Y-20520445D01*
X5883801Y-20599285D01*
X5774285Y-20708801D01*
X5695445Y-20842111D01*
X5652235Y-20990841D01*
X5649500Y-21025596D01*
X5649500Y-21125500D01*
X5627826Y-21177826D01*
X5575500Y-21199500D01*
X5374500Y-21199500D01*
X5322174Y-21177826D01*
X5300500Y-21125500D01*
X5300500Y-20934306D01*
X5297598Y-20897431D01*
X5251744Y-20739602D01*
X5168081Y-20598135D01*
X5051865Y-20481919D01*
X4975015Y-20436470D01*
X4910399Y-20398256D01*
X4752571Y-20352402D01*
X4727985Y-20350467D01*
X4715694Y-20349500D01*
X3559306Y-20349500D01*
X3550087Y-20350225D01*
X3522428Y-20352402D01*
X3364600Y-20398256D01*
X3223134Y-20481919D01*
X3106919Y-20598134D01*
X3063695Y-20671223D01*
X3018403Y-20705229D01*
X2962331Y-20697249D01*
X2936305Y-20671223D01*
X2893080Y-20598134D01*
X2776865Y-20481919D01*
X2635399Y-20398256D01*
X2477571Y-20352402D01*
X2452985Y-20350467D01*
X2440694Y-20349500D01*
X2440693Y-20349500D01*
X1374500Y-20349500D01*
X1322174Y-20327826D01*
X1300500Y-20275500D01*
X1300500Y-20124500D01*
X1322174Y-20072174D01*
X1374500Y-20050500D01*
X2440693Y-20050500D01*
X2440694Y-20050500D01*
X2477569Y-20047598D01*
X2635398Y-20001744D01*
X2776865Y-19918081D01*
X2893081Y-19801865D01*
X2936305Y-19728775D01*
X2981597Y-19694770D01*
X3037669Y-19702750D01*
X3063693Y-19728774D01*
X3106919Y-19801865D01*
X3223135Y-19918081D01*
X3364602Y-20001744D01*
X3522431Y-20047598D01*
X3559306Y-20050500D01*
X3559307Y-20050500D01*
X4715693Y-20050500D01*
X4715694Y-20050500D01*
X4752569Y-20047598D01*
X4910398Y-20001744D01*
X5051865Y-19918081D01*
X5168081Y-19801865D01*
X5251744Y-19660398D01*
X5297598Y-19502569D01*
X5300500Y-19465694D01*
X5300500Y-19034306D01*
X5297598Y-18997431D01*
X5251744Y-18839602D01*
X5229484Y-18801963D01*
X5221504Y-18745892D01*
X5255509Y-18700600D01*
X5311581Y-18692619D01*
X5313825Y-18693233D01*
X5329001Y-18697642D01*
X5329005Y-18697642D01*
X5329007Y-18697643D01*
X5365310Y-18700500D01*
X5365311Y-18700500D01*
X5834689Y-18700500D01*
X5834690Y-18700500D01*
X5870993Y-18697643D01*
X6026395Y-18652494D01*
X6162332Y-18572100D01*
X6218403Y-18564121D01*
X6237664Y-18572099D01*
G37*
%TD.AperFunction*%
%TA.AperFunction,Conductor*%
G36*
X11996162Y-15941032D02*
G01*
X12069883Y-16065687D01*
X12072826Y-16068630D01*
X12094500Y-16120956D01*
X12094500Y-16138394D01*
X12094500Y-16261606D01*
X12100427Y-16291405D01*
X12118535Y-16382445D01*
X12118537Y-16382452D01*
X12165688Y-16496285D01*
X12217352Y-16573605D01*
X12234142Y-16598733D01*
X12321267Y-16685858D01*
X12423714Y-16754311D01*
X12537548Y-16801463D01*
X12658394Y-16825500D01*
X13500500Y-16825500D01*
X13552826Y-16847174D01*
X13574500Y-16899500D01*
X13574500Y-17000500D01*
X13552826Y-17052826D01*
X13500500Y-17074500D01*
X13428545Y-17074500D01*
X13388810Y-17082403D01*
X13288385Y-17102379D01*
X13288379Y-17102381D01*
X13156350Y-17157069D01*
X13037521Y-17236467D01*
X13037520Y-17236469D01*
X12936469Y-17337520D01*
X12936467Y-17337521D01*
X12857069Y-17456350D01*
X12802381Y-17588379D01*
X12802379Y-17588385D01*
X12790928Y-17645956D01*
X12774500Y-17728545D01*
X12774500Y-17871455D01*
X12781079Y-17904528D01*
X12802379Y-18011614D01*
X12802381Y-18011620D01*
X12846334Y-18117733D01*
X12857071Y-18143653D01*
X12936468Y-18262479D01*
X13037521Y-18363532D01*
X13156347Y-18442929D01*
X13288380Y-18497619D01*
X13428545Y-18525500D01*
X13428547Y-18525500D01*
X13500500Y-18525500D01*
X13552826Y-18547174D01*
X13574500Y-18599500D01*
X13574500Y-20275500D01*
X13552826Y-20327826D01*
X13500500Y-20349500D01*
X12674500Y-20349500D01*
X12622174Y-20327826D01*
X12600500Y-20275500D01*
X12600500Y-17720941D01*
X12600499Y-17720940D01*
X12591675Y-17688010D01*
X12559577Y-17568216D01*
X12480520Y-17431284D01*
X12478072Y-17428836D01*
X12459336Y-17397156D01*
X12452493Y-17373603D01*
X12399268Y-17283605D01*
X12370117Y-17234313D01*
X12255687Y-17119883D01*
X12226093Y-17102381D01*
X12116396Y-17037506D01*
X11960995Y-16992357D01*
X11936791Y-16990452D01*
X11924690Y-16989500D01*
X11515310Y-16989500D01*
X11506234Y-16990214D01*
X11479004Y-16992357D01*
X11323603Y-17037506D01*
X11184312Y-17119883D01*
X11069883Y-17234312D01*
X10987506Y-17373603D01*
X10942357Y-17529004D01*
X10939500Y-17565310D01*
X10939500Y-18034689D01*
X10942357Y-18070995D01*
X10987506Y-18226396D01*
X11053409Y-18337831D01*
X11061389Y-18393903D01*
X11027383Y-18439195D01*
X10989714Y-18449500D01*
X10284306Y-18449500D01*
X10275087Y-18450225D01*
X10247428Y-18452402D01*
X10089600Y-18498256D01*
X9975468Y-18565754D01*
X9919396Y-18573734D01*
X9874104Y-18539728D01*
X9866124Y-18483656D01*
X9877837Y-18459747D01*
X9877747Y-18459694D01*
X9878426Y-18458544D01*
X9879330Y-18456701D01*
X9880113Y-18455690D01*
X9880117Y-18455687D01*
X9962494Y-18316395D01*
X10007643Y-18160993D01*
X10010500Y-18124690D01*
X10010500Y-17956854D01*
X10032174Y-17904528D01*
X10047498Y-17892769D01*
X10103365Y-17860515D01*
X10210515Y-17753365D01*
X10286281Y-17622135D01*
X10325499Y-17475768D01*
X10325500Y-17475768D01*
X10325500Y-17059916D01*
X10331133Y-17031597D01*
X10348453Y-16989784D01*
X10361009Y-16959472D01*
X10375500Y-16849401D01*
X10375499Y-16440118D01*
X10397173Y-16387793D01*
X10449499Y-16366119D01*
X10459142Y-16366750D01*
X10525599Y-16375500D01*
X11349400Y-16375499D01*
X11459472Y-16361009D01*
X11596429Y-16304279D01*
X11714036Y-16214036D01*
X11804279Y-16096429D01*
X11861009Y-15959472D01*
X11861009Y-15959471D01*
X11862865Y-15954991D01*
X11864094Y-15955500D01*
X11895467Y-15914615D01*
X11951620Y-15907223D01*
X11996162Y-15941032D01*
G37*
%TD.AperFunction*%
%TA.AperFunction,Conductor*%
G36*
X393654Y-11317306D02*
G01*
X424233Y-11325500D01*
X424234Y-11325500D01*
X1414575Y-11325500D01*
X1466901Y-11347174D01*
X1487153Y-11385064D01*
X1502379Y-11461613D01*
X1502381Y-11461620D01*
X1530009Y-11528321D01*
X1557071Y-11593653D01*
X1636468Y-11712479D01*
X1737521Y-11813532D01*
X1856347Y-11892929D01*
X1856352Y-11892931D01*
X1856351Y-11892931D01*
X1879521Y-11902528D01*
X1919570Y-11942576D01*
X1919570Y-11999213D01*
X1886340Y-12032986D01*
X1887612Y-12035136D01*
X1744312Y-12119883D01*
X1629883Y-12234312D01*
X1547506Y-12373603D01*
X1502357Y-12529004D01*
X1499500Y-12565310D01*
X1499500Y-13034689D01*
X1502357Y-13070995D01*
X1547506Y-13226396D01*
X1570520Y-13265310D01*
X1620251Y-13349401D01*
X1629884Y-13365688D01*
X1632738Y-13369368D01*
X1630702Y-13370947D01*
X1649236Y-13415692D01*
X1638005Y-13452722D01*
X1638785Y-13453139D01*
X1637073Y-13456341D01*
X1582381Y-13588379D01*
X1582379Y-13588385D01*
X1554500Y-13728546D01*
X1554500Y-13871454D01*
X1577309Y-13986125D01*
X1568427Y-14038228D01*
X1547506Y-14073605D01*
X1536218Y-14112455D01*
X1502357Y-14229004D01*
X1499500Y-14265310D01*
X1499500Y-14734689D01*
X1502357Y-14770995D01*
X1547506Y-14926396D01*
X1629883Y-15065687D01*
X1691766Y-15127570D01*
X1713440Y-15179896D01*
X1691766Y-15232221D01*
X1636473Y-15287514D01*
X1636467Y-15287521D01*
X1557069Y-15406350D01*
X1502381Y-15538379D01*
X1502379Y-15538385D01*
X1480059Y-15650600D01*
X1474500Y-15678545D01*
X1474500Y-15821455D01*
X1480059Y-15849401D01*
X1502379Y-15961614D01*
X1502381Y-15961620D01*
X1555683Y-16090304D01*
X1557071Y-16093653D01*
X1586966Y-16138394D01*
X1636467Y-16212478D01*
X1636473Y-16212485D01*
X1691766Y-16267777D01*
X1713441Y-16320102D01*
X1691767Y-16372428D01*
X1691767Y-16372429D01*
X1629883Y-16434312D01*
X1547506Y-16573603D01*
X1502357Y-16729004D01*
X1499500Y-16765310D01*
X1499500Y-17234689D01*
X1502357Y-17270995D01*
X1547506Y-17426396D01*
X1625105Y-17557608D01*
X1633085Y-17613680D01*
X1599079Y-17658972D01*
X1598410Y-17659363D01*
X1494283Y-17719480D01*
X1382480Y-17831283D01*
X1303424Y-17968214D01*
X1303421Y-17968220D01*
X1262500Y-18120940D01*
X1262500Y-18392462D01*
X1240826Y-18444788D01*
X1209146Y-18463523D01*
X1089603Y-18498254D01*
X1089603Y-18498255D01*
X948134Y-18581919D01*
X902228Y-18627826D01*
X849902Y-18649500D01*
X620941Y-18649500D01*
X468220Y-18690421D01*
X468216Y-18690423D01*
X411499Y-18723168D01*
X355347Y-18730560D01*
X310414Y-18696082D01*
X300500Y-18659082D01*
X300500Y-11388784D01*
X322174Y-11336458D01*
X374500Y-11314784D01*
X393654Y-11317306D01*
G37*
%TD.AperFunction*%
%TA.AperFunction,Conductor*%
G36*
X14677826Y-4321674D02*
G01*
X14699500Y-4374000D01*
X14699500Y-15643028D01*
X14677826Y-15695354D01*
X14625500Y-15717028D01*
X14584388Y-15704557D01*
X14496285Y-15645688D01*
X14382452Y-15598537D01*
X14382445Y-15598535D01*
X14261606Y-15574500D01*
X13574500Y-15574500D01*
X13522174Y-15552826D01*
X13500500Y-15500500D01*
X13500500Y-15265310D01*
X13497643Y-15229007D01*
X13452494Y-15073605D01*
X13370117Y-14934313D01*
X13367174Y-14931370D01*
X13345500Y-14879044D01*
X13345500Y-14120956D01*
X13367174Y-14068630D01*
X13370117Y-14065687D01*
X13452494Y-13926395D01*
X13497643Y-13770993D01*
X13500500Y-13734690D01*
X13500500Y-13299500D01*
X13522174Y-13247174D01*
X13568061Y-13228166D01*
X13567834Y-13225857D01*
X13571449Y-13225500D01*
X13571455Y-13225500D01*
X13711620Y-13197619D01*
X13843653Y-13142929D01*
X13962479Y-13063532D01*
X14063532Y-12962479D01*
X14142929Y-12843653D01*
X14197619Y-12711620D01*
X14225500Y-12571455D01*
X14225500Y-12428545D01*
X14197619Y-12288380D01*
X14142929Y-12156347D01*
X14063532Y-12037521D01*
X13962479Y-11936468D01*
X13843653Y-11857071D01*
X13843650Y-11857069D01*
X13843649Y-11857069D01*
X13711620Y-11802381D01*
X13711614Y-11802379D01*
X13598570Y-11779893D01*
X13571455Y-11774500D01*
X13571454Y-11774500D01*
X13571449Y-11774499D01*
X13567834Y-11774143D01*
X13568061Y-11771833D01*
X13522174Y-11752826D01*
X13500500Y-11700500D01*
X13500500Y-11265310D01*
X13497643Y-11229007D01*
X13452494Y-11073605D01*
X13423526Y-11024624D01*
X13415546Y-10968553D01*
X13416690Y-10965135D01*
X13416564Y-10965097D01*
X13417617Y-10961624D01*
X13417619Y-10961620D01*
X13445500Y-10821455D01*
X13445500Y-10678545D01*
X13417619Y-10538380D01*
X13362929Y-10406347D01*
X13332971Y-10361511D01*
X13320500Y-10320399D01*
X13320500Y-10145956D01*
X13342174Y-10093630D01*
X13370117Y-10065687D01*
X13452494Y-9926395D01*
X13497643Y-9770993D01*
X13500500Y-9734690D01*
X13500500Y-9265310D01*
X13497643Y-9229007D01*
X13452494Y-9073605D01*
X13370117Y-8934313D01*
X13342174Y-8906370D01*
X13320500Y-8854044D01*
X13320500Y-8145956D01*
X13342174Y-8093630D01*
X13355535Y-8080269D01*
X13370117Y-8065687D01*
X13452494Y-7926395D01*
X13497643Y-7770993D01*
X13500500Y-7734690D01*
X13500500Y-7265310D01*
X13497643Y-7229007D01*
X13452494Y-7073605D01*
X13450950Y-7070995D01*
X13370116Y-6934312D01*
X13342174Y-6906370D01*
X13320500Y-6854044D01*
X13320500Y-6145956D01*
X13342174Y-6093630D01*
X13370117Y-6065687D01*
X13452494Y-5926395D01*
X13497643Y-5770993D01*
X13500500Y-5734690D01*
X13500500Y-5265310D01*
X13497643Y-5229007D01*
X13452494Y-5073605D01*
X13370117Y-4934313D01*
X13255687Y-4819883D01*
X13116396Y-4737506D01*
X12960995Y-4692357D01*
X12936791Y-4690452D01*
X12924690Y-4689500D01*
X12515310Y-4689500D01*
X12506234Y-4690214D01*
X12479004Y-4692357D01*
X12323603Y-4737506D01*
X12184312Y-4819883D01*
X12069883Y-4934312D01*
X11987506Y-5073603D01*
X11942357Y-5229004D01*
X11939500Y-5265310D01*
X11939500Y-5734689D01*
X11942357Y-5770995D01*
X11987506Y-5926396D01*
X12069883Y-6065687D01*
X12097826Y-6093630D01*
X12119500Y-6145956D01*
X12119500Y-6854044D01*
X12097826Y-6906370D01*
X12069883Y-6934312D01*
X11987506Y-7073603D01*
X11942357Y-7229004D01*
X11939500Y-7265310D01*
X11939500Y-7734689D01*
X11942357Y-7770995D01*
X11987506Y-7926396D01*
X12017935Y-7977848D01*
X12025915Y-8033920D01*
X11991909Y-8079212D01*
X11939804Y-8088095D01*
X11871455Y-8074500D01*
X11728545Y-8074500D01*
X11704857Y-8079212D01*
X11588385Y-8102379D01*
X11588379Y-8102381D01*
X11456346Y-8157071D01*
X11374096Y-8212029D01*
X11332984Y-8224500D01*
X10174232Y-8224500D01*
X10027869Y-8263717D01*
X10027860Y-8263721D01*
X9896637Y-8339483D01*
X9789483Y-8446637D01*
X9713716Y-8577869D01*
X9713231Y-8579041D01*
X9712778Y-8579492D01*
X9711294Y-8582065D01*
X9710604Y-8581667D01*
X9673180Y-8619087D01*
X9652950Y-8623804D01*
X9653001Y-8624185D01*
X9540530Y-8638990D01*
X9540526Y-8638991D01*
X9528316Y-8644049D01*
X9471684Y-8644049D01*
X9454993Y-8637136D01*
X9455786Y-8635220D01*
X9416428Y-8605011D01*
X9409043Y-8548857D01*
X9443517Y-8503935D01*
X9553365Y-8440515D01*
X9660515Y-8333365D01*
X9736281Y-8202135D01*
X9775499Y-8055768D01*
X9775500Y-8055768D01*
X9775500Y-5299500D01*
X9797174Y-5247174D01*
X9849500Y-5225500D01*
X9871453Y-5225500D01*
X9871455Y-5225500D01*
X10011620Y-5197619D01*
X10143653Y-5142929D01*
X10262479Y-5063532D01*
X10363532Y-4962479D01*
X10442929Y-4843653D01*
X10497619Y-4711620D01*
X10525500Y-4571455D01*
X10525500Y-4428545D01*
X10525059Y-4426326D01*
X10517522Y-4388436D01*
X10528572Y-4332887D01*
X10575664Y-4301422D01*
X10590100Y-4300000D01*
X14625500Y-4300000D01*
X14677826Y-4321674D01*
G37*
%TD.AperFunction*%
%TA.AperFunction,Conductor*%
G36*
X9540528Y-10486009D02*
G01*
X9650599Y-10500500D01*
X9849400Y-10500499D01*
X9926644Y-10490330D01*
X9981351Y-10504989D01*
X10009669Y-10554038D01*
X10009669Y-10573356D01*
X9999500Y-10650600D01*
X9999500Y-10849399D01*
X10013990Y-10959469D01*
X10013991Y-10959473D01*
X10019049Y-10971684D01*
X10019049Y-11028316D01*
X10013990Y-11040528D01*
X9999500Y-11150600D01*
X9999500Y-11349399D01*
X10013990Y-11459469D01*
X10013991Y-11459473D01*
X10019049Y-11471684D01*
X10019049Y-11528316D01*
X10013990Y-11540528D01*
X9999500Y-11650600D01*
X9999500Y-11849399D01*
X10013990Y-11959469D01*
X10013991Y-11959473D01*
X10019049Y-11971684D01*
X10019049Y-12028316D01*
X10013990Y-12040528D01*
X9999500Y-12150600D01*
X9999500Y-12349399D01*
X10013990Y-12459469D01*
X10013991Y-12459473D01*
X10019049Y-12471684D01*
X10019049Y-12528316D01*
X10013990Y-12540528D01*
X9999500Y-12650600D01*
X9999500Y-12849399D01*
X10013990Y-12959469D01*
X10013991Y-12959473D01*
X10019049Y-12971684D01*
X10019049Y-13028316D01*
X10013990Y-13040528D01*
X9999500Y-13150600D01*
X9999500Y-13349399D01*
X10013990Y-13459469D01*
X10013991Y-13459473D01*
X10019049Y-13471684D01*
X10019049Y-13528316D01*
X10013990Y-13540528D01*
X9999500Y-13650600D01*
X9999500Y-13849399D01*
X10013990Y-13959469D01*
X10013991Y-13959473D01*
X10019049Y-13971684D01*
X10019049Y-14028316D01*
X10013990Y-14040528D01*
X9999500Y-14150600D01*
X9999500Y-14349399D01*
X10013990Y-14459469D01*
X10013991Y-14459473D01*
X10019049Y-14471684D01*
X10019049Y-14528316D01*
X10013990Y-14540528D01*
X9999500Y-14650600D01*
X9999500Y-14849399D01*
X10013990Y-14959469D01*
X10013991Y-14959473D01*
X10019049Y-14971684D01*
X10019049Y-15028316D01*
X10013990Y-15040528D01*
X9999500Y-15150600D01*
X9999500Y-15349399D01*
X10009669Y-15426644D01*
X9995009Y-15481351D01*
X9945960Y-15509669D01*
X9926643Y-15509669D01*
X9849401Y-15499500D01*
X9849399Y-15499500D01*
X9650600Y-15499500D01*
X9540530Y-15513990D01*
X9540526Y-15513991D01*
X9528316Y-15519049D01*
X9471684Y-15519049D01*
X9459471Y-15513990D01*
X9375009Y-15502871D01*
X9349401Y-15499500D01*
X9349399Y-15499500D01*
X9150600Y-15499500D01*
X9040530Y-15513990D01*
X9040526Y-15513991D01*
X9028316Y-15519049D01*
X8971684Y-15519049D01*
X8959471Y-15513990D01*
X8875009Y-15502871D01*
X8849401Y-15499500D01*
X8849399Y-15499500D01*
X8650600Y-15499500D01*
X8540530Y-15513990D01*
X8540526Y-15513991D01*
X8528316Y-15519049D01*
X8471684Y-15519049D01*
X8459471Y-15513990D01*
X8375009Y-15502871D01*
X8349401Y-15499500D01*
X8349399Y-15499500D01*
X8150600Y-15499500D01*
X8040530Y-15513990D01*
X8040526Y-15513991D01*
X8028316Y-15519049D01*
X7971684Y-15519049D01*
X7959471Y-15513990D01*
X7875009Y-15502871D01*
X7849401Y-15499500D01*
X7849399Y-15499500D01*
X7650600Y-15499500D01*
X7540530Y-15513990D01*
X7540526Y-15513991D01*
X7528316Y-15519049D01*
X7471684Y-15519049D01*
X7459471Y-15513990D01*
X7375009Y-15502871D01*
X7349401Y-15499500D01*
X7349399Y-15499500D01*
X7150600Y-15499500D01*
X7040530Y-15513990D01*
X7040526Y-15513991D01*
X7028316Y-15519049D01*
X6971684Y-15519049D01*
X6959471Y-15513990D01*
X6875009Y-15502871D01*
X6849401Y-15499500D01*
X6849399Y-15499500D01*
X6650600Y-15499500D01*
X6540530Y-15513990D01*
X6540526Y-15513991D01*
X6528316Y-15519049D01*
X6471684Y-15519049D01*
X6459471Y-15513990D01*
X6375009Y-15502871D01*
X6349401Y-15499500D01*
X6349399Y-15499500D01*
X6150600Y-15499500D01*
X6040530Y-15513990D01*
X6040526Y-15513991D01*
X6028316Y-15519049D01*
X5971684Y-15519049D01*
X5959471Y-15513990D01*
X5875009Y-15502871D01*
X5849401Y-15499500D01*
X5849399Y-15499500D01*
X5650600Y-15499500D01*
X5540530Y-15513990D01*
X5540526Y-15513991D01*
X5528316Y-15519049D01*
X5471684Y-15519049D01*
X5459471Y-15513990D01*
X5375009Y-15502871D01*
X5349401Y-15499500D01*
X5349399Y-15499500D01*
X5150599Y-15499500D01*
X5073354Y-15509669D01*
X5018647Y-15495009D01*
X4990330Y-15445959D01*
X4990330Y-15426650D01*
X5000500Y-15349401D01*
X5000499Y-15150600D01*
X4986009Y-15040528D01*
X4980951Y-15028319D01*
X4980950Y-14971684D01*
X4980952Y-14971679D01*
X4986009Y-14959473D01*
X4986009Y-14959472D01*
X5000500Y-14849401D01*
X5000499Y-14650600D01*
X4986009Y-14540528D01*
X4980951Y-14528319D01*
X4980950Y-14471684D01*
X4980952Y-14471679D01*
X4986009Y-14459473D01*
X4986009Y-14459472D01*
X5000500Y-14349401D01*
X5000499Y-14150600D01*
X4986009Y-14040528D01*
X4980951Y-14028319D01*
X4980950Y-13971684D01*
X4980952Y-13971679D01*
X4986009Y-13959473D01*
X4986009Y-13959472D01*
X5000500Y-13849401D01*
X5000499Y-13650600D01*
X4986009Y-13540528D01*
X4980951Y-13528319D01*
X4980950Y-13471684D01*
X4980952Y-13471679D01*
X4984977Y-13461964D01*
X4986009Y-13459472D01*
X5000500Y-13349401D01*
X5000499Y-13150600D01*
X4986009Y-13040528D01*
X4980951Y-13028319D01*
X4980950Y-12971684D01*
X4980952Y-12971679D01*
X4984764Y-12962478D01*
X4986009Y-12959472D01*
X5000500Y-12849401D01*
X5000499Y-12650600D01*
X4986009Y-12540528D01*
X4980951Y-12528319D01*
X4980950Y-12471684D01*
X4980952Y-12471679D01*
X4986009Y-12459473D01*
X4986009Y-12459472D01*
X5000500Y-12349401D01*
X5000499Y-12150600D01*
X4986009Y-12040528D01*
X4980951Y-12028319D01*
X4980950Y-11971684D01*
X4980952Y-11971679D01*
X4986009Y-11959473D01*
X4986009Y-11959472D01*
X5000500Y-11849401D01*
X5000499Y-11650600D01*
X4986009Y-11540528D01*
X4980951Y-11528319D01*
X4980950Y-11471684D01*
X4980952Y-11471679D01*
X4986009Y-11459473D01*
X4986009Y-11459472D01*
X5000500Y-11349401D01*
X5000499Y-11150600D01*
X4986009Y-11040528D01*
X4980951Y-11028319D01*
X4980950Y-10971684D01*
X4980952Y-10971679D01*
X4986009Y-10959473D01*
X4986009Y-10959472D01*
X5000500Y-10849401D01*
X5000499Y-10650600D01*
X4990330Y-10573354D01*
X5004989Y-10518648D01*
X5054039Y-10490330D01*
X5073350Y-10490330D01*
X5150599Y-10500500D01*
X5349400Y-10500499D01*
X5459472Y-10486009D01*
X5471680Y-10480951D01*
X5528315Y-10480950D01*
X5540528Y-10486009D01*
X5650599Y-10500500D01*
X5849400Y-10500499D01*
X5959472Y-10486009D01*
X5971680Y-10480951D01*
X6028315Y-10480950D01*
X6040528Y-10486009D01*
X6150599Y-10500500D01*
X6349400Y-10500499D01*
X6459472Y-10486009D01*
X6471680Y-10480951D01*
X6528315Y-10480950D01*
X6540528Y-10486009D01*
X6650599Y-10500500D01*
X6849400Y-10500499D01*
X6959472Y-10486009D01*
X6971680Y-10480951D01*
X7028315Y-10480950D01*
X7040528Y-10486009D01*
X7150599Y-10500500D01*
X7349400Y-10500499D01*
X7459472Y-10486009D01*
X7471680Y-10480951D01*
X7528315Y-10480950D01*
X7540528Y-10486009D01*
X7650599Y-10500500D01*
X7849400Y-10500499D01*
X7959472Y-10486009D01*
X7971680Y-10480951D01*
X8028315Y-10480950D01*
X8040528Y-10486009D01*
X8150599Y-10500500D01*
X8349400Y-10500499D01*
X8459472Y-10486009D01*
X8471680Y-10480951D01*
X8528315Y-10480950D01*
X8540528Y-10486009D01*
X8650599Y-10500500D01*
X8849400Y-10500499D01*
X8959472Y-10486009D01*
X8971680Y-10480951D01*
X9028315Y-10480950D01*
X9040528Y-10486009D01*
X9150599Y-10500500D01*
X9349400Y-10500499D01*
X9459472Y-10486009D01*
X9471680Y-10480951D01*
X9528315Y-10480950D01*
X9540528Y-10486009D01*
G37*
%TD.AperFunction*%
%TA.AperFunction,Conductor*%
G36*
X2756966Y-9541930D02*
G01*
X2793226Y-9585439D01*
X2788101Y-9641843D01*
X2763689Y-9668983D01*
X2737521Y-9686467D01*
X2737520Y-9686469D01*
X2636469Y-9787520D01*
X2636467Y-9787521D01*
X2557069Y-9906350D01*
X2502381Y-10038379D01*
X2502379Y-10038386D01*
X2487153Y-10114936D01*
X2455687Y-10162029D01*
X2414575Y-10174500D01*
X1914334Y-10174500D01*
X1862008Y-10152826D01*
X1840334Y-10100500D01*
X1843683Y-10078491D01*
X1844086Y-10077196D01*
X1844086Y-10077195D01*
X1847613Y-10038380D01*
X1850500Y-10006616D01*
X1850500Y-9618545D01*
X1872174Y-9566219D01*
X1924500Y-9544545D01*
X1931197Y-9544849D01*
X1962739Y-9547715D01*
X1993384Y-9550500D01*
X1993386Y-9550500D01*
X2606614Y-9550500D01*
X2606616Y-9550500D01*
X2677196Y-9544086D01*
X2700562Y-9536805D01*
X2756966Y-9541930D01*
G37*
%TD.AperFunction*%
%TA.AperFunction,Conductor*%
G36*
X3897942Y-4321674D02*
G01*
X3919616Y-4374000D01*
X3897942Y-4426326D01*
X3883285Y-4437695D01*
X3744312Y-4519883D01*
X3629883Y-4634312D01*
X3547506Y-4773603D01*
X3502357Y-4929004D01*
X3499500Y-4965310D01*
X3499500Y-5434689D01*
X3502357Y-5470994D01*
X3509605Y-5495940D01*
X3503390Y-5552235D01*
X3459189Y-5587648D01*
X3402894Y-5581433D01*
X3377015Y-5557699D01*
X3363534Y-5537523D01*
X3262478Y-5436467D01*
X3223226Y-5410240D01*
X3143653Y-5357071D01*
X3143650Y-5357069D01*
X3143649Y-5357069D01*
X3011620Y-5302381D01*
X3011614Y-5302379D01*
X2917752Y-5283709D01*
X2871455Y-5274500D01*
X2728545Y-5274500D01*
X2701373Y-5279904D01*
X2614418Y-5297201D01*
X2562313Y-5288318D01*
X2476396Y-5237506D01*
X2320995Y-5192357D01*
X2296791Y-5190452D01*
X2284690Y-5189500D01*
X1875310Y-5189500D01*
X1866234Y-5190214D01*
X1839004Y-5192357D01*
X1683603Y-5237506D01*
X1544312Y-5319883D01*
X1429883Y-5434312D01*
X1347506Y-5573603D01*
X1302357Y-5729004D01*
X1299500Y-5765310D01*
X1299500Y-6234689D01*
X1302357Y-6270995D01*
X1347506Y-6426396D01*
X1428608Y-6563531D01*
X1429883Y-6565687D01*
X1544313Y-6680117D01*
X1573909Y-6697620D01*
X1683601Y-6762492D01*
X1683605Y-6762494D01*
X1839007Y-6807643D01*
X1875310Y-6810500D01*
X1875311Y-6810500D01*
X2284689Y-6810500D01*
X2284690Y-6810500D01*
X2320993Y-6807643D01*
X2476395Y-6762494D01*
X2562312Y-6711681D01*
X2614417Y-6702798D01*
X2728545Y-6725500D01*
X2728547Y-6725500D01*
X2871453Y-6725500D01*
X2871455Y-6725500D01*
X3011620Y-6697619D01*
X3143653Y-6642929D01*
X3262479Y-6563532D01*
X3363532Y-6462479D01*
X3377014Y-6442302D01*
X3424105Y-6410835D01*
X3479654Y-6421884D01*
X3511121Y-6468975D01*
X3509605Y-6504058D01*
X3502357Y-6529003D01*
X3499500Y-6565310D01*
X3499500Y-7034689D01*
X3502357Y-7070995D01*
X3547506Y-7226396D01*
X3629883Y-7365687D01*
X3691067Y-7426871D01*
X3710220Y-7460045D01*
X3725423Y-7516787D01*
X3726207Y-7518678D01*
X3726253Y-7518814D01*
X3726450Y-7519274D01*
X3726751Y-7519990D01*
X3726970Y-7520519D01*
X3727042Y-7520663D01*
X3727843Y-7522543D01*
X3766295Y-7587585D01*
X3766680Y-7588244D01*
X3804482Y-7653720D01*
X3805729Y-7655345D01*
X3805807Y-7655460D01*
X3806109Y-7655845D01*
X3806595Y-7656473D01*
X3806936Y-7656918D01*
X3807047Y-7657043D01*
X3808306Y-7658650D01*
X3862281Y-7711523D01*
X3862823Y-7712059D01*
X3874225Y-7723461D01*
X3895899Y-7775787D01*
X3883428Y-7816899D01*
X3857071Y-7856345D01*
X3802381Y-7988378D01*
X3802379Y-7988384D01*
X3774500Y-8128545D01*
X3774500Y-8271452D01*
X3802379Y-8411613D01*
X3802381Y-8411619D01*
X3857071Y-8543652D01*
X3881335Y-8579966D01*
X3887028Y-8588485D01*
X3899500Y-8629598D01*
X3899500Y-9550500D01*
X3877826Y-9602826D01*
X3825500Y-9624500D01*
X3650600Y-9624500D01*
X3610659Y-9629758D01*
X3559890Y-9617920D01*
X3543653Y-9607071D01*
X3411620Y-9552381D01*
X3411614Y-9552379D01*
X3317752Y-9533709D01*
X3271455Y-9524500D01*
X3128545Y-9524500D01*
X3035064Y-9543094D01*
X2979515Y-9532044D01*
X2948050Y-9484952D01*
X2959100Y-9429403D01*
X2982347Y-9407187D01*
X2985185Y-9405472D01*
X3105472Y-9285185D01*
X3130989Y-9242973D01*
X3153203Y-9219729D01*
X3162479Y-9213532D01*
X3263532Y-9112479D01*
X3342929Y-8993653D01*
X3397619Y-8861620D01*
X3425500Y-8721455D01*
X3425500Y-8578545D01*
X3397619Y-8438380D01*
X3342929Y-8306347D01*
X3263532Y-8187521D01*
X3162479Y-8086468D01*
X3153202Y-8080269D01*
X3130989Y-8057025D01*
X3130228Y-8055766D01*
X3105472Y-8014815D01*
X2985185Y-7894528D01*
X2839606Y-7806522D01*
X2677196Y-7755914D01*
X2677193Y-7755913D01*
X2677191Y-7755913D01*
X2606623Y-7749500D01*
X2606616Y-7749500D01*
X1993384Y-7749500D01*
X1993376Y-7749500D01*
X1922809Y-7755913D01*
X1922808Y-7755913D01*
X1922805Y-7755913D01*
X1922804Y-7755914D01*
X1760394Y-7806522D01*
X1760392Y-7806522D01*
X1760392Y-7806523D01*
X1614814Y-7894528D01*
X1494528Y-8014814D01*
X1451212Y-8086468D01*
X1406522Y-8160394D01*
X1374325Y-8263721D01*
X1355913Y-8322808D01*
X1355913Y-8322809D01*
X1349500Y-8393376D01*
X1349500Y-8781454D01*
X1327826Y-8833780D01*
X1275500Y-8855454D01*
X1268804Y-8855150D01*
X1206625Y-8849500D01*
X1206616Y-8849500D01*
X593384Y-8849500D01*
X593376Y-8849500D01*
X522809Y-8855913D01*
X522808Y-8855913D01*
X522805Y-8855913D01*
X522804Y-8855914D01*
X396513Y-8895266D01*
X340110Y-8890140D01*
X303850Y-8846632D01*
X300500Y-8824617D01*
X300500Y-4374000D01*
X322174Y-4321674D01*
X374500Y-4300000D01*
X3845616Y-4300000D01*
X3897942Y-4321674D01*
G37*
%TD.AperFunction*%
%TA.AperFunction,Conductor*%
G36*
X8613676Y-4321674D02*
G01*
X8635350Y-4374000D01*
X8632828Y-4393153D01*
X8624500Y-4424231D01*
X8624500Y-7125500D01*
X8602826Y-7177826D01*
X8550500Y-7199500D01*
X8265310Y-7199500D01*
X8256234Y-7200214D01*
X8229004Y-7202357D01*
X8073603Y-7247506D01*
X7934311Y-7329883D01*
X7910745Y-7353449D01*
X7858418Y-7375121D01*
X7820752Y-7364816D01*
X7689394Y-7287131D01*
X7535204Y-7242335D01*
X7535207Y-7242335D01*
X7508186Y-7240208D01*
X7499181Y-7239500D01*
X7499180Y-7239500D01*
X7000820Y-7239500D01*
X6964793Y-7242335D01*
X6810605Y-7287131D01*
X6672401Y-7368865D01*
X6558865Y-7482401D01*
X6477131Y-7620605D01*
X6432335Y-7774793D01*
X6429500Y-7810819D01*
X6429500Y-8209179D01*
X6432335Y-8245206D01*
X6477131Y-8399394D01*
X6557622Y-8535497D01*
X6565602Y-8591569D01*
X6531596Y-8636861D01*
X6475524Y-8644841D01*
X6465609Y-8641533D01*
X6459471Y-8638990D01*
X6374649Y-8627824D01*
X6349401Y-8624500D01*
X6349399Y-8624500D01*
X6150600Y-8624500D01*
X6040530Y-8638990D01*
X6040526Y-8638991D01*
X6028316Y-8644049D01*
X5971682Y-8644048D01*
X5959474Y-8638991D01*
X5954785Y-8637735D01*
X5955159Y-8636338D01*
X5910787Y-8610714D01*
X5895500Y-8565672D01*
X5895500Y-7906562D01*
X5917174Y-7854236D01*
X5938590Y-7832820D01*
X6021931Y-7691897D01*
X6067609Y-7534675D01*
X6070500Y-7497940D01*
X6070500Y-7072060D01*
X6067609Y-7035325D01*
X6021931Y-6878103D01*
X5998019Y-6837670D01*
X5990038Y-6781598D01*
X5998019Y-6762330D01*
X6021929Y-6721900D01*
X6021928Y-6721900D01*
X6021931Y-6721897D01*
X6067609Y-6564675D01*
X6070500Y-6527940D01*
X6070500Y-6102060D01*
X6070363Y-6100323D01*
X6087850Y-6046455D01*
X6138308Y-6020729D01*
X6144111Y-6020499D01*
X6489180Y-6020499D01*
X6525204Y-6017665D01*
X6679393Y-5972869D01*
X6762332Y-5923818D01*
X6818403Y-5915839D01*
X6837664Y-5923816D01*
X6920607Y-5972869D01*
X7074793Y-6017664D01*
X7074792Y-6017664D01*
X7074796Y-6017665D01*
X7110819Y-6020500D01*
X7509180Y-6020499D01*
X7545204Y-6017665D01*
X7699393Y-5972869D01*
X7837598Y-5891135D01*
X7951135Y-5777598D01*
X8032869Y-5639393D01*
X8077665Y-5485204D01*
X8080500Y-5449181D01*
X8080499Y-4950820D01*
X8077665Y-4914796D01*
X8032869Y-4760607D01*
X7951135Y-4622402D01*
X7837598Y-4508865D01*
X7717256Y-4437695D01*
X7683250Y-4392403D01*
X7691230Y-4336331D01*
X7736522Y-4302325D01*
X7754925Y-4300000D01*
X8561350Y-4300000D01*
X8613676Y-4321674D01*
G37*
%TD.AperFunction*%
%TD*%
D34*
X12720000Y-10750000D03*
X3200000Y-10250000D03*
X2280000Y-13800000D03*
X9200000Y-26600000D03*
X3000000Y-11750000D03*
X3420000Y-27500000D03*
X4750000Y-17400000D03*
X8500000Y-17400000D03*
X13500000Y-17800000D03*
X10850000Y-17000000D03*
X10863000Y-20200000D03*
X12680000Y-16800000D03*
X2500000Y-6800000D03*
X7500000Y-13000000D03*
X5600000Y-19800000D03*
X13500000Y-25500000D03*
X1320000Y-12800000D03*
X700000Y-6000000D03*
X700000Y-8650000D03*
X14300000Y-11500000D03*
X14300000Y-9500000D03*
X6500000Y-12000000D03*
X9200000Y-19800000D03*
X6800000Y-19800000D03*
X7500000Y-12000000D03*
X7500000Y-14000000D03*
X2500000Y-5200000D03*
X8500000Y-14000000D03*
X1200000Y-24200000D03*
X14300000Y-5500000D03*
X6500000Y-13000000D03*
X5500000Y-23250000D03*
X14300000Y-28150000D03*
X14300000Y-28850000D03*
X2500000Y-20200000D03*
X8500000Y-12000000D03*
X6500000Y-14000000D03*
X1320000Y-14500000D03*
X9200000Y-28500000D03*
X5000000Y-27960000D03*
X2280000Y-29500000D03*
X14300000Y-13500000D03*
X14300000Y-15500000D03*
X14300000Y-7500000D03*
X8500000Y-6200000D03*
X4380000Y-29500000D03*
X8500000Y-13000000D03*
X1320000Y-17800000D03*
X9800000Y-4500000D03*
X11600000Y-10150000D03*
X9990000Y-27000000D03*
X13500000Y-12500000D03*
X11062000Y-23250000D03*
X8550000Y-20500000D03*
X14200000Y-21150000D03*
X4800000Y-24200000D03*
X4138000Y-23250000D03*
X2000000Y-26800000D03*
X8637000Y-25150000D03*
X7310000Y-5200000D03*
X3100000Y-13300000D03*
X6600000Y-26400000D03*
X8050000Y-27958000D03*
X8400000Y-8700000D03*
X7500000Y-26400000D03*
X3200000Y-14250000D03*
X9990000Y-28500000D03*
X11800000Y-8800000D03*
X11400000Y-19250000D03*
X11800000Y-12750000D03*
X2800000Y-6000000D03*
X3615000Y-7600000D03*
X2700000Y-8650000D03*
X2200000Y-11250000D03*
X2200000Y-15750000D03*
X7250000Y-21000000D03*
X7135000Y-7100000D03*
X7250000Y-8250000D03*
X7250000Y-4000000D03*
M02*
