%TF.GenerationSoftware,KiCad,Pcbnew,10.0.6*%
%TF.CreationDate,2026-09-20T18:18:46+05:30*%
%TF.ProjectId,Device1,44657669-6365-4312-9e6b-696361645f70,rev?*%
%TF.SameCoordinates,Original*%
%TF.FileFunction,Copper,L3,Inr*%
%TF.FilePolarity,Positive*%
%FSLAX46Y46*%
G04 Gerber Fmt 4.6, Leading zero omitted, Abs format (unit mm)*
G04 Created by KiCad (PCBNEW 10.0.6) date 2026-09-20 18:18:46*
%MOMM*%
%LPD*%
G01*
G04 APERTURE LIST*
%TA.AperFunction,ViaPad*%
%ADD10C,0.450000*%
%TD*%
%TA.AperFunction,Conductor*%
%ADD11C,0.200000*%
%TD*%
%TA.AperFunction,Conductor*%
%ADD12C,0.250000*%
%TD*%
G04 APERTURE END LIST*
D10*
%TO.N,/3V3*%
X12720000Y-10750000D03*
X3200000Y-10250000D03*
X2280000Y-13800000D03*
X9200000Y-26600000D03*
X3000000Y-11750000D03*
X3420000Y-27500000D03*
X4750000Y-17400000D03*
X8500000Y-17400000D03*
X13500000Y-17800000D03*
%TO.N,/BATT_NEG*%
X4138000Y-23250000D03*
X2000000Y-26800000D03*
X8637000Y-25150000D03*
%TO.N,/BATT_POS*%
X4800000Y-24200000D03*
%TO.N,/BOOT0*%
X7250000Y-8010000D03*
%TO.N,/CHG_STAT*%
X11400000Y-19250000D03*
X11800000Y-12750000D03*
%TO.N,/GND*%
X10850000Y-17000000D03*
X10863000Y-20200000D03*
X12680000Y-16800000D03*
X2500000Y-6800000D03*
X7500000Y-13000000D03*
X5600000Y-19800000D03*
X13500000Y-25500000D03*
X1320000Y-12800000D03*
X700000Y-6000000D03*
X700000Y-8650000D03*
X14300000Y-11500000D03*
X14300000Y-9500000D03*
X6500000Y-12000000D03*
X9200000Y-19800000D03*
X6800000Y-19800000D03*
X7500000Y-12000000D03*
X7500000Y-14000000D03*
X2500000Y-5200000D03*
X8500000Y-14000000D03*
X1200000Y-24200000D03*
X14300000Y-5500000D03*
X6500000Y-13000000D03*
X5500000Y-23250000D03*
X14300000Y-28150000D03*
X14300000Y-28850000D03*
X2500000Y-20200000D03*
X8500000Y-12000000D03*
X6500000Y-14000000D03*
X1320000Y-14500000D03*
X9200000Y-28500000D03*
X5000000Y-27960000D03*
X2280000Y-29500000D03*
X14300000Y-13500000D03*
X14300000Y-15500000D03*
X14300000Y-7500000D03*
X8500000Y-6200000D03*
X4380000Y-29500000D03*
X8500000Y-13000000D03*
X1320000Y-17800000D03*
X6500000Y-6990000D03*
%TO.N,/LED_B_DRV*%
X9990000Y-28500000D03*
X11800000Y-8800000D03*
%TO.N,/LED_R_DRV*%
X11600000Y-10150000D03*
X9990000Y-27000000D03*
%TO.N,/MIC_SCK*%
X8050000Y-27958000D03*
X8400000Y-8700000D03*
%TO.N,/MIC_SD*%
X7500000Y-26400000D03*
X3200000Y-14250000D03*
%TO.N,/MIC_WS*%
X3100000Y-13300000D03*
X6600000Y-26400000D03*
%TO.N,/NRST*%
X9800000Y-4500000D03*
%TO.N,/OSC_OUT*%
X2700000Y-8650000D03*
X2200000Y-11250000D03*
%TO.N,/SWCLK*%
X7250000Y-21000000D03*
%TO.N,/SWDIO*%
X2200000Y-15750000D03*
%TO.N,/TP_RF*%
X7310000Y-5200000D03*
%TO.N,/VBUS_5V*%
X13500000Y-12500000D03*
X11062000Y-23250000D03*
X8550000Y-20500000D03*
X14200000Y-21150000D03*
%TO.N,/VR_PA*%
X2800000Y-6000000D03*
X4500000Y-8199999D03*
%TD*%
%TO.N,/BATT_NEG*%
D11*
X4138000Y-24800000D02*
X6500000Y-24800000D01*
X4138000Y-23250000D02*
X2000000Y-26800000D01*
X6500000Y-24800000D02*
X8637000Y-25150000D01*
X4138000Y-23250000D02*
X4138000Y-24800000D01*
%TO.N,/VBUS_5V*%
D12*
X14200000Y-21150000D02*
X11062000Y-23250000D01*
X8550000Y-20500000D02*
X11062000Y-23250000D01*
%TD*%
%TA.AperFunction,Conductor*%
%TO.N,/3V3*%
G36*
X9062226Y-4321674D02*
G01*
X9083900Y-4374000D01*
X9082478Y-4388436D01*
X9074500Y-4428545D01*
X9074500Y-4571453D01*
X9102379Y-4711614D01*
X9102381Y-4711620D01*
X9156988Y-4843454D01*
X9157071Y-4843653D01*
X9236468Y-4962479D01*
X9337521Y-5063532D01*
X9456347Y-5142929D01*
X9588380Y-5197619D01*
X9728545Y-5225500D01*
X9728547Y-5225500D01*
X9871453Y-5225500D01*
X9871455Y-5225500D01*
X10011620Y-5197619D01*
X10143653Y-5142929D01*
X10262479Y-5063532D01*
X10363532Y-4962479D01*
X10442929Y-4843653D01*
X10497619Y-4711620D01*
X10525500Y-4571455D01*
X10525500Y-4428545D01*
X10517522Y-4388436D01*
X10528572Y-4332887D01*
X10575664Y-4301422D01*
X10590100Y-4300000D01*
X14625500Y-4300000D01*
X14677826Y-4321674D01*
X14699500Y-4374000D01*
X14699500Y-4769454D01*
X14677826Y-4821780D01*
X14625500Y-4843454D01*
X14597182Y-4837821D01*
X14511624Y-4802382D01*
X14511614Y-4802379D01*
X14417752Y-4783709D01*
X14371455Y-4774500D01*
X14228545Y-4774500D01*
X14188810Y-4782403D01*
X14088385Y-4802379D01*
X14088379Y-4802381D01*
X13956350Y-4857069D01*
X13837521Y-4936467D01*
X13837520Y-4936469D01*
X13736469Y-5037520D01*
X13736467Y-5037521D01*
X13657069Y-5156350D01*
X13602381Y-5288379D01*
X13602379Y-5288385D01*
X13574500Y-5428546D01*
X13574500Y-5571453D01*
X13602379Y-5711614D01*
X13602381Y-5711620D01*
X13656771Y-5842930D01*
X13657071Y-5843653D01*
X13736468Y-5962479D01*
X13837521Y-6063532D01*
X13956347Y-6142929D01*
X14088380Y-6197619D01*
X14228545Y-6225500D01*
X14228547Y-6225500D01*
X14371453Y-6225500D01*
X14371455Y-6225500D01*
X14511620Y-6197619D01*
X14597182Y-6162178D01*
X14653818Y-6162178D01*
X14693867Y-6202226D01*
X14699500Y-6230545D01*
X14699500Y-6769454D01*
X14677826Y-6821780D01*
X14625500Y-6843454D01*
X14597182Y-6837821D01*
X14511624Y-6802382D01*
X14511614Y-6802379D01*
X14417752Y-6783709D01*
X14371455Y-6774500D01*
X14228545Y-6774500D01*
X14188810Y-6782403D01*
X14088385Y-6802379D01*
X14088379Y-6802381D01*
X13956350Y-6857069D01*
X13837521Y-6936467D01*
X13837520Y-6936469D01*
X13736469Y-7037520D01*
X13736467Y-7037521D01*
X13657069Y-7156350D01*
X13602381Y-7288379D01*
X13602379Y-7288385D01*
X13574500Y-7428546D01*
X13574500Y-7571453D01*
X13602379Y-7711614D01*
X13602381Y-7711620D01*
X13657071Y-7843653D01*
X13707720Y-7919454D01*
X13729720Y-7952381D01*
X13736468Y-7962479D01*
X13837521Y-8063532D01*
X13956347Y-8142929D01*
X14088380Y-8197619D01*
X14228545Y-8225500D01*
X14228547Y-8225500D01*
X14371453Y-8225500D01*
X14371455Y-8225500D01*
X14511620Y-8197619D01*
X14597182Y-8162178D01*
X14653818Y-8162178D01*
X14693867Y-8202226D01*
X14699500Y-8230545D01*
X14699500Y-8769454D01*
X14677826Y-8821780D01*
X14625500Y-8843454D01*
X14597182Y-8837821D01*
X14511624Y-8802382D01*
X14511614Y-8802379D01*
X14417752Y-8783709D01*
X14371455Y-8774500D01*
X14228545Y-8774500D01*
X14188810Y-8782403D01*
X14088385Y-8802379D01*
X14088379Y-8802381D01*
X13956350Y-8857069D01*
X13837521Y-8936467D01*
X13837520Y-8936469D01*
X13736469Y-9037520D01*
X13736467Y-9037521D01*
X13657069Y-9156350D01*
X13602381Y-9288379D01*
X13602379Y-9288385D01*
X13590597Y-9347619D01*
X13574500Y-9428545D01*
X13574500Y-9571455D01*
X13583709Y-9617752D01*
X13602379Y-9711614D01*
X13602381Y-9711620D01*
X13641619Y-9806350D01*
X13657071Y-9843653D01*
X13710240Y-9923226D01*
X13720365Y-9938380D01*
X13736468Y-9962479D01*
X13837521Y-10063532D01*
X13956347Y-10142929D01*
X14088380Y-10197619D01*
X14228545Y-10225500D01*
X14228547Y-10225500D01*
X14371453Y-10225500D01*
X14371455Y-10225500D01*
X14511620Y-10197619D01*
X14597182Y-10162178D01*
X14653818Y-10162178D01*
X14693867Y-10202226D01*
X14699500Y-10230545D01*
X14699500Y-10769454D01*
X14677826Y-10821780D01*
X14625500Y-10843454D01*
X14597182Y-10837821D01*
X14511624Y-10802382D01*
X14511614Y-10802379D01*
X14417752Y-10783709D01*
X14371455Y-10774500D01*
X14228545Y-10774500D01*
X14188810Y-10782403D01*
X14088385Y-10802379D01*
X14088379Y-10802381D01*
X13956350Y-10857069D01*
X13837521Y-10936467D01*
X13837520Y-10936469D01*
X13736469Y-11037520D01*
X13736467Y-11037521D01*
X13657069Y-11156350D01*
X13602381Y-11288379D01*
X13602379Y-11288385D01*
X13574500Y-11428546D01*
X13574500Y-11571453D01*
X13597297Y-11686063D01*
X13586248Y-11741612D01*
X13539156Y-11773078D01*
X13524719Y-11774500D01*
X13428545Y-11774500D01*
X13388810Y-11782403D01*
X13288385Y-11802379D01*
X13288379Y-11802381D01*
X13156350Y-11857069D01*
X13037521Y-11936467D01*
X13037520Y-11936469D01*
X12936469Y-12037520D01*
X12936467Y-12037521D01*
X12857069Y-12156350D01*
X12802381Y-12288379D01*
X12802379Y-12288385D01*
X12797297Y-12313937D01*
X12774500Y-12428545D01*
X12774500Y-12571455D01*
X12777867Y-12588380D01*
X12802379Y-12711614D01*
X12802381Y-12711620D01*
X12856988Y-12843454D01*
X12857071Y-12843653D01*
X12875648Y-12871455D01*
X12932372Y-12956350D01*
X12936468Y-12962479D01*
X13037521Y-13063532D01*
X13156347Y-13142929D01*
X13288380Y-13197619D01*
X13428545Y-13225500D01*
X13428547Y-13225500D01*
X13524719Y-13225500D01*
X13577045Y-13247174D01*
X13598719Y-13299500D01*
X13597297Y-13313937D01*
X13574500Y-13428546D01*
X13574500Y-13571453D01*
X13602379Y-13711614D01*
X13602381Y-13711620D01*
X13652432Y-13832455D01*
X13657071Y-13843653D01*
X13736468Y-13962479D01*
X13837521Y-14063532D01*
X13956347Y-14142929D01*
X14088380Y-14197619D01*
X14228545Y-14225500D01*
X14228547Y-14225500D01*
X14371453Y-14225500D01*
X14371455Y-14225500D01*
X14511620Y-14197619D01*
X14597182Y-14162178D01*
X14653818Y-14162178D01*
X14693867Y-14202226D01*
X14699500Y-14230545D01*
X14699500Y-14769454D01*
X14677826Y-14821780D01*
X14625500Y-14843454D01*
X14597182Y-14837821D01*
X14511624Y-14802382D01*
X14511614Y-14802379D01*
X14417752Y-14783709D01*
X14371455Y-14774500D01*
X14228545Y-14774500D01*
X14188810Y-14782403D01*
X14088385Y-14802379D01*
X14088379Y-14802381D01*
X13956350Y-14857069D01*
X13837521Y-14936467D01*
X13837520Y-14936469D01*
X13736469Y-15037520D01*
X13736467Y-15037521D01*
X13657069Y-15156350D01*
X13602381Y-15288379D01*
X13602379Y-15288385D01*
X13574500Y-15428546D01*
X13574500Y-15571453D01*
X13602379Y-15711614D01*
X13602381Y-15711620D01*
X13657071Y-15843653D01*
X13736468Y-15962479D01*
X13837521Y-16063532D01*
X13956347Y-16142929D01*
X14088380Y-16197619D01*
X14228545Y-16225500D01*
X14228547Y-16225500D01*
X14371453Y-16225500D01*
X14371455Y-16225500D01*
X14511620Y-16197619D01*
X14597182Y-16162178D01*
X14653818Y-16162178D01*
X14693867Y-16202226D01*
X14699500Y-16230545D01*
X14699500Y-20472760D01*
X14677826Y-20525086D01*
X14625500Y-20546760D01*
X14584389Y-20534290D01*
X14543653Y-20507071D01*
X14411620Y-20452381D01*
X14411614Y-20452379D01*
X14317752Y-20433709D01*
X14271455Y-20424500D01*
X14128545Y-20424500D01*
X14088810Y-20432403D01*
X13988385Y-20452379D01*
X13988379Y-20452381D01*
X13856350Y-20507069D01*
X13737521Y-20586467D01*
X13737520Y-20586469D01*
X13636469Y-20687520D01*
X13636467Y-20687521D01*
X13557071Y-20806346D01*
X13553461Y-20815062D01*
X13526251Y-20848239D01*
X11213973Y-22395651D01*
X11158432Y-22406740D01*
X11118180Y-22384060D01*
X9710427Y-20842929D01*
X9470720Y-20580511D01*
X9451434Y-20527260D01*
X9475450Y-20475967D01*
X9497040Y-20462237D01*
X9543648Y-20442931D01*
X9543647Y-20442931D01*
X9543653Y-20442929D01*
X9662479Y-20363532D01*
X9763532Y-20262479D01*
X9842929Y-20143653D01*
X9849187Y-20128545D01*
X10137500Y-20128545D01*
X10137500Y-20271455D01*
X10143652Y-20302381D01*
X10165379Y-20411614D01*
X10165381Y-20411620D01*
X10216192Y-20534290D01*
X10220071Y-20543653D01*
X10248679Y-20586468D01*
X10295370Y-20656347D01*
X10299468Y-20662479D01*
X10400521Y-20763532D01*
X10519347Y-20842929D01*
X10651380Y-20897619D01*
X10791545Y-20925500D01*
X10791547Y-20925500D01*
X10934453Y-20925500D01*
X10934455Y-20925500D01*
X11074620Y-20897619D01*
X11206653Y-20842929D01*
X11325479Y-20763532D01*
X11426532Y-20662479D01*
X11505929Y-20543653D01*
X11560619Y-20411620D01*
X11588500Y-20271455D01*
X11588500Y-20128545D01*
X11568858Y-20029800D01*
X11579907Y-19974253D01*
X11613116Y-19946999D01*
X11743653Y-19892929D01*
X11862479Y-19813532D01*
X11963532Y-19712479D01*
X12042929Y-19593653D01*
X12097619Y-19461620D01*
X12125500Y-19321455D01*
X12125500Y-19178545D01*
X12097619Y-19038380D01*
X12042929Y-18906347D01*
X11963532Y-18787521D01*
X11862479Y-18686468D01*
X11743653Y-18607071D01*
X11743650Y-18607069D01*
X11743649Y-18607069D01*
X11611620Y-18552381D01*
X11611614Y-18552379D01*
X11517752Y-18533709D01*
X11471455Y-18524500D01*
X11328545Y-18524500D01*
X11288810Y-18532403D01*
X11188385Y-18552379D01*
X11188379Y-18552381D01*
X11056350Y-18607069D01*
X10937521Y-18686467D01*
X10937520Y-18686469D01*
X10836469Y-18787520D01*
X10836467Y-18787521D01*
X10757069Y-18906350D01*
X10702381Y-19038379D01*
X10702379Y-19038385D01*
X10689650Y-19102381D01*
X10674500Y-19178545D01*
X10674500Y-19321455D01*
X10677696Y-19337520D01*
X10694141Y-19420198D01*
X10683092Y-19475746D01*
X10649882Y-19503001D01*
X10519350Y-19557069D01*
X10400521Y-19636467D01*
X10400520Y-19636469D01*
X10299469Y-19737520D01*
X10299467Y-19737521D01*
X10220069Y-19856350D01*
X10165381Y-19988379D01*
X10165379Y-19988385D01*
X10155606Y-20037520D01*
X10137500Y-20128545D01*
X9849187Y-20128545D01*
X9897619Y-20011620D01*
X9925500Y-19871455D01*
X9925500Y-19728545D01*
X9897619Y-19588380D01*
X9842929Y-19456347D01*
X9763532Y-19337521D01*
X9662479Y-19236468D01*
X9543653Y-19157071D01*
X9543650Y-19157069D01*
X9543649Y-19157069D01*
X9411620Y-19102381D01*
X9411614Y-19102379D01*
X9317752Y-19083709D01*
X9271455Y-19074500D01*
X9128545Y-19074500D01*
X9088810Y-19082403D01*
X8988385Y-19102379D01*
X8988379Y-19102381D01*
X8856350Y-19157069D01*
X8737521Y-19236467D01*
X8737520Y-19236469D01*
X8636469Y-19337520D01*
X8636467Y-19337521D01*
X8557069Y-19456350D01*
X8502381Y-19588379D01*
X8502379Y-19588385D01*
X8474462Y-19728735D01*
X8442996Y-19775827D01*
X8416322Y-19786876D01*
X8338383Y-19802380D01*
X8338381Y-19802380D01*
X8206350Y-19857069D01*
X8087521Y-19936467D01*
X8087520Y-19936469D01*
X7986469Y-20037520D01*
X7986467Y-20037521D01*
X7907069Y-20156350D01*
X7852381Y-20288379D01*
X7852379Y-20288385D01*
X7831511Y-20393299D01*
X7800045Y-20440391D01*
X7744496Y-20451440D01*
X7715887Y-20437910D01*
X7715502Y-20438488D01*
X7700621Y-20428545D01*
X7593653Y-20357071D01*
X7593650Y-20357069D01*
X7593649Y-20357069D01*
X7461618Y-20302380D01*
X7461611Y-20302378D01*
X7460121Y-20302082D01*
X7459694Y-20301796D01*
X7458136Y-20301324D01*
X7458279Y-20300851D01*
X7413031Y-20270614D01*
X7401985Y-20215064D01*
X7413031Y-20188397D01*
X7442929Y-20143653D01*
X7497619Y-20011620D01*
X7525500Y-19871455D01*
X7525500Y-19728545D01*
X7497619Y-19588380D01*
X7442929Y-19456347D01*
X7363532Y-19337521D01*
X7262479Y-19236468D01*
X7143653Y-19157071D01*
X7143650Y-19157069D01*
X7143649Y-19157069D01*
X7011620Y-19102381D01*
X7011614Y-19102379D01*
X6917752Y-19083709D01*
X6871455Y-19074500D01*
X6728545Y-19074500D01*
X6688810Y-19082403D01*
X6588385Y-19102379D01*
X6588379Y-19102381D01*
X6456350Y-19157069D01*
X6337521Y-19236467D01*
X6337520Y-19236469D01*
X6252326Y-19321663D01*
X6200000Y-19343337D01*
X6147674Y-19321663D01*
X6062478Y-19236467D01*
X6023226Y-19210240D01*
X5943653Y-19157071D01*
X5943650Y-19157069D01*
X5943649Y-19157069D01*
X5811620Y-19102381D01*
X5811614Y-19102379D01*
X5717752Y-19083709D01*
X5671455Y-19074500D01*
X5528545Y-19074500D01*
X5488810Y-19082403D01*
X5388385Y-19102379D01*
X5388379Y-19102381D01*
X5256350Y-19157069D01*
X5137521Y-19236467D01*
X5137520Y-19236469D01*
X5036469Y-19337520D01*
X5036467Y-19337521D01*
X4957069Y-19456350D01*
X4902381Y-19588379D01*
X4902379Y-19588385D01*
X4874500Y-19728546D01*
X4874500Y-19871453D01*
X4902379Y-20011614D01*
X4902381Y-20011620D01*
X4957071Y-20143653D01*
X5036468Y-20262479D01*
X5137521Y-20363532D01*
X5256347Y-20442929D01*
X5388380Y-20497619D01*
X5528545Y-20525500D01*
X5528547Y-20525500D01*
X5671453Y-20525500D01*
X5671455Y-20525500D01*
X5811620Y-20497619D01*
X5943653Y-20442929D01*
X6062479Y-20363532D01*
X6147674Y-20278337D01*
X6200000Y-20256663D01*
X6252326Y-20278337D01*
X6337521Y-20363532D01*
X6456347Y-20442929D01*
X6588380Y-20497619D01*
X6589870Y-20497915D01*
X6590296Y-20498200D01*
X6591862Y-20498675D01*
X6591717Y-20499149D01*
X6636963Y-20529378D01*
X6648016Y-20584927D01*
X6636966Y-20611605D01*
X6607071Y-20656346D01*
X6607070Y-20656348D01*
X6552381Y-20788379D01*
X6552379Y-20788385D01*
X6524500Y-20928546D01*
X6524500Y-21071453D01*
X6552379Y-21211614D01*
X6552381Y-21211620D01*
X6607071Y-21343653D01*
X6686468Y-21462479D01*
X6787521Y-21563532D01*
X6906347Y-21642929D01*
X7038380Y-21697619D01*
X7178545Y-21725500D01*
X7178547Y-21725500D01*
X7321453Y-21725500D01*
X7321455Y-21725500D01*
X7461620Y-21697619D01*
X7593653Y-21642929D01*
X7712479Y-21563532D01*
X7813532Y-21462479D01*
X7892929Y-21343653D01*
X7947619Y-21211620D01*
X7968489Y-21106698D01*
X7999953Y-21059609D01*
X8055502Y-21048559D01*
X8084111Y-21062090D01*
X8084498Y-21061512D01*
X8087520Y-21063531D01*
X8087521Y-21063532D01*
X8206347Y-21142929D01*
X8206352Y-21142931D01*
X8206351Y-21142931D01*
X8268468Y-21168660D01*
X8325881Y-21192441D01*
X8352198Y-21210899D01*
X10280093Y-23321455D01*
X10338286Y-23385161D01*
X10356227Y-23420631D01*
X10364380Y-23461616D01*
X10364380Y-23461618D01*
X10406882Y-23564228D01*
X10419071Y-23593653D01*
X10498468Y-23712479D01*
X10599521Y-23813532D01*
X10718347Y-23892929D01*
X10850380Y-23947619D01*
X10990545Y-23975500D01*
X10990547Y-23975500D01*
X11133453Y-23975500D01*
X11133455Y-23975500D01*
X11273620Y-23947619D01*
X11405653Y-23892929D01*
X11524479Y-23813532D01*
X11625532Y-23712479D01*
X11704929Y-23593653D01*
X11708538Y-23584939D01*
X11735749Y-23551759D01*
X11870443Y-23461620D01*
X14221880Y-21888001D01*
X14263036Y-21875500D01*
X14271453Y-21875500D01*
X14271455Y-21875500D01*
X14411620Y-21847619D01*
X14543653Y-21792929D01*
X14584389Y-21765709D01*
X14639937Y-21754661D01*
X14687029Y-21786127D01*
X14699500Y-21827239D01*
X14699500Y-27419454D01*
X14677826Y-27471780D01*
X14625500Y-27493454D01*
X14597182Y-27487821D01*
X14511624Y-27452382D01*
X14511614Y-27452379D01*
X14417752Y-27433709D01*
X14371455Y-27424500D01*
X14228545Y-27424500D01*
X14188810Y-27432403D01*
X14088385Y-27452379D01*
X14088379Y-27452381D01*
X13956350Y-27507069D01*
X13837521Y-27586467D01*
X13837520Y-27586469D01*
X13736469Y-27687520D01*
X13736467Y-27687521D01*
X13657069Y-27806350D01*
X13602381Y-27938379D01*
X13602379Y-27938385D01*
X13574500Y-28078546D01*
X13574500Y-28221453D01*
X13602379Y-28361614D01*
X13602382Y-28361624D01*
X13647969Y-28471682D01*
X13647969Y-28528318D01*
X13602382Y-28638375D01*
X13602379Y-28638385D01*
X13587812Y-28711620D01*
X13574500Y-28778545D01*
X13574500Y-28921455D01*
X13577487Y-28936469D01*
X13602379Y-29061614D01*
X13602381Y-29061620D01*
X13648996Y-29174160D01*
X13657071Y-29193653D01*
X13707623Y-29269309D01*
X13720365Y-29288380D01*
X13736468Y-29312479D01*
X13837521Y-29413532D01*
X13956347Y-29492929D01*
X14088380Y-29547619D01*
X14228545Y-29575500D01*
X14228547Y-29575500D01*
X14371453Y-29575500D01*
X14371455Y-29575500D01*
X14511620Y-29547619D01*
X14597182Y-29512178D01*
X14653818Y-29512178D01*
X14693867Y-29552226D01*
X14699500Y-29580545D01*
X14699500Y-29844877D01*
X14677826Y-29897203D01*
X13897203Y-30677826D01*
X13844877Y-30699500D01*
X1155123Y-30699500D01*
X1102797Y-30677826D01*
X322174Y-29897203D01*
X300500Y-29844877D01*
X300500Y-29428546D01*
X1554500Y-29428546D01*
X1554500Y-29571453D01*
X1582379Y-29711614D01*
X1582381Y-29711620D01*
X1637071Y-29843653D01*
X1716468Y-29962479D01*
X1817521Y-30063532D01*
X1936347Y-30142929D01*
X2068380Y-30197619D01*
X2208545Y-30225500D01*
X2208547Y-30225500D01*
X2351453Y-30225500D01*
X2351455Y-30225500D01*
X2491620Y-30197619D01*
X2623653Y-30142929D01*
X2742479Y-30063532D01*
X2843532Y-29962479D01*
X2922929Y-29843653D01*
X2977619Y-29711620D01*
X3005500Y-29571455D01*
X3005500Y-29428546D01*
X3654500Y-29428546D01*
X3654500Y-29571453D01*
X3682379Y-29711614D01*
X3682381Y-29711620D01*
X3737071Y-29843653D01*
X3816468Y-29962479D01*
X3917521Y-30063532D01*
X4036347Y-30142929D01*
X4168380Y-30197619D01*
X4308545Y-30225500D01*
X4308547Y-30225500D01*
X4451453Y-30225500D01*
X4451455Y-30225500D01*
X4591620Y-30197619D01*
X4723653Y-30142929D01*
X4842479Y-30063532D01*
X4943532Y-29962479D01*
X5022929Y-29843653D01*
X5077619Y-29711620D01*
X5105500Y-29571455D01*
X5105500Y-29428545D01*
X5077619Y-29288380D01*
X5022929Y-29156347D01*
X5019148Y-29150688D01*
X7049500Y-29150688D01*
X7049500Y-29269311D01*
X7080199Y-29383882D01*
X7080201Y-29383887D01*
X7139508Y-29486609D01*
X7139509Y-29486610D01*
X7139511Y-29486613D01*
X7223387Y-29570489D01*
X7223389Y-29570490D01*
X7223390Y-29570491D01*
X7225060Y-29571455D01*
X7326114Y-29629799D01*
X7326115Y-29629799D01*
X7326117Y-29629800D01*
X7383402Y-29645149D01*
X7440688Y-29660499D01*
X7440689Y-29660500D01*
X7440691Y-29660500D01*
X7559311Y-29660500D01*
X7559311Y-29660499D01*
X7673886Y-29629799D01*
X7776613Y-29570489D01*
X7860489Y-29486613D01*
X7919799Y-29383886D01*
X7950499Y-29269311D01*
X7950500Y-29269311D01*
X7950500Y-29150689D01*
X7950499Y-29150688D01*
X7919800Y-29036117D01*
X7919798Y-29036112D01*
X7860491Y-28933390D01*
X7860490Y-28933389D01*
X7860489Y-28933387D01*
X7776613Y-28849511D01*
X7776610Y-28849509D01*
X7776609Y-28849508D01*
X7673887Y-28790201D01*
X7673882Y-28790199D01*
X7559311Y-28759500D01*
X7559309Y-28759500D01*
X7440691Y-28759500D01*
X7440689Y-28759500D01*
X7326117Y-28790199D01*
X7326112Y-28790201D01*
X7223390Y-28849508D01*
X7139508Y-28933390D01*
X7080201Y-29036112D01*
X7080199Y-29036117D01*
X7049500Y-29150688D01*
X5019148Y-29150688D01*
X4943532Y-29037521D01*
X4842479Y-28936468D01*
X4837872Y-28933390D01*
X4803226Y-28910240D01*
X4723653Y-28857071D01*
X4723650Y-28857069D01*
X4723649Y-28857069D01*
X4591620Y-28802381D01*
X4591614Y-28802379D01*
X4497752Y-28783709D01*
X4451455Y-28774500D01*
X4308545Y-28774500D01*
X4268810Y-28782403D01*
X4168385Y-28802379D01*
X4168379Y-28802381D01*
X4036350Y-28857069D01*
X3917521Y-28936467D01*
X3917520Y-28936469D01*
X3816469Y-29037520D01*
X3816467Y-29037521D01*
X3737069Y-29156350D01*
X3682381Y-29288379D01*
X3682379Y-29288385D01*
X3654500Y-29428546D01*
X3005500Y-29428546D01*
X3005500Y-29428545D01*
X2977619Y-29288380D01*
X2922929Y-29156347D01*
X2843532Y-29037521D01*
X2742479Y-28936468D01*
X2737872Y-28933390D01*
X2703226Y-28910240D01*
X2623653Y-28857071D01*
X2623650Y-28857069D01*
X2623649Y-28857069D01*
X2491620Y-28802381D01*
X2491614Y-28802379D01*
X2397752Y-28783709D01*
X2351455Y-28774500D01*
X2208545Y-28774500D01*
X2168810Y-28782403D01*
X2068385Y-28802379D01*
X2068379Y-28802381D01*
X1936350Y-28857069D01*
X1817521Y-28936467D01*
X1817520Y-28936469D01*
X1716469Y-29037520D01*
X1716467Y-29037521D01*
X1637069Y-29156350D01*
X1582381Y-29288379D01*
X1582379Y-29288385D01*
X1554500Y-29428546D01*
X300500Y-29428546D01*
X300500Y-27888546D01*
X4274500Y-27888546D01*
X4274500Y-28031453D01*
X4302379Y-28171614D01*
X4302381Y-28171620D01*
X4356242Y-28301653D01*
X4357071Y-28303653D01*
X4395799Y-28361614D01*
X4435131Y-28420479D01*
X4436468Y-28422479D01*
X4537521Y-28523532D01*
X4656347Y-28602929D01*
X4788380Y-28657619D01*
X4928545Y-28685500D01*
X4928547Y-28685500D01*
X5071453Y-28685500D01*
X5071455Y-28685500D01*
X5211620Y-28657619D01*
X5343653Y-28602929D01*
X5462479Y-28523532D01*
X5563532Y-28422479D01*
X5642929Y-28303653D01*
X5697619Y-28171620D01*
X5725500Y-28031455D01*
X5725500Y-27888545D01*
X5725102Y-27886545D01*
X7324500Y-27886545D01*
X7324500Y-28029455D01*
X7333709Y-28075752D01*
X7352379Y-28169614D01*
X7352381Y-28169620D01*
X7401572Y-28288379D01*
X7407071Y-28301653D01*
X7486468Y-28420479D01*
X7587521Y-28521532D01*
X7706347Y-28600929D01*
X7838380Y-28655619D01*
X7978545Y-28683500D01*
X7978547Y-28683500D01*
X8121453Y-28683500D01*
X8121455Y-28683500D01*
X8261620Y-28655619D01*
X8390459Y-28602252D01*
X8447093Y-28602252D01*
X8487142Y-28642300D01*
X8491353Y-28656182D01*
X8502379Y-28711614D01*
X8502381Y-28711620D01*
X8539975Y-28802381D01*
X8557071Y-28843653D01*
X8636468Y-28962479D01*
X8737521Y-29063532D01*
X8856347Y-29142929D01*
X8988380Y-29197619D01*
X9128545Y-29225500D01*
X9128547Y-29225500D01*
X9271453Y-29225500D01*
X9271455Y-29225500D01*
X9411620Y-29197619D01*
X9543653Y-29142929D01*
X9553888Y-29136089D01*
X9609437Y-29125041D01*
X9636111Y-29136089D01*
X9646347Y-29142929D01*
X9778380Y-29197619D01*
X9918545Y-29225500D01*
X9918547Y-29225500D01*
X10061453Y-29225500D01*
X10061455Y-29225500D01*
X10201620Y-29197619D01*
X10333653Y-29142929D01*
X10452479Y-29063532D01*
X10553532Y-28962479D01*
X10632929Y-28843653D01*
X10687619Y-28711620D01*
X10715500Y-28571455D01*
X10715500Y-28428545D01*
X10687619Y-28288380D01*
X10632929Y-28156347D01*
X10553532Y-28037521D01*
X10452479Y-27936468D01*
X10333653Y-27857071D01*
X10333649Y-27857069D01*
X10333647Y-27857068D01*
X10333648Y-27857068D01*
X10257764Y-27825636D01*
X10240212Y-27818366D01*
X10200164Y-27778319D01*
X10200164Y-27721682D01*
X10240210Y-27681634D01*
X10333653Y-27642929D01*
X10452479Y-27563532D01*
X10553532Y-27462479D01*
X10632929Y-27343653D01*
X10687619Y-27211620D01*
X10715500Y-27071455D01*
X10715500Y-26928545D01*
X10687619Y-26788380D01*
X10632929Y-26656347D01*
X10553532Y-26537521D01*
X10452479Y-26436468D01*
X10333653Y-26357071D01*
X10333650Y-26357069D01*
X10333649Y-26357069D01*
X10201620Y-26302381D01*
X10201614Y-26302379D01*
X10107752Y-26283709D01*
X10061455Y-26274500D01*
X9918545Y-26274500D01*
X9878810Y-26282403D01*
X9778385Y-26302379D01*
X9778379Y-26302381D01*
X9646350Y-26357069D01*
X9527521Y-26436467D01*
X9527520Y-26436469D01*
X9426469Y-26537520D01*
X9426467Y-26537521D01*
X9347069Y-26656350D01*
X9292381Y-26788379D01*
X9292379Y-26788385D01*
X9277641Y-26862480D01*
X9264500Y-26928545D01*
X9264500Y-27071455D01*
X9269705Y-27097620D01*
X9292379Y-27211614D01*
X9292381Y-27211620D01*
X9336059Y-27317069D01*
X9347071Y-27343653D01*
X9381025Y-27394469D01*
X9419720Y-27452381D01*
X9426468Y-27462479D01*
X9527521Y-27563532D01*
X9646347Y-27642929D01*
X9739787Y-27681633D01*
X9779835Y-27721681D01*
X9779835Y-27778319D01*
X9739787Y-27818366D01*
X9695903Y-27836544D01*
X9646344Y-27857072D01*
X9636110Y-27863910D01*
X9580561Y-27874958D01*
X9553890Y-27863910D01*
X9543655Y-27857072D01*
X9543645Y-27857068D01*
X9411620Y-27802381D01*
X9411614Y-27802379D01*
X9317752Y-27783709D01*
X9271455Y-27774500D01*
X9128545Y-27774500D01*
X9088810Y-27782403D01*
X8988385Y-27802379D01*
X8988375Y-27802382D01*
X8859542Y-27855747D01*
X8802905Y-27855747D01*
X8762857Y-27815698D01*
X8758646Y-27801816D01*
X8753972Y-27778319D01*
X8747619Y-27746380D01*
X8692929Y-27614347D01*
X8613532Y-27495521D01*
X8512479Y-27394468D01*
X8393653Y-27315071D01*
X8393650Y-27315069D01*
X8393649Y-27315069D01*
X8261620Y-27260381D01*
X8261614Y-27260379D01*
X8167752Y-27241709D01*
X8121455Y-27232500D01*
X7978545Y-27232500D01*
X7938810Y-27240403D01*
X7838385Y-27260379D01*
X7838379Y-27260381D01*
X7706350Y-27315069D01*
X7587521Y-27394467D01*
X7587520Y-27394469D01*
X7486469Y-27495520D01*
X7486467Y-27495521D01*
X7407069Y-27614350D01*
X7352381Y-27746379D01*
X7352379Y-27746385D01*
X7330626Y-27855747D01*
X7324500Y-27886545D01*
X5725102Y-27886545D01*
X5697619Y-27748380D01*
X5642929Y-27616347D01*
X5563532Y-27497521D01*
X5462479Y-27396468D01*
X5459487Y-27394469D01*
X5413185Y-27363531D01*
X5343653Y-27317071D01*
X5343650Y-27317069D01*
X5343649Y-27317069D01*
X5211620Y-27262381D01*
X5211614Y-27262379D01*
X5117752Y-27243709D01*
X5071455Y-27234500D01*
X4928545Y-27234500D01*
X4888810Y-27242403D01*
X4788385Y-27262379D01*
X4788379Y-27262381D01*
X4656350Y-27317069D01*
X4537521Y-27396467D01*
X4537520Y-27396469D01*
X4436469Y-27497520D01*
X4436467Y-27497521D01*
X4357069Y-27616350D01*
X4302381Y-27748379D01*
X4302379Y-27748385D01*
X4274500Y-27888546D01*
X300500Y-27888546D01*
X300500Y-26728546D01*
X1274500Y-26728546D01*
X1274500Y-26871453D01*
X1302379Y-27011614D01*
X1302381Y-27011620D01*
X1349551Y-27125500D01*
X1357071Y-27143653D01*
X1402481Y-27211614D01*
X1436402Y-27262381D01*
X1436468Y-27262479D01*
X1537521Y-27363532D01*
X1656347Y-27442929D01*
X1788380Y-27497619D01*
X1928545Y-27525500D01*
X1928547Y-27525500D01*
X2071453Y-27525500D01*
X2071455Y-27525500D01*
X2211620Y-27497619D01*
X2343653Y-27442929D01*
X2462479Y-27363532D01*
X2563532Y-27262479D01*
X2642929Y-27143653D01*
X2697619Y-27011620D01*
X2725500Y-26871455D01*
X2725500Y-26779872D01*
X2736109Y-26741694D01*
X3624870Y-25265969D01*
X3670431Y-25232328D01*
X3726438Y-25240757D01*
X3740586Y-25251822D01*
X3769284Y-25280520D01*
X3906216Y-25359577D01*
X4058940Y-25400499D01*
X4058941Y-25400500D01*
X4058943Y-25400500D01*
X4217057Y-25400500D01*
X6445130Y-25400500D01*
X6457089Y-25401472D01*
X7339832Y-25546049D01*
X7387966Y-25575894D01*
X7400898Y-25631035D01*
X7371052Y-25679170D01*
X7342309Y-25691653D01*
X7288383Y-25702380D01*
X7288379Y-25702381D01*
X7156346Y-25757071D01*
X7091112Y-25800659D01*
X7035563Y-25811708D01*
X7008888Y-25800659D01*
X6943653Y-25757071D01*
X6811620Y-25702381D01*
X6811614Y-25702379D01*
X6717752Y-25683709D01*
X6671455Y-25674500D01*
X6528545Y-25674500D01*
X6488810Y-25682403D01*
X6388385Y-25702379D01*
X6388379Y-25702381D01*
X6256350Y-25757069D01*
X6137521Y-25836467D01*
X6137520Y-25836469D01*
X6036469Y-25937520D01*
X6036467Y-25937521D01*
X5957069Y-26056350D01*
X5902381Y-26188379D01*
X5902379Y-26188385D01*
X5874500Y-26328546D01*
X5874500Y-26471453D01*
X5902379Y-26611614D01*
X5902381Y-26611620D01*
X5956259Y-26741694D01*
X5957071Y-26743653D01*
X6036468Y-26862479D01*
X6137521Y-26963532D01*
X6256347Y-27042929D01*
X6388380Y-27097619D01*
X6528545Y-27125500D01*
X6528547Y-27125500D01*
X6671453Y-27125500D01*
X6671455Y-27125500D01*
X6811620Y-27097619D01*
X6943653Y-27042929D01*
X7008888Y-26999339D01*
X7064437Y-26988291D01*
X7091111Y-26999339D01*
X7156347Y-27042929D01*
X7288380Y-27097619D01*
X7428545Y-27125500D01*
X7428547Y-27125500D01*
X7571453Y-27125500D01*
X7571455Y-27125500D01*
X7711620Y-27097619D01*
X7843653Y-27042929D01*
X7962479Y-26963532D01*
X8063532Y-26862479D01*
X8142929Y-26743653D01*
X8197619Y-26611620D01*
X8225500Y-26471455D01*
X8225500Y-26328545D01*
X8197619Y-26188380D01*
X8142929Y-26056347D01*
X8063532Y-25937521D01*
X7962479Y-25836468D01*
X7872878Y-25776598D01*
X7841413Y-25729508D01*
X7852462Y-25673959D01*
X7899554Y-25642493D01*
X7925951Y-25642044D01*
X8114200Y-25672875D01*
X8154565Y-25693576D01*
X8174521Y-25713532D01*
X8293347Y-25792929D01*
X8425380Y-25847619D01*
X8565545Y-25875500D01*
X8565547Y-25875500D01*
X8708453Y-25875500D01*
X8708455Y-25875500D01*
X8848620Y-25847619D01*
X8980653Y-25792929D01*
X9099479Y-25713532D01*
X9200532Y-25612479D01*
X9279929Y-25493653D01*
X9306897Y-25428546D01*
X12774500Y-25428546D01*
X12774500Y-25571453D01*
X12802379Y-25711614D01*
X12802381Y-25711620D01*
X12850640Y-25828129D01*
X12857071Y-25843653D01*
X12910240Y-25923226D01*
X12919791Y-25937521D01*
X12936468Y-25962479D01*
X13037521Y-26063532D01*
X13156347Y-26142929D01*
X13288380Y-26197619D01*
X13428545Y-26225500D01*
X13428547Y-26225500D01*
X13571453Y-26225500D01*
X13571455Y-26225500D01*
X13711620Y-26197619D01*
X13843653Y-26142929D01*
X13962479Y-26063532D01*
X14063532Y-25962479D01*
X14142929Y-25843653D01*
X14197619Y-25711620D01*
X14225500Y-25571455D01*
X14225500Y-25428545D01*
X14197619Y-25288380D01*
X14142929Y-25156347D01*
X14063532Y-25037521D01*
X13962479Y-24936468D01*
X13946064Y-24925500D01*
X13904336Y-24897618D01*
X13843653Y-24857071D01*
X13843650Y-24857069D01*
X13843649Y-24857069D01*
X13711620Y-24802381D01*
X13711614Y-24802379D01*
X13617752Y-24783709D01*
X13571455Y-24774500D01*
X13428545Y-24774500D01*
X13388810Y-24782403D01*
X13288385Y-24802379D01*
X13288379Y-24802381D01*
X13156350Y-24857069D01*
X13037521Y-24936467D01*
X13037520Y-24936469D01*
X12936469Y-25037520D01*
X12936467Y-25037521D01*
X12857069Y-25156350D01*
X12802381Y-25288379D01*
X12802379Y-25288385D01*
X12774500Y-25428546D01*
X9306897Y-25428546D01*
X9334619Y-25361620D01*
X9362500Y-25221455D01*
X9362500Y-25078545D01*
X9334619Y-24938380D01*
X9279929Y-24806347D01*
X9200532Y-24687521D01*
X9099479Y-24586468D01*
X8980653Y-24507071D01*
X8980650Y-24507069D01*
X8980649Y-24507069D01*
X8848620Y-24452381D01*
X8848614Y-24452379D01*
X8754752Y-24433709D01*
X8708455Y-24424500D01*
X8565545Y-24424500D01*
X8525810Y-24432403D01*
X8425385Y-24452379D01*
X8425380Y-24452381D01*
X8350633Y-24483341D01*
X8310356Y-24488000D01*
X6630191Y-24212821D01*
X6623001Y-24211273D01*
X6579058Y-24199500D01*
X6579057Y-24199500D01*
X6554867Y-24199500D01*
X6542908Y-24198527D01*
X6536417Y-24197464D01*
X6519037Y-24194617D01*
X6473784Y-24199134D01*
X6466436Y-24199500D01*
X5599500Y-24199500D01*
X5547174Y-24177826D01*
X5528166Y-24131938D01*
X5525857Y-24132166D01*
X5525500Y-24128550D01*
X5525500Y-24128545D01*
X5512401Y-24062694D01*
X5523450Y-24007147D01*
X5570542Y-23975681D01*
X5571452Y-23975500D01*
X5571455Y-23975500D01*
X5711620Y-23947619D01*
X5843653Y-23892929D01*
X5962479Y-23813532D01*
X6063532Y-23712479D01*
X6142929Y-23593653D01*
X6197619Y-23461620D01*
X6225500Y-23321455D01*
X6225500Y-23178545D01*
X6197619Y-23038380D01*
X6142929Y-22906347D01*
X6063532Y-22787521D01*
X5962479Y-22686468D01*
X5843653Y-22607071D01*
X5843650Y-22607069D01*
X5843649Y-22607069D01*
X5711620Y-22552381D01*
X5711614Y-22552379D01*
X5617752Y-22533709D01*
X5571455Y-22524500D01*
X5428545Y-22524500D01*
X5388810Y-22532403D01*
X5288385Y-22552379D01*
X5288379Y-22552381D01*
X5156350Y-22607069D01*
X5037521Y-22686467D01*
X5037520Y-22686469D01*
X4936469Y-22787520D01*
X4936467Y-22787521D01*
X4880529Y-22871239D01*
X4833436Y-22902705D01*
X4777888Y-22891656D01*
X4757471Y-22871239D01*
X4701532Y-22787521D01*
X4600478Y-22686467D01*
X4561226Y-22660240D01*
X4481653Y-22607071D01*
X4481650Y-22607069D01*
X4481649Y-22607069D01*
X4349620Y-22552381D01*
X4349614Y-22552379D01*
X4255752Y-22533709D01*
X4209455Y-22524500D01*
X4066545Y-22524500D01*
X4026810Y-22532403D01*
X3926385Y-22552379D01*
X3926379Y-22552381D01*
X3794350Y-22607069D01*
X3675521Y-22686467D01*
X3675520Y-22686469D01*
X3574469Y-22787520D01*
X3574467Y-22787521D01*
X3495069Y-22906350D01*
X3440381Y-23038379D01*
X3440379Y-23038385D01*
X3412500Y-23178546D01*
X3412500Y-23270126D01*
X3401891Y-23308304D01*
X1708704Y-26119722D01*
X1673634Y-26149910D01*
X1656346Y-26157071D01*
X1537521Y-26236467D01*
X1537520Y-26236469D01*
X1436469Y-26337520D01*
X1436467Y-26337521D01*
X1357069Y-26456350D01*
X1302381Y-26588379D01*
X1302379Y-26588385D01*
X1274500Y-26728546D01*
X300500Y-26728546D01*
X300500Y-24128546D01*
X474500Y-24128546D01*
X474500Y-24271453D01*
X502379Y-24411614D01*
X502381Y-24411620D01*
X557071Y-24543653D01*
X636468Y-24662479D01*
X737521Y-24763532D01*
X856347Y-24842929D01*
X988380Y-24897619D01*
X1128545Y-24925500D01*
X1128547Y-24925500D01*
X1271453Y-24925500D01*
X1271455Y-24925500D01*
X1411620Y-24897619D01*
X1543653Y-24842929D01*
X1662479Y-24763532D01*
X1763532Y-24662479D01*
X1842929Y-24543653D01*
X1897619Y-24411620D01*
X1925500Y-24271455D01*
X1925500Y-24128545D01*
X1897619Y-23988380D01*
X1842929Y-23856347D01*
X1763532Y-23737521D01*
X1662479Y-23636468D01*
X1543653Y-23557071D01*
X1543650Y-23557069D01*
X1543649Y-23557069D01*
X1411620Y-23502381D01*
X1411614Y-23502379D01*
X1317752Y-23483709D01*
X1271455Y-23474500D01*
X1128545Y-23474500D01*
X1088810Y-23482403D01*
X988385Y-23502379D01*
X988379Y-23502381D01*
X856350Y-23557069D01*
X737521Y-23636467D01*
X737520Y-23636469D01*
X636469Y-23737520D01*
X636467Y-23737521D01*
X557069Y-23856350D01*
X502381Y-23988379D01*
X502379Y-23988385D01*
X474500Y-24128546D01*
X300500Y-24128546D01*
X300500Y-20128545D01*
X1774500Y-20128545D01*
X1774500Y-20271455D01*
X1780652Y-20302381D01*
X1802379Y-20411614D01*
X1802381Y-20411620D01*
X1853192Y-20534290D01*
X1857071Y-20543653D01*
X1885679Y-20586468D01*
X1932370Y-20656347D01*
X1936468Y-20662479D01*
X2037521Y-20763532D01*
X2156347Y-20842929D01*
X2288380Y-20897619D01*
X2428545Y-20925500D01*
X2428547Y-20925500D01*
X2571453Y-20925500D01*
X2571455Y-20925500D01*
X2711620Y-20897619D01*
X2843653Y-20842929D01*
X2962479Y-20763532D01*
X3063532Y-20662479D01*
X3142929Y-20543653D01*
X3197619Y-20411620D01*
X3225500Y-20271455D01*
X3225500Y-20128545D01*
X3197619Y-19988380D01*
X3142929Y-19856347D01*
X3063532Y-19737521D01*
X2962479Y-19636468D01*
X2843653Y-19557071D01*
X2843650Y-19557069D01*
X2843649Y-19557069D01*
X2711620Y-19502381D01*
X2711614Y-19502379D01*
X2617752Y-19483709D01*
X2571455Y-19474500D01*
X2428545Y-19474500D01*
X2388810Y-19482403D01*
X2288385Y-19502379D01*
X2288379Y-19502381D01*
X2156350Y-19557069D01*
X2037521Y-19636467D01*
X2037520Y-19636469D01*
X1936469Y-19737520D01*
X1936467Y-19737521D01*
X1857069Y-19856350D01*
X1802381Y-19988379D01*
X1802379Y-19988385D01*
X1792606Y-20037520D01*
X1774500Y-20128545D01*
X300500Y-20128545D01*
X300500Y-17728546D01*
X594500Y-17728546D01*
X594500Y-17871453D01*
X622379Y-18011614D01*
X622381Y-18011620D01*
X677071Y-18143653D01*
X756468Y-18262479D01*
X857521Y-18363532D01*
X976347Y-18442929D01*
X1108380Y-18497619D01*
X1248545Y-18525500D01*
X1248547Y-18525500D01*
X1391453Y-18525500D01*
X1391455Y-18525500D01*
X1531620Y-18497619D01*
X1663653Y-18442929D01*
X1782479Y-18363532D01*
X1883532Y-18262479D01*
X1962929Y-18143653D01*
X2017619Y-18011620D01*
X2045500Y-17871455D01*
X2045500Y-17728545D01*
X2017619Y-17588380D01*
X1962929Y-17456347D01*
X1883532Y-17337521D01*
X1782479Y-17236468D01*
X1663653Y-17157071D01*
X1663650Y-17157069D01*
X1663649Y-17157069D01*
X1531620Y-17102381D01*
X1531614Y-17102379D01*
X1437752Y-17083709D01*
X1391455Y-17074500D01*
X1248545Y-17074500D01*
X1208810Y-17082403D01*
X1108385Y-17102379D01*
X1108379Y-17102381D01*
X976350Y-17157069D01*
X857521Y-17236467D01*
X857520Y-17236469D01*
X756469Y-17337520D01*
X756467Y-17337521D01*
X677069Y-17456350D01*
X622381Y-17588379D01*
X622379Y-17588385D01*
X594500Y-17728546D01*
X300500Y-17728546D01*
X300500Y-16928546D01*
X10124500Y-16928546D01*
X10124500Y-17071453D01*
X10152379Y-17211614D01*
X10152381Y-17211620D01*
X10204530Y-17337520D01*
X10207071Y-17343653D01*
X10220354Y-17363532D01*
X10282372Y-17456350D01*
X10286468Y-17462479D01*
X10387521Y-17563532D01*
X10506347Y-17642929D01*
X10638380Y-17697619D01*
X10778545Y-17725500D01*
X10778547Y-17725500D01*
X10921453Y-17725500D01*
X10921455Y-17725500D01*
X11061620Y-17697619D01*
X11193653Y-17642929D01*
X11312479Y-17563532D01*
X11413532Y-17462479D01*
X11492929Y-17343653D01*
X11547619Y-17211620D01*
X11575500Y-17071455D01*
X11575500Y-16928545D01*
X11547619Y-16788380D01*
X11522834Y-16728546D01*
X11954500Y-16728546D01*
X11954500Y-16871453D01*
X11982379Y-17011614D01*
X11982381Y-17011620D01*
X12019975Y-17102381D01*
X12037071Y-17143653D01*
X12116468Y-17262479D01*
X12217521Y-17363532D01*
X12336347Y-17442929D01*
X12468380Y-17497619D01*
X12608545Y-17525500D01*
X12608547Y-17525500D01*
X12751453Y-17525500D01*
X12751455Y-17525500D01*
X12891620Y-17497619D01*
X13023653Y-17442929D01*
X13142479Y-17363532D01*
X13243532Y-17262479D01*
X13322929Y-17143653D01*
X13377619Y-17011620D01*
X13405500Y-16871455D01*
X13405500Y-16728545D01*
X13377619Y-16588380D01*
X13322929Y-16456347D01*
X13243532Y-16337521D01*
X13142479Y-16236468D01*
X13126064Y-16225500D01*
X13084336Y-16197618D01*
X13023653Y-16157071D01*
X13023650Y-16157069D01*
X13023649Y-16157069D01*
X12891620Y-16102381D01*
X12891614Y-16102379D01*
X12797752Y-16083709D01*
X12751455Y-16074500D01*
X12608545Y-16074500D01*
X12568810Y-16082403D01*
X12468385Y-16102379D01*
X12468379Y-16102381D01*
X12336350Y-16157069D01*
X12217521Y-16236467D01*
X12217520Y-16236469D01*
X12116469Y-16337520D01*
X12116467Y-16337521D01*
X12037069Y-16456350D01*
X11982381Y-16588379D01*
X11982379Y-16588385D01*
X11954500Y-16728546D01*
X11522834Y-16728546D01*
X11522834Y-16728545D01*
X11492930Y-16656350D01*
X11492929Y-16656347D01*
X11413532Y-16537521D01*
X11312479Y-16436468D01*
X11193653Y-16357071D01*
X11193650Y-16357069D01*
X11193649Y-16357069D01*
X11061620Y-16302381D01*
X11061614Y-16302379D01*
X10967752Y-16283709D01*
X10921455Y-16274500D01*
X10778545Y-16274500D01*
X10738810Y-16282403D01*
X10638385Y-16302379D01*
X10638379Y-16302381D01*
X10506350Y-16357069D01*
X10387521Y-16436467D01*
X10387520Y-16436469D01*
X10286469Y-16537520D01*
X10286467Y-16537521D01*
X10207069Y-16656350D01*
X10152381Y-16788379D01*
X10152379Y-16788385D01*
X10124500Y-16928546D01*
X300500Y-16928546D01*
X300500Y-14428546D01*
X594500Y-14428546D01*
X594500Y-14571453D01*
X622379Y-14711614D01*
X622381Y-14711620D01*
X676988Y-14843454D01*
X677071Y-14843653D01*
X686037Y-14857071D01*
X752662Y-14956784D01*
X756468Y-14962479D01*
X857521Y-15063532D01*
X976347Y-15142929D01*
X1108380Y-15197619D01*
X1248545Y-15225500D01*
X1248547Y-15225500D01*
X1391453Y-15225500D01*
X1391455Y-15225500D01*
X1531620Y-15197619D01*
X1534273Y-15196519D01*
X1590908Y-15196518D01*
X1630959Y-15236564D01*
X1630961Y-15293201D01*
X1624122Y-15305998D01*
X1557069Y-15406350D01*
X1502381Y-15538379D01*
X1502379Y-15538385D01*
X1474500Y-15678546D01*
X1474500Y-15821453D01*
X1502379Y-15961614D01*
X1502381Y-15961620D01*
X1549137Y-16074500D01*
X1557071Y-16093653D01*
X1589996Y-16142929D01*
X1626539Y-16197620D01*
X1636468Y-16212479D01*
X1737521Y-16313532D01*
X1856347Y-16392929D01*
X1988380Y-16447619D01*
X2128545Y-16475500D01*
X2128547Y-16475500D01*
X2271453Y-16475500D01*
X2271455Y-16475500D01*
X2411620Y-16447619D01*
X2543653Y-16392929D01*
X2662479Y-16313532D01*
X2763532Y-16212479D01*
X2842929Y-16093653D01*
X2897619Y-15961620D01*
X2925500Y-15821455D01*
X2925500Y-15678545D01*
X2897619Y-15538380D01*
X2842929Y-15406347D01*
X2763532Y-15287521D01*
X2662479Y-15186468D01*
X2543653Y-15107071D01*
X2543650Y-15107069D01*
X2543649Y-15107069D01*
X2411620Y-15052381D01*
X2411614Y-15052379D01*
X2317752Y-15033709D01*
X2271455Y-15024500D01*
X2128545Y-15024500D01*
X2088810Y-15032403D01*
X1988385Y-15052379D01*
X1988368Y-15052384D01*
X1985714Y-15053484D01*
X1929077Y-15053476D01*
X1889035Y-15013421D01*
X1889043Y-14956784D01*
X1895870Y-14944013D01*
X1962929Y-14843653D01*
X2017619Y-14711620D01*
X2045500Y-14571455D01*
X2045500Y-14428545D01*
X2017619Y-14288380D01*
X1962929Y-14156347D01*
X1883532Y-14037521D01*
X1782479Y-13936468D01*
X1770621Y-13928545D01*
X1737400Y-13906347D01*
X1663653Y-13857071D01*
X1663650Y-13857069D01*
X1663649Y-13857069D01*
X1531620Y-13802381D01*
X1531614Y-13802379D01*
X1437752Y-13783709D01*
X1391455Y-13774500D01*
X1248545Y-13774500D01*
X1208810Y-13782403D01*
X1108385Y-13802379D01*
X1108379Y-13802381D01*
X976350Y-13857069D01*
X857521Y-13936467D01*
X857520Y-13936469D01*
X756469Y-14037520D01*
X756467Y-14037521D01*
X677069Y-14156350D01*
X622381Y-14288379D01*
X622379Y-14288385D01*
X594500Y-14428546D01*
X300500Y-14428546D01*
X300500Y-12728545D01*
X594500Y-12728545D01*
X594500Y-12871455D01*
X603709Y-12917752D01*
X622379Y-13011614D01*
X622381Y-13011620D01*
X676771Y-13142930D01*
X677071Y-13143653D01*
X703895Y-13183798D01*
X746241Y-13247174D01*
X756468Y-13262479D01*
X857521Y-13363532D01*
X976347Y-13442929D01*
X1108380Y-13497619D01*
X1248545Y-13525500D01*
X1248547Y-13525500D01*
X1391453Y-13525500D01*
X1391455Y-13525500D01*
X1531620Y-13497619D01*
X1663653Y-13442929D01*
X1782479Y-13363532D01*
X1883532Y-13262479D01*
X1906205Y-13228546D01*
X2374500Y-13228546D01*
X2374500Y-13371453D01*
X2402379Y-13511614D01*
X2402381Y-13511620D01*
X2457068Y-13643647D01*
X2457071Y-13643653D01*
X2500174Y-13708161D01*
X2536467Y-13762478D01*
X2563501Y-13789512D01*
X2585175Y-13841838D01*
X2572705Y-13882948D01*
X2557070Y-13906348D01*
X2502381Y-14038379D01*
X2502379Y-14038385D01*
X2474500Y-14178546D01*
X2474500Y-14321453D01*
X2502379Y-14461614D01*
X2502381Y-14461620D01*
X2557071Y-14593653D01*
X2589996Y-14642929D01*
X2626539Y-14697620D01*
X2636468Y-14712479D01*
X2737521Y-14813532D01*
X2856347Y-14892929D01*
X2988380Y-14947619D01*
X3128545Y-14975500D01*
X3128547Y-14975500D01*
X3271453Y-14975500D01*
X3271455Y-14975500D01*
X3411620Y-14947619D01*
X3543653Y-14892929D01*
X3662479Y-14813532D01*
X3763532Y-14712479D01*
X3842929Y-14593653D01*
X3897619Y-14461620D01*
X3925500Y-14321455D01*
X3925500Y-14178545D01*
X3897619Y-14038380D01*
X3842929Y-13906347D01*
X3763532Y-13787521D01*
X3736498Y-13760487D01*
X3714824Y-13708161D01*
X3727295Y-13667050D01*
X3742929Y-13643653D01*
X3742930Y-13643649D01*
X3742932Y-13643647D01*
X3786890Y-13537521D01*
X3797619Y-13511620D01*
X3825500Y-13371455D01*
X3825500Y-13228545D01*
X3797619Y-13088380D01*
X3742929Y-12956347D01*
X3663532Y-12837521D01*
X3562479Y-12736468D01*
X3550621Y-12728545D01*
X3508649Y-12700500D01*
X3443653Y-12657071D01*
X3443650Y-12657069D01*
X3443649Y-12657069D01*
X3311620Y-12602381D01*
X3311614Y-12602379D01*
X3217752Y-12583709D01*
X3171455Y-12574500D01*
X3028545Y-12574500D01*
X2988810Y-12582403D01*
X2888385Y-12602379D01*
X2888379Y-12602381D01*
X2756350Y-12657069D01*
X2637521Y-12736467D01*
X2637520Y-12736469D01*
X2536469Y-12837520D01*
X2536467Y-12837521D01*
X2457069Y-12956350D01*
X2402381Y-13088379D01*
X2402379Y-13088385D01*
X2374500Y-13228546D01*
X1906205Y-13228546D01*
X1962929Y-13143653D01*
X2017619Y-13011620D01*
X2045500Y-12871455D01*
X2045500Y-12728545D01*
X2017619Y-12588380D01*
X1962929Y-12456347D01*
X1883532Y-12337521D01*
X1782479Y-12236468D01*
X1768192Y-12226922D01*
X1707650Y-12186469D01*
X1663653Y-12157071D01*
X1663650Y-12157069D01*
X1663649Y-12157069D01*
X1531620Y-12102381D01*
X1531614Y-12102379D01*
X1437752Y-12083709D01*
X1391455Y-12074500D01*
X1248545Y-12074500D01*
X1208810Y-12082403D01*
X1108385Y-12102379D01*
X1108379Y-12102381D01*
X976350Y-12157069D01*
X857521Y-12236467D01*
X857520Y-12236469D01*
X756469Y-12337520D01*
X756467Y-12337521D01*
X677069Y-12456350D01*
X622381Y-12588379D01*
X622379Y-12588385D01*
X602950Y-12686063D01*
X594500Y-12728545D01*
X300500Y-12728545D01*
X300500Y-11178546D01*
X1474500Y-11178546D01*
X1474500Y-11321453D01*
X1502379Y-11461614D01*
X1502381Y-11461620D01*
X1557071Y-11593653D01*
X1636468Y-11712479D01*
X1737521Y-11813532D01*
X1856347Y-11892929D01*
X1988380Y-11947619D01*
X2128545Y-11975500D01*
X2128547Y-11975500D01*
X2271453Y-11975500D01*
X2271455Y-11975500D01*
X2411620Y-11947619D01*
X2457666Y-11928546D01*
X5774500Y-11928546D01*
X5774500Y-12071453D01*
X5802379Y-12211614D01*
X5802381Y-12211620D01*
X5854530Y-12337520D01*
X5857071Y-12343653D01*
X5898738Y-12406013D01*
X5934068Y-12458888D01*
X5945117Y-12514437D01*
X5934068Y-12541112D01*
X5857069Y-12656350D01*
X5802381Y-12788379D01*
X5802379Y-12788385D01*
X5791387Y-12843649D01*
X5774500Y-12928545D01*
X5774500Y-13071455D01*
X5777867Y-13088380D01*
X5802379Y-13211614D01*
X5802381Y-13211620D01*
X5823447Y-13262479D01*
X5857071Y-13343653D01*
X5875648Y-13371455D01*
X5934068Y-13458888D01*
X5945117Y-13514437D01*
X5934068Y-13541112D01*
X5857069Y-13656350D01*
X5802381Y-13788379D01*
X5802379Y-13788385D01*
X5774500Y-13928546D01*
X5774500Y-14071453D01*
X5802379Y-14211614D01*
X5802381Y-14211620D01*
X5857071Y-14343653D01*
X5936468Y-14462479D01*
X6037521Y-14563532D01*
X6156347Y-14642929D01*
X6288380Y-14697619D01*
X6428545Y-14725500D01*
X6428547Y-14725500D01*
X6571453Y-14725500D01*
X6571455Y-14725500D01*
X6711620Y-14697619D01*
X6843653Y-14642929D01*
X6958888Y-14565930D01*
X7014437Y-14554882D01*
X7041110Y-14565930D01*
X7156347Y-14642929D01*
X7288380Y-14697619D01*
X7428545Y-14725500D01*
X7428547Y-14725500D01*
X7571453Y-14725500D01*
X7571455Y-14725500D01*
X7711620Y-14697619D01*
X7843653Y-14642929D01*
X7958888Y-14565930D01*
X8014437Y-14554882D01*
X8041110Y-14565930D01*
X8156347Y-14642929D01*
X8288380Y-14697619D01*
X8428545Y-14725500D01*
X8428547Y-14725500D01*
X8571453Y-14725500D01*
X8571455Y-14725500D01*
X8711620Y-14697619D01*
X8843653Y-14642929D01*
X8962479Y-14563532D01*
X9063532Y-14462479D01*
X9142929Y-14343653D01*
X9197619Y-14211620D01*
X9225500Y-14071455D01*
X9225500Y-13928545D01*
X9197619Y-13788380D01*
X9142929Y-13656347D01*
X9065930Y-13541111D01*
X9054882Y-13485563D01*
X9065931Y-13458888D01*
X9073461Y-13447619D01*
X9142929Y-13343653D01*
X9197619Y-13211620D01*
X9225500Y-13071455D01*
X9225500Y-12928545D01*
X9197619Y-12788380D01*
X9152124Y-12678545D01*
X11074500Y-12678545D01*
X11074500Y-12821455D01*
X11078876Y-12843454D01*
X11102379Y-12961614D01*
X11102381Y-12961620D01*
X11157071Y-13093653D01*
X11190480Y-13143653D01*
X11226539Y-13197620D01*
X11236468Y-13212479D01*
X11337521Y-13313532D01*
X11456347Y-13392929D01*
X11588380Y-13447619D01*
X11728545Y-13475500D01*
X11728547Y-13475500D01*
X11871453Y-13475500D01*
X11871455Y-13475500D01*
X12011620Y-13447619D01*
X12143653Y-13392929D01*
X12262479Y-13313532D01*
X12363532Y-13212479D01*
X12442929Y-13093653D01*
X12497619Y-12961620D01*
X12525500Y-12821455D01*
X12525500Y-12678545D01*
X12497619Y-12538380D01*
X12442929Y-12406347D01*
X12363532Y-12287521D01*
X12262479Y-12186468D01*
X12143653Y-12107071D01*
X12143650Y-12107069D01*
X12143649Y-12107069D01*
X12011620Y-12052381D01*
X12011614Y-12052379D01*
X11917752Y-12033709D01*
X11871455Y-12024500D01*
X11728545Y-12024500D01*
X11688810Y-12032403D01*
X11588385Y-12052379D01*
X11588379Y-12052381D01*
X11456350Y-12107069D01*
X11337521Y-12186467D01*
X11337520Y-12186469D01*
X11236469Y-12287520D01*
X11236467Y-12287521D01*
X11157069Y-12406350D01*
X11102381Y-12538379D01*
X11102379Y-12538385D01*
X11089650Y-12602381D01*
X11074500Y-12678545D01*
X9152124Y-12678545D01*
X9142929Y-12656347D01*
X9065930Y-12541111D01*
X9054882Y-12485563D01*
X9065931Y-12458888D01*
X9086205Y-12428546D01*
X9142929Y-12343653D01*
X9197619Y-12211620D01*
X9225500Y-12071455D01*
X9225500Y-11928545D01*
X9197619Y-11788380D01*
X9142929Y-11656347D01*
X9063532Y-11537521D01*
X8962479Y-11436468D01*
X8958887Y-11434068D01*
X8923226Y-11410240D01*
X8843653Y-11357071D01*
X8843650Y-11357069D01*
X8843649Y-11357069D01*
X8711620Y-11302381D01*
X8711614Y-11302379D01*
X8617752Y-11283709D01*
X8571455Y-11274500D01*
X8428545Y-11274500D01*
X8388810Y-11282403D01*
X8288385Y-11302379D01*
X8288379Y-11302381D01*
X8156350Y-11357069D01*
X8041112Y-11434068D01*
X7985563Y-11445117D01*
X7958888Y-11434068D01*
X7906013Y-11398738D01*
X7843653Y-11357071D01*
X7843650Y-11357069D01*
X7843649Y-11357069D01*
X7711620Y-11302381D01*
X7711614Y-11302379D01*
X7617752Y-11283709D01*
X7571455Y-11274500D01*
X7428545Y-11274500D01*
X7388810Y-11282403D01*
X7288385Y-11302379D01*
X7288379Y-11302381D01*
X7156350Y-11357069D01*
X7041112Y-11434068D01*
X6985563Y-11445117D01*
X6958888Y-11434068D01*
X6906013Y-11398738D01*
X6843653Y-11357071D01*
X6843650Y-11357069D01*
X6843649Y-11357069D01*
X6711620Y-11302381D01*
X6711614Y-11302379D01*
X6617752Y-11283709D01*
X6571455Y-11274500D01*
X6428545Y-11274500D01*
X6388810Y-11282403D01*
X6288385Y-11302379D01*
X6288379Y-11302381D01*
X6156350Y-11357069D01*
X6037521Y-11436467D01*
X6037520Y-11436469D01*
X5936469Y-11537520D01*
X5936467Y-11537521D01*
X5857069Y-11656350D01*
X5802381Y-11788379D01*
X5802379Y-11788385D01*
X5774500Y-11928546D01*
X2457666Y-11928546D01*
X2543653Y-11892929D01*
X2662479Y-11813532D01*
X2763532Y-11712479D01*
X2842929Y-11593653D01*
X2897619Y-11461620D01*
X2925500Y-11321455D01*
X2925500Y-11178545D01*
X2897619Y-11038380D01*
X2842929Y-10906347D01*
X2763532Y-10787521D01*
X2662479Y-10686468D01*
X2543653Y-10607071D01*
X2543650Y-10607069D01*
X2543649Y-10607069D01*
X2411620Y-10552381D01*
X2411614Y-10552379D01*
X2317752Y-10533709D01*
X2271455Y-10524500D01*
X2128545Y-10524500D01*
X2088810Y-10532403D01*
X1988385Y-10552379D01*
X1988379Y-10552381D01*
X1856350Y-10607069D01*
X1737521Y-10686467D01*
X1737520Y-10686469D01*
X1636469Y-10787520D01*
X1636467Y-10787521D01*
X1557069Y-10906350D01*
X1502381Y-11038379D01*
X1502379Y-11038385D01*
X1474500Y-11178546D01*
X300500Y-11178546D01*
X300500Y-10078546D01*
X10874500Y-10078546D01*
X10874500Y-10221453D01*
X10902379Y-10361614D01*
X10902381Y-10361620D01*
X10957071Y-10493653D01*
X11036468Y-10612479D01*
X11137521Y-10713532D01*
X11256347Y-10792929D01*
X11388380Y-10847619D01*
X11528545Y-10875500D01*
X11528547Y-10875500D01*
X11671453Y-10875500D01*
X11671455Y-10875500D01*
X11811620Y-10847619D01*
X11943653Y-10792929D01*
X12062479Y-10713532D01*
X12163532Y-10612479D01*
X12242929Y-10493653D01*
X12297619Y-10361620D01*
X12325500Y-10221455D01*
X12325500Y-10078545D01*
X12297619Y-9938380D01*
X12242929Y-9806347D01*
X12163532Y-9687521D01*
X12063066Y-9587055D01*
X12041393Y-9534731D01*
X12063067Y-9482405D01*
X12087073Y-9466365D01*
X12143653Y-9442929D01*
X12262479Y-9363532D01*
X12363532Y-9262479D01*
X12442929Y-9143653D01*
X12497619Y-9011620D01*
X12525500Y-8871455D01*
X12525500Y-8728545D01*
X12497619Y-8588380D01*
X12442929Y-8456347D01*
X12363532Y-8337521D01*
X12262479Y-8236468D01*
X12246064Y-8225500D01*
X12204336Y-8197618D01*
X12143653Y-8157071D01*
X12143650Y-8157069D01*
X12143649Y-8157069D01*
X12011620Y-8102381D01*
X12011614Y-8102379D01*
X11917752Y-8083709D01*
X11871455Y-8074500D01*
X11728545Y-8074500D01*
X11688810Y-8082403D01*
X11588385Y-8102379D01*
X11588379Y-8102381D01*
X11456350Y-8157069D01*
X11337521Y-8236467D01*
X11337520Y-8236469D01*
X11236469Y-8337520D01*
X11236467Y-8337521D01*
X11157069Y-8456350D01*
X11102381Y-8588379D01*
X11102379Y-8588385D01*
X11079806Y-8701870D01*
X11074500Y-8728545D01*
X11074500Y-8871455D01*
X11082488Y-8911614D01*
X11102379Y-9011614D01*
X11102381Y-9011620D01*
X11144158Y-9112480D01*
X11157071Y-9143653D01*
X11169651Y-9162480D01*
X11236467Y-9262478D01*
X11336931Y-9362942D01*
X11358605Y-9415268D01*
X11336931Y-9467594D01*
X11312925Y-9483635D01*
X11256348Y-9507070D01*
X11137521Y-9586467D01*
X11137520Y-9586469D01*
X11036469Y-9687520D01*
X11036467Y-9687521D01*
X10957069Y-9806350D01*
X10902381Y-9938379D01*
X10902379Y-9938385D01*
X10874500Y-10078546D01*
X300500Y-10078546D01*
X300500Y-9380545D01*
X322174Y-9328219D01*
X374500Y-9306545D01*
X402817Y-9312177D01*
X488380Y-9347619D01*
X628545Y-9375500D01*
X628547Y-9375500D01*
X771453Y-9375500D01*
X771455Y-9375500D01*
X911620Y-9347619D01*
X1043653Y-9292929D01*
X1162479Y-9213532D01*
X1263532Y-9112479D01*
X1342929Y-8993653D01*
X1397619Y-8861620D01*
X1425500Y-8721455D01*
X1425500Y-8578545D01*
X1974500Y-8578545D01*
X1974500Y-8721455D01*
X1977294Y-8735500D01*
X2002379Y-8861614D01*
X2002381Y-8861620D01*
X2033384Y-8936469D01*
X2057071Y-8993653D01*
X2136468Y-9112479D01*
X2237521Y-9213532D01*
X2356347Y-9292929D01*
X2488380Y-9347619D01*
X2628545Y-9375500D01*
X2628547Y-9375500D01*
X2771453Y-9375500D01*
X2771455Y-9375500D01*
X2911620Y-9347619D01*
X3043653Y-9292929D01*
X3162479Y-9213532D01*
X3263532Y-9112479D01*
X3342929Y-8993653D01*
X3397619Y-8861620D01*
X3425500Y-8721455D01*
X3425500Y-8578545D01*
X3397619Y-8438380D01*
X3342929Y-8306347D01*
X3263532Y-8187521D01*
X3204556Y-8128545D01*
X3774500Y-8128545D01*
X3774500Y-8271452D01*
X3802379Y-8411613D01*
X3802381Y-8411619D01*
X3834178Y-8488385D01*
X3857071Y-8543652D01*
X3910240Y-8623225D01*
X3936029Y-8661822D01*
X3936468Y-8662478D01*
X4037521Y-8763531D01*
X4156347Y-8842928D01*
X4288380Y-8897618D01*
X4428545Y-8925499D01*
X4428547Y-8925499D01*
X4571453Y-8925499D01*
X4571455Y-8925499D01*
X4711620Y-8897618D01*
X4843653Y-8842928D01*
X4962479Y-8763531D01*
X5063532Y-8662478D01*
X5142929Y-8543652D01*
X5197619Y-8411619D01*
X5225500Y-8271454D01*
X5225500Y-8128544D01*
X5197619Y-7988379D01*
X5142929Y-7856346D01*
X5063532Y-7737520D01*
X4962479Y-7636467D01*
X4843653Y-7557070D01*
X4843650Y-7557068D01*
X4843649Y-7557068D01*
X4711620Y-7502380D01*
X4711614Y-7502378D01*
X4617752Y-7483708D01*
X4571455Y-7474499D01*
X4428545Y-7474499D01*
X4388810Y-7482402D01*
X4288385Y-7502378D01*
X4288379Y-7502380D01*
X4156350Y-7557068D01*
X4037521Y-7636466D01*
X4037520Y-7636468D01*
X3936469Y-7737519D01*
X3936467Y-7737520D01*
X3857069Y-7856349D01*
X3802381Y-7988378D01*
X3802379Y-7988384D01*
X3774500Y-8128545D01*
X3204556Y-8128545D01*
X3162479Y-8086468D01*
X3043653Y-8007071D01*
X3043650Y-8007069D01*
X3043649Y-8007069D01*
X2911620Y-7952381D01*
X2911614Y-7952379D01*
X2817752Y-7933709D01*
X2771455Y-7924500D01*
X2628545Y-7924500D01*
X2588810Y-7932403D01*
X2488385Y-7952379D01*
X2488379Y-7952381D01*
X2356350Y-8007069D01*
X2237521Y-8086467D01*
X2237520Y-8086469D01*
X2136469Y-8187520D01*
X2136467Y-8187521D01*
X2057069Y-8306350D01*
X2002381Y-8438379D01*
X2002379Y-8438385D01*
X1981441Y-8543652D01*
X1974500Y-8578545D01*
X1425500Y-8578545D01*
X1397619Y-8438380D01*
X1342929Y-8306347D01*
X1263532Y-8187521D01*
X1162479Y-8086468D01*
X1043653Y-8007071D01*
X1043650Y-8007069D01*
X1043649Y-8007069D01*
X911620Y-7952381D01*
X911614Y-7952379D01*
X817752Y-7933709D01*
X771455Y-7924500D01*
X628545Y-7924500D01*
X588810Y-7932403D01*
X488385Y-7952379D01*
X488375Y-7952382D01*
X402818Y-7987821D01*
X346181Y-7987821D01*
X306133Y-7947772D01*
X300500Y-7919454D01*
X300500Y-6730545D01*
X322174Y-6678219D01*
X374500Y-6656545D01*
X402817Y-6662177D01*
X488380Y-6697619D01*
X628545Y-6725500D01*
X628547Y-6725500D01*
X771453Y-6725500D01*
X771455Y-6725500D01*
X911620Y-6697619D01*
X1043653Y-6642929D01*
X1162479Y-6563532D01*
X1263532Y-6462479D01*
X1342929Y-6343653D01*
X1397619Y-6211620D01*
X1425500Y-6071455D01*
X1425500Y-5928545D01*
X1397619Y-5788380D01*
X1342929Y-5656347D01*
X1263532Y-5537521D01*
X1162479Y-5436468D01*
X1150621Y-5428545D01*
X1071497Y-5375676D01*
X1043653Y-5357071D01*
X1043650Y-5357069D01*
X1043649Y-5357069D01*
X911620Y-5302381D01*
X911614Y-5302379D01*
X817752Y-5283709D01*
X771455Y-5274500D01*
X628545Y-5274500D01*
X588810Y-5282403D01*
X488385Y-5302379D01*
X488375Y-5302382D01*
X402818Y-5337821D01*
X388099Y-5337821D01*
X374500Y-5343454D01*
X360901Y-5337821D01*
X346181Y-5337821D01*
X335773Y-5327412D01*
X322174Y-5321780D01*
X316540Y-5308179D01*
X306133Y-5297772D01*
X300500Y-5269454D01*
X300500Y-5128545D01*
X1774500Y-5128545D01*
X1774500Y-5271455D01*
X1777867Y-5288380D01*
X1802379Y-5411614D01*
X1802381Y-5411620D01*
X1854996Y-5538645D01*
X1857071Y-5543653D01*
X1904484Y-5614611D01*
X1936467Y-5662478D01*
X2037520Y-5763531D01*
X2037525Y-5763535D01*
X2058020Y-5777229D01*
X2089487Y-5824320D01*
X2089487Y-5853193D01*
X2074500Y-5928544D01*
X2074500Y-6071454D01*
X2089487Y-6146804D01*
X2078437Y-6202353D01*
X2058024Y-6222767D01*
X2037525Y-6236464D01*
X2037523Y-6236466D01*
X1936468Y-6337520D01*
X1936467Y-6337521D01*
X1857069Y-6456350D01*
X1802381Y-6588379D01*
X1802379Y-6588385D01*
X1780652Y-6697618D01*
X1774500Y-6728545D01*
X1774500Y-6871455D01*
X1779705Y-6897620D01*
X1802379Y-7011614D01*
X1802381Y-7011620D01*
X1823022Y-7061453D01*
X1857071Y-7143653D01*
X1936468Y-7262479D01*
X2037521Y-7363532D01*
X2156347Y-7442929D01*
X2288380Y-7497619D01*
X2428545Y-7525500D01*
X2428547Y-7525500D01*
X2571453Y-7525500D01*
X2571455Y-7525500D01*
X2711620Y-7497619D01*
X2843653Y-7442929D01*
X2962479Y-7363532D01*
X3063532Y-7262479D01*
X3142929Y-7143653D01*
X3197619Y-7011620D01*
X3216133Y-6918546D01*
X5774500Y-6918546D01*
X5774500Y-7061453D01*
X5802379Y-7201614D01*
X5802381Y-7201620D01*
X5857071Y-7333653D01*
X5910240Y-7413226D01*
X5932451Y-7446468D01*
X5936468Y-7452479D01*
X6037521Y-7553532D01*
X6156347Y-7632929D01*
X6288380Y-7687619D01*
X6428545Y-7715500D01*
X6428547Y-7715500D01*
X6478698Y-7715500D01*
X6531024Y-7737174D01*
X6552698Y-7789500D01*
X6551276Y-7803933D01*
X6524500Y-7938545D01*
X6524500Y-8081455D01*
X6531299Y-8115634D01*
X6552379Y-8221614D01*
X6552381Y-8221620D01*
X6607071Y-8353653D01*
X6686468Y-8472479D01*
X6787521Y-8573532D01*
X6906347Y-8652929D01*
X7038380Y-8707619D01*
X7178545Y-8735500D01*
X7178547Y-8735500D01*
X7321453Y-8735500D01*
X7321455Y-8735500D01*
X7461620Y-8707619D01*
X7572183Y-8661822D01*
X7628818Y-8661822D01*
X7668867Y-8701870D01*
X7674500Y-8730189D01*
X7674500Y-8771453D01*
X7702379Y-8911614D01*
X7702381Y-8911620D01*
X7754530Y-9037520D01*
X7757071Y-9043653D01*
X7803058Y-9112478D01*
X7832372Y-9156350D01*
X7836468Y-9162479D01*
X7937521Y-9263532D01*
X8056347Y-9342929D01*
X8188380Y-9397619D01*
X8328545Y-9425500D01*
X8328547Y-9425500D01*
X8471453Y-9425500D01*
X8471455Y-9425500D01*
X8611620Y-9397619D01*
X8743653Y-9342929D01*
X8862479Y-9263532D01*
X8963532Y-9162479D01*
X9042929Y-9043653D01*
X9097619Y-8911620D01*
X9125500Y-8771455D01*
X9125500Y-8628545D01*
X9097619Y-8488380D01*
X9042929Y-8356347D01*
X8963532Y-8237521D01*
X8862479Y-8136468D01*
X8850621Y-8128545D01*
X8787650Y-8086469D01*
X8743653Y-8057071D01*
X8743650Y-8057069D01*
X8743649Y-8057069D01*
X8611620Y-8002381D01*
X8611614Y-8002379D01*
X8517752Y-7983709D01*
X8471455Y-7974500D01*
X8328545Y-7974500D01*
X8288810Y-7982403D01*
X8188385Y-8002379D01*
X8188375Y-8002382D01*
X8077818Y-8048177D01*
X8021181Y-8048177D01*
X7981133Y-8008128D01*
X7975500Y-7979810D01*
X7975500Y-7938546D01*
X7971702Y-7919454D01*
X7947619Y-7798380D01*
X7892929Y-7666347D01*
X7813532Y-7547521D01*
X7712479Y-7446468D01*
X7593653Y-7367071D01*
X7593650Y-7367069D01*
X7593649Y-7367069D01*
X7461620Y-7312381D01*
X7461614Y-7312379D01*
X7367752Y-7293709D01*
X7321455Y-7284500D01*
X7271302Y-7284500D01*
X7218976Y-7262826D01*
X7197302Y-7210500D01*
X7198724Y-7196063D01*
X7206624Y-7156350D01*
X7225500Y-7061455D01*
X7225500Y-6918545D01*
X7197619Y-6778380D01*
X7142929Y-6646347D01*
X7063532Y-6527521D01*
X6962479Y-6426468D01*
X6940257Y-6411620D01*
X6923226Y-6400240D01*
X6843653Y-6347071D01*
X6843650Y-6347069D01*
X6843649Y-6347069D01*
X6711620Y-6292381D01*
X6711614Y-6292379D01*
X6617752Y-6273709D01*
X6571455Y-6264500D01*
X6428545Y-6264500D01*
X6388810Y-6272403D01*
X6288385Y-6292379D01*
X6288379Y-6292381D01*
X6156350Y-6347069D01*
X6037521Y-6426467D01*
X6037520Y-6426469D01*
X5936469Y-6527520D01*
X5936467Y-6527521D01*
X5857069Y-6646350D01*
X5802381Y-6778379D01*
X5802379Y-6778385D01*
X5774500Y-6918546D01*
X3216133Y-6918546D01*
X3225500Y-6871455D01*
X3225500Y-6728545D01*
X3210511Y-6653193D01*
X3221560Y-6597646D01*
X3241975Y-6577231D01*
X3262479Y-6563532D01*
X3363532Y-6462479D01*
X3442929Y-6343653D01*
X3497619Y-6211620D01*
X3525500Y-6071455D01*
X3525500Y-5928545D01*
X3497619Y-5788380D01*
X3442929Y-5656347D01*
X3363532Y-5537521D01*
X3262479Y-5436468D01*
X3250621Y-5428545D01*
X3241977Y-5422769D01*
X3210511Y-5375676D01*
X3210511Y-5346807D01*
X3225500Y-5271455D01*
X3225500Y-5128545D01*
X6584500Y-5128545D01*
X6584500Y-5271455D01*
X6587867Y-5288380D01*
X6612379Y-5411614D01*
X6612381Y-5411620D01*
X6664996Y-5538645D01*
X6667071Y-5543653D01*
X6714484Y-5614611D01*
X6742372Y-5656350D01*
X6746468Y-5662479D01*
X6847521Y-5763532D01*
X6966347Y-5842929D01*
X7098380Y-5897619D01*
X7238545Y-5925500D01*
X7238547Y-5925500D01*
X7381453Y-5925500D01*
X7381455Y-5925500D01*
X7521620Y-5897619D01*
X7653653Y-5842929D01*
X7739770Y-5785387D01*
X7795315Y-5774339D01*
X7842408Y-5805805D01*
X7853457Y-5861353D01*
X7849246Y-5875235D01*
X7802382Y-5988375D01*
X7802379Y-5988385D01*
X7774500Y-6128546D01*
X7774500Y-6271453D01*
X7802379Y-6411614D01*
X7802381Y-6411620D01*
X7823447Y-6462479D01*
X7857071Y-6543653D01*
X7870354Y-6563532D01*
X7930264Y-6653195D01*
X7936468Y-6662479D01*
X8037521Y-6763532D01*
X8156347Y-6842929D01*
X8288380Y-6897619D01*
X8428545Y-6925500D01*
X8428547Y-6925500D01*
X8571453Y-6925500D01*
X8571455Y-6925500D01*
X8711620Y-6897619D01*
X8843653Y-6842929D01*
X8962479Y-6763532D01*
X9063532Y-6662479D01*
X9142929Y-6543653D01*
X9197619Y-6411620D01*
X9225500Y-6271455D01*
X9225500Y-6128545D01*
X9197619Y-5988380D01*
X9142929Y-5856347D01*
X9063532Y-5737521D01*
X8962479Y-5636468D01*
X8843653Y-5557071D01*
X8843650Y-5557069D01*
X8843649Y-5557069D01*
X8711620Y-5502381D01*
X8711614Y-5502379D01*
X8617752Y-5483709D01*
X8571455Y-5474500D01*
X8428545Y-5474500D01*
X8388810Y-5482403D01*
X8288385Y-5502379D01*
X8288379Y-5502381D01*
X8156350Y-5557069D01*
X8070232Y-5614611D01*
X8014683Y-5625660D01*
X7967591Y-5594194D01*
X7956542Y-5538645D01*
X7960751Y-5524767D01*
X8007619Y-5411620D01*
X8035500Y-5271455D01*
X8035500Y-5128545D01*
X8007619Y-4988380D01*
X7952929Y-4856347D01*
X7873532Y-4737521D01*
X7772479Y-4636468D01*
X7653653Y-4557071D01*
X7653650Y-4557069D01*
X7653649Y-4557069D01*
X7521620Y-4502381D01*
X7521614Y-4502379D01*
X7427752Y-4483709D01*
X7381455Y-4474500D01*
X7238545Y-4474500D01*
X7198810Y-4482403D01*
X7098385Y-4502379D01*
X7098379Y-4502381D01*
X6966350Y-4557069D01*
X6847521Y-4636467D01*
X6847520Y-4636469D01*
X6746469Y-4737520D01*
X6746467Y-4737521D01*
X6667069Y-4856350D01*
X6612381Y-4988379D01*
X6612379Y-4988385D01*
X6602606Y-5037520D01*
X6584500Y-5128545D01*
X3225500Y-5128545D01*
X3197619Y-4988380D01*
X3142929Y-4856347D01*
X3063532Y-4737521D01*
X2962479Y-4636468D01*
X2843653Y-4557071D01*
X2843650Y-4557069D01*
X2843649Y-4557069D01*
X2711620Y-4502381D01*
X2711614Y-4502379D01*
X2617752Y-4483709D01*
X2571455Y-4474500D01*
X2428545Y-4474500D01*
X2388810Y-4482403D01*
X2288385Y-4502379D01*
X2288379Y-4502381D01*
X2156350Y-4557069D01*
X2037521Y-4636467D01*
X2037520Y-4636469D01*
X1936469Y-4737520D01*
X1936467Y-4737521D01*
X1857069Y-4856350D01*
X1802381Y-4988379D01*
X1802379Y-4988385D01*
X1792606Y-5037520D01*
X1774500Y-5128545D01*
X300500Y-5128545D01*
X300500Y-4374000D01*
X322174Y-4321674D01*
X374500Y-4300000D01*
X9009900Y-4300000D01*
X9062226Y-4321674D01*
G37*
%TD.AperFunction*%
%TD*%
M02*
