%TF.GenerationSoftware,KiCad,Pcbnew,10.0.6*%
%TF.CreationDate,2026-09-20T18:18:46+05:30*%
%TF.ProjectId,Device1,44657669-6365-4312-9e6b-696361645f70,rev?*%
%TF.SameCoordinates,Original*%
%TF.FileFunction,AssemblyDrawing,Bot*%
%FSLAX46Y46*%
G04 Gerber Fmt 4.6, Leading zero omitted, Abs format (unit mm)*
G04 Created by KiCad (PCBNEW 10.0.6) date 2026-09-20 18:18:46*
%MOMM*%
%LPD*%
G01*
G04 APERTURE LIST*
%ADD10C,0.150000*%
G04 APERTURE END LIST*
D10*
X11895237Y-8104819D02*
X11323809Y-8104819D01*
X11609523Y-9104819D02*
X11609523Y-8104819D01*
X10990475Y-9104819D02*
X10990475Y-8104819D01*
X10990475Y-8104819D02*
X10609523Y-8104819D01*
X10609523Y-8104819D02*
X10514285Y-8152438D01*
X10514285Y-8152438D02*
X10466666Y-8200057D01*
X10466666Y-8200057D02*
X10419047Y-8295295D01*
X10419047Y-8295295D02*
X10419047Y-8438152D01*
X10419047Y-8438152D02*
X10466666Y-8533390D01*
X10466666Y-8533390D02*
X10514285Y-8581009D01*
X10514285Y-8581009D02*
X10609523Y-8628628D01*
X10609523Y-8628628D02*
X10990475Y-8628628D01*
X10228571Y-9200057D02*
X9466666Y-9200057D01*
X8657142Y-9104819D02*
X8990475Y-8628628D01*
X9228570Y-9104819D02*
X9228570Y-8104819D01*
X9228570Y-8104819D02*
X8847618Y-8104819D01*
X8847618Y-8104819D02*
X8752380Y-8152438D01*
X8752380Y-8152438D02*
X8704761Y-8200057D01*
X8704761Y-8200057D02*
X8657142Y-8295295D01*
X8657142Y-8295295D02*
X8657142Y-8438152D01*
X8657142Y-8438152D02*
X8704761Y-8533390D01*
X8704761Y-8533390D02*
X8752380Y-8581009D01*
X8752380Y-8581009D02*
X8847618Y-8628628D01*
X8847618Y-8628628D02*
X9228570Y-8628628D01*
X7895237Y-8581009D02*
X8228570Y-8581009D01*
X8228570Y-9104819D02*
X8228570Y-8104819D01*
X8228570Y-8104819D02*
X7752380Y-8104819D01*
X16190475Y-26404819D02*
X15619047Y-26404819D01*
X15904761Y-27404819D02*
X15904761Y-26404819D01*
X15285713Y-27404819D02*
X15285713Y-26404819D01*
X15285713Y-26404819D02*
X14904761Y-26404819D01*
X14904761Y-26404819D02*
X14809523Y-26452438D01*
X14809523Y-26452438D02*
X14761904Y-26500057D01*
X14761904Y-26500057D02*
X14714285Y-26595295D01*
X14714285Y-26595295D02*
X14714285Y-26738152D01*
X14714285Y-26738152D02*
X14761904Y-26833390D01*
X14761904Y-26833390D02*
X14809523Y-26881009D01*
X14809523Y-26881009D02*
X14904761Y-26928628D01*
X14904761Y-26928628D02*
X15285713Y-26928628D01*
X14523809Y-27500057D02*
X13761904Y-27500057D01*
X12999999Y-26452438D02*
X13095237Y-26404819D01*
X13095237Y-26404819D02*
X13238094Y-26404819D01*
X13238094Y-26404819D02*
X13380951Y-26452438D01*
X13380951Y-26452438D02*
X13476189Y-26547676D01*
X13476189Y-26547676D02*
X13523808Y-26642914D01*
X13523808Y-26642914D02*
X13571427Y-26833390D01*
X13571427Y-26833390D02*
X13571427Y-26976247D01*
X13571427Y-26976247D02*
X13523808Y-27166723D01*
X13523808Y-27166723D02*
X13476189Y-27261961D01*
X13476189Y-27261961D02*
X13380951Y-27357200D01*
X13380951Y-27357200D02*
X13238094Y-27404819D01*
X13238094Y-27404819D02*
X13142856Y-27404819D01*
X13142856Y-27404819D02*
X12999999Y-27357200D01*
X12999999Y-27357200D02*
X12952380Y-27309580D01*
X12952380Y-27309580D02*
X12952380Y-26976247D01*
X12952380Y-26976247D02*
X13142856Y-26976247D01*
X12523808Y-27404819D02*
X12523808Y-26404819D01*
X12523808Y-26404819D02*
X11952380Y-27404819D01*
X11952380Y-27404819D02*
X11952380Y-26404819D01*
X11476189Y-27404819D02*
X11476189Y-26404819D01*
X11476189Y-26404819D02*
X11238094Y-26404819D01*
X11238094Y-26404819D02*
X11095237Y-26452438D01*
X11095237Y-26452438D02*
X10999999Y-26547676D01*
X10999999Y-26547676D02*
X10952380Y-26642914D01*
X10952380Y-26642914D02*
X10904761Y-26833390D01*
X10904761Y-26833390D02*
X10904761Y-26976247D01*
X10904761Y-26976247D02*
X10952380Y-27166723D01*
X10952380Y-27166723D02*
X10999999Y-27261961D01*
X10999999Y-27261961D02*
X11095237Y-27357200D01*
X11095237Y-27357200D02*
X11238094Y-27404819D01*
X11238094Y-27404819D02*
X11476189Y-27404819D01*
X5676189Y-16654819D02*
X5104761Y-16654819D01*
X5390475Y-17654819D02*
X5390475Y-16654819D01*
X4771427Y-17654819D02*
X4771427Y-16654819D01*
X4771427Y-16654819D02*
X4390475Y-16654819D01*
X4390475Y-16654819D02*
X4295237Y-16702438D01*
X4295237Y-16702438D02*
X4247618Y-16750057D01*
X4247618Y-16750057D02*
X4199999Y-16845295D01*
X4199999Y-16845295D02*
X4199999Y-16988152D01*
X4199999Y-16988152D02*
X4247618Y-17083390D01*
X4247618Y-17083390D02*
X4295237Y-17131009D01*
X4295237Y-17131009D02*
X4390475Y-17178628D01*
X4390475Y-17178628D02*
X4771427Y-17178628D01*
X4009523Y-17750057D02*
X3247618Y-17750057D01*
X3057141Y-17607200D02*
X2914284Y-17654819D01*
X2914284Y-17654819D02*
X2676189Y-17654819D01*
X2676189Y-17654819D02*
X2580951Y-17607200D01*
X2580951Y-17607200D02*
X2533332Y-17559580D01*
X2533332Y-17559580D02*
X2485713Y-17464342D01*
X2485713Y-17464342D02*
X2485713Y-17369104D01*
X2485713Y-17369104D02*
X2533332Y-17273866D01*
X2533332Y-17273866D02*
X2580951Y-17226247D01*
X2580951Y-17226247D02*
X2676189Y-17178628D01*
X2676189Y-17178628D02*
X2866665Y-17131009D01*
X2866665Y-17131009D02*
X2961903Y-17083390D01*
X2961903Y-17083390D02*
X3009522Y-17035771D01*
X3009522Y-17035771D02*
X3057141Y-16940533D01*
X3057141Y-16940533D02*
X3057141Y-16845295D01*
X3057141Y-16845295D02*
X3009522Y-16750057D01*
X3009522Y-16750057D02*
X2961903Y-16702438D01*
X2961903Y-16702438D02*
X2866665Y-16654819D01*
X2866665Y-16654819D02*
X2628570Y-16654819D01*
X2628570Y-16654819D02*
X2485713Y-16702438D01*
X2152379Y-16654819D02*
X1914284Y-17654819D01*
X1914284Y-17654819D02*
X1723808Y-16940533D01*
X1723808Y-16940533D02*
X1533332Y-17654819D01*
X1533332Y-17654819D02*
X1295237Y-16654819D01*
X914284Y-17654819D02*
X914284Y-16654819D01*
X914284Y-16654819D02*
X676189Y-16654819D01*
X676189Y-16654819D02*
X533332Y-16702438D01*
X533332Y-16702438D02*
X438094Y-16797676D01*
X438094Y-16797676D02*
X390475Y-16892914D01*
X390475Y-16892914D02*
X342856Y-17083390D01*
X342856Y-17083390D02*
X342856Y-17226247D01*
X342856Y-17226247D02*
X390475Y-17416723D01*
X390475Y-17416723D02*
X438094Y-17511961D01*
X438094Y-17511961D02*
X533332Y-17607200D01*
X533332Y-17607200D02*
X676189Y-17654819D01*
X676189Y-17654819D02*
X914284Y-17654819D01*
X-85715Y-17654819D02*
X-85715Y-16654819D01*
X-752381Y-16654819D02*
X-942857Y-16654819D01*
X-942857Y-16654819D02*
X-1038095Y-16702438D01*
X-1038095Y-16702438D02*
X-1133333Y-16797676D01*
X-1133333Y-16797676D02*
X-1180952Y-16988152D01*
X-1180952Y-16988152D02*
X-1180952Y-17321485D01*
X-1180952Y-17321485D02*
X-1133333Y-17511961D01*
X-1133333Y-17511961D02*
X-1038095Y-17607200D01*
X-1038095Y-17607200D02*
X-942857Y-17654819D01*
X-942857Y-17654819D02*
X-752381Y-17654819D01*
X-752381Y-17654819D02*
X-657143Y-17607200D01*
X-657143Y-17607200D02*
X-561905Y-17511961D01*
X-561905Y-17511961D02*
X-514286Y-17321485D01*
X-514286Y-17321485D02*
X-514286Y-16988152D01*
X-514286Y-16988152D02*
X-561905Y-16797676D01*
X-561905Y-16797676D02*
X-657143Y-16702438D01*
X-657143Y-16702438D02*
X-752381Y-16654819D01*
X12847618Y-5404819D02*
X12276190Y-5404819D01*
X12561904Y-6404819D02*
X12561904Y-5404819D01*
X11942856Y-6404819D02*
X11942856Y-5404819D01*
X11942856Y-5404819D02*
X11561904Y-5404819D01*
X11561904Y-5404819D02*
X11466666Y-5452438D01*
X11466666Y-5452438D02*
X11419047Y-5500057D01*
X11419047Y-5500057D02*
X11371428Y-5595295D01*
X11371428Y-5595295D02*
X11371428Y-5738152D01*
X11371428Y-5738152D02*
X11419047Y-5833390D01*
X11419047Y-5833390D02*
X11466666Y-5881009D01*
X11466666Y-5881009D02*
X11561904Y-5928628D01*
X11561904Y-5928628D02*
X11942856Y-5928628D01*
X11180952Y-6500057D02*
X10419047Y-6500057D01*
X10180951Y-6404819D02*
X10180951Y-5404819D01*
X10180951Y-5404819D02*
X9609523Y-6404819D01*
X9609523Y-6404819D02*
X9609523Y-5404819D01*
X8561904Y-6404819D02*
X8895237Y-5928628D01*
X9133332Y-6404819D02*
X9133332Y-5404819D01*
X9133332Y-5404819D02*
X8752380Y-5404819D01*
X8752380Y-5404819D02*
X8657142Y-5452438D01*
X8657142Y-5452438D02*
X8609523Y-5500057D01*
X8609523Y-5500057D02*
X8561904Y-5595295D01*
X8561904Y-5595295D02*
X8561904Y-5738152D01*
X8561904Y-5738152D02*
X8609523Y-5833390D01*
X8609523Y-5833390D02*
X8657142Y-5881009D01*
X8657142Y-5881009D02*
X8752380Y-5928628D01*
X8752380Y-5928628D02*
X9133332Y-5928628D01*
X8180951Y-6357200D02*
X8038094Y-6404819D01*
X8038094Y-6404819D02*
X7799999Y-6404819D01*
X7799999Y-6404819D02*
X7704761Y-6357200D01*
X7704761Y-6357200D02*
X7657142Y-6309580D01*
X7657142Y-6309580D02*
X7609523Y-6214342D01*
X7609523Y-6214342D02*
X7609523Y-6119104D01*
X7609523Y-6119104D02*
X7657142Y-6023866D01*
X7657142Y-6023866D02*
X7704761Y-5976247D01*
X7704761Y-5976247D02*
X7799999Y-5928628D01*
X7799999Y-5928628D02*
X7990475Y-5881009D01*
X7990475Y-5881009D02*
X8085713Y-5833390D01*
X8085713Y-5833390D02*
X8133332Y-5785771D01*
X8133332Y-5785771D02*
X8180951Y-5690533D01*
X8180951Y-5690533D02*
X8180951Y-5595295D01*
X8180951Y-5595295D02*
X8133332Y-5500057D01*
X8133332Y-5500057D02*
X8085713Y-5452438D01*
X8085713Y-5452438D02*
X7990475Y-5404819D01*
X7990475Y-5404819D02*
X7752380Y-5404819D01*
X7752380Y-5404819D02*
X7609523Y-5452438D01*
X7323808Y-5404819D02*
X6752380Y-5404819D01*
X7038094Y-6404819D02*
X7038094Y-5404819D01*
X10869047Y-21904819D02*
X10297619Y-21904819D01*
X10583333Y-22904819D02*
X10583333Y-21904819D01*
X9964285Y-22904819D02*
X9964285Y-21904819D01*
X9964285Y-21904819D02*
X9583333Y-21904819D01*
X9583333Y-21904819D02*
X9488095Y-21952438D01*
X9488095Y-21952438D02*
X9440476Y-22000057D01*
X9440476Y-22000057D02*
X9392857Y-22095295D01*
X9392857Y-22095295D02*
X9392857Y-22238152D01*
X9392857Y-22238152D02*
X9440476Y-22333390D01*
X9440476Y-22333390D02*
X9488095Y-22381009D01*
X9488095Y-22381009D02*
X9583333Y-22428628D01*
X9583333Y-22428628D02*
X9964285Y-22428628D01*
X9202381Y-23000057D02*
X8440476Y-23000057D01*
X8249999Y-22857200D02*
X8107142Y-22904819D01*
X8107142Y-22904819D02*
X7869047Y-22904819D01*
X7869047Y-22904819D02*
X7773809Y-22857200D01*
X7773809Y-22857200D02*
X7726190Y-22809580D01*
X7726190Y-22809580D02*
X7678571Y-22714342D01*
X7678571Y-22714342D02*
X7678571Y-22619104D01*
X7678571Y-22619104D02*
X7726190Y-22523866D01*
X7726190Y-22523866D02*
X7773809Y-22476247D01*
X7773809Y-22476247D02*
X7869047Y-22428628D01*
X7869047Y-22428628D02*
X8059523Y-22381009D01*
X8059523Y-22381009D02*
X8154761Y-22333390D01*
X8154761Y-22333390D02*
X8202380Y-22285771D01*
X8202380Y-22285771D02*
X8249999Y-22190533D01*
X8249999Y-22190533D02*
X8249999Y-22095295D01*
X8249999Y-22095295D02*
X8202380Y-22000057D01*
X8202380Y-22000057D02*
X8154761Y-21952438D01*
X8154761Y-21952438D02*
X8059523Y-21904819D01*
X8059523Y-21904819D02*
X7821428Y-21904819D01*
X7821428Y-21904819D02*
X7678571Y-21952438D01*
X7345237Y-21904819D02*
X7107142Y-22904819D01*
X7107142Y-22904819D02*
X6916666Y-22190533D01*
X6916666Y-22190533D02*
X6726190Y-22904819D01*
X6726190Y-22904819D02*
X6488095Y-21904819D01*
X5535714Y-22809580D02*
X5583333Y-22857200D01*
X5583333Y-22857200D02*
X5726190Y-22904819D01*
X5726190Y-22904819D02*
X5821428Y-22904819D01*
X5821428Y-22904819D02*
X5964285Y-22857200D01*
X5964285Y-22857200D02*
X6059523Y-22761961D01*
X6059523Y-22761961D02*
X6107142Y-22666723D01*
X6107142Y-22666723D02*
X6154761Y-22476247D01*
X6154761Y-22476247D02*
X6154761Y-22333390D01*
X6154761Y-22333390D02*
X6107142Y-22142914D01*
X6107142Y-22142914D02*
X6059523Y-22047676D01*
X6059523Y-22047676D02*
X5964285Y-21952438D01*
X5964285Y-21952438D02*
X5821428Y-21904819D01*
X5821428Y-21904819D02*
X5726190Y-21904819D01*
X5726190Y-21904819D02*
X5583333Y-21952438D01*
X5583333Y-21952438D02*
X5535714Y-22000057D01*
X4630952Y-22904819D02*
X5107142Y-22904819D01*
X5107142Y-22904819D02*
X5107142Y-21904819D01*
X4297618Y-22904819D02*
X4297618Y-21904819D01*
X3726190Y-22904819D02*
X4154761Y-22333390D01*
X3726190Y-21904819D02*
X4297618Y-22476247D01*
X5761904Y-27704819D02*
X5190476Y-27704819D01*
X5476190Y-28704819D02*
X5476190Y-27704819D01*
X4857142Y-28704819D02*
X4857142Y-27704819D01*
X4857142Y-27704819D02*
X4476190Y-27704819D01*
X4476190Y-27704819D02*
X4380952Y-27752438D01*
X4380952Y-27752438D02*
X4333333Y-27800057D01*
X4333333Y-27800057D02*
X4285714Y-27895295D01*
X4285714Y-27895295D02*
X4285714Y-28038152D01*
X4285714Y-28038152D02*
X4333333Y-28133390D01*
X4333333Y-28133390D02*
X4380952Y-28181009D01*
X4380952Y-28181009D02*
X4476190Y-28228628D01*
X4476190Y-28228628D02*
X4857142Y-28228628D01*
X4095238Y-28800057D02*
X3333333Y-28800057D01*
X2761904Y-28181009D02*
X2619047Y-28228628D01*
X2619047Y-28228628D02*
X2571428Y-28276247D01*
X2571428Y-28276247D02*
X2523809Y-28371485D01*
X2523809Y-28371485D02*
X2523809Y-28514342D01*
X2523809Y-28514342D02*
X2571428Y-28609580D01*
X2571428Y-28609580D02*
X2619047Y-28657200D01*
X2619047Y-28657200D02*
X2714285Y-28704819D01*
X2714285Y-28704819D02*
X3095237Y-28704819D01*
X3095237Y-28704819D02*
X3095237Y-27704819D01*
X3095237Y-27704819D02*
X2761904Y-27704819D01*
X2761904Y-27704819D02*
X2666666Y-27752438D01*
X2666666Y-27752438D02*
X2619047Y-27800057D01*
X2619047Y-27800057D02*
X2571428Y-27895295D01*
X2571428Y-27895295D02*
X2571428Y-27990533D01*
X2571428Y-27990533D02*
X2619047Y-28085771D01*
X2619047Y-28085771D02*
X2666666Y-28133390D01*
X2666666Y-28133390D02*
X2761904Y-28181009D01*
X2761904Y-28181009D02*
X3095237Y-28181009D01*
X2142856Y-28419104D02*
X1666666Y-28419104D01*
X2238094Y-28704819D02*
X1904761Y-27704819D01*
X1904761Y-27704819D02*
X1571428Y-28704819D01*
X1380951Y-27704819D02*
X809523Y-27704819D01*
X1095237Y-28704819D02*
X1095237Y-27704819D01*
X619046Y-27704819D02*
X47618Y-27704819D01*
X333332Y-28704819D02*
X333332Y-27704819D01*
X-47620Y-28800057D02*
X-809524Y-28800057D01*
X-1047620Y-28704819D02*
X-1047620Y-27704819D01*
X-1047620Y-27704819D02*
X-1619048Y-28704819D01*
X-1619048Y-28704819D02*
X-1619048Y-27704819D01*
X8538095Y-25104819D02*
X7966667Y-25104819D01*
X8252381Y-26104819D02*
X8252381Y-25104819D01*
X7633333Y-26104819D02*
X7633333Y-25104819D01*
X7633333Y-25104819D02*
X7252381Y-25104819D01*
X7252381Y-25104819D02*
X7157143Y-25152438D01*
X7157143Y-25152438D02*
X7109524Y-25200057D01*
X7109524Y-25200057D02*
X7061905Y-25295295D01*
X7061905Y-25295295D02*
X7061905Y-25438152D01*
X7061905Y-25438152D02*
X7109524Y-25533390D01*
X7109524Y-25533390D02*
X7157143Y-25581009D01*
X7157143Y-25581009D02*
X7252381Y-25628628D01*
X7252381Y-25628628D02*
X7633333Y-25628628D01*
X6871429Y-26200057D02*
X6109524Y-26200057D01*
X5538095Y-25581009D02*
X5395238Y-25628628D01*
X5395238Y-25628628D02*
X5347619Y-25676247D01*
X5347619Y-25676247D02*
X5300000Y-25771485D01*
X5300000Y-25771485D02*
X5300000Y-25914342D01*
X5300000Y-25914342D02*
X5347619Y-26009580D01*
X5347619Y-26009580D02*
X5395238Y-26057200D01*
X5395238Y-26057200D02*
X5490476Y-26104819D01*
X5490476Y-26104819D02*
X5871428Y-26104819D01*
X5871428Y-26104819D02*
X5871428Y-25104819D01*
X5871428Y-25104819D02*
X5538095Y-25104819D01*
X5538095Y-25104819D02*
X5442857Y-25152438D01*
X5442857Y-25152438D02*
X5395238Y-25200057D01*
X5395238Y-25200057D02*
X5347619Y-25295295D01*
X5347619Y-25295295D02*
X5347619Y-25390533D01*
X5347619Y-25390533D02*
X5395238Y-25485771D01*
X5395238Y-25485771D02*
X5442857Y-25533390D01*
X5442857Y-25533390D02*
X5538095Y-25581009D01*
X5538095Y-25581009D02*
X5871428Y-25581009D01*
X4919047Y-25819104D02*
X4442857Y-25819104D01*
X5014285Y-26104819D02*
X4680952Y-25104819D01*
X4680952Y-25104819D02*
X4347619Y-26104819D01*
X4157142Y-25104819D02*
X3585714Y-25104819D01*
X3871428Y-26104819D02*
X3871428Y-25104819D01*
X3395237Y-25104819D02*
X2823809Y-25104819D01*
X3109523Y-26104819D02*
X3109523Y-25104819D01*
X2728571Y-26200057D02*
X1966666Y-26200057D01*
X1728570Y-26104819D02*
X1728570Y-25104819D01*
X1728570Y-25104819D02*
X1347618Y-25104819D01*
X1347618Y-25104819D02*
X1252380Y-25152438D01*
X1252380Y-25152438D02*
X1204761Y-25200057D01*
X1204761Y-25200057D02*
X1157142Y-25295295D01*
X1157142Y-25295295D02*
X1157142Y-25438152D01*
X1157142Y-25438152D02*
X1204761Y-25533390D01*
X1204761Y-25533390D02*
X1252380Y-25581009D01*
X1252380Y-25581009D02*
X1347618Y-25628628D01*
X1347618Y-25628628D02*
X1728570Y-25628628D01*
X16595237Y-5104819D02*
X16023809Y-5104819D01*
X16309523Y-6104819D02*
X16309523Y-5104819D01*
X15690475Y-6104819D02*
X15690475Y-5104819D01*
X15690475Y-5104819D02*
X15309523Y-5104819D01*
X15309523Y-5104819D02*
X15214285Y-5152438D01*
X15214285Y-5152438D02*
X15166666Y-5200057D01*
X15166666Y-5200057D02*
X15119047Y-5295295D01*
X15119047Y-5295295D02*
X15119047Y-5438152D01*
X15119047Y-5438152D02*
X15166666Y-5533390D01*
X15166666Y-5533390D02*
X15214285Y-5581009D01*
X15214285Y-5581009D02*
X15309523Y-5628628D01*
X15309523Y-5628628D02*
X15690475Y-5628628D01*
X14928571Y-6200057D02*
X14166666Y-6200057D01*
X14071427Y-5104819D02*
X13738094Y-6104819D01*
X13738094Y-6104819D02*
X13404761Y-5104819D01*
X12738094Y-5581009D02*
X12595237Y-5628628D01*
X12595237Y-5628628D02*
X12547618Y-5676247D01*
X12547618Y-5676247D02*
X12499999Y-5771485D01*
X12499999Y-5771485D02*
X12499999Y-5914342D01*
X12499999Y-5914342D02*
X12547618Y-6009580D01*
X12547618Y-6009580D02*
X12595237Y-6057200D01*
X12595237Y-6057200D02*
X12690475Y-6104819D01*
X12690475Y-6104819D02*
X13071427Y-6104819D01*
X13071427Y-6104819D02*
X13071427Y-5104819D01*
X13071427Y-5104819D02*
X12738094Y-5104819D01*
X12738094Y-5104819D02*
X12642856Y-5152438D01*
X12642856Y-5152438D02*
X12595237Y-5200057D01*
X12595237Y-5200057D02*
X12547618Y-5295295D01*
X12547618Y-5295295D02*
X12547618Y-5390533D01*
X12547618Y-5390533D02*
X12595237Y-5485771D01*
X12595237Y-5485771D02*
X12642856Y-5533390D01*
X12642856Y-5533390D02*
X12738094Y-5581009D01*
X12738094Y-5581009D02*
X13071427Y-5581009D01*
X12071427Y-5104819D02*
X12071427Y-5914342D01*
X12071427Y-5914342D02*
X12023808Y-6009580D01*
X12023808Y-6009580D02*
X11976189Y-6057200D01*
X11976189Y-6057200D02*
X11880951Y-6104819D01*
X11880951Y-6104819D02*
X11690475Y-6104819D01*
X11690475Y-6104819D02*
X11595237Y-6057200D01*
X11595237Y-6057200D02*
X11547618Y-6009580D01*
X11547618Y-6009580D02*
X11499999Y-5914342D01*
X11499999Y-5914342D02*
X11499999Y-5104819D01*
X11071427Y-6057200D02*
X10928570Y-6104819D01*
X10928570Y-6104819D02*
X10690475Y-6104819D01*
X10690475Y-6104819D02*
X10595237Y-6057200D01*
X10595237Y-6057200D02*
X10547618Y-6009580D01*
X10547618Y-6009580D02*
X10499999Y-5914342D01*
X10499999Y-5914342D02*
X10499999Y-5819104D01*
X10499999Y-5819104D02*
X10547618Y-5723866D01*
X10547618Y-5723866D02*
X10595237Y-5676247D01*
X10595237Y-5676247D02*
X10690475Y-5628628D01*
X10690475Y-5628628D02*
X10880951Y-5581009D01*
X10880951Y-5581009D02*
X10976189Y-5533390D01*
X10976189Y-5533390D02*
X11023808Y-5485771D01*
X11023808Y-5485771D02*
X11071427Y-5390533D01*
X11071427Y-5390533D02*
X11071427Y-5295295D01*
X11071427Y-5295295D02*
X11023808Y-5200057D01*
X11023808Y-5200057D02*
X10976189Y-5152438D01*
X10976189Y-5152438D02*
X10880951Y-5104819D01*
X10880951Y-5104819D02*
X10642856Y-5104819D01*
X10642856Y-5104819D02*
X10499999Y-5152438D01*
X16047618Y-18704819D02*
X15476190Y-18704819D01*
X15761904Y-19704819D02*
X15761904Y-18704819D01*
X15142856Y-19704819D02*
X15142856Y-18704819D01*
X15142856Y-18704819D02*
X14761904Y-18704819D01*
X14761904Y-18704819D02*
X14666666Y-18752438D01*
X14666666Y-18752438D02*
X14619047Y-18800057D01*
X14619047Y-18800057D02*
X14571428Y-18895295D01*
X14571428Y-18895295D02*
X14571428Y-19038152D01*
X14571428Y-19038152D02*
X14619047Y-19133390D01*
X14619047Y-19133390D02*
X14666666Y-19181009D01*
X14666666Y-19181009D02*
X14761904Y-19228628D01*
X14761904Y-19228628D02*
X15142856Y-19228628D01*
X14380952Y-19800057D02*
X13619047Y-19800057D01*
X13476189Y-18704819D02*
X12857142Y-18704819D01*
X12857142Y-18704819D02*
X13190475Y-19085771D01*
X13190475Y-19085771D02*
X13047618Y-19085771D01*
X13047618Y-19085771D02*
X12952380Y-19133390D01*
X12952380Y-19133390D02*
X12904761Y-19181009D01*
X12904761Y-19181009D02*
X12857142Y-19276247D01*
X12857142Y-19276247D02*
X12857142Y-19514342D01*
X12857142Y-19514342D02*
X12904761Y-19609580D01*
X12904761Y-19609580D02*
X12952380Y-19657200D01*
X12952380Y-19657200D02*
X13047618Y-19704819D01*
X13047618Y-19704819D02*
X13333332Y-19704819D01*
X13333332Y-19704819D02*
X13428570Y-19657200D01*
X13428570Y-19657200D02*
X13476189Y-19609580D01*
X12571427Y-18704819D02*
X12238094Y-19704819D01*
X12238094Y-19704819D02*
X11904761Y-18704819D01*
X11666665Y-18704819D02*
X11047618Y-18704819D01*
X11047618Y-18704819D02*
X11380951Y-19085771D01*
X11380951Y-19085771D02*
X11238094Y-19085771D01*
X11238094Y-19085771D02*
X11142856Y-19133390D01*
X11142856Y-19133390D02*
X11095237Y-19181009D01*
X11095237Y-19181009D02*
X11047618Y-19276247D01*
X11047618Y-19276247D02*
X11047618Y-19514342D01*
X11047618Y-19514342D02*
X11095237Y-19609580D01*
X11095237Y-19609580D02*
X11142856Y-19657200D01*
X11142856Y-19657200D02*
X11238094Y-19704819D01*
X11238094Y-19704819D02*
X11523808Y-19704819D01*
X11523808Y-19704819D02*
X11619046Y-19657200D01*
X11619046Y-19657200D02*
X11666665Y-19609580D01*
X10821428Y-4904819D02*
X10250000Y-4904819D01*
X10535714Y-5904819D02*
X10535714Y-4904819D01*
X9916666Y-5904819D02*
X9916666Y-4904819D01*
X9916666Y-4904819D02*
X9535714Y-4904819D01*
X9535714Y-4904819D02*
X9440476Y-4952438D01*
X9440476Y-4952438D02*
X9392857Y-5000057D01*
X9392857Y-5000057D02*
X9345238Y-5095295D01*
X9345238Y-5095295D02*
X9345238Y-5238152D01*
X9345238Y-5238152D02*
X9392857Y-5333390D01*
X9392857Y-5333390D02*
X9440476Y-5381009D01*
X9440476Y-5381009D02*
X9535714Y-5428628D01*
X9535714Y-5428628D02*
X9916666Y-5428628D01*
X9154762Y-6000057D02*
X8392857Y-6000057D01*
X7821428Y-5381009D02*
X7678571Y-5428628D01*
X7678571Y-5428628D02*
X7630952Y-5476247D01*
X7630952Y-5476247D02*
X7583333Y-5571485D01*
X7583333Y-5571485D02*
X7583333Y-5714342D01*
X7583333Y-5714342D02*
X7630952Y-5809580D01*
X7630952Y-5809580D02*
X7678571Y-5857200D01*
X7678571Y-5857200D02*
X7773809Y-5904819D01*
X7773809Y-5904819D02*
X8154761Y-5904819D01*
X8154761Y-5904819D02*
X8154761Y-4904819D01*
X8154761Y-4904819D02*
X7821428Y-4904819D01*
X7821428Y-4904819D02*
X7726190Y-4952438D01*
X7726190Y-4952438D02*
X7678571Y-5000057D01*
X7678571Y-5000057D02*
X7630952Y-5095295D01*
X7630952Y-5095295D02*
X7630952Y-5190533D01*
X7630952Y-5190533D02*
X7678571Y-5285771D01*
X7678571Y-5285771D02*
X7726190Y-5333390D01*
X7726190Y-5333390D02*
X7821428Y-5381009D01*
X7821428Y-5381009D02*
X8154761Y-5381009D01*
X6964285Y-4904819D02*
X6773809Y-4904819D01*
X6773809Y-4904819D02*
X6678571Y-4952438D01*
X6678571Y-4952438D02*
X6583333Y-5047676D01*
X6583333Y-5047676D02*
X6535714Y-5238152D01*
X6535714Y-5238152D02*
X6535714Y-5571485D01*
X6535714Y-5571485D02*
X6583333Y-5761961D01*
X6583333Y-5761961D02*
X6678571Y-5857200D01*
X6678571Y-5857200D02*
X6773809Y-5904819D01*
X6773809Y-5904819D02*
X6964285Y-5904819D01*
X6964285Y-5904819D02*
X7059523Y-5857200D01*
X7059523Y-5857200D02*
X7154761Y-5761961D01*
X7154761Y-5761961D02*
X7202380Y-5571485D01*
X7202380Y-5571485D02*
X7202380Y-5238152D01*
X7202380Y-5238152D02*
X7154761Y-5047676D01*
X7154761Y-5047676D02*
X7059523Y-4952438D01*
X7059523Y-4952438D02*
X6964285Y-4904819D01*
X5916666Y-4904819D02*
X5726190Y-4904819D01*
X5726190Y-4904819D02*
X5630952Y-4952438D01*
X5630952Y-4952438D02*
X5535714Y-5047676D01*
X5535714Y-5047676D02*
X5488095Y-5238152D01*
X5488095Y-5238152D02*
X5488095Y-5571485D01*
X5488095Y-5571485D02*
X5535714Y-5761961D01*
X5535714Y-5761961D02*
X5630952Y-5857200D01*
X5630952Y-5857200D02*
X5726190Y-5904819D01*
X5726190Y-5904819D02*
X5916666Y-5904819D01*
X5916666Y-5904819D02*
X6011904Y-5857200D01*
X6011904Y-5857200D02*
X6107142Y-5761961D01*
X6107142Y-5761961D02*
X6154761Y-5571485D01*
X6154761Y-5571485D02*
X6154761Y-5238152D01*
X6154761Y-5238152D02*
X6107142Y-5047676D01*
X6107142Y-5047676D02*
X6011904Y-4952438D01*
X6011904Y-4952438D02*
X5916666Y-4904819D01*
X5202380Y-4904819D02*
X4630952Y-4904819D01*
X4916666Y-5904819D02*
X4916666Y-4904819D01*
X4107142Y-4904819D02*
X4011904Y-4904819D01*
X4011904Y-4904819D02*
X3916666Y-4952438D01*
X3916666Y-4952438D02*
X3869047Y-5000057D01*
X3869047Y-5000057D02*
X3821428Y-5095295D01*
X3821428Y-5095295D02*
X3773809Y-5285771D01*
X3773809Y-5285771D02*
X3773809Y-5523866D01*
X3773809Y-5523866D02*
X3821428Y-5714342D01*
X3821428Y-5714342D02*
X3869047Y-5809580D01*
X3869047Y-5809580D02*
X3916666Y-5857200D01*
X3916666Y-5857200D02*
X4011904Y-5904819D01*
X4011904Y-5904819D02*
X4107142Y-5904819D01*
X4107142Y-5904819D02*
X4202380Y-5857200D01*
X4202380Y-5857200D02*
X4249999Y-5809580D01*
X4249999Y-5809580D02*
X4297618Y-5714342D01*
X4297618Y-5714342D02*
X4345237Y-5523866D01*
X4345237Y-5523866D02*
X4345237Y-5285771D01*
X4345237Y-5285771D02*
X4297618Y-5095295D01*
X4297618Y-5095295D02*
X4249999Y-5000057D01*
X4249999Y-5000057D02*
X4202380Y-4952438D01*
X4202380Y-4952438D02*
X4107142Y-4904819D01*
M02*
