%TF.GenerationSoftware,KiCad,Pcbnew,10.0.6*%
%TF.CreationDate,2026-09-20T18:18:46+05:30*%
%TF.ProjectId,Device1,44657669-6365-4312-9e6b-696361645f70,rev?*%
%TF.SameCoordinates,Original*%
%TF.FileFunction,AssemblyDrawing,Top*%
%FSLAX46Y46*%
G04 Gerber Fmt 4.6, Leading zero omitted, Abs format (unit mm)*
G04 Created by KiCad (PCBNEW 10.0.6) date 2026-09-20 18:18:46*
%MOMM*%
%LPD*%
G01*
G04 APERTURE LIST*
%ADD10C,0.040000*%
%ADD11C,0.100000*%
%ADD12C,0.150000*%
%ADD13C,0.110000*%
%ADD14C,0.130000*%
%ADD15C,0.080000*%
G04 APERTURE END LIST*
D10*
X13158333Y-7589765D02*
X13146429Y-7601670D01*
X13146429Y-7601670D02*
X13110714Y-7613574D01*
X13110714Y-7613574D02*
X13086905Y-7613574D01*
X13086905Y-7613574D02*
X13051191Y-7601670D01*
X13051191Y-7601670D02*
X13027381Y-7577860D01*
X13027381Y-7577860D02*
X13015476Y-7554050D01*
X13015476Y-7554050D02*
X13003572Y-7506431D01*
X13003572Y-7506431D02*
X13003572Y-7470717D01*
X13003572Y-7470717D02*
X13015476Y-7423098D01*
X13015476Y-7423098D02*
X13027381Y-7399289D01*
X13027381Y-7399289D02*
X13051191Y-7375479D01*
X13051191Y-7375479D02*
X13086905Y-7363574D01*
X13086905Y-7363574D02*
X13110714Y-7363574D01*
X13110714Y-7363574D02*
X13146429Y-7375479D01*
X13146429Y-7375479D02*
X13158333Y-7387384D01*
X13253572Y-7387384D02*
X13265476Y-7375479D01*
X13265476Y-7375479D02*
X13289286Y-7363574D01*
X13289286Y-7363574D02*
X13348810Y-7363574D01*
X13348810Y-7363574D02*
X13372619Y-7375479D01*
X13372619Y-7375479D02*
X13384524Y-7387384D01*
X13384524Y-7387384D02*
X13396429Y-7411193D01*
X13396429Y-7411193D02*
X13396429Y-7435003D01*
X13396429Y-7435003D02*
X13384524Y-7470717D01*
X13384524Y-7470717D02*
X13241667Y-7613574D01*
X13241667Y-7613574D02*
X13396429Y-7613574D01*
X5363574Y-6841666D02*
X5363574Y-6960714D01*
X5363574Y-6960714D02*
X5113574Y-6960714D01*
X5363574Y-6627380D02*
X5363574Y-6770237D01*
X5363574Y-6698809D02*
X5113574Y-6698809D01*
X5113574Y-6698809D02*
X5149289Y-6722618D01*
X5149289Y-6722618D02*
X5173098Y-6746428D01*
X5173098Y-6746428D02*
X5185003Y-6770237D01*
D11*
X12630952Y-28726109D02*
X12630952Y-28226109D01*
X12630952Y-28226109D02*
X12750000Y-28226109D01*
X12750000Y-28226109D02*
X12821428Y-28249919D01*
X12821428Y-28249919D02*
X12869047Y-28297538D01*
X12869047Y-28297538D02*
X12892857Y-28345157D01*
X12892857Y-28345157D02*
X12916666Y-28440395D01*
X12916666Y-28440395D02*
X12916666Y-28511823D01*
X12916666Y-28511823D02*
X12892857Y-28607061D01*
X12892857Y-28607061D02*
X12869047Y-28654680D01*
X12869047Y-28654680D02*
X12821428Y-28702300D01*
X12821428Y-28702300D02*
X12750000Y-28726109D01*
X12750000Y-28726109D02*
X12630952Y-28726109D01*
X13107143Y-28273728D02*
X13130952Y-28249919D01*
X13130952Y-28249919D02*
X13178571Y-28226109D01*
X13178571Y-28226109D02*
X13297619Y-28226109D01*
X13297619Y-28226109D02*
X13345238Y-28249919D01*
X13345238Y-28249919D02*
X13369047Y-28273728D01*
X13369047Y-28273728D02*
X13392857Y-28321347D01*
X13392857Y-28321347D02*
X13392857Y-28368966D01*
X13392857Y-28368966D02*
X13369047Y-28440395D01*
X13369047Y-28440395D02*
X13083333Y-28726109D01*
X13083333Y-28726109D02*
X13392857Y-28726109D01*
D10*
X3639285Y-6889765D02*
X3627381Y-6901670D01*
X3627381Y-6901670D02*
X3591666Y-6913574D01*
X3591666Y-6913574D02*
X3567857Y-6913574D01*
X3567857Y-6913574D02*
X3532143Y-6901670D01*
X3532143Y-6901670D02*
X3508333Y-6877860D01*
X3508333Y-6877860D02*
X3496428Y-6854050D01*
X3496428Y-6854050D02*
X3484524Y-6806431D01*
X3484524Y-6806431D02*
X3484524Y-6770717D01*
X3484524Y-6770717D02*
X3496428Y-6723098D01*
X3496428Y-6723098D02*
X3508333Y-6699289D01*
X3508333Y-6699289D02*
X3532143Y-6675479D01*
X3532143Y-6675479D02*
X3567857Y-6663574D01*
X3567857Y-6663574D02*
X3591666Y-6663574D01*
X3591666Y-6663574D02*
X3627381Y-6675479D01*
X3627381Y-6675479D02*
X3639285Y-6687384D01*
X3877381Y-6913574D02*
X3734524Y-6913574D01*
X3805952Y-6913574D02*
X3805952Y-6663574D01*
X3805952Y-6663574D02*
X3782143Y-6699289D01*
X3782143Y-6699289D02*
X3758333Y-6723098D01*
X3758333Y-6723098D02*
X3734524Y-6735003D01*
X3960714Y-6663574D02*
X4115476Y-6663574D01*
X4115476Y-6663574D02*
X4032142Y-6758812D01*
X4032142Y-6758812D02*
X4067857Y-6758812D01*
X4067857Y-6758812D02*
X4091666Y-6770717D01*
X4091666Y-6770717D02*
X4103571Y-6782622D01*
X4103571Y-6782622D02*
X4115476Y-6806431D01*
X4115476Y-6806431D02*
X4115476Y-6865955D01*
X4115476Y-6865955D02*
X4103571Y-6889765D01*
X4103571Y-6889765D02*
X4091666Y-6901670D01*
X4091666Y-6901670D02*
X4067857Y-6913574D01*
X4067857Y-6913574D02*
X3996428Y-6913574D01*
X3996428Y-6913574D02*
X3972619Y-6901670D01*
X3972619Y-6901670D02*
X3960714Y-6889765D01*
X8589765Y-7660714D02*
X8601670Y-7672618D01*
X8601670Y-7672618D02*
X8613574Y-7708333D01*
X8613574Y-7708333D02*
X8613574Y-7732142D01*
X8613574Y-7732142D02*
X8601670Y-7767856D01*
X8601670Y-7767856D02*
X8577860Y-7791666D01*
X8577860Y-7791666D02*
X8554050Y-7803571D01*
X8554050Y-7803571D02*
X8506431Y-7815475D01*
X8506431Y-7815475D02*
X8470717Y-7815475D01*
X8470717Y-7815475D02*
X8423098Y-7803571D01*
X8423098Y-7803571D02*
X8399289Y-7791666D01*
X8399289Y-7791666D02*
X8375479Y-7767856D01*
X8375479Y-7767856D02*
X8363574Y-7732142D01*
X8363574Y-7732142D02*
X8363574Y-7708333D01*
X8363574Y-7708333D02*
X8375479Y-7672618D01*
X8375479Y-7672618D02*
X8387384Y-7660714D01*
X8613574Y-7422618D02*
X8613574Y-7565475D01*
X8613574Y-7494047D02*
X8363574Y-7494047D01*
X8363574Y-7494047D02*
X8399289Y-7517856D01*
X8399289Y-7517856D02*
X8423098Y-7541666D01*
X8423098Y-7541666D02*
X8435003Y-7565475D01*
X8613574Y-7184523D02*
X8613574Y-7327380D01*
X8613574Y-7255952D02*
X8363574Y-7255952D01*
X8363574Y-7255952D02*
X8399289Y-7279761D01*
X8399289Y-7279761D02*
X8423098Y-7303571D01*
X8423098Y-7303571D02*
X8435003Y-7327380D01*
X10456667Y-27618200D02*
X10370000Y-27494391D01*
X10308095Y-27618200D02*
X10308095Y-27358200D01*
X10308095Y-27358200D02*
X10407143Y-27358200D01*
X10407143Y-27358200D02*
X10431905Y-27370581D01*
X10431905Y-27370581D02*
X10444286Y-27382962D01*
X10444286Y-27382962D02*
X10456667Y-27407724D01*
X10456667Y-27407724D02*
X10456667Y-27444867D01*
X10456667Y-27444867D02*
X10444286Y-27469629D01*
X10444286Y-27469629D02*
X10431905Y-27482010D01*
X10431905Y-27482010D02*
X10407143Y-27494391D01*
X10407143Y-27494391D02*
X10308095Y-27494391D01*
X10679524Y-27358200D02*
X10630000Y-27358200D01*
X10630000Y-27358200D02*
X10605238Y-27370581D01*
X10605238Y-27370581D02*
X10592857Y-27382962D01*
X10592857Y-27382962D02*
X10568095Y-27420105D01*
X10568095Y-27420105D02*
X10555714Y-27469629D01*
X10555714Y-27469629D02*
X10555714Y-27568677D01*
X10555714Y-27568677D02*
X10568095Y-27593439D01*
X10568095Y-27593439D02*
X10580476Y-27605820D01*
X10580476Y-27605820D02*
X10605238Y-27618200D01*
X10605238Y-27618200D02*
X10654762Y-27618200D01*
X10654762Y-27618200D02*
X10679524Y-27605820D01*
X10679524Y-27605820D02*
X10691905Y-27593439D01*
X10691905Y-27593439D02*
X10704286Y-27568677D01*
X10704286Y-27568677D02*
X10704286Y-27506772D01*
X10704286Y-27506772D02*
X10691905Y-27482010D01*
X10691905Y-27482010D02*
X10679524Y-27469629D01*
X10679524Y-27469629D02*
X10654762Y-27457248D01*
X10654762Y-27457248D02*
X10605238Y-27457248D01*
X10605238Y-27457248D02*
X10580476Y-27469629D01*
X10580476Y-27469629D02*
X10568095Y-27482010D01*
X10568095Y-27482010D02*
X10555714Y-27506772D01*
D12*
X5880952Y-2169104D02*
X6357142Y-2169104D01*
X5785714Y-2454819D02*
X6119047Y-1454819D01*
X6119047Y-1454819D02*
X6452380Y-2454819D01*
X6785714Y-2454819D02*
X6785714Y-1454819D01*
X6785714Y-1454819D02*
X7357142Y-2454819D01*
X7357142Y-2454819D02*
X7357142Y-1454819D01*
X7690476Y-1454819D02*
X8261904Y-1454819D01*
X7976190Y-2454819D02*
X7976190Y-1454819D01*
X9119047Y-2454819D02*
X8547619Y-2454819D01*
X8833333Y-2454819D02*
X8833333Y-1454819D01*
X8833333Y-1454819D02*
X8738095Y-1597676D01*
X8738095Y-1597676D02*
X8642857Y-1692914D01*
X8642857Y-1692914D02*
X8547619Y-1740533D01*
D10*
X7368200Y-7543332D02*
X7244391Y-7629999D01*
X7368200Y-7691904D02*
X7108200Y-7691904D01*
X7108200Y-7691904D02*
X7108200Y-7592856D01*
X7108200Y-7592856D02*
X7120581Y-7568094D01*
X7120581Y-7568094D02*
X7132962Y-7555713D01*
X7132962Y-7555713D02*
X7157724Y-7543332D01*
X7157724Y-7543332D02*
X7194867Y-7543332D01*
X7194867Y-7543332D02*
X7219629Y-7555713D01*
X7219629Y-7555713D02*
X7232010Y-7568094D01*
X7232010Y-7568094D02*
X7244391Y-7592856D01*
X7244391Y-7592856D02*
X7244391Y-7691904D01*
X7368200Y-7295713D02*
X7368200Y-7444285D01*
X7368200Y-7369999D02*
X7108200Y-7369999D01*
X7108200Y-7369999D02*
X7145343Y-7394761D01*
X7145343Y-7394761D02*
X7170105Y-7419523D01*
X7170105Y-7419523D02*
X7182486Y-7444285D01*
X1639285Y-28589765D02*
X1627381Y-28601670D01*
X1627381Y-28601670D02*
X1591666Y-28613574D01*
X1591666Y-28613574D02*
X1567857Y-28613574D01*
X1567857Y-28613574D02*
X1532143Y-28601670D01*
X1532143Y-28601670D02*
X1508333Y-28577860D01*
X1508333Y-28577860D02*
X1496428Y-28554050D01*
X1496428Y-28554050D02*
X1484524Y-28506431D01*
X1484524Y-28506431D02*
X1484524Y-28470717D01*
X1484524Y-28470717D02*
X1496428Y-28423098D01*
X1496428Y-28423098D02*
X1508333Y-28399289D01*
X1508333Y-28399289D02*
X1532143Y-28375479D01*
X1532143Y-28375479D02*
X1567857Y-28363574D01*
X1567857Y-28363574D02*
X1591666Y-28363574D01*
X1591666Y-28363574D02*
X1627381Y-28375479D01*
X1627381Y-28375479D02*
X1639285Y-28387384D01*
X1877381Y-28613574D02*
X1734524Y-28613574D01*
X1805952Y-28613574D02*
X1805952Y-28363574D01*
X1805952Y-28363574D02*
X1782143Y-28399289D01*
X1782143Y-28399289D02*
X1758333Y-28423098D01*
X1758333Y-28423098D02*
X1734524Y-28435003D01*
X2091666Y-28363574D02*
X2044047Y-28363574D01*
X2044047Y-28363574D02*
X2020238Y-28375479D01*
X2020238Y-28375479D02*
X2008333Y-28387384D01*
X2008333Y-28387384D02*
X1984523Y-28423098D01*
X1984523Y-28423098D02*
X1972619Y-28470717D01*
X1972619Y-28470717D02*
X1972619Y-28565955D01*
X1972619Y-28565955D02*
X1984523Y-28589765D01*
X1984523Y-28589765D02*
X1996428Y-28601670D01*
X1996428Y-28601670D02*
X2020238Y-28613574D01*
X2020238Y-28613574D02*
X2067857Y-28613574D01*
X2067857Y-28613574D02*
X2091666Y-28601670D01*
X2091666Y-28601670D02*
X2103571Y-28589765D01*
X2103571Y-28589765D02*
X2115476Y-28565955D01*
X2115476Y-28565955D02*
X2115476Y-28506431D01*
X2115476Y-28506431D02*
X2103571Y-28482622D01*
X2103571Y-28482622D02*
X2091666Y-28470717D01*
X2091666Y-28470717D02*
X2067857Y-28458812D01*
X2067857Y-28458812D02*
X2020238Y-28458812D01*
X2020238Y-28458812D02*
X1996428Y-28470717D01*
X1996428Y-28470717D02*
X1984523Y-28482622D01*
X1984523Y-28482622D02*
X1972619Y-28506431D01*
X12039285Y-17889765D02*
X12027381Y-17901670D01*
X12027381Y-17901670D02*
X11991666Y-17913574D01*
X11991666Y-17913574D02*
X11967857Y-17913574D01*
X11967857Y-17913574D02*
X11932143Y-17901670D01*
X11932143Y-17901670D02*
X11908333Y-17877860D01*
X11908333Y-17877860D02*
X11896428Y-17854050D01*
X11896428Y-17854050D02*
X11884524Y-17806431D01*
X11884524Y-17806431D02*
X11884524Y-17770717D01*
X11884524Y-17770717D02*
X11896428Y-17723098D01*
X11896428Y-17723098D02*
X11908333Y-17699289D01*
X11908333Y-17699289D02*
X11932143Y-17675479D01*
X11932143Y-17675479D02*
X11967857Y-17663574D01*
X11967857Y-17663574D02*
X11991666Y-17663574D01*
X11991666Y-17663574D02*
X12027381Y-17675479D01*
X12027381Y-17675479D02*
X12039285Y-17687384D01*
X12277381Y-17913574D02*
X12134524Y-17913574D01*
X12205952Y-17913574D02*
X12205952Y-17663574D01*
X12205952Y-17663574D02*
X12182143Y-17699289D01*
X12182143Y-17699289D02*
X12158333Y-17723098D01*
X12158333Y-17723098D02*
X12134524Y-17735003D01*
X12360714Y-17663574D02*
X12527380Y-17663574D01*
X12527380Y-17663574D02*
X12420238Y-17913574D01*
X5368200Y-5165237D02*
X5244391Y-5251904D01*
X5368200Y-5313809D02*
X5108200Y-5313809D01*
X5108200Y-5313809D02*
X5108200Y-5214761D01*
X5108200Y-5214761D02*
X5120581Y-5189999D01*
X5120581Y-5189999D02*
X5132962Y-5177618D01*
X5132962Y-5177618D02*
X5157724Y-5165237D01*
X5157724Y-5165237D02*
X5194867Y-5165237D01*
X5194867Y-5165237D02*
X5219629Y-5177618D01*
X5219629Y-5177618D02*
X5232010Y-5189999D01*
X5232010Y-5189999D02*
X5244391Y-5214761D01*
X5244391Y-5214761D02*
X5244391Y-5313809D01*
X5392962Y-5115714D02*
X5392962Y-4917618D01*
X5293915Y-4868095D02*
X5293915Y-4744285D01*
X5368200Y-4892857D02*
X5108200Y-4806190D01*
X5108200Y-4806190D02*
X5368200Y-4719523D01*
X5368200Y-4632857D02*
X5108200Y-4632857D01*
X5108200Y-4632857D02*
X5368200Y-4484285D01*
X5368200Y-4484285D02*
X5108200Y-4484285D01*
X5108200Y-4397619D02*
X5108200Y-4249047D01*
X5368200Y-4323333D02*
X5108200Y-4323333D01*
X3639285Y-5289765D02*
X3627381Y-5301670D01*
X3627381Y-5301670D02*
X3591666Y-5313574D01*
X3591666Y-5313574D02*
X3567857Y-5313574D01*
X3567857Y-5313574D02*
X3532143Y-5301670D01*
X3532143Y-5301670D02*
X3508333Y-5277860D01*
X3508333Y-5277860D02*
X3496428Y-5254050D01*
X3496428Y-5254050D02*
X3484524Y-5206431D01*
X3484524Y-5206431D02*
X3484524Y-5170717D01*
X3484524Y-5170717D02*
X3496428Y-5123098D01*
X3496428Y-5123098D02*
X3508333Y-5099289D01*
X3508333Y-5099289D02*
X3532143Y-5075479D01*
X3532143Y-5075479D02*
X3567857Y-5063574D01*
X3567857Y-5063574D02*
X3591666Y-5063574D01*
X3591666Y-5063574D02*
X3627381Y-5075479D01*
X3627381Y-5075479D02*
X3639285Y-5087384D01*
X3877381Y-5313574D02*
X3734524Y-5313574D01*
X3805952Y-5313574D02*
X3805952Y-5063574D01*
X3805952Y-5063574D02*
X3782143Y-5099289D01*
X3782143Y-5099289D02*
X3758333Y-5123098D01*
X3758333Y-5123098D02*
X3734524Y-5135003D01*
X4091666Y-5146908D02*
X4091666Y-5313574D01*
X4032142Y-5051670D02*
X3972619Y-5230241D01*
X3972619Y-5230241D02*
X4127380Y-5230241D01*
X6889765Y-18560714D02*
X6901670Y-18572618D01*
X6901670Y-18572618D02*
X6913574Y-18608333D01*
X6913574Y-18608333D02*
X6913574Y-18632142D01*
X6913574Y-18632142D02*
X6901670Y-18667856D01*
X6901670Y-18667856D02*
X6877860Y-18691666D01*
X6877860Y-18691666D02*
X6854050Y-18703571D01*
X6854050Y-18703571D02*
X6806431Y-18715475D01*
X6806431Y-18715475D02*
X6770717Y-18715475D01*
X6770717Y-18715475D02*
X6723098Y-18703571D01*
X6723098Y-18703571D02*
X6699289Y-18691666D01*
X6699289Y-18691666D02*
X6675479Y-18667856D01*
X6675479Y-18667856D02*
X6663574Y-18632142D01*
X6663574Y-18632142D02*
X6663574Y-18608333D01*
X6663574Y-18608333D02*
X6675479Y-18572618D01*
X6675479Y-18572618D02*
X6687384Y-18560714D01*
X6687384Y-18465475D02*
X6675479Y-18453571D01*
X6675479Y-18453571D02*
X6663574Y-18429761D01*
X6663574Y-18429761D02*
X6663574Y-18370237D01*
X6663574Y-18370237D02*
X6675479Y-18346428D01*
X6675479Y-18346428D02*
X6687384Y-18334523D01*
X6687384Y-18334523D02*
X6711193Y-18322618D01*
X6711193Y-18322618D02*
X6735003Y-18322618D01*
X6735003Y-18322618D02*
X6770717Y-18334523D01*
X6770717Y-18334523D02*
X6913574Y-18477380D01*
X6913574Y-18477380D02*
X6913574Y-18322618D01*
X6913574Y-18084523D02*
X6913574Y-18227380D01*
X6913574Y-18155952D02*
X6663574Y-18155952D01*
X6663574Y-18155952D02*
X6699289Y-18179761D01*
X6699289Y-18179761D02*
X6723098Y-18203571D01*
X6723098Y-18203571D02*
X6735003Y-18227380D01*
D13*
X2607365Y-20748571D02*
X3190222Y-20748571D01*
X3190222Y-20748571D02*
X3258794Y-20714285D01*
X3258794Y-20714285D02*
X3293080Y-20680000D01*
X3293080Y-20680000D02*
X3327365Y-20611428D01*
X3327365Y-20611428D02*
X3327365Y-20474285D01*
X3327365Y-20474285D02*
X3293080Y-20405714D01*
X3293080Y-20405714D02*
X3258794Y-20371428D01*
X3258794Y-20371428D02*
X3190222Y-20337142D01*
X3190222Y-20337142D02*
X2607365Y-20337142D01*
X2607365Y-19651428D02*
X2607365Y-19994285D01*
X2607365Y-19994285D02*
X2950222Y-20028571D01*
X2950222Y-20028571D02*
X2915937Y-19994285D01*
X2915937Y-19994285D02*
X2881651Y-19925714D01*
X2881651Y-19925714D02*
X2881651Y-19754285D01*
X2881651Y-19754285D02*
X2915937Y-19685714D01*
X2915937Y-19685714D02*
X2950222Y-19651428D01*
X2950222Y-19651428D02*
X3018794Y-19617142D01*
X3018794Y-19617142D02*
X3190222Y-19617142D01*
X3190222Y-19617142D02*
X3258794Y-19651428D01*
X3258794Y-19651428D02*
X3293080Y-19685714D01*
X3293080Y-19685714D02*
X3327365Y-19754285D01*
X3327365Y-19754285D02*
X3327365Y-19925714D01*
X3327365Y-19925714D02*
X3293080Y-19994285D01*
X3293080Y-19994285D02*
X3258794Y-20028571D01*
D12*
X6761905Y-19804819D02*
X6761905Y-18804819D01*
X6761905Y-18804819D02*
X7000000Y-18804819D01*
X7000000Y-18804819D02*
X7142857Y-18852438D01*
X7142857Y-18852438D02*
X7238095Y-18947676D01*
X7238095Y-18947676D02*
X7285714Y-19042914D01*
X7285714Y-19042914D02*
X7333333Y-19233390D01*
X7333333Y-19233390D02*
X7333333Y-19376247D01*
X7333333Y-19376247D02*
X7285714Y-19566723D01*
X7285714Y-19566723D02*
X7238095Y-19661961D01*
X7238095Y-19661961D02*
X7142857Y-19757200D01*
X7142857Y-19757200D02*
X7000000Y-19804819D01*
X7000000Y-19804819D02*
X6761905Y-19804819D01*
X8285714Y-19804819D02*
X7714286Y-19804819D01*
X8000000Y-19804819D02*
X8000000Y-18804819D01*
X8000000Y-18804819D02*
X7904762Y-18947676D01*
X7904762Y-18947676D02*
X7809524Y-19042914D01*
X7809524Y-19042914D02*
X7714286Y-19090533D01*
D10*
X1758333Y-12889765D02*
X1746429Y-12901670D01*
X1746429Y-12901670D02*
X1710714Y-12913574D01*
X1710714Y-12913574D02*
X1686905Y-12913574D01*
X1686905Y-12913574D02*
X1651191Y-12901670D01*
X1651191Y-12901670D02*
X1627381Y-12877860D01*
X1627381Y-12877860D02*
X1615476Y-12854050D01*
X1615476Y-12854050D02*
X1603572Y-12806431D01*
X1603572Y-12806431D02*
X1603572Y-12770717D01*
X1603572Y-12770717D02*
X1615476Y-12723098D01*
X1615476Y-12723098D02*
X1627381Y-12699289D01*
X1627381Y-12699289D02*
X1651191Y-12675479D01*
X1651191Y-12675479D02*
X1686905Y-12663574D01*
X1686905Y-12663574D02*
X1710714Y-12663574D01*
X1710714Y-12663574D02*
X1746429Y-12675479D01*
X1746429Y-12675479D02*
X1758333Y-12687384D01*
X1841667Y-12663574D02*
X2008333Y-12663574D01*
X2008333Y-12663574D02*
X1901191Y-12913574D01*
X13158333Y-5589765D02*
X13146429Y-5601670D01*
X13146429Y-5601670D02*
X13110714Y-5613574D01*
X13110714Y-5613574D02*
X13086905Y-5613574D01*
X13086905Y-5613574D02*
X13051191Y-5601670D01*
X13051191Y-5601670D02*
X13027381Y-5577860D01*
X13027381Y-5577860D02*
X13015476Y-5554050D01*
X13015476Y-5554050D02*
X13003572Y-5506431D01*
X13003572Y-5506431D02*
X13003572Y-5470717D01*
X13003572Y-5470717D02*
X13015476Y-5423098D01*
X13015476Y-5423098D02*
X13027381Y-5399289D01*
X13027381Y-5399289D02*
X13051191Y-5375479D01*
X13051191Y-5375479D02*
X13086905Y-5363574D01*
X13086905Y-5363574D02*
X13110714Y-5363574D01*
X13110714Y-5363574D02*
X13146429Y-5375479D01*
X13146429Y-5375479D02*
X13158333Y-5387384D01*
X13241667Y-5363574D02*
X13396429Y-5363574D01*
X13396429Y-5363574D02*
X13313095Y-5458812D01*
X13313095Y-5458812D02*
X13348810Y-5458812D01*
X13348810Y-5458812D02*
X13372619Y-5470717D01*
X13372619Y-5470717D02*
X13384524Y-5482622D01*
X13384524Y-5482622D02*
X13396429Y-5506431D01*
X13396429Y-5506431D02*
X13396429Y-5565955D01*
X13396429Y-5565955D02*
X13384524Y-5589765D01*
X13384524Y-5589765D02*
X13372619Y-5601670D01*
X13372619Y-5601670D02*
X13348810Y-5613574D01*
X13348810Y-5613574D02*
X13277381Y-5613574D01*
X13277381Y-5613574D02*
X13253572Y-5601670D01*
X13253572Y-5601670D02*
X13241667Y-5589765D01*
X13158333Y-9589765D02*
X13146429Y-9601670D01*
X13146429Y-9601670D02*
X13110714Y-9613574D01*
X13110714Y-9613574D02*
X13086905Y-9613574D01*
X13086905Y-9613574D02*
X13051191Y-9601670D01*
X13051191Y-9601670D02*
X13027381Y-9577860D01*
X13027381Y-9577860D02*
X13015476Y-9554050D01*
X13015476Y-9554050D02*
X13003572Y-9506431D01*
X13003572Y-9506431D02*
X13003572Y-9470717D01*
X13003572Y-9470717D02*
X13015476Y-9423098D01*
X13015476Y-9423098D02*
X13027381Y-9399289D01*
X13027381Y-9399289D02*
X13051191Y-9375479D01*
X13051191Y-9375479D02*
X13086905Y-9363574D01*
X13086905Y-9363574D02*
X13110714Y-9363574D01*
X13110714Y-9363574D02*
X13146429Y-9375479D01*
X13146429Y-9375479D02*
X13158333Y-9387384D01*
X13384524Y-9363574D02*
X13265476Y-9363574D01*
X13265476Y-9363574D02*
X13253572Y-9482622D01*
X13253572Y-9482622D02*
X13265476Y-9470717D01*
X13265476Y-9470717D02*
X13289286Y-9458812D01*
X13289286Y-9458812D02*
X13348810Y-9458812D01*
X13348810Y-9458812D02*
X13372619Y-9470717D01*
X13372619Y-9470717D02*
X13384524Y-9482622D01*
X13384524Y-9482622D02*
X13396429Y-9506431D01*
X13396429Y-9506431D02*
X13396429Y-9565955D01*
X13396429Y-9565955D02*
X13384524Y-9589765D01*
X13384524Y-9589765D02*
X13372619Y-9601670D01*
X13372619Y-9601670D02*
X13348810Y-9613574D01*
X13348810Y-9613574D02*
X13289286Y-9613574D01*
X13289286Y-9613574D02*
X13265476Y-9601670D01*
X13265476Y-9601670D02*
X13253572Y-9589765D01*
X13039285Y-13589765D02*
X13027381Y-13601670D01*
X13027381Y-13601670D02*
X12991666Y-13613574D01*
X12991666Y-13613574D02*
X12967857Y-13613574D01*
X12967857Y-13613574D02*
X12932143Y-13601670D01*
X12932143Y-13601670D02*
X12908333Y-13577860D01*
X12908333Y-13577860D02*
X12896428Y-13554050D01*
X12896428Y-13554050D02*
X12884524Y-13506431D01*
X12884524Y-13506431D02*
X12884524Y-13470717D01*
X12884524Y-13470717D02*
X12896428Y-13423098D01*
X12896428Y-13423098D02*
X12908333Y-13399289D01*
X12908333Y-13399289D02*
X12932143Y-13375479D01*
X12932143Y-13375479D02*
X12967857Y-13363574D01*
X12967857Y-13363574D02*
X12991666Y-13363574D01*
X12991666Y-13363574D02*
X13027381Y-13375479D01*
X13027381Y-13375479D02*
X13039285Y-13387384D01*
X13277381Y-13613574D02*
X13134524Y-13613574D01*
X13205952Y-13613574D02*
X13205952Y-13363574D01*
X13205952Y-13363574D02*
X13182143Y-13399289D01*
X13182143Y-13399289D02*
X13158333Y-13423098D01*
X13158333Y-13423098D02*
X13134524Y-13435003D01*
X13420238Y-13470717D02*
X13396428Y-13458812D01*
X13396428Y-13458812D02*
X13384523Y-13446908D01*
X13384523Y-13446908D02*
X13372619Y-13423098D01*
X13372619Y-13423098D02*
X13372619Y-13411193D01*
X13372619Y-13411193D02*
X13384523Y-13387384D01*
X13384523Y-13387384D02*
X13396428Y-13375479D01*
X13396428Y-13375479D02*
X13420238Y-13363574D01*
X13420238Y-13363574D02*
X13467857Y-13363574D01*
X13467857Y-13363574D02*
X13491666Y-13375479D01*
X13491666Y-13375479D02*
X13503571Y-13387384D01*
X13503571Y-13387384D02*
X13515476Y-13411193D01*
X13515476Y-13411193D02*
X13515476Y-13423098D01*
X13515476Y-13423098D02*
X13503571Y-13446908D01*
X13503571Y-13446908D02*
X13491666Y-13458812D01*
X13491666Y-13458812D02*
X13467857Y-13470717D01*
X13467857Y-13470717D02*
X13420238Y-13470717D01*
X13420238Y-13470717D02*
X13396428Y-13482622D01*
X13396428Y-13482622D02*
X13384523Y-13494527D01*
X13384523Y-13494527D02*
X13372619Y-13518336D01*
X13372619Y-13518336D02*
X13372619Y-13565955D01*
X13372619Y-13565955D02*
X13384523Y-13589765D01*
X13384523Y-13589765D02*
X13396428Y-13601670D01*
X13396428Y-13601670D02*
X13420238Y-13613574D01*
X13420238Y-13613574D02*
X13467857Y-13613574D01*
X13467857Y-13613574D02*
X13491666Y-13601670D01*
X13491666Y-13601670D02*
X13503571Y-13589765D01*
X13503571Y-13589765D02*
X13515476Y-13565955D01*
X13515476Y-13565955D02*
X13515476Y-13518336D01*
X13515476Y-13518336D02*
X13503571Y-13494527D01*
X13503571Y-13494527D02*
X13491666Y-13482622D01*
X13491666Y-13482622D02*
X13467857Y-13470717D01*
D13*
X12395937Y-24268571D02*
X12361651Y-24337142D01*
X12361651Y-24337142D02*
X12293080Y-24405714D01*
X12293080Y-24405714D02*
X12190222Y-24508571D01*
X12190222Y-24508571D02*
X12155937Y-24577142D01*
X12155937Y-24577142D02*
X12155937Y-24645714D01*
X12327365Y-24611428D02*
X12293080Y-24680000D01*
X12293080Y-24680000D02*
X12224508Y-24748571D01*
X12224508Y-24748571D02*
X12087365Y-24782857D01*
X12087365Y-24782857D02*
X11847365Y-24782857D01*
X11847365Y-24782857D02*
X11710222Y-24748571D01*
X11710222Y-24748571D02*
X11641651Y-24680000D01*
X11641651Y-24680000D02*
X11607365Y-24611428D01*
X11607365Y-24611428D02*
X11607365Y-24474285D01*
X11607365Y-24474285D02*
X11641651Y-24405714D01*
X11641651Y-24405714D02*
X11710222Y-24337142D01*
X11710222Y-24337142D02*
X11847365Y-24302857D01*
X11847365Y-24302857D02*
X12087365Y-24302857D01*
X12087365Y-24302857D02*
X12224508Y-24337142D01*
X12224508Y-24337142D02*
X12293080Y-24405714D01*
X12293080Y-24405714D02*
X12327365Y-24474285D01*
X12327365Y-24474285D02*
X12327365Y-24611428D01*
X11675937Y-24028571D02*
X11641651Y-23994285D01*
X11641651Y-23994285D02*
X11607365Y-23925714D01*
X11607365Y-23925714D02*
X11607365Y-23754285D01*
X11607365Y-23754285D02*
X11641651Y-23685714D01*
X11641651Y-23685714D02*
X11675937Y-23651428D01*
X11675937Y-23651428D02*
X11744508Y-23617142D01*
X11744508Y-23617142D02*
X11813080Y-23617142D01*
X11813080Y-23617142D02*
X11915937Y-23651428D01*
X11915937Y-23651428D02*
X12327365Y-24062856D01*
X12327365Y-24062856D02*
X12327365Y-23617142D01*
D10*
X1758333Y-14589765D02*
X1746429Y-14601670D01*
X1746429Y-14601670D02*
X1710714Y-14613574D01*
X1710714Y-14613574D02*
X1686905Y-14613574D01*
X1686905Y-14613574D02*
X1651191Y-14601670D01*
X1651191Y-14601670D02*
X1627381Y-14577860D01*
X1627381Y-14577860D02*
X1615476Y-14554050D01*
X1615476Y-14554050D02*
X1603572Y-14506431D01*
X1603572Y-14506431D02*
X1603572Y-14470717D01*
X1603572Y-14470717D02*
X1615476Y-14423098D01*
X1615476Y-14423098D02*
X1627381Y-14399289D01*
X1627381Y-14399289D02*
X1651191Y-14375479D01*
X1651191Y-14375479D02*
X1686905Y-14363574D01*
X1686905Y-14363574D02*
X1710714Y-14363574D01*
X1710714Y-14363574D02*
X1746429Y-14375479D01*
X1746429Y-14375479D02*
X1758333Y-14387384D01*
X1996429Y-14613574D02*
X1853572Y-14613574D01*
X1925000Y-14613574D02*
X1925000Y-14363574D01*
X1925000Y-14363574D02*
X1901191Y-14399289D01*
X1901191Y-14399289D02*
X1877381Y-14423098D01*
X1877381Y-14423098D02*
X1853572Y-14435003D01*
D13*
X2607365Y-24748571D02*
X3190222Y-24748571D01*
X3190222Y-24748571D02*
X3258794Y-24714285D01*
X3258794Y-24714285D02*
X3293080Y-24680000D01*
X3293080Y-24680000D02*
X3327365Y-24611428D01*
X3327365Y-24611428D02*
X3327365Y-24474285D01*
X3327365Y-24474285D02*
X3293080Y-24405714D01*
X3293080Y-24405714D02*
X3258794Y-24371428D01*
X3258794Y-24371428D02*
X3190222Y-24337142D01*
X3190222Y-24337142D02*
X2607365Y-24337142D01*
X2847365Y-23685714D02*
X3327365Y-23685714D01*
X2573080Y-23857142D02*
X3087365Y-24028571D01*
X3087365Y-24028571D02*
X3087365Y-23582856D01*
X7895937Y-24268571D02*
X7861651Y-24337142D01*
X7861651Y-24337142D02*
X7793080Y-24405714D01*
X7793080Y-24405714D02*
X7690222Y-24508571D01*
X7690222Y-24508571D02*
X7655937Y-24577142D01*
X7655937Y-24577142D02*
X7655937Y-24645714D01*
X7827365Y-24611428D02*
X7793080Y-24680000D01*
X7793080Y-24680000D02*
X7724508Y-24748571D01*
X7724508Y-24748571D02*
X7587365Y-24782857D01*
X7587365Y-24782857D02*
X7347365Y-24782857D01*
X7347365Y-24782857D02*
X7210222Y-24748571D01*
X7210222Y-24748571D02*
X7141651Y-24680000D01*
X7141651Y-24680000D02*
X7107365Y-24611428D01*
X7107365Y-24611428D02*
X7107365Y-24474285D01*
X7107365Y-24474285D02*
X7141651Y-24405714D01*
X7141651Y-24405714D02*
X7210222Y-24337142D01*
X7210222Y-24337142D02*
X7347365Y-24302857D01*
X7347365Y-24302857D02*
X7587365Y-24302857D01*
X7587365Y-24302857D02*
X7724508Y-24337142D01*
X7724508Y-24337142D02*
X7793080Y-24405714D01*
X7793080Y-24405714D02*
X7827365Y-24474285D01*
X7827365Y-24474285D02*
X7827365Y-24611428D01*
X7827365Y-23617142D02*
X7827365Y-24028571D01*
X7827365Y-23822856D02*
X7107365Y-23822856D01*
X7107365Y-23822856D02*
X7210222Y-23891428D01*
X7210222Y-23891428D02*
X7278794Y-23959999D01*
X7278794Y-23959999D02*
X7313080Y-24028571D01*
D10*
X13039285Y-15589765D02*
X13027381Y-15601670D01*
X13027381Y-15601670D02*
X12991666Y-15613574D01*
X12991666Y-15613574D02*
X12967857Y-15613574D01*
X12967857Y-15613574D02*
X12932143Y-15601670D01*
X12932143Y-15601670D02*
X12908333Y-15577860D01*
X12908333Y-15577860D02*
X12896428Y-15554050D01*
X12896428Y-15554050D02*
X12884524Y-15506431D01*
X12884524Y-15506431D02*
X12884524Y-15470717D01*
X12884524Y-15470717D02*
X12896428Y-15423098D01*
X12896428Y-15423098D02*
X12908333Y-15399289D01*
X12908333Y-15399289D02*
X12932143Y-15375479D01*
X12932143Y-15375479D02*
X12967857Y-15363574D01*
X12967857Y-15363574D02*
X12991666Y-15363574D01*
X12991666Y-15363574D02*
X13027381Y-15375479D01*
X13027381Y-15375479D02*
X13039285Y-15387384D01*
X13277381Y-15613574D02*
X13134524Y-15613574D01*
X13205952Y-15613574D02*
X13205952Y-15363574D01*
X13205952Y-15363574D02*
X13182143Y-15399289D01*
X13182143Y-15399289D02*
X13158333Y-15423098D01*
X13158333Y-15423098D02*
X13134524Y-15435003D01*
X13432142Y-15363574D02*
X13455952Y-15363574D01*
X13455952Y-15363574D02*
X13479761Y-15375479D01*
X13479761Y-15375479D02*
X13491666Y-15387384D01*
X13491666Y-15387384D02*
X13503571Y-15411193D01*
X13503571Y-15411193D02*
X13515476Y-15458812D01*
X13515476Y-15458812D02*
X13515476Y-15518336D01*
X13515476Y-15518336D02*
X13503571Y-15565955D01*
X13503571Y-15565955D02*
X13491666Y-15589765D01*
X13491666Y-15589765D02*
X13479761Y-15601670D01*
X13479761Y-15601670D02*
X13455952Y-15613574D01*
X13455952Y-15613574D02*
X13432142Y-15613574D01*
X13432142Y-15613574D02*
X13408333Y-15601670D01*
X13408333Y-15601670D02*
X13396428Y-15589765D01*
X13396428Y-15589765D02*
X13384523Y-15565955D01*
X13384523Y-15565955D02*
X13372619Y-15518336D01*
X13372619Y-15518336D02*
X13372619Y-15458812D01*
X13372619Y-15458812D02*
X13384523Y-15411193D01*
X13384523Y-15411193D02*
X13396428Y-15387384D01*
X13396428Y-15387384D02*
X13408333Y-15375479D01*
X13408333Y-15375479D02*
X13432142Y-15363574D01*
X5689765Y-18560714D02*
X5701670Y-18572618D01*
X5701670Y-18572618D02*
X5713574Y-18608333D01*
X5713574Y-18608333D02*
X5713574Y-18632142D01*
X5713574Y-18632142D02*
X5701670Y-18667856D01*
X5701670Y-18667856D02*
X5677860Y-18691666D01*
X5677860Y-18691666D02*
X5654050Y-18703571D01*
X5654050Y-18703571D02*
X5606431Y-18715475D01*
X5606431Y-18715475D02*
X5570717Y-18715475D01*
X5570717Y-18715475D02*
X5523098Y-18703571D01*
X5523098Y-18703571D02*
X5499289Y-18691666D01*
X5499289Y-18691666D02*
X5475479Y-18667856D01*
X5475479Y-18667856D02*
X5463574Y-18632142D01*
X5463574Y-18632142D02*
X5463574Y-18608333D01*
X5463574Y-18608333D02*
X5475479Y-18572618D01*
X5475479Y-18572618D02*
X5487384Y-18560714D01*
X5487384Y-18465475D02*
X5475479Y-18453571D01*
X5475479Y-18453571D02*
X5463574Y-18429761D01*
X5463574Y-18429761D02*
X5463574Y-18370237D01*
X5463574Y-18370237D02*
X5475479Y-18346428D01*
X5475479Y-18346428D02*
X5487384Y-18334523D01*
X5487384Y-18334523D02*
X5511193Y-18322618D01*
X5511193Y-18322618D02*
X5535003Y-18322618D01*
X5535003Y-18322618D02*
X5570717Y-18334523D01*
X5570717Y-18334523D02*
X5713574Y-18477380D01*
X5713574Y-18477380D02*
X5713574Y-18322618D01*
X5463574Y-18167857D02*
X5463574Y-18144047D01*
X5463574Y-18144047D02*
X5475479Y-18120238D01*
X5475479Y-18120238D02*
X5487384Y-18108333D01*
X5487384Y-18108333D02*
X5511193Y-18096428D01*
X5511193Y-18096428D02*
X5558812Y-18084523D01*
X5558812Y-18084523D02*
X5618336Y-18084523D01*
X5618336Y-18084523D02*
X5665955Y-18096428D01*
X5665955Y-18096428D02*
X5689765Y-18108333D01*
X5689765Y-18108333D02*
X5701670Y-18120238D01*
X5701670Y-18120238D02*
X5713574Y-18144047D01*
X5713574Y-18144047D02*
X5713574Y-18167857D01*
X5713574Y-18167857D02*
X5701670Y-18191666D01*
X5701670Y-18191666D02*
X5689765Y-18203571D01*
X5689765Y-18203571D02*
X5665955Y-18215476D01*
X5665955Y-18215476D02*
X5618336Y-18227380D01*
X5618336Y-18227380D02*
X5558812Y-18227380D01*
X5558812Y-18227380D02*
X5511193Y-18215476D01*
X5511193Y-18215476D02*
X5487384Y-18203571D01*
X5487384Y-18203571D02*
X5475479Y-18191666D01*
X5475479Y-18191666D02*
X5463574Y-18167857D01*
X9289765Y-18560714D02*
X9301670Y-18572618D01*
X9301670Y-18572618D02*
X9313574Y-18608333D01*
X9313574Y-18608333D02*
X9313574Y-18632142D01*
X9313574Y-18632142D02*
X9301670Y-18667856D01*
X9301670Y-18667856D02*
X9277860Y-18691666D01*
X9277860Y-18691666D02*
X9254050Y-18703571D01*
X9254050Y-18703571D02*
X9206431Y-18715475D01*
X9206431Y-18715475D02*
X9170717Y-18715475D01*
X9170717Y-18715475D02*
X9123098Y-18703571D01*
X9123098Y-18703571D02*
X9099289Y-18691666D01*
X9099289Y-18691666D02*
X9075479Y-18667856D01*
X9075479Y-18667856D02*
X9063574Y-18632142D01*
X9063574Y-18632142D02*
X9063574Y-18608333D01*
X9063574Y-18608333D02*
X9075479Y-18572618D01*
X9075479Y-18572618D02*
X9087384Y-18560714D01*
X9313574Y-18322618D02*
X9313574Y-18465475D01*
X9313574Y-18394047D02*
X9063574Y-18394047D01*
X9063574Y-18394047D02*
X9099289Y-18417856D01*
X9099289Y-18417856D02*
X9123098Y-18441666D01*
X9123098Y-18441666D02*
X9135003Y-18465475D01*
X9087384Y-18227380D02*
X9075479Y-18215476D01*
X9075479Y-18215476D02*
X9063574Y-18191666D01*
X9063574Y-18191666D02*
X9063574Y-18132142D01*
X9063574Y-18132142D02*
X9075479Y-18108333D01*
X9075479Y-18108333D02*
X9087384Y-18096428D01*
X9087384Y-18096428D02*
X9111193Y-18084523D01*
X9111193Y-18084523D02*
X9135003Y-18084523D01*
X9135003Y-18084523D02*
X9170717Y-18096428D01*
X9170717Y-18096428D02*
X9313574Y-18239285D01*
X9313574Y-18239285D02*
X9313574Y-18084523D01*
X6341905Y-5318200D02*
X6255238Y-5194391D01*
X6193333Y-5318200D02*
X6193333Y-5058200D01*
X6193333Y-5058200D02*
X6292381Y-5058200D01*
X6292381Y-5058200D02*
X6317143Y-5070581D01*
X6317143Y-5070581D02*
X6329524Y-5082962D01*
X6329524Y-5082962D02*
X6341905Y-5107724D01*
X6341905Y-5107724D02*
X6341905Y-5144867D01*
X6341905Y-5144867D02*
X6329524Y-5169629D01*
X6329524Y-5169629D02*
X6317143Y-5182010D01*
X6317143Y-5182010D02*
X6292381Y-5194391D01*
X6292381Y-5194391D02*
X6193333Y-5194391D01*
X6391429Y-5342962D02*
X6589524Y-5342962D01*
X6614285Y-5058200D02*
X6762857Y-5058200D01*
X6688571Y-5318200D02*
X6688571Y-5058200D01*
X6849523Y-5182010D02*
X6936190Y-5182010D01*
X6973333Y-5318200D02*
X6849523Y-5318200D01*
X6849523Y-5318200D02*
X6849523Y-5058200D01*
X6849523Y-5058200D02*
X6973333Y-5058200D01*
X7072380Y-5305820D02*
X7109523Y-5318200D01*
X7109523Y-5318200D02*
X7171428Y-5318200D01*
X7171428Y-5318200D02*
X7196190Y-5305820D01*
X7196190Y-5305820D02*
X7208571Y-5293439D01*
X7208571Y-5293439D02*
X7220952Y-5268677D01*
X7220952Y-5268677D02*
X7220952Y-5243915D01*
X7220952Y-5243915D02*
X7208571Y-5219153D01*
X7208571Y-5219153D02*
X7196190Y-5206772D01*
X7196190Y-5206772D02*
X7171428Y-5194391D01*
X7171428Y-5194391D02*
X7121904Y-5182010D01*
X7121904Y-5182010D02*
X7097142Y-5169629D01*
X7097142Y-5169629D02*
X7084761Y-5157248D01*
X7084761Y-5157248D02*
X7072380Y-5132486D01*
X7072380Y-5132486D02*
X7072380Y-5107724D01*
X7072380Y-5107724D02*
X7084761Y-5082962D01*
X7084761Y-5082962D02*
X7097142Y-5070581D01*
X7097142Y-5070581D02*
X7121904Y-5058200D01*
X7121904Y-5058200D02*
X7183809Y-5058200D01*
X7183809Y-5058200D02*
X7220952Y-5070581D01*
X7295237Y-5058200D02*
X7443809Y-5058200D01*
X7369523Y-5318200D02*
X7369523Y-5058200D01*
D14*
X7863335Y-29557618D02*
X7063335Y-29557618D01*
X7063335Y-29557618D02*
X7634763Y-29290952D01*
X7634763Y-29290952D02*
X7063335Y-29024285D01*
X7063335Y-29024285D02*
X7863335Y-29024285D01*
X7863335Y-28643332D02*
X7063335Y-28643332D01*
X7863335Y-28186189D02*
X7406192Y-28529047D01*
X7063335Y-28186189D02*
X7520478Y-28643332D01*
X7863335Y-27424285D02*
X7863335Y-27881428D01*
X7863335Y-27652856D02*
X7063335Y-27652856D01*
X7063335Y-27652856D02*
X7177620Y-27729047D01*
X7177620Y-27729047D02*
X7253811Y-27805237D01*
X7253811Y-27805237D02*
X7291906Y-27881428D01*
D10*
X10456667Y-29318200D02*
X10370000Y-29194391D01*
X10308095Y-29318200D02*
X10308095Y-29058200D01*
X10308095Y-29058200D02*
X10407143Y-29058200D01*
X10407143Y-29058200D02*
X10431905Y-29070581D01*
X10431905Y-29070581D02*
X10444286Y-29082962D01*
X10444286Y-29082962D02*
X10456667Y-29107724D01*
X10456667Y-29107724D02*
X10456667Y-29144867D01*
X10456667Y-29144867D02*
X10444286Y-29169629D01*
X10444286Y-29169629D02*
X10431905Y-29182010D01*
X10431905Y-29182010D02*
X10407143Y-29194391D01*
X10407143Y-29194391D02*
X10308095Y-29194391D01*
X10543333Y-29058200D02*
X10716667Y-29058200D01*
X10716667Y-29058200D02*
X10605238Y-29318200D01*
D13*
X11607365Y-20748571D02*
X12190222Y-20748571D01*
X12190222Y-20748571D02*
X12258794Y-20714285D01*
X12258794Y-20714285D02*
X12293080Y-20680000D01*
X12293080Y-20680000D02*
X12327365Y-20611428D01*
X12327365Y-20611428D02*
X12327365Y-20474285D01*
X12327365Y-20474285D02*
X12293080Y-20405714D01*
X12293080Y-20405714D02*
X12258794Y-20371428D01*
X12258794Y-20371428D02*
X12190222Y-20337142D01*
X12190222Y-20337142D02*
X11607365Y-20337142D01*
X11675937Y-20028571D02*
X11641651Y-19994285D01*
X11641651Y-19994285D02*
X11607365Y-19925714D01*
X11607365Y-19925714D02*
X11607365Y-19754285D01*
X11607365Y-19754285D02*
X11641651Y-19685714D01*
X11641651Y-19685714D02*
X11675937Y-19651428D01*
X11675937Y-19651428D02*
X11744508Y-19617142D01*
X11744508Y-19617142D02*
X11813080Y-19617142D01*
X11813080Y-19617142D02*
X11915937Y-19651428D01*
X11915937Y-19651428D02*
X12327365Y-20062856D01*
X12327365Y-20062856D02*
X12327365Y-19617142D01*
D10*
X1558333Y-6089765D02*
X1546429Y-6101670D01*
X1546429Y-6101670D02*
X1510714Y-6113574D01*
X1510714Y-6113574D02*
X1486905Y-6113574D01*
X1486905Y-6113574D02*
X1451191Y-6101670D01*
X1451191Y-6101670D02*
X1427381Y-6077860D01*
X1427381Y-6077860D02*
X1415476Y-6054050D01*
X1415476Y-6054050D02*
X1403572Y-6006431D01*
X1403572Y-6006431D02*
X1403572Y-5970717D01*
X1403572Y-5970717D02*
X1415476Y-5923098D01*
X1415476Y-5923098D02*
X1427381Y-5899289D01*
X1427381Y-5899289D02*
X1451191Y-5875479D01*
X1451191Y-5875479D02*
X1486905Y-5863574D01*
X1486905Y-5863574D02*
X1510714Y-5863574D01*
X1510714Y-5863574D02*
X1546429Y-5875479D01*
X1546429Y-5875479D02*
X1558333Y-5887384D01*
X1772619Y-5946908D02*
X1772619Y-6113574D01*
X1713095Y-5851670D02*
X1653572Y-6030241D01*
X1653572Y-6030241D02*
X1808333Y-6030241D01*
X13158333Y-11589765D02*
X13146429Y-11601670D01*
X13146429Y-11601670D02*
X13110714Y-11613574D01*
X13110714Y-11613574D02*
X13086905Y-11613574D01*
X13086905Y-11613574D02*
X13051191Y-11601670D01*
X13051191Y-11601670D02*
X13027381Y-11577860D01*
X13027381Y-11577860D02*
X13015476Y-11554050D01*
X13015476Y-11554050D02*
X13003572Y-11506431D01*
X13003572Y-11506431D02*
X13003572Y-11470717D01*
X13003572Y-11470717D02*
X13015476Y-11423098D01*
X13015476Y-11423098D02*
X13027381Y-11399289D01*
X13027381Y-11399289D02*
X13051191Y-11375479D01*
X13051191Y-11375479D02*
X13086905Y-11363574D01*
X13086905Y-11363574D02*
X13110714Y-11363574D01*
X13110714Y-11363574D02*
X13146429Y-11375479D01*
X13146429Y-11375479D02*
X13158333Y-11387384D01*
X13301191Y-11470717D02*
X13277381Y-11458812D01*
X13277381Y-11458812D02*
X13265476Y-11446908D01*
X13265476Y-11446908D02*
X13253572Y-11423098D01*
X13253572Y-11423098D02*
X13253572Y-11411193D01*
X13253572Y-11411193D02*
X13265476Y-11387384D01*
X13265476Y-11387384D02*
X13277381Y-11375479D01*
X13277381Y-11375479D02*
X13301191Y-11363574D01*
X13301191Y-11363574D02*
X13348810Y-11363574D01*
X13348810Y-11363574D02*
X13372619Y-11375479D01*
X13372619Y-11375479D02*
X13384524Y-11387384D01*
X13384524Y-11387384D02*
X13396429Y-11411193D01*
X13396429Y-11411193D02*
X13396429Y-11423098D01*
X13396429Y-11423098D02*
X13384524Y-11446908D01*
X13384524Y-11446908D02*
X13372619Y-11458812D01*
X13372619Y-11458812D02*
X13348810Y-11470717D01*
X13348810Y-11470717D02*
X13301191Y-11470717D01*
X13301191Y-11470717D02*
X13277381Y-11482622D01*
X13277381Y-11482622D02*
X13265476Y-11494527D01*
X13265476Y-11494527D02*
X13253572Y-11518336D01*
X13253572Y-11518336D02*
X13253572Y-11565955D01*
X13253572Y-11565955D02*
X13265476Y-11589765D01*
X13265476Y-11589765D02*
X13277381Y-11601670D01*
X13277381Y-11601670D02*
X13301191Y-11613574D01*
X13301191Y-11613574D02*
X13348810Y-11613574D01*
X13348810Y-11613574D02*
X13372619Y-11601670D01*
X13372619Y-11601670D02*
X13384524Y-11589765D01*
X13384524Y-11589765D02*
X13396429Y-11565955D01*
X13396429Y-11565955D02*
X13396429Y-11518336D01*
X13396429Y-11518336D02*
X13384524Y-11494527D01*
X13384524Y-11494527D02*
X13372619Y-11482622D01*
X13372619Y-11482622D02*
X13348810Y-11470717D01*
D15*
X1361905Y-9189054D02*
X1361905Y-9427149D01*
X1195239Y-8927149D02*
X1361905Y-9189054D01*
X1361905Y-9189054D02*
X1528572Y-8927149D01*
X1957143Y-9427149D02*
X1671429Y-9427149D01*
X1814286Y-9427149D02*
X1814286Y-8927149D01*
X1814286Y-8927149D02*
X1766667Y-8998578D01*
X1766667Y-8998578D02*
X1719048Y-9046197D01*
X1719048Y-9046197D02*
X1671429Y-9070006D01*
D10*
X1758333Y-17089765D02*
X1746429Y-17101670D01*
X1746429Y-17101670D02*
X1710714Y-17113574D01*
X1710714Y-17113574D02*
X1686905Y-17113574D01*
X1686905Y-17113574D02*
X1651191Y-17101670D01*
X1651191Y-17101670D02*
X1627381Y-17077860D01*
X1627381Y-17077860D02*
X1615476Y-17054050D01*
X1615476Y-17054050D02*
X1603572Y-17006431D01*
X1603572Y-17006431D02*
X1603572Y-16970717D01*
X1603572Y-16970717D02*
X1615476Y-16923098D01*
X1615476Y-16923098D02*
X1627381Y-16899289D01*
X1627381Y-16899289D02*
X1651191Y-16875479D01*
X1651191Y-16875479D02*
X1686905Y-16863574D01*
X1686905Y-16863574D02*
X1710714Y-16863574D01*
X1710714Y-16863574D02*
X1746429Y-16875479D01*
X1746429Y-16875479D02*
X1758333Y-16887384D01*
X1877381Y-17113574D02*
X1925000Y-17113574D01*
X1925000Y-17113574D02*
X1948810Y-17101670D01*
X1948810Y-17101670D02*
X1960714Y-17089765D01*
X1960714Y-17089765D02*
X1984524Y-17054050D01*
X1984524Y-17054050D02*
X1996429Y-17006431D01*
X1996429Y-17006431D02*
X1996429Y-16911193D01*
X1996429Y-16911193D02*
X1984524Y-16887384D01*
X1984524Y-16887384D02*
X1972619Y-16875479D01*
X1972619Y-16875479D02*
X1948810Y-16863574D01*
X1948810Y-16863574D02*
X1901191Y-16863574D01*
X1901191Y-16863574D02*
X1877381Y-16875479D01*
X1877381Y-16875479D02*
X1865476Y-16887384D01*
X1865476Y-16887384D02*
X1853572Y-16911193D01*
X1853572Y-16911193D02*
X1853572Y-16970717D01*
X1853572Y-16970717D02*
X1865476Y-16994527D01*
X1865476Y-16994527D02*
X1877381Y-17006431D01*
X1877381Y-17006431D02*
X1901191Y-17018336D01*
X1901191Y-17018336D02*
X1948810Y-17018336D01*
X1948810Y-17018336D02*
X1972619Y-17006431D01*
X1972619Y-17006431D02*
X1984524Y-16994527D01*
X1984524Y-16994527D02*
X1996429Y-16970717D01*
D12*
X6738095Y-12454819D02*
X6738095Y-13264342D01*
X6738095Y-13264342D02*
X6785714Y-13359580D01*
X6785714Y-13359580D02*
X6833333Y-13407200D01*
X6833333Y-13407200D02*
X6928571Y-13454819D01*
X6928571Y-13454819D02*
X7119047Y-13454819D01*
X7119047Y-13454819D02*
X7214285Y-13407200D01*
X7214285Y-13407200D02*
X7261904Y-13359580D01*
X7261904Y-13359580D02*
X7309523Y-13264342D01*
X7309523Y-13264342D02*
X7309523Y-12454819D01*
X8309523Y-13454819D02*
X7738095Y-13454819D01*
X8023809Y-13454819D02*
X8023809Y-12454819D01*
X8023809Y-12454819D02*
X7928571Y-12597676D01*
X7928571Y-12597676D02*
X7833333Y-12692914D01*
X7833333Y-12692914D02*
X7738095Y-12740533D01*
D10*
X3739285Y-28589765D02*
X3727381Y-28601670D01*
X3727381Y-28601670D02*
X3691666Y-28613574D01*
X3691666Y-28613574D02*
X3667857Y-28613574D01*
X3667857Y-28613574D02*
X3632143Y-28601670D01*
X3632143Y-28601670D02*
X3608333Y-28577860D01*
X3608333Y-28577860D02*
X3596428Y-28554050D01*
X3596428Y-28554050D02*
X3584524Y-28506431D01*
X3584524Y-28506431D02*
X3584524Y-28470717D01*
X3584524Y-28470717D02*
X3596428Y-28423098D01*
X3596428Y-28423098D02*
X3608333Y-28399289D01*
X3608333Y-28399289D02*
X3632143Y-28375479D01*
X3632143Y-28375479D02*
X3667857Y-28363574D01*
X3667857Y-28363574D02*
X3691666Y-28363574D01*
X3691666Y-28363574D02*
X3727381Y-28375479D01*
X3727381Y-28375479D02*
X3739285Y-28387384D01*
X3977381Y-28613574D02*
X3834524Y-28613574D01*
X3905952Y-28613574D02*
X3905952Y-28363574D01*
X3905952Y-28363574D02*
X3882143Y-28399289D01*
X3882143Y-28399289D02*
X3858333Y-28423098D01*
X3858333Y-28423098D02*
X3834524Y-28435003D01*
X4203571Y-28363574D02*
X4084523Y-28363574D01*
X4084523Y-28363574D02*
X4072619Y-28482622D01*
X4072619Y-28482622D02*
X4084523Y-28470717D01*
X4084523Y-28470717D02*
X4108333Y-28458812D01*
X4108333Y-28458812D02*
X4167857Y-28458812D01*
X4167857Y-28458812D02*
X4191666Y-28470717D01*
X4191666Y-28470717D02*
X4203571Y-28482622D01*
X4203571Y-28482622D02*
X4215476Y-28506431D01*
X4215476Y-28506431D02*
X4215476Y-28565955D01*
X4215476Y-28565955D02*
X4203571Y-28589765D01*
X4203571Y-28589765D02*
X4191666Y-28601670D01*
X4191666Y-28601670D02*
X4167857Y-28613574D01*
X4167857Y-28613574D02*
X4108333Y-28613574D01*
X4108333Y-28613574D02*
X4084523Y-28601670D01*
X4084523Y-28601670D02*
X4072619Y-28589765D01*
%TO.C,C2*%
D11*
X12700000Y-7250000D02*
X13700000Y-7250000D01*
X13700000Y-7750000D01*
X12700000Y-7750000D01*
X12700000Y-7250000D01*
%TO.C,L1*%
X5000000Y-6300000D02*
X5500000Y-6300000D01*
X5500000Y-7300000D01*
X5000000Y-7300000D01*
X5000000Y-6300000D01*
%TO.C,D2*%
X11950000Y-28100000D02*
X12300000Y-27750000D01*
X11950000Y-29250000D02*
X11950000Y-28100000D01*
X12300000Y-27750000D02*
X14050000Y-27750000D01*
X14050000Y-27750000D02*
X14050000Y-29250000D01*
X14050000Y-29250000D02*
X11950000Y-29250000D01*
%TO.C,C13*%
X3300000Y-6550000D02*
X4300000Y-6550000D01*
X4300000Y-7050000D01*
X3300000Y-7050000D01*
X3300000Y-6550000D01*
%TO.C,C11*%
X8250000Y-7000000D02*
X8750000Y-7000000D01*
X8750000Y-8000000D01*
X8250000Y-8000000D01*
X8250000Y-7000000D01*
%TO.C,R6*%
X9975000Y-27230000D02*
X11025000Y-27230000D01*
X11025000Y-27770000D01*
X9975000Y-27770000D01*
X9975000Y-27230000D01*
%TO.C,ANT1*%
X4500000Y-1500000D02*
X4500000Y-3000000D01*
X4500000Y-3000000D02*
X10500000Y-3000000D01*
X5000000Y-1000000D02*
X4500000Y-1500000D01*
X10500000Y-1000000D02*
X5000000Y-1000000D01*
X10500000Y-3000000D02*
X10500000Y-1000000D01*
%TO.C,R1*%
X6980000Y-6975000D02*
X7520000Y-6975000D01*
X7520000Y-8025000D01*
X6980000Y-8025000D01*
X6980000Y-6975000D01*
%TO.C,C16*%
X1300000Y-28250000D02*
X2300000Y-28250000D01*
X2300000Y-28750000D01*
X1300000Y-28750000D01*
X1300000Y-28250000D01*
%TO.C,C17*%
X11700000Y-17550000D02*
X12700000Y-17550000D01*
X12700000Y-18050000D01*
X11700000Y-18050000D01*
X11700000Y-17550000D01*
%TO.C,R_ANT*%
X4980000Y-4275000D02*
X5520000Y-4275000D01*
X5520000Y-5325000D01*
X4980000Y-5325000D01*
X4980000Y-4275000D01*
%TO.C,C14*%
X3300000Y-4950000D02*
X4300000Y-4950000D01*
X4300000Y-5450000D01*
X3300000Y-5450000D01*
X3300000Y-4950000D01*
%TO.C,C21*%
X6550000Y-17900000D02*
X7050000Y-17900000D01*
X7050000Y-18900000D01*
X6550000Y-18900000D01*
X6550000Y-17900000D01*
%TO.C,U5*%
X2600000Y-18750000D02*
X3800000Y-18750000D01*
X3800000Y-21650000D01*
X2200000Y-21650000D01*
X2200000Y-19150000D01*
X2600000Y-18750000D01*
%TO.C,D1*%
X6600000Y-20500000D02*
X8400000Y-20500000D01*
X6600000Y-21900000D02*
X6600000Y-20500000D01*
X7200000Y-20850000D02*
X7200000Y-21550000D01*
X7200000Y-21200000D02*
X7000000Y-21200000D01*
X7200000Y-21200000D02*
X7700000Y-20850000D01*
X7700000Y-20850000D02*
X7700000Y-21550000D01*
X7700000Y-21200000D02*
X7950000Y-21200000D01*
X7700000Y-21550000D02*
X7200000Y-21200000D01*
X8400000Y-20500000D02*
X8400000Y-21900000D01*
X8400000Y-21900000D02*
X6600000Y-21900000D01*
%TO.C,C7*%
X1300000Y-12550000D02*
X2300000Y-12550000D01*
X2300000Y-13050000D01*
X1300000Y-13050000D01*
X1300000Y-12550000D01*
%TO.C,C3*%
X12700000Y-5250000D02*
X13700000Y-5250000D01*
X13700000Y-5750000D01*
X12700000Y-5750000D01*
X12700000Y-5250000D01*
%TO.C,C5*%
X12700000Y-9250000D02*
X13700000Y-9250000D01*
X13700000Y-9750000D01*
X12700000Y-9750000D01*
X12700000Y-9250000D01*
%TO.C,C18*%
X12700000Y-13250000D02*
X13700000Y-13250000D01*
X13700000Y-13750000D01*
X12700000Y-13750000D01*
X12700000Y-13250000D01*
%TO.C,Q2*%
X11675000Y-22750000D02*
X12650000Y-22750000D01*
X12650000Y-25650000D01*
X11350000Y-25650000D01*
X11350000Y-23075000D01*
X11675000Y-22750000D01*
%TO.C,C1*%
X1300000Y-14250000D02*
X2300000Y-14250000D01*
X2300000Y-14750000D01*
X1300000Y-14750000D01*
X1300000Y-14250000D01*
%TO.C,U4*%
X2600000Y-22750000D02*
X3800000Y-22750000D01*
X3800000Y-25650000D01*
X2200000Y-25650000D01*
X2200000Y-23150000D01*
X2600000Y-22750000D01*
%TO.C,Q1*%
X7100000Y-22750000D02*
X8300000Y-22750000D01*
X8300000Y-25650000D01*
X6700000Y-25650000D01*
X6700000Y-23150000D01*
X7100000Y-22750000D01*
%TO.C,C10*%
X12700000Y-15250000D02*
X13700000Y-15250000D01*
X13700000Y-15750000D01*
X12700000Y-15750000D01*
X12700000Y-15250000D01*
%TO.C,C20*%
X5350000Y-17900000D02*
X5850000Y-17900000D01*
X5850000Y-18900000D01*
X5350000Y-18900000D01*
X5350000Y-17900000D01*
%TO.C,C12*%
X8950000Y-17900000D02*
X9450000Y-17900000D01*
X9450000Y-18900000D01*
X8950000Y-18900000D01*
X8950000Y-17900000D01*
%TO.C,R_TEST*%
X6275000Y-4930000D02*
X7325000Y-4930000D01*
X7325000Y-5470000D01*
X6275000Y-5470000D01*
X6275000Y-4930000D01*
%TO.C,MK1*%
X6175000Y-27250000D02*
X6175000Y-30250000D01*
X6175000Y-30250000D02*
X8825000Y-30250000D01*
X6675000Y-26750000D02*
X6175000Y-27250000D01*
X8825000Y-26750000D02*
X6675000Y-26750000D01*
X8825000Y-30250000D02*
X8825000Y-26750000D01*
%TO.C,R7*%
X9975000Y-28930000D02*
X11025000Y-28930000D01*
X11025000Y-29470000D01*
X9975000Y-29470000D01*
X9975000Y-28930000D01*
%TO.C,U2*%
X11600000Y-18750000D02*
X12800000Y-18750000D01*
X12800000Y-21650000D01*
X11200000Y-21650000D01*
X11200000Y-19150000D01*
X11600000Y-18750000D01*
%TO.C,C4*%
X1100000Y-5750000D02*
X2100000Y-5750000D01*
X2100000Y-6250000D01*
X1100000Y-6250000D01*
X1100000Y-5750000D01*
%TO.C,C8*%
X12700000Y-11250000D02*
X13700000Y-11250000D01*
X13700000Y-11750000D01*
X12700000Y-11750000D01*
X12700000Y-11250000D01*
%TO.C,Y1*%
X2600000Y-8400000D02*
X2600000Y-10000000D01*
X1000000Y-10000000D01*
X600000Y-9600000D01*
X600000Y-8400000D01*
X2600000Y-8400000D01*
%TO.C,C9*%
X1300000Y-16750000D02*
X2300000Y-16750000D01*
X2300000Y-17250000D01*
X1300000Y-17250000D01*
X1300000Y-16750000D01*
%TO.C,U1*%
X10000000Y-16500000D02*
X4000000Y-16500000D01*
X4000000Y-9500000D01*
X11000000Y-9500000D01*
X11000000Y-15500000D01*
X10000000Y-16500000D01*
%TO.C,C15*%
X3400000Y-28250000D02*
X4400000Y-28250000D01*
X4400000Y-28750000D01*
X3400000Y-28750000D01*
X3400000Y-28250000D01*
%TD*%
M02*
